<svg xmlns="http://www.w3.org/2000/svg" width="1440" height="900" fill="none" viewBox="0 0 1440 900">
  <path fill="#fff" fill-rule="evenodd" d="M1440 0H0v900h8v-15h350v15h8V586h350v314h8V623h350v277h8v-6h350v6h8V0ZM20 30h68v90H20V30Zm338 110H8v466h350V140Zm358 0H366v438h350V140ZM358 614H8v263h350V614Zm716-474H724v234h350V140Zm358 0h-350v234h350V140Zm-358 242H724v233h350V382Zm358 0h-350v233h350V382Zm0 241h-350v263h350V623Z" clip-rule="evenodd"/>
  <path fill="#000" d="M839.22 89v-7.7h5.53v.8h-4.66v2.75h4.16v.8h-4.16V89h-.87Zm7.33 0v-7.7h.87v6.9h4.33v.8h-5.2Zm12.88-1.03a3.74 3.74 0 0 1-2.83 1.16 3.7 3.7 0 0 1-2.82-1.16 3.96 3.96 0 0 1-1.1-2.82 3.92 3.92 0 0 1 3.94-3.98 3.7 3.7 0 0 1 2.82 1.16c.73.78 1.1 1.72 1.1 2.82 0 1.1-.37 2.03-1.11 2.82Zm-4.98-.56c.57.61 1.3.92 2.17.92.88 0 1.6-.3 2.16-.91a3.2 3.2 0 0 0 .86-2.27c0-.89-.3-1.64-.87-2.26a2.83 2.83 0 0 0-2.17-.92c-.87 0-1.6.3-2.17.92a3.23 3.23 0 0 0-.84 2.26c0 .89.28 1.64.86 2.25Zm9.79 1.65-2.75-7.76h.95l2.2 6.41 2.1-6.43h.72l2.12 6.43 2.2-6.41h.9l-2.74 7.76h-.74l-2.11-6.25-2.12 6.25h-.73Zm10.14-.06v-7.7h5.56v.8h-4.7v2.62h4.2v.8h-4.2v2.69H880V89h-5.62Zm7.48 0v-7.7h3.3a3 3 0 0 1 2.2.77c.4.4.59.9.59 1.54 0 .62-.2 1.11-.57 1.5a2.8 2.8 0 0 1-1.52.74l2.36 3.15h-1.06l-2.24-3h-2.2v3h-.87Zm.86-3.77h2.37a2.3 2.3 0 0 0 1.43-.43c.37-.29.55-.68.55-1.18 0-.48-.18-.85-.53-1.11-.34-.27-.82-.4-1.44-.4h-2.38v3.12Zm9.83 3.88a4.58 4.58 0 0 1-3.14-1.23l.54-.64a3.6 3.6 0 0 0 2.64 1.09c.51 0 .93-.12 1.24-.36.32-.25.47-.58.47-.97 0-.38-.14-.67-.41-.9a4.3 4.3 0 0 0-1.59-.56 4.7 4.7 0 0 1-1.98-.8c-.4-.35-.6-.83-.6-1.45 0-.6.24-1.11.71-1.5.48-.4 1.08-.6 1.82-.6a4.2 4.2 0 0 1 2.7.95l-.5.67a3.44 3.44 0 0 0-2.23-.84c-.49 0-.88.12-1.18.36-.3.24-.45.54-.45.9 0 .39.14.69.42.9.3.23.85.43 1.66.6.88.2 1.51.46 1.9.8.41.34.61.8.61 1.4 0 .65-.24 1.18-.73 1.59-.5.4-1.13.59-1.9.59Zm13.47.04-1.2-1.24a3.4 3.4 0 0 1-2.53 1.2c-.7 0-1.28-.2-1.73-.6a2 2 0 0 1-.69-1.58c0-1 .62-1.74 1.86-2.22-.27-.32-.47-.6-.6-.86a2.1 2.1 0 0 1-.17-.86c0-.5.19-.94.56-1.3.39-.35.88-.52 1.48-.52.53 0 .98.17 1.33.52.36.33.54.75.54 1.24 0 .9-.6 1.57-1.82 2l1.76 1.8a9.8 9.8 0 0 0 .93-1.72l.71.33c-.39.83-.76 1.47-1.1 1.93l1.33 1.38-.66.5Zm-3.45-4.72c.99-.33 1.48-.83 1.48-1.48a1.06 1.06 0 0 0-1.09-1.07c-.34 0-.62.1-.84.32a1.1 1.1 0 0 0-.32.82c0 .22.05.44.16.65.11.2.32.45.6.77Zm-.21 3.94c.67 0 1.32-.33 1.92-1l-2.05-2.12c-.5.18-.86.42-1.11.71a1.45 1.45 0 0 0 .09 2c.3.28.68.41 1.15.41Zm9.36.63v-7.7h.87V89h-.87Zm3.24 0v-7.7h.81l4.85 6.17V81.3h.85V89h-.7l-4.97-6.31V89h-.84Zm10.83 0v-6.9h-2.58v-.8h6.05v.8h-2.59V89h-.88Zm5.21 0v-7.7h5.57v.8h-4.7v2.62h4.2v.8h-4.2v2.69h4.75V89H931Zm7.48 0v-7.7h3.31c.95 0 1.68.26 2.19.77.4.4.6.9.6 1.54 0 .62-.2 1.11-.58 1.5a2.8 2.8 0 0 1-1.52.74l2.37 3.15h-1.07l-2.23-3h-2.2v3h-.87Zm.87-3.77h2.36c.59 0 1.07-.15 1.43-.43.37-.29.55-.68.55-1.18 0-.48-.17-.85-.53-1.11-.34-.27-.82-.4-1.44-.4h-2.37v3.12ZM946.6 89v-7.7h.87V89h-.87Zm9.64-1.03a3.73 3.73 0 0 1-2.83 1.16 3.7 3.7 0 0 1-2.81-1.16 3.96 3.96 0 0 1-1.1-2.82 3.92 3.92 0 0 1 3.94-3.98 3.7 3.7 0 0 1 2.81 1.16c.74.78 1.1 1.72 1.1 2.82a4 4 0 0 1-1.1 2.82Zm-4.98-.56c.58.61 1.3.92 2.18.92.87 0 1.59-.3 2.15-.91a3.2 3.2 0 0 0 .86-2.27c0-.89-.29-1.64-.87-2.26a2.83 2.83 0 0 0-2.17-.92c-.87 0-1.6.3-2.16.92a3.2 3.2 0 0 0-.85 2.26c0 .89.29 1.64.86 2.25ZM959.3 89v-7.7h3.32c.94 0 1.67.26 2.18.77.4.4.6.9.6 1.54 0 .62-.2 1.11-.57 1.5a2.8 2.8 0 0 1-1.52.74l2.36 3.15h-1.06l-2.24-3h-2.2v3h-.87Zm.87-3.77h2.37a2.3 2.3 0 0 0 1.43-.43c.37-.29.55-.68.55-1.18 0-.48-.18-.85-.53-1.11-.34-.27-.82-.4-1.44-.4h-2.38v3.12ZM970 89.1a4.58 4.58 0 0 1-3.14-1.23l.54-.64a3.6 3.6 0 0 0 2.64 1.09c.51 0 .93-.12 1.24-.36.32-.25.47-.58.47-.97 0-.38-.14-.67-.41-.9a4.3 4.3 0 0 0-1.59-.56 4.7 4.7 0 0 1-1.98-.8c-.4-.35-.6-.83-.6-1.45 0-.6.24-1.11.71-1.5.48-.4 1.08-.6 1.82-.6a4.2 4.2 0 0 1 2.7.95l-.5.67a3.44 3.44 0 0 0-2.23-.84c-.49 0-.88.12-1.18.36-.3.24-.46.54-.46.9 0 .39.15.69.43.9.3.23.85.43 1.66.6.88.2 1.51.46 1.9.8.41.34.61.8.61 1.4 0 .65-.24 1.18-.73 1.59-.5.4-1.13.59-1.9.59Zm8.14 1.3V80.22h.71v10.19h-.71Zm6.63-1.41v-7.7h5.53v.8h-4.66v2.75h4.16v.8h-4.16V89h-.87Zm10.4.12c-.97 0-1.75-.29-2.33-.87a3.37 3.37 0 0 1-.87-2.47V81.3h.87v4.42c0 .83.2 1.47.62 1.93.42.44 1 .67 1.74.67.72 0 1.3-.22 1.7-.65.41-.43.62-1.06.62-1.9V81.3h.87v4.41c0 1.1-.3 1.94-.87 2.53-.58.59-1.36.88-2.35.88Zm5.38-.12v-7.7h3.31c.95 0 1.68.26 2.19.77.4.4.6.9.6 1.54 0 .62-.2 1.11-.58 1.5-.38.38-.88.63-1.51.74l2.36 3.15h-1.07l-2.23-3h-2.2v3h-.87Zm.87-3.77h2.37c.58 0 1.06-.15 1.43-.43.36-.29.55-.68.55-1.18 0-.48-.18-.85-.53-1.11a2.3 2.3 0 0 0-1.44-.4h-2.38v3.12Zm7.19 3.77v-7.7h.81l4.86 6.17V81.3h.84V89h-.69l-4.97-6.31V89h-.85Zm8.88 0v-7.7h.87V89h-.87Zm5.27 0v-6.9h-2.59v-.8h6.05v.8h-2.58V89h-.88Zm8.29.12c-.98 0-1.76-.29-2.34-.87a3.37 3.37 0 0 1-.87-2.47V81.3h.87v4.42c0 .83.21 1.47.62 1.93.42.44 1 .67 1.74.67.72 0 1.29-.22 1.7-.65.41-.43.62-1.06.62-1.9V81.3h.87v4.41c0 1.1-.29 1.94-.87 2.53-.58.59-1.36.88-2.34.88Zm5.37-.12v-7.7h3.31c.95 0 1.68.26 2.19.77.4.4.6.9.6 1.54a2 2 0 0 1-.58 1.5c-.38.38-.88.63-1.51.74l2.36 3.15h-1.07l-2.23-3h-2.2v3h-.87Zm.87-3.77h2.37c.58 0 1.06-.15 1.43-.43.36-.29.55-.68.55-1.18 0-.48-.18-.85-.53-1.11a2.3 2.3 0 0 0-1.44-.4h-2.38v3.12Zm7.19 3.77v-7.7h5.57v.8h-4.7v2.62h4.2v.8h-4.2v2.69h4.75v.8h-5.62Zm16.44.15-1.21-1.24c-.74.8-1.58 1.2-2.52 1.2-.7 0-1.28-.2-1.73-.6a2 2 0 0 1-.69-1.58c0-1 .62-1.74 1.86-2.22-.27-.32-.47-.6-.59-.86a2.05 2.05 0 0 1-.18-.86c0-.5.19-.94.56-1.3.39-.35.88-.52 1.48-.52.53 0 .98.17 1.33.52.36.33.54.75.54 1.24 0 .9-.61 1.57-1.82 2l1.76 1.8c.33-.48.64-1.06.93-1.72l.71.33c-.39.83-.76 1.47-1.11 1.93l1.34 1.38-.66.5Zm-3.45-4.72c.99-.33 1.48-.83 1.48-1.48 0-.3-.1-.56-.3-.76-.21-.2-.47-.3-.78-.3-.35 0-.63.1-.85.31-.21.21-.32.49-.32.82 0 .22.05.44.16.65.11.2.32.45.61.77Zm-.21 3.94c.67 0 1.32-.33 1.93-1l-2.06-2.12c-.49.18-.86.42-1.11.71-.24.29-.37.6-.37.96 0 .42.15.77.46 1.05.3.27.68.4 1.15.4Zm9.29.63v-7.7h.86v6.9h4.34v.8h-5.2Zm6.99 0v-7.7h.87V89h-.87Zm9.9-1.05a4.5 4.5 0 0 1-3.09 1.18 3.76 3.76 0 0 1-2.85-1.13 4.02 4.02 0 0 1-1.06-2.85 4 4 0 0 1 1.08-2.8 3.62 3.62 0 0 1 2.78-1.18c.61 0 1.14.08 1.58.25.45.17.88.43 1.29.77l-.56.66a3.49 3.49 0 0 0-2.35-.88 2.7 2.7 0 0 0-2.1.94 3.25 3.25 0 0 0-.82 2.24c0 .93.27 1.7.82 2.3.56.6 1.3.9 2.22.9.86 0 1.6-.26 2.23-.77v-1.91h-2.35v-.78h3.18v3.06Zm2.07 1.05v-7.7h.87v3.42h4.45V81.3h.86V89h-.86v-3.47h-4.45V89h-.87Zm10.51 0v-6.9h-2.59v-.8h6.05v.8h-2.58V89h-.88Zm5.28 0v-7.7h.87V89h-.87Zm3.23 0v-7.7h.82l4.85 6.17V81.3h.85V89h-.7l-4.97-6.31V89h-.85Zm15.47-1.05a4.5 4.5 0 0 1-3.09 1.18 3.76 3.76 0 0 1-3.92-3.98c0-1.09.37-2.02 1.09-2.8a3.62 3.62 0 0 1 2.77-1.18c.62 0 1.15.08 1.59.25.45.17.88.43 1.29.77l-.57.66a3.44 3.44 0 0 0-2.34-.88 2.7 2.7 0 0 0-2.1.94 3.25 3.25 0 0 0-.82 2.24c0 .93.27 1.7.82 2.3.56.6 1.3.9 2.22.9a3.4 3.4 0 0 0 2.22-.77v-1.91h-2.34v-.78h3.18v3.06Zm227.99 1.19a3.66 3.66 0 0 1-2.76-1.14 3.93 3.93 0 0 1-1.1-2.84 3.91 3.91 0 0 1 5.54-3.66c.46.2.9.51 1.33.92l-.57.62a3.46 3.46 0 0 0-2.42-1.06c-.85 0-1.56.3-2.13.91a3.2 3.2 0 0 0-.85 2.27c0 .9.29 1.65.86 2.27.57.6 1.28.9 2.12.9a3 3 0 0 0 1.32-.27 4.8 4.8 0 0 0 1.17-.83l.57.6a4.01 4.01 0 0 1-3.08 1.3Zm10.9-1.16a3.75 3.75 0 0 1-2.83 1.16 3.73 3.73 0 0 1-2.82-1.16 3.97 3.97 0 0 1-1.1-2.82c0-1.1.37-2.03 1.12-2.8a3.7 3.7 0 0 1 2.82-1.18c1.15 0 2.08.39 2.82 1.16.73.78 1.1 1.72 1.1 2.82 0 1.1-.37 2.03-1.11 2.82Zm-4.99-.56a2.9 2.9 0 0 0 2.18.92c.87 0 1.59-.3 2.16-.91.57-.62.86-1.38.86-2.27 0-.89-.29-1.64-.87-2.26a2.84 2.84 0 0 0-2.17-.92c-.87 0-1.59.3-2.17.92a3.2 3.2 0 0 0-.84 2.26c0 .89.28 1.64.85 2.25Zm8.04 1.59v-7.7h.81l4.86 6.17V81.3h.84V89h-.69l-4.97-6.31V89h-.85Zm10.84 0v-6.9h-2.59v-.8h6.05v.8h-2.58V89h-.88Zm3.56 0 3.5-7.75h.82l3.51 7.75h-.94l-.9-2.03h-4.19l-.91 2.03h-.89Zm2.14-2.82h3.51l-1.75-3.92-1.76 3.92Zm10.39 2.95a3.7 3.7 0 0 1-2.77-1.14 3.97 3.97 0 0 1-1.1-2.84c0-1.1.37-2.05 1.12-2.82a3.67 3.67 0 0 1 2.78-1.16 3.9 3.9 0 0 1 2.98 1.24l-.57.62a3.46 3.46 0 0 0-2.42-1.06c-.85 0-1.56.3-2.14.91a3.24 3.24 0 0 0-.84 2.27c0 .9.28 1.65.85 2.27.58.6 1.28.9 2.13.9a3 3 0 0 0 1.32-.27c.38-.18.77-.46 1.16-.83l.58.6a4.08 4.08 0 0 1-3.08 1.3Zm6.74-.13v-6.9h-2.58v-.8h6.05v.8h-2.59V89h-.88Z"/>
  <path fill="#3D3D3D" fill-rule="evenodd" d="M1417 71h-91v28h91V71Zm-94-3v34h97V68h-97Z" clip-rule="evenodd"/>
  <path fill="#000" d="m75.85 89 3.51-7.75h.82l3.5 7.75h-.93l-.9-2.03h-4.2l-.9 2.03h-.9ZM78 86.18h3.5l-1.74-3.92L78 86.18ZM86.36 89v-6.9h-2.58v-.8h6.05v.8h-2.59V89h-.88Zm5.2 0v-7.7h.89l2.8 4.2 2.8-4.2h.89V89h-.87v-6.24l-2.8 4.13h-.05l-2.8-4.12V89h-.85Zm16.07-1.03a3.73 3.73 0 0 1-2.83 1.16 3.7 3.7 0 0 1-2.81-1.16 3.96 3.96 0 0 1-1.1-2.82 3.92 3.92 0 0 1 3.94-3.98 3.7 3.7 0 0 1 2.81 1.16c.74.78 1.1 1.72 1.1 2.82a4 4 0 0 1-1.1 2.82Zm-4.98-.56c.58.61 1.3.92 2.18.92.87 0 1.59-.3 2.15-.91a3.2 3.2 0 0 0 .86-2.27c0-.89-.29-1.64-.87-2.26a2.83 2.83 0 0 0-2.17-.92c-.87 0-1.6.3-2.16.92a3.2 3.2 0 0 0-.85 2.26c0 .89.29 1.64.86 2.25Zm10.67 1.7a4.58 4.58 0 0 1-3.14-1.23l.54-.64a3.6 3.6 0 0 0 2.64 1.09c.51 0 .93-.12 1.24-.36.32-.25.47-.58.47-.97 0-.38-.13-.67-.41-.9a4.1 4.1 0 0 0-1.59-.56 4.68 4.68 0 0 1-1.98-.8c-.4-.35-.6-.83-.6-1.45 0-.6.23-1.11.71-1.5.48-.4 1.08-.6 1.82-.6a4.2 4.2 0 0 1 2.7.95l-.5.67a3.44 3.44 0 0 0-2.22-.84c-.5 0-.9.12-1.2.36-.3.24-.44.54-.44.9 0 .39.14.69.42.9.3.23.85.43 1.67.6.87.2 1.5.46 1.9.8.4.34.6.8.6 1.4 0 .65-.24 1.18-.73 1.59-.5.4-1.13.59-1.9.59Zm4.51-.11v-7.7h2.88c.88 0 1.58.22 2.1.66.52.44.78 1.04.78 1.8 0 .8-.28 1.42-.86 1.86-.58.44-1.3.66-2.16.66h-1.87V89h-.87Zm.87-3.5h1.9c.64 0 1.15-.16 1.53-.47.4-.32.59-.73.59-1.25 0-.54-.2-.95-.57-1.24a2.35 2.35 0 0 0-1.5-.44h-1.95v3.4Zm6.59 3.5v-7.7h.87v3.42h4.44V81.3h.87V89h-.87v-3.47h-4.44V89h-.87Zm8.47 0v-7.7h5.56v.8h-4.7v2.62h4.2v.8h-4.2v2.69h4.76V89h-5.62Zm7.48 0v-7.7h3.3a3 3 0 0 1 2.2.77c.4.4.59.9.59 1.54 0 .62-.2 1.11-.57 1.5a2.8 2.8 0 0 1-1.52.74L147.6 89h-1.06l-2.24-3h-2.2v3h-.86Zm.86-3.77h2.37a2.3 2.3 0 0 0 1.43-.43c.37-.29.55-.68.55-1.18 0-.48-.18-.85-.53-1.11-.34-.27-.82-.4-1.44-.4h-2.38v3.12Zm7.2 3.77v-7.7h5.56v.8h-4.7v2.62h4.2v.8h-4.2v2.69h4.75V89h-5.62Z"/>
</svg>
