<svg xmlns="http://www.w3.org/2000/svg" width="1148" height="700" fill="none" viewBox="0 0 1148 700">
  <path fill="#fff" d="M0 74h1148v626H0z"/>
  <path fill="#1A8FE6" d="M786 472.86c0-1.74 0-2.6.35-3.26a3 3 0 0 1 1.25-1.25c.65-.35 1.52-.35 3.26-.35h4.28c1.74 0 2.6 0 3.26.35a3 3 0 0 1 1.25 1.25c.35.65.35 1.52.35 3.26v4.28c0 1.74 0 2.6-.35 3.26a3 3 0 0 1-1.25 1.25c-.65.35-1.52.35-3.26.35h-4.28c-1.74 0-2.6 0-3.26-.35a3 3 0 0 1-1.25-1.25c-.35-.65-.35-1.52-.35-3.26v-4.28Zm-332 152c0-1.74 0-2.6.35-3.26a3 3 0 0 1 1.25-1.25c.65-.35 1.52-.35 3.26-.35h4.28c1.74 0 2.6 0 3.26.35a3 3 0 0 1 1.25 1.25c.35.65.35 1.52.35 3.26v4.28c0 1.74 0 2.6-.35 3.26a3 3 0 0 1-1.25 1.25c-.65.35-1.52.35-3.26.35h-4.28c-1.74 0-2.6 0-3.26-.35a3 3 0 0 1-1.25-1.25c-.35-.65-.35-1.52-.35-3.26v-4.28Zm-336-237c0-1.74 0-2.6.35-3.26a3 3 0 0 1 1.25-1.25c.66-.35 1.52-.35 3.26-.35h4.28c1.74 0 2.6 0 3.26.35a3 3 0 0 1 1.25 1.25c.35.65.35 1.52.35 3.26v4.28c0 1.74 0 2.6-.35 3.26a3 3 0 0 1-1.25 1.25c-.66.35-1.52.35-3.26.35h-4.28c-1.74 0-2.6 0-3.26-.35a3 3 0 0 1-1.25-1.25c-.35-.65-.35-1.52-.35-3.26v-4.28Z"/>
  <path fill="#D9DDE0" fill-rule="evenodd" d="M1022.9 135H462.1c-1.46 0-2.5 0-3.31.07-.8.07-1.28.2-1.66.4a4 4 0 0 0-1.67 1.66c-.2.38-.32.86-.4 1.66-.06.8-.06 1.85-.06 3.31v18.8c0 1.46 0 2.5.07 3.31.07.8.2 1.28.4 1.66a4 4 0 0 0 1.66 1.66c.38.2.86.33 1.66.4.8.07 1.85.07 3.31.07h560.8c1.46 0 2.5 0 3.31-.07.8-.07 1.28-.2 1.66-.4a4.04 4.04 0 0 0 1.67-1.66c.2-.38.32-.86.39-1.66.07-.8.07-1.85.07-3.31v-18.8c0-1.46 0-2.5-.07-3.31a4.31 4.31 0 0 0-.39-1.66 4.04 4.04 0 0 0-1.67-1.66c-.38-.2-.86-.33-1.66-.4-.81-.07-1.85-.07-3.31-.07Zm-568.32 1.66c-.58 1.1-.58 2.55-.58 5.44v18.8c0 2.9 0 4.34.58 5.44a5 5 0 0 0 2.08 2.08c1.1.58 2.54.58 5.44.58h560.8c2.89 0 4.34 0 5.44-.58a4.99 4.99 0 0 0 2.08-2.08c.58-1.1.58-2.55.58-5.44v-18.8c0-2.9 0-4.34-.58-5.44a4.99 4.99 0 0 0-2.08-2.08c-1.1-.58-2.55-.58-5.44-.58H462.1c-2.9 0-4.34 0-5.44.58a5 5 0 0 0-2.08 2.08ZM734.9 322H462.1c-1.46 0-2.5 0-3.31.07-.8.07-1.28.2-1.66.4a4 4 0 0 0-1.67 1.66c-.2.38-.32.86-.4 1.66-.06.8-.06 1.85-.06 3.31v18.8c0 1.46 0 2.5.07 3.31.07.8.2 1.28.4 1.66a4 4 0 0 0 1.66 1.67c.38.2.86.32 1.66.4.8.06 1.85.06 3.31.06h272.8c1.46 0 2.5 0 3.31-.07.8-.07 1.28-.2 1.66-.4a4 4 0 0 0 1.66-1.66c.2-.38.33-.86.4-1.66.07-.8.07-1.85.07-3.31v-18.8c0-1.46 0-2.5-.07-3.31-.07-.8-.2-1.28-.4-1.66a4 4 0 0 0-1.66-1.67c-.38-.2-.86-.32-1.66-.4-.8-.06-1.85-.06-3.31-.06Zm-280.32 1.66c-.58 1.1-.58 2.54-.58 5.44v18.8c0 2.9 0 4.34.58 5.44a5 5 0 0 0 2.08 2.08c1.1.58 2.54.58 5.44.58h272.8c2.9 0 4.34 0 5.44-.58a5 5 0 0 0 2.08-2.08c.58-1.1.58-2.54.58-5.44v-18.8c0-2.9 0-4.34-.58-5.44a5 5 0 0 0-2.08-2.08c-1.1-.58-2.55-.58-5.44-.58H462.1c-2.9 0-4.34 0-5.44.58a5 5 0 0 0-2.08 2.08ZM610.9 468h-98.8c-1.46 0-2.5 0-3.31.07-.8.07-1.28.2-1.66.4a4 4 0 0 0-1.67 1.66c-.2.38-.32.86-.4 1.66-.06.8-.06 1.85-.06 3.31v18.8c0 1.46 0 2.5.07 3.31.07.8.2 1.28.4 1.66a4 4 0 0 0 1.66 1.67c.38.2.86.32 1.66.4.8.06 1.85.06 3.31.06h98.8c1.46 0 2.5 0 3.31-.07.8-.07 1.28-.2 1.66-.4a4 4 0 0 0 1.66-1.66c.2-.38.33-.86.4-1.66.07-.8.07-1.85.07-3.31v-18.8c0-1.46 0-2.5-.07-3.31-.07-.8-.2-1.28-.4-1.66a4 4 0 0 0-1.66-1.67c-.38-.2-.86-.32-1.66-.4-.8-.06-1.85-.06-3.31-.06Zm-106.32 1.66c-.58 1.1-.58 2.54-.58 5.44v18.8c0 2.9 0 4.34.58 5.44a5 5 0 0 0 2.08 2.08c1.1.58 2.54.58 5.44.58h98.8c2.9 0 4.34 0 5.44-.58a5 5 0 0 0 2.08-2.08c.58-1.1.58-2.54.58-5.44v-18.8c0-2.9 0-4.34-.58-5.44a5 5 0 0 0-2.08-2.08c-1.1-.58-2.55-.58-5.44-.58h-98.8c-2.9 0-4.34 0-5.44.58a5 5 0 0 0-2.08 2.08ZM942.9 663h-98.8c-1.46 0-2.5 0-3.31.07-.8.07-1.28.2-1.66.4a4 4 0 0 0-1.66 1.66c-.2.38-.33.86-.4 1.66-.07.8-.07 1.85-.07 3.31v18.8c0 1.46 0 2.5.07 3.31.07.8.2 1.28.4 1.66a4 4 0 0 0 1.66 1.66c.38.2.86.33 1.66.4.8.07 1.85.07 3.31.07h98.8c1.46 0 2.5 0 3.31-.07.8-.07 1.28-.2 1.66-.4a4 4 0 0 0 1.66-1.66c.2-.38.33-.86.4-1.66.07-.8.07-1.85.07-3.31v-18.8c0-1.46 0-2.5-.07-3.31-.07-.8-.2-1.28-.4-1.66a4 4 0 0 0-1.66-1.66c-.38-.2-.86-.33-1.66-.4-.8-.07-1.85-.07-3.31-.07Zm-106.32 1.66c-.58 1.1-.58 2.55-.58 5.44v18.8c0 2.9 0 4.34.58 5.44a5 5 0 0 0 2.08 2.08c1.1.58 2.55.58 5.44.58h98.8c2.9 0 4.34 0 5.44-.58a5 5 0 0 0 2.08-2.08c.58-1.1.58-2.55.58-5.44v-18.8c0-2.9 0-4.34-.58-5.44a5 5 0 0 0-2.08-2.08c-1.1-.58-2.55-.58-5.44-.58h-98.8c-2.9 0-4.34 0-5.44.58a5 5 0 0 0-2.08 2.08ZM610.9 517h-98.8c-1.46 0-2.5 0-3.31.07-.8.07-1.28.2-1.66.4a4 4 0 0 0-1.67 1.66c-.2.38-.32.86-.4 1.66-.06.8-.06 1.85-.06 3.31v18.8c0 1.46 0 2.5.07 3.31.07.8.2 1.28.4 1.66a4 4 0 0 0 1.66 1.66c.38.2.86.33 1.66.4.8.07 1.85.07 3.31.07h98.8c1.46 0 2.5 0 3.31-.07.8-.07 1.28-.2 1.66-.4a4 4 0 0 0 1.66-1.66c.2-.38.33-.86.4-1.66.07-.8.07-1.85.07-3.31v-18.8c0-1.46 0-2.5-.07-3.31-.07-.8-.2-1.28-.4-1.66a4 4 0 0 0-1.66-1.66c-.38-.2-.86-.33-1.66-.4-.8-.07-1.85-.07-3.31-.07Zm-106.32 1.66c-.58 1.1-.58 2.55-.58 5.44v18.8c0 2.9 0 4.34.58 5.44a5 5 0 0 0 2.08 2.08c1.1.58 2.54.58 5.44.58h98.8c2.9 0 4.34 0 5.44-.58a5 5 0 0 0 2.08-2.08c.58-1.1.58-2.55.58-5.44v-18.8c0-2.9 0-4.34-.58-5.44a5 5 0 0 0-2.08-2.08c-1.1-.58-2.55-.58-5.44-.58h-98.8c-2.9 0-4.34 0-5.44.58a5 5 0 0 0-2.08 2.08ZM357.9 236H126.1c-1.46 0-2.5 0-3.31.07-.8.07-1.28.2-1.66.4a4 4 0 0 0-1.66 1.66c-.2.38-.33.86-.4 1.66-.07.8-.07 1.85-.07 3.31v18.8c0 1.46 0 2.5.07 3.31.07.8.2 1.28.4 1.66a4 4 0 0 0 1.66 1.67c.38.2.86.32 1.66.4.8.06 1.85.06 3.31.06h231.8c1.46 0 2.5 0 3.31-.07.8-.07 1.28-.2 1.66-.4a4 4 0 0 0 1.67-1.66c.2-.38.32-.86.4-1.66.06-.8.06-1.85.06-3.31v-18.8c0-1.46 0-2.5-.07-3.31-.07-.8-.2-1.28-.4-1.66a4 4 0 0 0-1.66-1.66c-.38-.2-.86-.33-1.66-.4-.8-.07-1.85-.07-3.31-.07Zm-239.32 1.66c-.58 1.1-.58 2.55-.58 5.44v18.8c0 2.9 0 4.34.58 5.44a5 5 0 0 0 2.08 2.08c1.1.58 2.55.58 5.44.58h231.8c2.9 0 4.34 0 5.44-.58a5 5 0 0 0 2.08-2.08c.58-1.1.58-2.54.58-5.44v-18.8c0-2.9 0-4.34-.58-5.44a5 5 0 0 0-2.08-2.08c-1.1-.58-2.54-.58-5.44-.58H126.1c-2.9 0-4.34 0-5.44.58a5 5 0 0 0-2.08 2.08ZM357.9 550H126.1c-1.46 0-2.5 0-3.31.07-.8.07-1.28.2-1.66.4a4 4 0 0 0-1.66 1.66c-.2.38-.33.86-.4 1.66-.07.8-.07 1.85-.07 3.31v18.8c0 1.46 0 2.5.07 3.31.07.8.2 1.28.4 1.66a4 4 0 0 0 1.66 1.66c.38.2.86.33 1.66.4.8.07 1.85.07 3.31.07h231.8c1.46 0 2.5 0 3.31-.07.8-.07 1.28-.2 1.66-.4a4 4 0 0 0 1.67-1.66c.2-.38.32-.86.4-1.66.06-.8.06-1.85.06-3.31v-18.8c0-1.46 0-2.5-.07-3.31-.07-.8-.2-1.28-.4-1.66a4 4 0 0 0-1.66-1.66c-.38-.2-.86-.33-1.66-.4-.8-.07-1.85-.07-3.31-.07Zm-239.32 1.66c-.58 1.1-.58 2.55-.58 5.44v18.8c0 2.9 0 4.34.58 5.44a5 5 0 0 0 2.08 2.08c1.1.58 2.55.58 5.44.58h231.8c2.9 0 4.34 0 5.44-.58a5 5 0 0 0 2.08-2.08c.58-1.1.58-2.55.58-5.44v-18.8c0-2.9 0-4.34-.58-5.44a5 5 0 0 0-2.08-2.08c-1.1-.58-2.54-.58-5.44-.58H126.1c-2.9 0-4.34 0-5.44.58a5 5 0 0 0-2.08 2.08ZM357.9 650H126.1c-1.46 0-2.5 0-3.31.07-.8.07-1.28.2-1.66.4a4 4 0 0 0-1.66 1.66c-.2.38-.33.86-.4 1.66-.07.8-.07 1.85-.07 3.31v18.8c0 1.46 0 2.5.07 3.31.07.8.2 1.28.4 1.66a4 4 0 0 0 1.66 1.66c.38.2.86.33 1.66.4.8.07 1.85.07 3.31.07h231.8c1.46 0 2.5 0 3.31-.07.8-.07 1.28-.2 1.66-.4a4 4 0 0 0 1.67-1.66c.2-.38.32-.86.4-1.66.06-.8.06-1.85.06-3.31v-18.8c0-1.46 0-2.5-.07-3.31-.07-.8-.2-1.28-.4-1.66a4 4 0 0 0-1.66-1.66c-.38-.2-.86-.33-1.66-.4-.8-.07-1.85-.07-3.31-.07Zm-239.32 1.66c-.58 1.1-.58 2.55-.58 5.44v18.8c0 2.9 0 4.34.58 5.44a5 5 0 0 0 2.08 2.08c1.1.58 2.55.58 5.44.58h231.8c2.9 0 4.34 0 5.44-.58a5 5 0 0 0 2.08-2.08c.58-1.1.58-2.55.58-5.44v-18.8c0-2.9 0-4.34-.58-5.44a5 5 0 0 0-2.08-2.08c-1.1-.58-2.54-.58-5.44-.58H126.1c-2.9 0-4.34 0-5.44.58a5 5 0 0 0-2.08 2.08ZM684.9 192H462.1c-1.46 0-2.5 0-3.31.07-.8.07-1.28.2-1.66.4a4 4 0 0 0-1.67 1.66c-.2.38-.32.86-.4 1.66-.06.8-.06 1.85-.06 3.31v18.8c0 1.46 0 2.5.07 3.31.07.8.2 1.28.4 1.66a4 4 0 0 0 1.66 1.66c.38.2.86.33 1.66.4.8.07 1.85.07 3.31.07h222.8c1.46 0 2.5 0 3.31-.07.8-.07 1.28-.2 1.66-.4a4 4 0 0 0 1.66-1.66c.2-.38.33-.86.4-1.66.07-.8.07-1.85.07-3.31v-18.8c0-1.46 0-2.5-.07-3.31-.07-.8-.2-1.28-.4-1.66a4 4 0 0 0-1.66-1.66c-.38-.2-.86-.33-1.66-.4-.8-.07-1.85-.07-3.31-.07Zm-230.32 1.66c-.58 1.1-.58 2.55-.58 5.44v18.8c0 2.9 0 4.34.58 5.44a5 5 0 0 0 2.08 2.08c1.1.58 2.54.58 5.44.58h222.8c2.9 0 4.34 0 5.44-.58a5 5 0 0 0 2.08-2.08c.58-1.1.58-2.55.58-5.44v-18.8c0-2.9 0-4.34-.58-5.44a5 5 0 0 0-2.08-2.08c-1.1-.58-2.55-.58-5.44-.58H462.1c-2.9 0-4.34 0-5.44.58a5 5 0 0 0-2.08 2.08ZM856.9 192H723.1c-1.46 0-2.5 0-3.31.07-.8.07-1.28.2-1.66.4a4 4 0 0 0-1.66 1.66c-.2.38-.33.86-.4 1.66-.07.8-.07 1.85-.07 3.31v18.8c0 1.46 0 2.5.07 3.31.07.8.2 1.28.4 1.66a4 4 0 0 0 1.66 1.66c.38.2.86.33 1.66.4.8.07 1.85.07 3.31.07h133.8c1.46 0 2.5 0 3.31-.07.8-.07 1.28-.2 1.66-.4a4 4 0 0 0 1.66-1.66c.2-.38.33-.86.4-1.66.07-.8.07-1.85.07-3.31v-18.8c0-1.46 0-2.5-.07-3.31-.07-.8-.2-1.28-.4-1.66a4 4 0 0 0-1.66-1.66c-.38-.2-.86-.33-1.66-.4-.8-.07-1.85-.07-3.31-.07Zm-141.32 1.66c-.58 1.1-.58 2.55-.58 5.44v18.8c0 2.9 0 4.34.58 5.44a5 5 0 0 0 2.08 2.08c1.1.58 2.55.58 5.44.58h133.8c2.9 0 4.34 0 5.44-.58a5 5 0 0 0 2.08-2.08c.58-1.1.58-2.55.58-5.44v-18.8c0-2.9 0-4.34-.58-5.44a5 5 0 0 0-2.08-2.08c-1.1-.58-2.55-.58-5.44-.58H723.1c-2.9 0-4.34 0-5.44.58a5 5 0 0 0-2.08 2.08Z" clip-rule="evenodd"/>
  <path fill="#ECF6FD" d="M842 300.1c0-2.9 0-4.34.58-5.44a5 5 0 0 1 2.08-2.08c1.1-.58 2.55-.58 5.44-.58h28.8c2.9 0 4.34 0 5.44.58a5 5 0 0 1 2.08 2.08c.58 1.1.58 2.54.58 5.44v5.8c0 2.9 0 4.34-.58 5.44a5 5 0 0 1-2.08 2.08c-1.1.58-2.55.58-5.44.58h-28.8c-2.9 0-4.34 0-5.44-.58a5 5 0 0 1-2.08-2.08c-.58-1.1-.58-2.54-.58-5.44v-5.8Z"/>
  <path fill="#D9DDE0" fill-rule="evenodd" d="M127.14 413h-4.28c-.89 0-1.49 0-1.95.04-.45.04-.69.1-.85.2-.35.18-.64.47-.83.82-.08.17-.15.4-.19.85-.04.46-.04 1.06-.04 1.95v4.28c0 .88 0 1.49.04 1.95.04.46.1.69.2.85.18.35.47.64.82.83.16.08.4.15.85.19.46.04 1.06.04 1.95.04h4.28c.89 0 1.49 0 1.95-.04.45-.04.69-.1.85-.2.35-.18.64-.47.83-.82.08-.17.15-.4.19-.85.04-.46.04-1.06.04-1.95v-4.28c0-.88 0-1.49-.04-1.95-.04-.46-.1-.69-.2-.85a2.01 2.01 0 0 0-.82-.83c-.16-.08-.4-.15-.85-.19-.46-.04-1.06-.04-1.95-.04Zm-8.8.6c-.34.65-.34 1.52-.34 3.26v4.28c0 1.74 0 2.6.35 3.26a3 3 0 0 0 1.25 1.25c.66.35 1.52.35 3.26.35h4.28c1.74 0 2.6 0 3.26-.35a3 3 0 0 0 1.25-1.25c.35-.65.35-1.52.35-3.26v-4.28c0-1.74 0-2.6-.35-3.26a3 3 0 0 0-1.25-1.25c-.66-.35-1.52-.35-3.26-.35h-4.28c-1.74 0-2.6 0-3.26.35a3 3 0 0 0-1.25 1.25ZM463.14 650h-4.28c-.88 0-1.49 0-1.95.04-.46.04-.69.1-.85.2-.35.18-.64.47-.83.82-.08.17-.15.4-.19.85-.04.46-.04 1.07-.04 1.95v4.28c0 .88 0 1.49.04 1.95a2 2 0 0 0 .2.85c.18.35.47.64.82.83.17.08.4.15.85.19.46.04 1.06.04 1.95.04h4.28c.88 0 1.49 0 1.95-.04.46-.04.69-.1.85-.2.35-.18.64-.47.83-.82.08-.17.15-.4.19-.85.04-.46.04-1.07.04-1.95v-4.28c0-.88 0-1.49-.04-1.95a2 2 0 0 0-.2-.85 2.01 2.01 0 0 0-.82-.83c-.17-.08-.4-.15-.85-.19-.46-.04-1.06-.04-1.95-.04Zm-8.8.6c-.34.65-.34 1.52-.34 3.26v4.28c0 1.74 0 2.6.35 3.26a3 3 0 0 0 1.25 1.25c.65.35 1.52.35 3.26.35h4.28c1.74 0 2.6 0 3.26-.35a3 3 0 0 0 1.25-1.25c.35-.65.35-1.52.35-3.26v-4.28c0-1.74 0-2.6-.35-3.26a3 3 0 0 0-1.25-1.25c-.65-.35-1.52-.35-3.26-.35h-4.28c-1.74 0-2.6 0-3.26.35a3 3 0 0 0-1.25 1.25ZM795.14 498h-4.28c-.88 0-1.49 0-1.95.04a2 2 0 0 0-.85.2c-.35.18-.64.47-.83.82-.08.17-.15.4-.19.85-.04.46-.04 1.06-.04 1.95v4.28c0 .88 0 1.49.04 1.95.04.46.1.69.2.85.18.35.47.64.82.83.17.08.4.15.85.19.46.04 1.07.04 1.95.04h4.28c.88 0 1.49 0 1.95-.04a2 2 0 0 0 .85-.2c.35-.18.64-.47.83-.82.08-.17.15-.4.19-.85.04-.46.04-1.06.04-1.95v-4.28c0-.88 0-1.49-.04-1.95-.04-.46-.1-.69-.2-.85a2.01 2.01 0 0 0-.82-.83c-.17-.08-.4-.15-.85-.19-.46-.04-1.07-.04-1.95-.04Zm-8.8.6c-.34.65-.34 1.52-.34 3.26v4.28c0 1.74 0 2.6.35 3.26a3 3 0 0 0 1.25 1.25c.65.35 1.52.35 3.26.35h4.28c1.74 0 2.6 0 3.26-.35a3 3 0 0 0 1.25-1.25c.35-.65.35-1.52.35-3.26v-4.28c0-1.74 0-2.6-.35-3.26a3 3 0 0 0-1.25-1.25c-.65-.35-1.52-.35-3.26-.35h-4.28c-1.74 0-2.6 0-3.26.35a3 3 0 0 0-1.25 1.25Zm8.8 27.4h-4.28c-.88 0-1.49 0-1.95.04a2 2 0 0 0-.85.2c-.35.18-.64.47-.83.82-.08.17-.15.4-.19.85-.04.46-.04 1.07-.04 1.95v4.28c0 .88 0 1.49.04 1.95a2 2 0 0 0 .2.85c.18.35.47.64.82.83.17.08.4.15.85.19.46.04 1.07.04 1.95.04h4.28c.88 0 1.49 0 1.95-.04a2 2 0 0 0 .85-.2c.35-.18.64-.47.83-.82.08-.17.15-.4.19-.85.04-.46.04-1.07.04-1.95v-4.28c0-.88 0-1.49-.04-1.95a2 2 0 0 0-.2-.85 2.01 2.01 0 0 0-.82-.83c-.17-.08-.4-.15-.85-.19-.46-.04-1.07-.04-1.95-.04Zm-8.8.6c-.34.65-.34 1.52-.34 3.26v4.28c0 1.74 0 2.6.35 3.26a3 3 0 0 0 1.25 1.25c.65.35 1.52.35 3.26.35h4.28c1.74 0 2.6 0 3.26-.35a3 3 0 0 0 1.25-1.25c.35-.65.35-1.52.35-3.26v-4.28c0-1.74 0-2.6-.35-3.26a3 3 0 0 0-1.25-1.25c-.65-.35-1.52-.35-3.26-.35h-4.28c-1.74 0-2.6 0-3.26.35a3 3 0 0 0-1.25 1.25Zm8.8 28.4h-4.28c-.88 0-1.49 0-1.95.04a2 2 0 0 0-.85.2c-.35.18-.64.47-.83.82-.08.17-.15.4-.19.85-.04.46-.04 1.07-.04 1.95v4.28c0 .88 0 1.49.04 1.95a2 2 0 0 0 .2.85c.18.35.47.64.82.83.17.08.4.15.85.19.46.04 1.07.04 1.95.04h4.28c.88 0 1.49 0 1.95-.04a2 2 0 0 0 .85-.2c.35-.18.64-.47.83-.82.08-.17.15-.4.19-.85.04-.46.04-1.07.04-1.95v-4.28c0-.88 0-1.49-.04-1.95a2 2 0 0 0-.2-.85 2.01 2.01 0 0 0-.82-.83c-.17-.08-.4-.15-.85-.19-.46-.04-1.07-.04-1.95-.04Zm-8.8.6c-.34.65-.34 1.52-.34 3.26v4.28c0 1.74 0 2.6.35 3.26a3 3 0 0 0 1.25 1.25c.65.35 1.52.35 3.26.35h4.28c1.74 0 2.6 0 3.26-.35a3 3 0 0 0 1.25-1.25c.35-.65.35-1.52.35-3.26v-4.28c0-1.74 0-2.6-.35-3.26a3 3 0 0 0-1.25-1.25c-.65-.35-1.52-.35-3.26-.35h-4.28c-1.74 0-2.6 0-3.26.35a3 3 0 0 0-1.25 1.25Zm8.8 28.4h-4.28c-.88 0-1.49 0-1.95.04a2 2 0 0 0-.85.2c-.35.18-.64.47-.83.82-.08.17-.15.4-.19.85-.04.46-.04 1.07-.04 1.95v4.28c0 .88 0 1.49.04 1.95a2 2 0 0 0 .2.85c.18.35.47.64.82.83.17.08.4.15.85.19.46.04 1.07.04 1.95.04h4.28c.88 0 1.49 0 1.95-.04a2 2 0 0 0 .85-.2c.35-.18.64-.47.83-.82.08-.17.15-.4.19-.85.04-.46.04-1.07.04-1.95v-4.28c0-.88 0-1.49-.04-1.95a2 2 0 0 0-.2-.85 2.01 2.01 0 0 0-.82-.83c-.17-.08-.4-.15-.85-.19-.46-.04-1.07-.04-1.95-.04Zm-8.8.6c-.34.65-.34 1.52-.34 3.26v4.28c0 1.74 0 2.6.35 3.26a3 3 0 0 0 1.25 1.25c.65.35 1.52.35 3.26.35h4.28c1.74 0 2.6 0 3.26-.35a3 3 0 0 0 1.25-1.25c.35-.65.35-1.52.35-3.26v-4.28c0-1.74 0-2.6-.35-3.26a3 3 0 0 0-1.25-1.25c-.65-.35-1.52-.35-3.26-.35h-4.28c-1.74 0-2.6 0-3.26.35a3 3 0 0 0-1.25 1.25ZM463.14 679h-4.28c-.88 0-1.49 0-1.95.04-.46.04-.69.1-.85.2-.35.18-.64.47-.83.82-.08.17-.15.4-.19.85-.04.46-.04 1.07-.04 1.95v4.28c0 .88 0 1.49.04 1.95a2 2 0 0 0 .2.85c.18.35.47.64.82.83.17.08.4.15.85.19.46.04 1.06.04 1.95.04h4.28c.88 0 1.49 0 1.95-.04.46-.04.69-.1.85-.2.35-.18.64-.47.83-.82.08-.17.15-.4.19-.85.04-.46.04-1.07.04-1.95v-4.28c0-.88 0-1.49-.04-1.95a2 2 0 0 0-.2-.85 2.01 2.01 0 0 0-.82-.83c-.17-.08-.4-.15-.85-.19-.46-.04-1.06-.04-1.95-.04Zm-8.8.6c-.34.65-.34 1.52-.34 3.26v4.28c0 1.74 0 2.6.35 3.26a3 3 0 0 0 1.25 1.25c.65.35 1.52.35 3.26.35h4.28c1.74 0 2.6 0 3.26-.35a3 3 0 0 0 1.25-1.25c.35-.65.35-1.52.35-3.26v-4.28c0-1.74 0-2.6-.35-3.26a3 3 0 0 0-1.25-1.25c-.65-.35-1.52-.35-3.26-.35h-4.28c-1.74 0-2.6 0-3.26.35a3 3 0 0 0-1.25 1.25ZM127.14 442h-4.28c-.89 0-1.49 0-1.95.04-.45.04-.69.1-.85.2-.35.18-.64.47-.83.82-.08.17-.15.4-.19.85-.04.46-.04 1.06-.04 1.95v4.28c0 .88 0 1.49.04 1.95.04.46.1.69.2.85.18.35.47.64.82.83.16.08.4.15.85.19.46.04 1.06.04 1.95.04h4.28c.89 0 1.49 0 1.95-.04.45-.04.69-.1.85-.2.35-.18.64-.47.83-.82.08-.17.15-.4.19-.85.04-.46.04-1.06.04-1.95v-4.28c0-.88 0-1.49-.04-1.95-.04-.46-.1-.69-.2-.85a2.01 2.01 0 0 0-.82-.83c-.16-.08-.4-.15-.85-.19-.46-.04-1.06-.04-1.95-.04Zm-8.8.6c-.34.65-.34 1.52-.34 3.26v4.28c0 1.74 0 2.6.35 3.26a3 3 0 0 0 1.25 1.25c.66.35 1.52.35 3.26.35h4.28c1.74 0 2.6 0 3.26-.35a3 3 0 0 0 1.25-1.25c.35-.65.35-1.52.35-3.26v-4.28c0-1.74 0-2.6-.35-3.26a3 3 0 0 0-1.25-1.25c-.66-.35-1.52-.35-3.26-.35h-4.28c-1.74 0-2.6 0-3.26.35a3 3 0 0 0-1.25 1.25Zm8.8 28.4h-4.28c-.89 0-1.49 0-1.95.04-.45.04-.69.1-.85.2-.35.18-.64.47-.83.82-.08.17-.15.4-.19.85-.04.46-.04 1.06-.04 1.95v4.28c0 .88 0 1.49.04 1.95.04.46.1.69.2.85.18.35.47.64.82.83.16.08.4.15.85.19.46.04 1.06.04 1.95.04h4.28c.89 0 1.49 0 1.95-.04.45-.04.69-.1.85-.2.35-.18.64-.47.83-.82.08-.17.15-.4.19-.85.04-.46.04-1.06.04-1.95v-4.28c0-.88 0-1.49-.04-1.95-.04-.46-.1-.69-.2-.85a2.01 2.01 0 0 0-.82-.83c-.16-.08-.4-.15-.85-.19-.46-.04-1.06-.04-1.95-.04Zm-8.8.6c-.34.65-.34 1.52-.34 3.26v4.28c0 1.74 0 2.6.35 3.26a3 3 0 0 0 1.25 1.25c.66.35 1.52.35 3.26.35h4.28c1.74 0 2.6 0 3.26-.35a3 3 0 0 0 1.25-1.25c.35-.65.35-1.52.35-3.26v-4.28c0-1.74 0-2.6-.35-3.26a3 3 0 0 0-1.25-1.25c-.66-.35-1.52-.35-3.26-.35h-4.28c-1.74 0-2.6 0-3.26.35a3 3 0 0 0-1.25 1.25ZM357.9 135H126.1c-1.46 0-2.5 0-3.31.07-.8.07-1.28.2-1.66.4a4 4 0 0 0-1.66 1.66c-.2.38-.33.86-.4 1.66-.07.8-.07 1.85-.07 3.31v18.8c0 1.46 0 2.5.07 3.31.07.8.2 1.28.4 1.66a4 4 0 0 0 1.66 1.66c.38.2.86.33 1.66.4.8.07 1.85.07 3.31.07h231.8c1.46 0 2.5 0 3.31-.07.8-.07 1.28-.2 1.66-.4a4 4 0 0 0 1.67-1.66c.2-.38.32-.86.4-1.66.06-.8.06-1.85.06-3.31v-18.8c0-1.46 0-2.5-.07-3.31-.07-.8-.2-1.28-.4-1.66a4 4 0 0 0-1.66-1.66c-.38-.2-.86-.33-1.66-.4-.8-.07-1.85-.07-3.31-.07Zm-239.32 1.66c-.58 1.1-.58 2.55-.58 5.44v18.8c0 2.9 0 4.34.58 5.44a5 5 0 0 0 2.08 2.08c1.1.58 2.55.58 5.44.58h231.8c2.9 0 4.34 0 5.44-.58a5 5 0 0 0 2.08-2.08c.58-1.1.58-2.55.58-5.44v-18.8c0-2.9 0-4.34-.58-5.44a5 5 0 0 0-2.08-2.08c-1.1-.58-2.54-.58-5.44-.58H126.1c-2.9 0-4.34 0-5.44.58a5 5 0 0 0-2.08 2.08Z" clip-rule="evenodd"/>
  <path fill="#ECF6FD" d="M951 51.1c0-2.9 0-4.34.58-5.44a5 5 0 0 1 2.08-2.08c1.1-.58 2.55-.58 5.44-.58h63.8c2.89 0 4.34 0 5.44.58.89.47 1.61 1.2 2.08 2.08.58 1.1.58 2.55.58 5.44v5.8c0 2.9 0 4.34-.58 5.44a4.98 4.98 0 0 1-2.08 2.08c-1.1.58-2.55.58-5.44.58h-63.8c-2.9 0-4.34 0-5.44-.58a5 5 0 0 1-2.08-2.08c-.58-1.1-.58-2.55-.58-5.44v-5.8Z"/>
  <path fill="#454C54" d="M348.29 154.21a.95.95 0 0 1-.7-.32l-3.98-4.06a.86.86 0 1 1 1.25-1.18l3.44 3.54 3.43-3.54c.17-.18.4-.28.63-.28.47 0 .85.39.85.87a.8.8 0 0 1-.24.59l-3.98 4.06a.94.94 0 0 1-.7.32Z" opacity=".4"/>
  <path fill="#454C54" d="m130.17 156 3.67-9.86h1.22l3.66 9.86h-1.29l-1-2.82h-3.97l-1 2.82h-1.29Zm4.27-8.39-1.6 4.52h3.22l-1.6-4.52h-.02ZM140 156v-9.86h1.2V156H140Zm3.14 0v-9.86h1.2V156h-1.2Zm8.66.14c-1.56 0-2.47-1.01-2.47-2.63v-4.62h1.2v4.4c0 1.16.53 1.8 1.63 1.8 1.12 0 1.85-.8 1.85-2.02v-4.18h1.19V156h-1.19v-1.01h-.03c-.38.66-1.1 1.15-2.18 1.15Zm7.75 0c-1.67 0-2.68-.86-2.83-2.13v-.06h1.19l.01.07c.14.7.67 1.13 1.64 1.13.97 0 1.54-.4 1.54-1.05 0-.52-.27-.8-1.07-1l-1.13-.28c-1.34-.32-2-.94-2-1.97 0-1.23 1.08-2.1 2.62-2.1 1.56 0 2.55.91 2.64 2.1v.1h-1.13v-.06c-.1-.69-.63-1.14-1.51-1.14-.86 0-1.4.41-1.4 1.04 0 .5.33.83 1.11 1.02l1.13.27c1.44.35 1.96.92 1.96 1.93 0 1.25-1.18 2.13-2.77 2.13Zm7.2 0c-2.03 0-3.27-1.43-3.27-3.67 0-2.2 1.26-3.72 3.2-3.72 1.94 0 3.13 1.45 3.13 3.58v.44h-5.12c.03 1.46.83 2.31 2.1 2.31.9 0 1.53-.45 1.74-1.06l.02-.06h1.17l-.01.07c-.24 1.18-1.4 2.1-2.95 2.1Zm-.07-6.33c-1.03 0-1.84.7-1.97 2.03h3.89c-.12-1.38-.88-2.03-1.92-2.03Zm4.61 6.19v-7.1h1.19v1.2h.03c.24-.83.85-1.35 1.65-1.35.2 0 .39.04.48.05v1.16a2.4 2.4 0 0 0-.64-.07c-.92 0-1.52.64-1.52 1.72V156h-1.19Zm7.12.14c-1.67 0-2.68-.86-2.83-2.13v-.06h1.19l.01.07c.14.7.67 1.13 1.64 1.13.96 0 1.54-.4 1.54-1.05 0-.52-.27-.8-1.07-1l-1.13-.28c-1.34-.32-2-.94-2-1.97 0-1.23 1.08-2.1 2.62-2.1 1.56 0 2.55.91 2.64 2.1v.1h-1.13v-.06c-.1-.69-.63-1.14-1.51-1.14-.86 0-1.4.41-1.4 1.04 0 .5.33.83 1.11 1.02l1.13.27c1.44.35 1.96.92 1.96 1.93 0 1.25-1.18 2.13-2.77 2.13Z"/>
  <path fill="#B7BABD" d="M470.18 156.16c-2.13 0-3.57-1.04-3.7-2.73v-.1h1.23l.01.1c.15 1 1.1 1.6 2.53 1.6 1.42 0 2.32-.64 2.32-1.66 0-.88-.57-1.36-1.92-1.66l-1.1-.24c-1.92-.43-2.82-1.3-2.82-2.74 0-1.62 1.44-2.76 3.47-2.76 1.93 0 3.33 1.12 3.44 2.73v.1h-1.22l-.02-.1c-.14-1-.99-1.6-2.24-1.6-1.32.01-2.18.64-2.18 1.6 0 .8.6 1.31 1.88 1.6l1.1.23c2.02.45 2.87 1.27 2.87 2.77 0 1.76-1.4 2.86-3.65 2.86Zm8.11-.02c-2.04 0-3.27-1.43-3.27-3.67 0-2.2 1.25-3.72 3.2-3.72 1.94 0 3.12 1.45 3.12 3.58v.44h-5.12c.03 1.46.83 2.31 2.1 2.31.9 0 1.54-.45 1.74-1.06l.02-.06h1.17l-.01.07c-.24 1.18-1.4 2.1-2.95 2.1Zm-.08-6.33c-1.03 0-1.84.7-1.97 2.03h3.89c-.12-1.38-.88-2.03-1.92-2.03Zm6.7 6.33c-1.42 0-2.37-.86-2.37-2.15v-.01c0-1.21.94-1.97 2.57-2.07l2.04-.11v-.6c0-.87-.57-1.4-1.56-1.4-.91 0-1.49.44-1.63 1.08v.06h-1.16v-.07c.11-1.17 1.13-2.12 2.8-2.12 1.69 0 2.74.91 2.74 2.34V156h-1.19v-1.16h-.03a2.51 2.51 0 0 1-2.22 1.3Zm-1.16-2.15c0 .68.56 1.11 1.42 1.11 1.12 0 1.98-.77 1.98-1.8v-.58l-1.9.12c-.95.05-1.5.47-1.5 1.14v.01Zm6.38 2.01v-7.1h1.19v1.2h.03c.24-.83.85-1.35 1.65-1.35.2 0 .38.04.48.05v1.16a2.2 2.2 0 0 0-.64-.07c-.92 0-1.52.64-1.52 1.72V156h-1.19Zm7.2.14c-2.01 0-3.29-1.44-3.29-3.7 0-2.25 1.3-3.69 3.28-3.69 1.77 0 2.82 1.18 2.97 2.4v.05h-1.16l-.01-.05c-.18-.71-.75-1.34-1.8-1.34-1.24 0-2.06 1.02-2.06 2.63v.01c0 1.66.84 2.63 2.07 2.63.98 0 1.6-.54 1.8-1.34l.01-.05h1.17v.05c-.2 1.35-1.37 2.4-2.98 2.4Zm4.41-.14v-9.86h1.2v3.89h.02c.38-.8 1.16-1.28 2.22-1.28 1.5 0 2.54 1.17 2.54 2.9V156h-1.2v-4.15c0-1.28-.65-2.04-1.75-2.04s-1.84.83-1.84 2.04V156h-1.19Zm14.45.14a2.47 2.47 0 0 1-2.25-1.34h-.03v1.2h-1.19v-9.86h1.2v3.94h.02a2.52 2.52 0 0 1 2.27-1.33c1.79 0 3 1.45 3 3.69 0 2.25-1.2 3.7-3.02 3.7Zm-.23-1.06c1.26 0 2.04-1 2.04-2.64 0-1.62-.78-2.63-2.04-2.63-1.2 0-2.06 1.04-2.06 2.63 0 1.6.86 2.64 2.06 2.64Zm5.14 3.31c-.23 0-.48-.02-.63-.05v-.97c.1.02.24.04.38.04.75 0 1.17-.2 1.45-1l.15-.4-2.64-7.12h1.27l1.96 5.92h.03l1.97-5.92h1.25l-2.77 7.55c-.51 1.37-1.13 1.95-2.42 1.95Zm9.65-2.39v-9.86h1.2v5.89h.02l3.12-3.14h1.44l-3.08 3.07 3.18 4.04h-1.38l-2.64-3.31-.67.63V156h-1.19Zm9.57.14c-2.05 0-3.28-1.43-3.28-3.67 0-2.2 1.26-3.72 3.2-3.72 1.94 0 3.13 1.45 3.13 3.58v.44h-5.12c.02 1.46.83 2.31 2.1 2.31.9 0 1.53-.45 1.74-1.06l.02-.06h1.17l-.02.07c-.23 1.18-1.4 2.1-2.94 2.1Zm-.09-6.33c-1.03 0-1.83.7-1.96 2.03h3.89c-.12-1.38-.89-2.03-1.92-2.03Zm5.03 8.58c-.23 0-.49-.02-.64-.05v-.97c.1.02.24.04.39.04.75 0 1.16-.2 1.45-1l.15-.4-2.64-7.12h1.27l1.96 5.92h.03l1.97-5.92h1.25l-2.78 7.55c-.5 1.37-1.13 1.95-2.41 1.95Zm7.81-2.39-1.99-7.1h1.19l1.42 5.77h.02l1.61-5.78h1.15l1.61 5.78h.03l1.42-5.78h1.18l-1.98 7.11h-1.21l-1.61-5.5h-.03l-1.6 5.5h-1.2Zm11.84.14c-1.97 0-3.3-1.43-3.3-3.7 0-2.27 1.33-3.69 3.3-3.69 1.96 0 3.29 1.41 3.29 3.68v.01c0 2.28-1.33 3.7-3.29 3.7Zm0-1.06c1.26 0 2.07-.97 2.07-2.64 0-1.68-.82-2.63-2.08-2.63-1.23 0-2.07.96-2.07 2.62v.01c0 1.68.83 2.64 2.09 2.64Zm4.77.92v-7.1h1.2v1.2h.02c.24-.83.86-1.35 1.65-1.35.21 0 .39.04.48.05v1.16c-.1-.04-.35-.07-.63-.07-.93 0-1.53.64-1.53 1.72V156h-1.19Zm6.94.14c-1.82 0-3.03-1.45-3.03-3.7 0-2.24 1.22-3.69 3-3.69 1 0 1.84.51 2.28 1.33h.03v-3.94h1.19V156h-1.2v-1.2h-.02a2.47 2.47 0 0 1-2.25 1.34Zm.23-1.06c1.2 0 2.05-1.04 2.05-2.64 0-1.59-.86-2.63-2.05-2.63-1.26 0-2.04 1-2.04 2.63 0 1.64.78 2.64 2.04 2.64Zm7.65 1.06c-1.68 0-2.69-.86-2.83-2.13l-.01-.06h1.19l.01.07c.15.7.67 1.13 1.64 1.13.97 0 1.54-.4 1.54-1.05 0-.52-.26-.8-1.07-1l-1.13-.28c-1.34-.32-1.99-.94-1.99-1.97 0-1.23 1.07-2.1 2.61-2.1 1.56 0 2.55.91 2.64 2.1v.1h-1.13v-.06c-.1-.69-.63-1.14-1.5-1.14s-1.4.41-1.4 1.04c0 .5.32.83 1.1 1.02l1.13.27c1.44.35 1.96.92 1.96 1.93 0 1.25-1.18 2.13-2.76 2.13ZM470.18 343.16c-2.13 0-3.57-1.04-3.7-2.73v-.1h1.23l.01.1c.15 1 1.1 1.6 2.53 1.6 1.42 0 2.32-.64 2.32-1.66 0-.88-.57-1.36-1.92-1.66l-1.1-.24c-1.92-.43-2.82-1.3-2.82-2.74 0-1.62 1.44-2.76 3.47-2.76 1.93 0 3.33 1.12 3.44 2.73v.1h-1.22l-.02-.1c-.14-1-.99-1.6-2.24-1.6-1.32.01-2.18.64-2.18 1.6 0 .8.6 1.31 1.88 1.6l1.1.23c2.02.45 2.87 1.27 2.87 2.77 0 1.76-1.4 2.86-3.65 2.86Zm8.11-.02c-2.04 0-3.27-1.43-3.27-3.67 0-2.2 1.25-3.72 3.2-3.72 1.94 0 3.12 1.45 3.12 3.58v.44h-5.12c.03 1.46.83 2.31 2.1 2.31.9 0 1.54-.45 1.74-1.06l.02-.06h1.17l-.01.07c-.24 1.18-1.4 2.1-2.95 2.1Zm-.08-6.33c-1.03 0-1.84.7-1.97 2.03h3.89c-.12-1.38-.88-2.03-1.92-2.03Zm6.7 6.33c-1.42 0-2.37-.86-2.37-2.15v-.01c0-1.21.94-1.97 2.57-2.07l2.04-.11v-.6c0-.87-.57-1.4-1.56-1.4-.91 0-1.49.44-1.63 1.08v.06h-1.16v-.07c.11-1.17 1.13-2.12 2.8-2.12 1.69 0 2.74.91 2.74 2.33V343h-1.19v-1.15h-.03a2.51 2.51 0 0 1-2.22 1.29Zm-1.16-2.15c0 .68.56 1.11 1.42 1.11 1.12 0 1.98-.77 1.98-1.8v-.58l-1.9.11c-.95.06-1.5.48-1.5 1.15v.01Zm6.38 2.01v-7.1h1.19v1.2h.03c.24-.83.85-1.35 1.65-1.35.2 0 .38.04.48.05v1.16a2.2 2.2 0 0 0-.64-.07c-.92 0-1.52.64-1.52 1.72V343h-1.19Zm7.2.14c-2.01 0-3.29-1.44-3.29-3.7 0-2.25 1.3-3.69 3.28-3.69 1.77 0 2.82 1.18 2.97 2.4v.05h-1.16l-.01-.05c-.18-.71-.75-1.34-1.8-1.34-1.24 0-2.06 1.02-2.06 2.63v.01c0 1.66.84 2.63 2.07 2.63.98 0 1.6-.54 1.8-1.34l.01-.05h1.17v.05c-.2 1.35-1.37 2.4-2.98 2.4Zm4.41-.14v-9.86h1.2v3.88h.02c.38-.8 1.16-1.27 2.22-1.27 1.5 0 2.54 1.17 2.54 2.9V343h-1.2v-4.15c0-1.29-.65-2.04-1.75-2.04s-1.84.83-1.84 2.04V343h-1.19Zm14.45.14a2.47 2.47 0 0 1-2.25-1.34h-.03v1.2h-1.19v-9.86h1.2v3.94h.02a2.52 2.52 0 0 1 2.27-1.33c1.79 0 3 1.45 3 3.69 0 2.25-1.2 3.7-3.02 3.7Zm-.23-1.06c1.26 0 2.04-1 2.04-2.63v-.01c0-1.62-.78-2.63-2.04-2.63-1.2 0-2.06 1.04-2.06 2.63 0 1.6.86 2.64 2.06 2.64Zm5.14 3.31c-.23 0-.48-.02-.63-.05v-.97c.1.02.24.04.38.04.75 0 1.17-.2 1.45-1l.15-.4-2.64-7.12h1.27l1.96 5.92h.03l1.97-5.92h1.25l-2.77 7.55c-.51 1.37-1.13 1.95-2.42 1.95Zm9.56-2.39v-7.1h1.19v1.2h.02c.24-.83.86-1.35 1.66-1.35.2 0 .38.04.48.05v1.16a2.2 2.2 0 0 0-.64-.07c-.92 0-1.52.64-1.52 1.72V343h-1.2Zm7.18.14c-2.04 0-3.27-1.43-3.27-3.67 0-2.2 1.26-3.72 3.2-3.72 1.94 0 3.12 1.45 3.12 3.58v.44h-5.12c.03 1.46.84 2.31 2.1 2.31.9 0 1.54-.45 1.74-1.06l.02-.06h1.17l-.01.07c-.23 1.18-1.4 2.1-2.95 2.1Zm-.08-6.33c-1.03 0-1.84.7-1.97 2.03h3.9c-.13-1.38-.89-2.03-1.93-2.03Zm7.62 8.72c-1.75 0-2.86-.83-3.1-1.88v-.06h1.19l.03.06c.22.51.9.83 1.87.83 1.25 0 1.96-.7 1.96-1.8v-.9h-.03a2.5 2.5 0 0 1-2.26 1.29c-1.79 0-3.01-1.44-3.01-3.67 0-2.21 1.23-3.65 3.04-3.65 1 0 1.8.55 2.23 1.34h.03v-1.2h1.19v6.91c0 1.65-1.21 2.73-3.14 2.73Zm-.08-3.51c1.21 0 2.03-1.04 2.03-2.62 0-1.57-.83-2.6-2.03-2.6-1.26 0-2.06 1.02-2.06 2.6 0 1.62.8 2.62 2.06 2.62Zm5.7-7.33a.75.75 0 0 1 0-1.5c.42 0 .75.33.75.75 0 .41-.33.75-.74.75Zm-.59 8.31v-7.1h1.2v7.1h-1.2Zm6.04.14c-1.98 0-3.3-1.43-3.3-3.7 0-2.27 1.33-3.69 3.3-3.69 1.95 0 3.29 1.41 3.29 3.68v.01c0 2.27-1.33 3.7-3.3 3.7Zm0-1.06c1.26 0 2.07-.97 2.07-2.63v-.02c0-1.67-.82-2.62-2.08-2.62-1.24 0-2.07.96-2.07 2.62v.01c0 1.68.83 2.64 2.09 2.64Zm4.77.92v-7.1h1.19v1h.03c.38-.66 1.1-1.15 2.18-1.15 1.56 0 2.47 1.02 2.47 2.64V343h-1.2v-4.4c0-1.16-.53-1.8-1.63-1.8-1.12 0-1.85.8-1.85 2.02V343h-1.19Zm10.81 0v-7.1h1.2v1h.02c.38-.66 1.1-1.15 2.19-1.15 1.56 0 2.46 1.02 2.46 2.64V343h-1.19v-4.4c0-1.16-.54-1.8-1.63-1.8-1.13 0-1.86.8-1.86 2.02V343h-1.19Zm9.75.14c-1.42 0-2.37-.86-2.37-2.15v-.01c0-1.21.94-1.97 2.58-2.07l2.03-.11v-.6c0-.87-.56-1.4-1.55-1.4-.92 0-1.5.44-1.63 1.08l-.01.06h-1.15v-.07c.1-1.17 1.13-2.12 2.8-2.12 1.68 0 2.73.91 2.73 2.33V343h-1.19v-1.15H584a2.51 2.51 0 0 1-2.23 1.29Zm-1.15-2.15c0 .68.56 1.11 1.41 1.11 1.12 0 1.98-.77 1.98-1.8v-.58l-1.9.11c-.95.06-1.5.48-1.5 1.15v.01ZM587 343v-7.1h1.18v1.03h.03a2.07 2.07 0 0 1 1.95-1.18 2 2 0 0 1 2 1.37h.02a2.38 2.38 0 0 1 2.23-1.37c1.41 0 2.32.93 2.32 2.34V343h-1.2v-4.63c0-.98-.53-1.56-1.47-1.56s-1.6.7-1.6 1.67V343h-1.2v-4.76c0-.87-.57-1.43-1.45-1.43-.94 0-1.63.74-1.63 1.73V343H587Zm14.45.14c-2.04 0-3.27-1.43-3.27-3.67 0-2.2 1.26-3.72 3.2-3.72 1.94 0 3.12 1.45 3.12 3.58v.44h-5.12c.03 1.46.84 2.31 2.1 2.31.9 0 1.54-.45 1.74-1.06l.02-.06h1.17l-.01.07c-.23 1.18-1.4 2.1-2.95 2.1Zm-.08-6.33c-1.03 0-1.84.7-1.97 2.03h3.9c-.13-1.38-.9-2.03-1.93-2.03Z"/>
  <path fill="#454C54" d="M348.29 255.21a.95.95 0 0 1-.7-.32l-3.98-4.06a.86.86 0 1 1 1.25-1.18l3.44 3.54 3.43-3.54c.17-.18.4-.28.63-.28.47 0 .85.39.85.87a.8.8 0 0 1-.24.59l-3.98 4.06a.94.94 0 0 1-.7.32Z" opacity=".4"/>
  <path fill="#454C54" d="m130.17 257 3.67-9.86h1.22l3.66 9.86h-1.29l-1-2.82h-3.97l-1 2.82h-1.29Zm4.27-8.39-1.6 4.52h3.22l-1.6-4.52h-.02ZM140 257v-9.86h1.2V257H140Zm3.14 0v-9.86h1.2V257h-1.2Zm8.66.14c-1.56 0-2.47-1.01-2.47-2.63v-4.62h1.2v4.4c0 1.16.53 1.8 1.63 1.8 1.12 0 1.85-.8 1.85-2.02v-4.18h1.19V257h-1.19v-1.01h-.03c-.38.66-1.1 1.15-2.18 1.15Zm7.75 0c-1.67 0-2.68-.86-2.83-2.13v-.06h1.19l.01.07c.14.7.67 1.13 1.64 1.13.97 0 1.54-.4 1.54-1.05 0-.52-.27-.8-1.07-1l-1.13-.28c-1.34-.32-2-.94-2-1.97 0-1.23 1.08-2.1 2.62-2.1 1.56 0 2.55.91 2.64 2.1v.1h-1.13v-.06c-.1-.69-.63-1.14-1.51-1.14-.86 0-1.4.41-1.4 1.04 0 .5.33.83 1.11 1.02l1.13.27c1.44.35 1.96.92 1.96 1.93 0 1.25-1.18 2.13-2.77 2.13Zm7.2 0c-2.03 0-3.27-1.43-3.27-3.67 0-2.2 1.26-3.72 3.2-3.72 1.94 0 3.13 1.45 3.13 3.58v.44h-5.12c.03 1.46.83 2.31 2.1 2.31.9 0 1.53-.45 1.74-1.06l.02-.06h1.17l-.01.07c-.24 1.18-1.4 2.1-2.95 2.1Zm-.07-6.33c-1.03 0-1.84.7-1.97 2.03h3.89c-.12-1.38-.88-2.03-1.92-2.03Zm4.61 6.19v-7.1h1.19v1.2h.03c.24-.83.85-1.35 1.65-1.35.2 0 .39.04.48.05v1.16a2.4 2.4 0 0 0-.64-.07c-.92 0-1.52.64-1.52 1.72V257h-1.19Zm7.12.14c-1.67 0-2.68-.86-2.83-2.13v-.06h1.19l.01.07c.14.7.67 1.13 1.64 1.13.96 0 1.54-.4 1.54-1.05 0-.52-.27-.8-1.07-1l-1.13-.28c-1.34-.32-2-.94-2-1.97 0-1.23 1.08-2.1 2.62-2.1 1.56 0 2.55.91 2.64 2.1v.1h-1.13v-.06c-.1-.69-.63-1.14-1.51-1.14-.86 0-1.4.41-1.4 1.04 0 .5.33.83 1.11 1.02l1.13.27c1.44.35 1.96.92 1.96 1.93 0 1.25-1.18 2.13-2.77 2.13ZM140.17 395l3.67-9.86h1.22l3.66 9.86h-1.29l-1-2.82h-3.97l-1 2.82h-1.29Zm4.27-8.39-1.6 4.52h3.22l-1.6-4.52h-.02ZM150 395v-9.86h1.2V395H150Zm3.14 0v-9.86h1.2V395h-1.2Zm323.03 237 3.67-9.86h1.22l3.66 9.86h-1.29l-1-2.82h-3.97l-1 2.82h-1.29Zm4.27-8.39-1.6 4.52h3.22l-1.6-4.52h-.02ZM486 632v-9.86h1.2V632H486Zm3.14 0v-9.86h1.2V632h-1.2Zm319.03-152 3.67-9.86h1.22l3.66 9.86h-1.29l-1-2.82h-3.97l-1 2.82h-1.29Zm4.27-8.39-1.6 4.52h3.22l-1.6-4.52h-.02ZM818 480v-9.86h1.2V480H818Zm3.14 0v-9.86h1.2V480h-1.2ZM143 424l-2.7-9.86h1.3l1.98 8.1h.03l2.23-8.1h1.25l2.23 8.1h.03l2-8.1h1.28l-2.7 9.86h-1.15l-2.3-7.9h-.03l-2.3 7.9H143Zm11.66-8.31a.75.75 0 0 1 0-1.5c.41 0 .74.33.74.75 0 .41-.33.75-.74.75Zm-.6 8.31v-7.1h1.2v7.1h-1.2Zm5.4.14c-1.3 0-1.95-.6-1.95-1.95v-4.31h-1.04v-.99h1.04v-1.92h1.23v1.92h1.36v.99h-1.36v4.3c0 .76.34.97.97.97l.39-.02v.96c-.15.02-.4.05-.64.05Zm2.26-.14v-9.86h1.19v3.88h.02c.39-.8 1.16-1.27 2.22-1.27 1.5 0 2.54 1.17 2.54 2.9V424h-1.19v-4.15c0-1.29-.65-2.04-1.76-2.04-1.1 0-1.83.83-1.83 2.04V424h-1.2Zm10.7.14c-1.97 0-3.29-1.43-3.29-3.7 0-2.27 1.33-3.69 3.3-3.69 1.95 0 3.29 1.41 3.29 3.68v.01c0 2.27-1.33 3.7-3.3 3.7Zm.02-1.06c1.25 0 2.06-.97 2.06-2.63v-.02c0-1.67-.82-2.62-2.08-2.62-1.24 0-2.07.96-2.07 2.62v.01c0 1.68.83 2.64 2.09 2.64Zm7.19 1.06c-1.56 0-2.46-1.01-2.46-2.63v-4.62h1.19v4.4c0 1.16.53 1.8 1.63 1.8 1.12 0 1.85-.8 1.85-2.02v-4.18h1.2V424h-1.2v-1.01h-.03c-.38.66-1.1 1.15-2.18 1.15Zm7.54 0c-1.3 0-1.94-.6-1.94-1.95v-4.31h-1.04v-.99h1.03v-1.92h1.24v1.92h1.35v.99h-1.35v4.3c0 .76.33.97.97.97l.38-.02v.96c-.15.02-.4.05-.64.05Zm5.73-.14v-6.13h-.99v-.98h1v-.87c0-1.37.63-2.02 1.94-2.02.27 0 .55.02.72.05v.96a3.78 3.78 0 0 0-.5-.03c-.66 0-1 .34-1 1.04v.87h1.47v.99h-1.45V424h-1.19Zm6.41.14c-1.97 0-3.3-1.43-3.3-3.7 0-2.27 1.33-3.69 3.3-3.69 1.96 0 3.3 1.41 3.3 3.68v.01c0 2.27-1.34 3.7-3.3 3.7Zm.01-1.06c1.25 0 2.06-.97 2.06-2.63v-.02c0-1.67-.82-2.62-2.07-2.62-1.24 0-2.07.96-2.07 2.62v.01c0 1.68.82 2.64 2.08 2.64Zm4.76.92v-7.1h1.2v1.2h.02c.24-.83.85-1.35 1.66-1.35.2 0 .38.04.47.05v1.16c-.1-.04-.34-.07-.63-.07-.93 0-1.53.64-1.53 1.72V424h-1.19Zm4.6 0v-7.1h1.2v1.03h.02a2.07 2.07 0 0 1 1.95-1.18 2 2 0 0 1 2 1.37h.02a2.38 2.38 0 0 1 2.23-1.37c1.41 0 2.32.93 2.32 2.34V424h-1.2v-4.63c0-.98-.53-1.56-1.47-1.56s-1.6.7-1.6 1.67V424h-1.2v-4.76c0-.87-.57-1.43-1.45-1.43-.94 0-1.63.74-1.63 1.73V424h-1.19Zm14.06.14c-1.68 0-2.69-.86-2.83-2.13v-.06h1.18l.01.07c.15.7.68 1.13 1.65 1.13.96 0 1.53-.4 1.53-1.05 0-.52-.26-.8-1.07-1l-1.13-.28c-1.34-.32-1.99-.94-1.99-1.97 0-1.23 1.08-2.1 2.62-2.1 1.55 0 2.54.91 2.63 2.1l.01.1h-1.13l-.01-.06c-.1-.69-.62-1.14-1.5-1.14-.87 0-1.4.41-1.4 1.04 0 .5.32.83 1.1 1.02l1.14.27c1.43.35 1.95.92 1.95 1.93 0 1.25-1.18 2.13-2.76 2.13ZM476.96 661v-9.86h5.99v1.1h-4.76v3.4h4.37v1.09h-4.37V661h-1.23Zm9.92.14c-1.56 0-2.46-1.01-2.46-2.63v-4.62h1.18v4.4c0 1.16.54 1.8 1.64 1.8 1.12 0 1.85-.8 1.85-2.02v-4.18h1.19V661h-1.19v-1.01h-.03c-.38.66-1.1 1.15-2.18 1.15Zm5.3-.14v-9.86h1.18V661h-1.19Zm3.13 0v-9.86h1.19V661h-1.19Zm9.15.14c-2.04 0-3.27-1.43-3.27-3.67 0-2.2 1.26-3.72 3.2-3.72 1.94 0 3.12 1.45 3.12 3.58v.44h-5.12c.03 1.46.84 2.31 2.1 2.31.9 0 1.54-.45 1.74-1.06l.02-.06h1.17l-.01.07c-.23 1.18-1.4 2.1-2.95 2.1Zm-.08-6.33c-1.03 0-1.84.7-1.97 2.03h3.9c-.12-1.38-.89-2.03-1.93-2.03ZM509 661v-7.1h1.19v1.03h.02a2.06 2.06 0 0 1 1.95-1.18 2 2 0 0 1 2 1.37h.02a2.38 2.38 0 0 1 2.23-1.37c1.41 0 2.32.93 2.32 2.34V661h-1.19v-4.63c0-.98-.54-1.56-1.48-1.56s-1.6.7-1.6 1.67V661h-1.2v-4.76c0-.87-.57-1.43-1.45-1.43-.94 0-1.63.74-1.63 1.73V661H509Zm11.53 2.4v-9.5h1.19v1.2h.02a2.47 2.47 0 0 1 2.26-1.35c1.82 0 3.02 1.45 3.02 3.7 0 2.24-1.22 3.69-3 3.69-1 0-1.83-.5-2.28-1.33h-.02v3.58h-1.2Zm3.24-3.32c1.25 0 2.03-1 2.03-2.63 0-1.64-.77-2.64-2.03-2.64-1.2 0-2.06 1.04-2.06 2.64 0 1.59.86 2.63 2.06 2.63Zm4.8.92v-9.86h1.19V661h-1.2Zm6.02.14c-1.98 0-3.3-1.43-3.3-3.7 0-2.27 1.33-3.69 3.3-3.69 1.95 0 3.29 1.41 3.29 3.68v.02c0 2.26-1.33 3.69-3.3 3.69Zm0-1.06c1.26 0 2.07-.97 2.07-2.63v-.02c0-1.67-.82-2.62-2.08-2.62-1.24 0-2.07.96-2.07 2.62v.02c0 1.67.83 2.63 2.09 2.63Zm5.18 3.31c-.23 0-.49-.02-.64-.05v-.97c.1.02.24.04.39.04.75 0 1.17-.2 1.45-1l.15-.4-2.64-7.12h1.27l1.96 5.92h.03l1.97-5.92h1.25l-2.78 7.55c-.5 1.36-1.13 1.95-2.41 1.95Zm6.4-2.39v-7.1h1.2v1.03h.02a2.06 2.06 0 0 1 1.95-1.18 2 2 0 0 1 2 1.37h.02a2.38 2.38 0 0 1 2.23-1.37c1.41 0 2.32.93 2.32 2.34V661h-1.19v-4.63c0-.98-.54-1.56-1.48-1.56s-1.6.7-1.6 1.67V661h-1.2v-4.76c0-.87-.57-1.43-1.45-1.43-.94 0-1.63.74-1.63 1.73V661h-1.19Zm14.46.14c-2.04 0-3.27-1.43-3.27-3.67 0-2.2 1.26-3.72 3.2-3.72 1.94 0 3.12 1.45 3.12 3.58v.44h-5.12c.03 1.46.84 2.31 2.1 2.31.9 0 1.54-.45 1.74-1.06l.02-.06h1.17l-.01.07c-.23 1.18-1.4 2.1-2.95 2.1Zm-.08-6.33c-1.03 0-1.84.7-1.97 2.03h3.9c-.13-1.38-.9-2.03-1.93-2.03Zm4.61 6.19v-7.1h1.2v1h.02c.38-.66 1.1-1.15 2.19-1.15 1.56 0 2.46 1.02 2.46 2.64V661h-1.19v-4.4c0-1.16-.54-1.8-1.63-1.8-1.13 0-1.86.8-1.86 2.02V661h-1.19Zm9.98.14c-1.3 0-1.95-.6-1.95-1.95v-4.32h-1.04v-.98h1.04v-1.92h1.23v1.92h1.35v.99h-1.35v4.3c0 .76.34.97.97.97l.38-.02v.96c-.15.02-.4.05-.63.05ZM811 509l-2.7-9.86h1.3l1.98 8.1h.03l2.24-8.1h1.24l2.23 8.1h.03l2-8.1h1.28l-2.7 9.86h-1.15l-2.3-7.9h-.03l-2.3 7.9H811Zm11.66-8.31a.75.75 0 0 1 0-1.5c.41 0 .74.33.74.75 0 .41-.33.75-.74.75Zm-.6 8.31v-7.1h1.2v7.1h-1.2Zm5.4.14c-1.3 0-1.95-.6-1.95-1.95v-4.31h-1.04v-.99h1.04v-1.92h1.23v1.92h1.36v.99h-1.36v4.3c0 .76.34.97.97.97l.39-.02v.96c-.15.02-.4.05-.64.05Zm2.26-.14v-9.86h1.19v3.88h.02c.39-.8 1.16-1.27 2.22-1.27 1.5 0 2.54 1.17 2.54 2.9V509h-1.19v-4.15c0-1.29-.65-2.04-1.76-2.04-1.1 0-1.83.83-1.83 2.04V509h-1.2Zm10.7.14c-1.97 0-3.29-1.43-3.29-3.7 0-2.27 1.33-3.69 3.3-3.69 1.95 0 3.29 1.41 3.29 3.68v.01c0 2.27-1.33 3.7-3.3 3.7Zm.01-1.06c1.26 0 2.07-.97 2.07-2.63v-.02c0-1.67-.82-2.62-2.08-2.62-1.24 0-2.07.96-2.07 2.62v.01c0 1.68.83 2.64 2.08 2.64Zm7.2 1.06c-1.56 0-2.46-1.01-2.46-2.63v-4.62h1.19v4.4c0 1.16.53 1.8 1.63 1.8 1.12 0 1.85-.8 1.85-2.02v-4.18h1.2V509h-1.2v-1.01h-.03c-.38.66-1.1 1.15-2.18 1.15Zm7.54 0c-1.3 0-1.94-.6-1.94-1.95v-4.31h-1.04v-.99h1.03v-1.92h1.24v1.92h1.35v.99h-1.35v4.3c0 .76.33.97.97.97l.38-.02v.96c-.15.02-.4.05-.64.05Zm8.27 0c-2.04 0-3.27-1.43-3.27-3.67 0-2.2 1.26-3.72 3.2-3.72 1.94 0 3.12 1.45 3.12 3.58v.44h-5.12c.03 1.46.84 2.31 2.1 2.31.9 0 1.54-.45 1.75-1.06l.01-.06h1.17l-.01.07c-.23 1.18-1.4 2.1-2.95 2.1Zm-.08-6.33c-1.03 0-1.84.7-1.97 2.03h3.9c-.12-1.38-.89-2.03-1.93-2.03Zm3.93 6.19 2.42-3.56-2.38-3.55h1.32l1.71 2.67h.03l1.69-2.67h1.32l-2.4 3.5 2.37 3.61h-1.32l-1.7-2.7h-.03l-1.72 2.7h-1.31Zm7.4 2.4v-9.5h1.18v1.2h.03a2.47 2.47 0 0 1 2.25-1.35c1.82 0 3.03 1.45 3.03 3.7 0 2.24-1.22 3.69-3 3.69a2.5 2.5 0 0 1-2.28-1.33h-.03v3.58h-1.19Zm3.23-3.32c1.26 0 2.04-1 2.04-2.63 0-1.64-.78-2.64-2.04-2.64-1.2 0-2.06 1.04-2.06 2.63v.01c0 1.59.87 2.63 2.06 2.63Zm7.67 1.06c-2.05 0-3.28-1.43-3.28-3.67 0-2.2 1.26-3.72 3.2-3.72 1.94 0 3.12 1.45 3.12 3.58v.44h-5.12c.03 1.46.84 2.31 2.1 2.31.9 0 1.54-.45 1.75-1.06l.02-.06h1.16v.07c-.24 1.18-1.4 2.1-2.95 2.1Zm-.09-6.33c-1.03 0-1.84.7-1.97 2.03h3.9c-.12-1.38-.89-2.03-1.93-2.03Zm4.62 6.19v-7.1h1.19v1.2h.02c.24-.83.86-1.35 1.66-1.35.2 0 .38.04.48.05v1.16a2.4 2.4 0 0 0-.64-.07c-.92 0-1.52.64-1.52 1.72V509h-1.2Zm5.27-8.31a.75.75 0 0 1 0-1.5c.41 0 .74.33.74.75 0 .41-.33.75-.74.75Zm-.6 8.31v-7.1h1.2v7.1h-1.2Zm6.02.14c-2.05 0-3.28-1.43-3.28-3.67 0-2.2 1.26-3.72 3.2-3.72 1.94 0 3.13 1.45 3.13 3.58v.44h-5.12c.02 1.46.83 2.31 2.1 2.31.9 0 1.53-.45 1.74-1.06l.02-.06h1.17l-.02.07c-.23 1.18-1.4 2.1-2.94 2.1Zm-.08-6.33c-1.04 0-1.84.7-1.97 2.03h3.89c-.12-1.38-.88-2.03-1.92-2.03Zm4.61 6.19v-7.1h1.19v1h.03c.38-.66 1.1-1.15 2.18-1.15 1.56 0 2.47 1.02 2.47 2.64V509H910v-4.4c0-1.16-.53-1.8-1.63-1.8-1.12 0-1.85.8-1.85 2.02V509h-1.19Zm10.6.14c-2 0-3.29-1.44-3.29-3.7 0-2.25 1.3-3.69 3.28-3.69 1.78 0 2.82 1.18 2.97 2.4v.05h-1.15l-.02-.05c-.18-.71-.75-1.34-1.8-1.34-1.23 0-2.06 1.02-2.06 2.63v.01c0 1.66.85 2.63 2.08 2.63.97 0 1.6-.54 1.79-1.34l.01-.05h1.17v.05c-.2 1.35-1.37 2.4-2.97 2.4Zm7.28 0c-2.04 0-3.27-1.43-3.27-3.67 0-2.2 1.25-3.72 3.2-3.72 1.94 0 3.12 1.45 3.12 3.58v.44h-5.12c.03 1.46.84 2.31 2.1 2.31.9 0 1.54-.45 1.74-1.06l.02-.06h1.17l-.01.07c-.23 1.18-1.4 2.1-2.95 2.1Zm-.08-6.33c-1.03 0-1.84.7-1.97 2.03h3.9c-.13-1.38-.9-2.03-1.93-2.03ZM808.96 537v-9.86h5.99v1.1h-4.76v3.4h4.37v1.09h-4.37V537h-1.23Zm7.49 0v-7.1h1.19v1.2h.03c.24-.83.85-1.35 1.65-1.35.2 0 .38.04.48.05v1.16a2.2 2.2 0 0 0-.64-.07c-.92 0-1.52.64-1.52 1.72V537h-1.2Zm7.2.14c-1.97 0-3.3-1.43-3.3-3.7 0-2.27 1.33-3.69 3.3-3.69 1.96 0 3.3 1.41 3.3 3.68v.02c0 2.26-1.33 3.69-3.3 3.69Zm.01-1.06c1.25 0 2.07-.97 2.07-2.63v-.02c0-1.67-.83-2.62-2.08-2.62-1.24 0-2.07.96-2.07 2.62v.02c0 1.67.82 2.63 2.08 2.63Zm4.76.92v-7.1h1.2v1.03h.02a2.06 2.06 0 0 1 1.95-1.18 2 2 0 0 1 2 1.37h.02a2.38 2.38 0 0 1 2.23-1.37c1.41 0 2.32.93 2.32 2.34V537h-1.19v-4.63c0-.98-.54-1.56-1.48-1.56s-1.6.7-1.6 1.67V537h-1.2v-4.76c0-.87-.57-1.43-1.45-1.43-.94 0-1.63.74-1.63 1.73V537h-1.19Zm17.23 0v-8.56h-.03l-2.6 1.82v-1.24l2.62-1.88h1.2V537h-1.19Zm9.4.14c-1.3 0-1.94-.6-1.94-1.95v-4.32h-1.04v-.98h1.04v-1.92h1.23v1.92h1.35v.99h-1.35v4.3c0 .76.33.97.97.97l.38-.02v.96c-.15.02-.4.05-.63.05Zm4.94 0c-1.97 0-3.3-1.43-3.3-3.7 0-2.27 1.33-3.69 3.3-3.69 1.96 0 3.29 1.41 3.29 3.68v.02c0 2.26-1.33 3.69-3.29 3.69Zm0-1.06c1.26 0 2.07-.97 2.07-2.63v-.02c0-1.67-.82-2.62-2.07-2.62-1.24 0-2.08.96-2.08 2.62v.02c0 1.67.83 2.63 2.09 2.63Zm11.27 1.08c-2.03 0-3.35-1.13-3.48-2.69v-.08h1.17l.01.07c.1.97 1 1.64 2.3 1.64 1.3 0 2.18-.73 2.18-1.77v-.02c0-1.2-.87-1.88-2.25-1.88h-1.24v-1.04h1.18c1.18 0 2-.73 2-1.71v-.01c0-1.04-.68-1.63-1.88-1.63-1.16 0-1.99.61-2.1 1.61v.07h-1.18v-.07c.16-1.6 1.43-2.68 3.28-2.68 1.88 0 3.12 1.05 3.12 2.54v.02c0 1.22-.86 2.05-2.1 2.3v.04c1.44.12 2.42 1.01 2.42 2.42v.01c0 1.65-1.45 2.86-3.43 2.86Zm9.05 2.23c-.23 0-.48-.02-.63-.05v-.97c.1.02.24.04.38.04.75 0 1.17-.2 1.46-1l.14-.4-2.64-7.12h1.27l1.97 5.92h.02l1.97-5.92h1.25l-2.77 7.55c-.5 1.36-1.13 1.95-2.42 1.95Zm9.06-2.25c-2.04 0-3.27-1.43-3.27-3.67 0-2.2 1.25-3.72 3.2-3.72 1.94 0 3.12 1.45 3.12 3.58v.44h-5.12c.03 1.46.83 2.31 2.1 2.31.9 0 1.54-.45 1.74-1.06l.02-.06h1.17l-.01.07c-.24 1.18-1.4 2.1-2.95 2.1Zm-.08-6.33c-1.03 0-1.84.7-1.97 2.03h3.89c-.12-1.38-.88-2.03-1.92-2.03Zm6.7 6.33c-1.42 0-2.37-.86-2.37-2.15v-.01c0-1.21.94-1.97 2.57-2.07l2.04-.11v-.6c0-.87-.57-1.4-1.56-1.4-.91 0-1.49.44-1.63 1.08v.06h-1.16l.01-.07c.1-1.17 1.12-2.12 2.8-2.12 1.68 0 2.73.91 2.73 2.34V537h-1.19v-1.15h-.03a2.51 2.51 0 0 1-2.22 1.29Zm-1.16-2.15c0 .68.56 1.11 1.42 1.11 1.12 0 1.98-.77 1.98-1.8v-.58l-1.9.12c-.95.05-1.5.47-1.5 1.14v.01Zm6.38 2.01v-7.1h1.19v1.2h.03c.24-.83.85-1.35 1.65-1.35.2 0 .38.04.48.05v1.16a2.4 2.4 0 0 0-.63-.07c-.93 0-1.53.64-1.53 1.72V537h-1.19Zm7.12.14c-1.67 0-2.68-.86-2.83-2.13v-.06h1.19l.01.07c.14.7.67 1.13 1.64 1.13.96 0 1.54-.4 1.54-1.05 0-.52-.27-.8-1.08-1l-1.12-.28c-1.34-.32-2-.94-2-1.97 0-1.23 1.08-2.1 2.62-2.1 1.56 0 2.55.91 2.64 2.1v.1h-1.13v-.06c-.1-.69-.63-1.14-1.51-1.14-.86 0-1.4.41-1.4 1.04 0 .5.33.83 1.11 1.02l1.13.27c1.44.35 1.96.92 1.96 1.93 0 1.25-1.18 2.13-2.77 2.13Zm-96.21 29.02c-2.03 0-3.35-1.13-3.48-2.69l-.01-.08h1.18v.07c.11.97 1 1.64 2.31 1.64 1.3 0 2.18-.73 2.18-1.77v-.02c0-1.2-.87-1.88-2.25-1.88h-1.24v-1.04h1.18c1.18 0 2-.73 2-1.71v-.01c0-1.04-.68-1.63-1.88-1.63-1.16 0-2 .61-2.1 1.61v.07h-1.18v-.07c.16-1.6 1.43-2.68 3.28-2.68 1.88 0 3.12 1.05 3.12 2.54v.02c0 1.22-.87 2.05-2.1 2.3v.04c1.44.12 2.42 1.01 2.42 2.42v.01c0 1.65-1.45 2.86-3.43 2.86Zm10.68-.02c-1.3 0-1.95-.6-1.95-1.95v-4.32h-1.04v-.98h1.04v-1.92h1.23v1.92h1.35v.99h-1.35v4.3c0 .76.34.97.97.97l.38-.02v.96c-.14.02-.4.05-.63.05Zm4.94 0c-1.98 0-3.3-1.43-3.3-3.7 0-2.27 1.33-3.69 3.29-3.69s3.3 1.41 3.3 3.68v.02c0 2.26-1.33 3.69-3.3 3.69Zm0-1.06c1.25 0 2.07-.97 2.07-2.63v-.02c0-1.67-.82-2.62-2.08-2.62-1.24 0-2.07.96-2.07 2.62v.02c0 1.67.82 2.63 2.08 2.63Zm11.51 1.08c-1.82 0-3.74-1.25-3.74-4.91v-.01c0-3.33 1.41-5.27 3.83-5.27 1.67 0 2.92.96 3.25 2.4l.02.08h-1.25l-.03-.07c-.3-.82-1-1.32-2-1.32-1.85 0-2.57 1.78-2.63 3.85v.22h.02c.4-.88 1.41-1.59 2.75-1.59a3.18 3.18 0 0 1 3.28 3.26v.01c0 1.95-1.48 3.35-3.5 3.35ZM837 562.8c0 1.27.98 2.27 2.25 2.27 1.26 0 2.25-.98 2.25-2.23v-.01c0-1.29-.93-2.21-2.23-2.21-1.3 0-2.27.92-2.27 2.17v.01Zm11.42 5.6c-.23 0-.48-.03-.63-.06v-.97c.1.02.24.04.38.04.75 0 1.17-.2 1.46-1l.14-.4-2.64-7.12h1.27l1.96 5.92h.03l1.97-5.92h1.25l-2.77 7.55c-.51 1.36-1.13 1.95-2.42 1.95Zm9.06-2.26c-2.04 0-3.27-1.43-3.27-3.67 0-2.2 1.25-3.72 3.2-3.72 1.94 0 3.12 1.45 3.12 3.58v.44h-5.12c.03 1.46.83 2.31 2.1 2.31.9 0 1.53-.45 1.74-1.06l.02-.06h1.17l-.01.07c-.24 1.18-1.4 2.1-2.95 2.1Zm-.08-6.33c-1.03 0-1.84.7-1.97 2.03h3.89c-.12-1.38-.88-2.03-1.92-2.03Zm6.69 6.33c-1.42 0-2.37-.86-2.37-2.15v-.01c0-1.21.95-1.97 2.58-2.07l2.04-.11v-.6c0-.87-.57-1.4-1.56-1.4-.92 0-1.49.44-1.63 1.08l-.01.06h-1.15v-.07c.11-1.17 1.13-2.12 2.8-2.12 1.69 0 2.74.91 2.74 2.34V566h-1.2v-1.15h-.02a2.51 2.51 0 0 1-2.22 1.29Zm-1.15-2.15c0 .68.56 1.11 1.42 1.11 1.12 0 1.98-.77 1.98-1.8v-.58l-1.9.12c-.95.05-1.5.47-1.5 1.14v.01Zm6.38 2.01v-7.1h1.19v1.2h.03c.24-.83.85-1.35 1.65-1.35.2 0 .38.04.48.05v1.16a2.4 2.4 0 0 0-.64-.07c-.92 0-1.52.64-1.52 1.72V566h-1.2Zm7.12.14c-1.67 0-2.68-.86-2.83-2.13v-.06h1.18l.02.07c.14.7.67 1.13 1.64 1.13.96 0 1.54-.4 1.54-1.05 0-.52-.27-.8-1.08-1l-1.13-.28c-1.34-.32-1.98-.94-1.98-1.97 0-1.23 1.07-2.1 2.6-2.1 1.57 0 2.56.91 2.65 2.1v.1h-1.13v-.06c-.1-.69-.63-1.14-1.51-1.14-.86 0-1.4.41-1.4 1.04 0 .5.32.83 1.11 1.02l1.13.27c1.43.35 1.95.92 1.95 1.93 0 1.25-1.17 2.13-2.76 2.13ZM808.96 595v-9.86h1.42l3.42 8.3h.04l3.42-8.3h1.42V595h-1.15v-7.62h-.04l-3.15 7.62h-1.04l-3.15-7.62h-.04V595h-1.15Zm14.67.14c-1.97 0-3.3-1.43-3.3-3.7 0-2.27 1.33-3.69 3.3-3.69 1.96 0 3.3 1.41 3.3 3.68v.02c0 2.26-1.33 3.69-3.3 3.69Zm.01-1.06c1.25 0 2.07-.97 2.07-2.63v-.02c0-1.67-.83-2.62-2.08-2.62-1.24 0-2.08.96-2.08 2.62v.02c0 1.67.83 2.63 2.09 2.63Zm4.76.92v-7.1h1.2v1.2h.02c.24-.83.86-1.35 1.66-1.35.2 0 .38.04.47.05v1.16a2.4 2.4 0 0 0-.63-.07c-.92 0-1.53.64-1.53 1.72V595h-1.19Zm7.19.14c-2.05 0-3.27-1.43-3.27-3.67 0-2.2 1.25-3.72 3.2-3.72 1.94 0 3.12 1.45 3.12 3.58v.44h-5.12c.02 1.46.83 2.31 2.1 2.31.9 0 1.53-.45 1.74-1.06l.02-.06h1.17l-.01.07c-.24 1.18-1.4 2.1-2.95 2.1Zm-.08-6.33c-1.03 0-1.84.7-1.97 2.03h3.89c-.12-1.38-.88-2.03-1.92-2.03Zm10.07 6.33c-1.3 0-1.95-.6-1.95-1.95v-4.32h-1.03v-.98h1.03v-1.92h1.24v1.92h1.35v.99h-1.36v4.3c0 .76.34.97.98.97l.38-.02v.96c-.15.02-.4.05-.64.05Zm2.26-.14v-9.86h1.19v3.88h.02c.39-.8 1.16-1.27 2.22-1.27 1.51 0 2.54 1.17 2.54 2.9V595h-1.19v-4.15c0-1.28-.65-2.04-1.76-2.04-1.1 0-1.83.83-1.83 2.04V595h-1.2Zm9.84.14c-1.41 0-2.36-.86-2.36-2.15v-.01c0-1.21.94-1.97 2.57-2.07l2.04-.11v-.6c0-.87-.57-1.4-1.56-1.4-.91 0-1.49.44-1.63 1.08v.06h-1.16l.01-.07c.1-1.17 1.12-2.12 2.8-2.12 1.68 0 2.73.91 2.73 2.34V595h-1.19v-1.15h-.03a2.51 2.51 0 0 1-2.22 1.29Zm-1.15-2.15c0 .68.56 1.11 1.42 1.11 1.12 0 1.98-.77 1.98-1.8v-.58l-1.9.12c-.95.05-1.5.47-1.5 1.14v.01Zm6.38 2.01v-7.1h1.19v1h.03c.38-.66 1.1-1.15 2.19-1.15 1.55 0 2.46 1.02 2.46 2.64V595h-1.2v-4.4c0-1.16-.53-1.8-1.63-1.8-1.12 0-1.85.8-1.85 2.02V595h-1.19Zm14.41.16c-1.82 0-3.75-1.25-3.75-4.91v-.01c0-3.33 1.42-5.27 3.83-5.27 1.68 0 2.93.96 3.26 2.4l.02.08h-1.25l-.03-.07c-.3-.82-1-1.32-2.01-1.32-1.84 0-2.56 1.78-2.62 3.85v.22h.02c.4-.88 1.4-1.59 2.75-1.59a3.18 3.18 0 0 1 3.27 3.26v.01c0 1.95-1.47 3.35-3.49 3.35Zm-2.26-3.36c0 1.27.98 2.27 2.25 2.27 1.26 0 2.25-.98 2.25-2.23v-.01c0-1.29-.93-2.21-2.23-2.21-1.3 0-2.27.92-2.27 2.17v.01Zm11.42 5.6c-.23 0-.49-.03-.64-.06v-.97c.1.02.24.04.39.04.75 0 1.17-.2 1.45-1l.15-.4-2.64-7.12h1.27l1.96 5.92h.03l1.97-5.92h1.25l-2.78 7.55c-.5 1.36-1.13 1.95-2.41 1.95Zm9.06-2.26c-2.05 0-3.28-1.43-3.28-3.67 0-2.2 1.26-3.72 3.2-3.72 1.94 0 3.13 1.45 3.13 3.58v.44h-5.12c.02 1.46.83 2.31 2.1 2.31.9 0 1.53-.45 1.74-1.06l.02-.06h1.17l-.02.07c-.23 1.18-1.4 2.1-2.94 2.1Zm-.08-6.33c-1.04 0-1.84.7-1.97 2.03h3.89c-.12-1.38-.89-2.03-1.92-2.03Zm6.69 6.33c-1.42 0-2.37-.86-2.37-2.15v-.01c0-1.21.95-1.97 2.58-2.07l2.04-.11v-.6c0-.87-.57-1.4-1.56-1.4-.92 0-1.5.44-1.63 1.08l-.01.06h-1.15v-.07c.1-1.17 1.13-2.12 2.8-2.12 1.68 0 2.74.91 2.74 2.34V595h-1.2v-1.15h-.02a2.51 2.51 0 0 1-2.22 1.29Zm-1.15-2.15c0 .68.56 1.11 1.41 1.11 1.13 0 1.99-.77 1.99-1.8v-.58l-1.9.12c-.95.05-1.5.47-1.5 1.14v.01Zm6.38 2.01v-7.1h1.19v1.2h.02c.24-.83.86-1.35 1.66-1.35.2 0 .38.04.48.05v1.16a2.4 2.4 0 0 0-.64-.07c-.92 0-1.52.64-1.52 1.72V595h-1.2Zm7.12.14c-1.67 0-2.69-.86-2.83-2.13v-.06h1.18l.02.07c.14.7.67 1.13 1.64 1.13.96 0 1.53-.4 1.53-1.05 0-.52-.26-.8-1.07-1l-1.13-.28c-1.34-.32-1.99-.94-1.99-1.97 0-1.23 1.08-2.1 2.62-2.1 1.55 0 2.54.91 2.63 2.1l.01.1h-1.13l-.01-.06c-.1-.69-.62-1.14-1.5-1.14-.87 0-1.4.41-1.4 1.04 0 .5.32.83 1.1 1.02l1.14.27c1.43.35 1.95.92 1.95 1.93 0 1.25-1.17 2.13-2.76 2.13ZM476.96 690v-9.86h3.51a3.02 3.02 0 0 1 3.17 3.15v.01a3.04 3.04 0 0 1-3.17 3.18h-2.28V690h-1.23Zm3.2-8.77h-1.97v4.16h1.97c1.4 0 2.22-.78 2.22-2.08s-.82-2.08-2.22-2.08Zm6.45 8.9c-1.42 0-2.37-.85-2.37-2.14v-.01c0-1.21.95-1.97 2.58-2.07l2.04-.11v-.6c0-.87-.57-1.4-1.56-1.4-.92 0-1.5.44-1.63 1.08l-.01.06h-1.15v-.07c.11-1.17 1.13-2.12 2.8-2.12 1.69 0 2.74.91 2.74 2.34V690h-1.2v-1.15h-.02a2.52 2.52 0 0 1-2.22 1.29Zm-1.15-2.14c0 .68.56 1.11 1.42 1.11 1.12 0 1.98-.77 1.98-1.8v-.58l-1.9.12c-.95.05-1.5.47-1.5 1.14v.01Zm6.38 2.01v-7.1h1.19v1.2h.03c.23-.83.85-1.35 1.65-1.35.2 0 .38.04.48.05v1.16a2.2 2.2 0 0 0-.64-.07c-.92 0-1.52.64-1.52 1.72V690h-1.2Zm7.25.14c-1.3 0-1.95-.6-1.95-1.95v-4.32h-1.04v-.98h1.04v-1.92h1.23v1.92h1.36v.99h-1.36v4.3c0 .76.34.97.97.97l.39-.02v.96c-.15.02-.4.05-.64.05Zm2.24-3.59v-1.1h4.37v1.1h-4.37Zm8.55 3.59c-1.3 0-1.95-.6-1.95-1.95v-4.32h-1.04v-.98h1.04v-1.92h1.23v1.92h1.35v.99h-1.35v4.3c0 .76.33.97.97.97l.38-.02v.96c-.15.02-.4.05-.63.05Zm2.86-8.45a.75.75 0 1 1 0-1.5.75.75 0 0 1 0 1.5Zm-.6 8.31v-7.1h1.2v7.1h-1.2Zm3.1 0v-7.1h1.19v1.03h.02a2.06 2.06 0 0 1 1.95-1.18 2 2 0 0 1 2 1.37h.02a2.38 2.38 0 0 1 2.23-1.37c1.41 0 2.32.93 2.32 2.34V690h-1.19v-4.63c0-.98-.54-1.56-1.48-1.56s-1.6.7-1.6 1.67V690h-1.2v-4.76c0-.87-.57-1.43-1.45-1.43-.94 0-1.62.74-1.62 1.73V690h-1.2Zm14.45.14c-2.04 0-3.27-1.43-3.27-3.67 0-2.2 1.26-3.72 3.2-3.72 1.94 0 3.12 1.45 3.12 3.58v.44h-5.12c.03 1.46.84 2.31 2.1 2.31.9 0 1.54-.45 1.75-1.06l.01-.06h1.17l-.01.07c-.23 1.18-1.4 2.1-2.95 2.1Zm-.08-6.33c-1.03 0-1.84.7-1.97 2.03h3.9c-.12-1.38-.89-2.03-1.93-2.03Zm10.7 6.33c-2.05 0-3.28-1.43-3.28-3.67 0-2.2 1.26-3.72 3.2-3.72 1.94 0 3.12 1.45 3.12 3.58v.44h-5.12c.03 1.46.84 2.31 2.1 2.31.9 0 1.54-.45 1.74-1.06l.02-.06h1.17l-.01.07c-.23 1.18-1.4 2.1-2.95 2.1Zm-.09-6.33c-1.03 0-1.84.7-1.97 2.03h3.9c-.12-1.38-.89-2.03-1.93-2.03Zm4.62 6.19v-7.1h1.18v1.03h.03a2.06 2.06 0 0 1 1.95-1.18 2 2 0 0 1 2 1.37h.02a2.38 2.38 0 0 1 2.23-1.37c1.41 0 2.32.93 2.32 2.34V690h-1.19v-4.63c0-.98-.54-1.56-1.48-1.56s-1.6.7-1.6 1.67V690h-1.2v-4.76c0-.87-.57-1.43-1.45-1.43-.94 0-1.63.74-1.63 1.73V690h-1.18Zm11.53 2.4v-9.5h1.19v1.2h.02a2.47 2.47 0 0 1 2.26-1.35c1.82 0 3.02 1.45 3.02 3.7 0 2.24-1.22 3.69-3 3.69-1 0-1.83-.5-2.28-1.33h-.02v3.58h-1.2Zm3.24-3.32c1.25 0 2.03-1 2.03-2.63 0-1.64-.77-2.64-2.03-2.64-1.2 0-2.06 1.04-2.06 2.64 0 1.59.86 2.63 2.06 2.63Zm4.8.92v-9.86h1.19V690h-1.2Zm6.02.14c-1.98 0-3.3-1.43-3.3-3.7 0-2.27 1.33-3.69 3.3-3.69 1.95 0 3.29 1.41 3.29 3.68v.02c0 2.26-1.33 3.69-3.3 3.69Zm0-1.06c1.26 0 2.07-.97 2.07-2.63v-.02c0-1.67-.82-2.62-2.08-2.62-1.24 0-2.07.96-2.07 2.62v.02c0 1.67.83 2.63 2.08 2.63Zm5.18 3.31c-.23 0-.49-.02-.64-.05v-.97c.1.02.24.04.39.04.75 0 1.16-.2 1.45-1l.15-.4-2.64-7.12h1.27l1.96 5.92h.03l1.97-5.92h1.25l-2.78 7.55c-.5 1.36-1.13 1.95-2.41 1.95ZM582 690v-7.1h1.2v1.03h.02a2.06 2.06 0 0 1 1.95-1.18 2 2 0 0 1 2 1.37h.02a2.38 2.38 0 0 1 2.23-1.37c1.4 0 2.32.93 2.32 2.34V690h-1.2v-4.63c0-.98-.53-1.56-1.47-1.56s-1.6.7-1.6 1.67V690h-1.2v-4.76c0-.87-.57-1.43-1.45-1.43-.94 0-1.63.74-1.63 1.73V690H582Zm14.46.14c-2.04 0-3.27-1.43-3.27-3.67 0-2.2 1.25-3.72 3.2-3.72 1.94 0 3.12 1.45 3.12 3.58v.44h-5.12c.03 1.46.84 2.31 2.1 2.31.9 0 1.54-.45 1.74-1.06l.02-.06h1.17l-.01.07c-.23 1.18-1.4 2.1-2.95 2.1Zm-.08-6.33c-1.03 0-1.84.7-1.97 2.03h3.9c-.13-1.38-.9-2.03-1.93-2.03ZM601 690v-7.1h1.2v1h.02c.38-.66 1.1-1.15 2.19-1.15 1.56 0 2.46 1.02 2.46 2.64V690h-1.19v-4.4c0-1.16-.54-1.8-1.63-1.8-1.13 0-1.86.8-1.86 2.02V690H601Zm9.98.14c-1.3 0-1.95-.6-1.95-1.95v-4.32h-1.04v-.98h1.04v-1.92h1.23v1.92h1.35v.99h-1.35v4.3c0 .76.33.97.97.97l.38-.02v.96c-.15.02-.4.05-.63.05ZM140.96 453v-9.86h3.51a3.02 3.02 0 0 1 3.17 3.15v.01a3.04 3.04 0 0 1-3.17 3.18h-2.28V453h-1.23Zm3.2-8.77h-1.97v4.16h1.97c1.4 0 2.22-.78 2.22-2.08s-.82-2.08-2.22-2.08Zm7.41 8.9c-1.56 0-2.46-1-2.46-2.63v-4.6h1.2v4.4c0 1.15.53 1.78 1.63 1.78 1.12 0 1.85-.8 1.85-2v-4.19h1.19V453h-1.2v-1.01h-.02c-.38.66-1.1 1.15-2.19 1.15Zm8.77 0a2.47 2.47 0 0 1-2.25-1.33h-.03v1.2h-1.19v-9.86h1.19v3.94h.03a2.52 2.52 0 0 1 2.27-1.33c1.79 0 3 1.45 3 3.69 0 2.25-1.2 3.7-3.02 3.7Zm-.23-1.05c1.26 0 2.04-1 2.04-2.63v-.01c0-1.62-.78-2.63-2.04-2.63-1.2 0-2.06 1.04-2.06 2.63 0 1.6.86 2.64 2.06 2.64Zm4.8.92v-9.86h1.18V453h-1.19Zm3.74-8.31a.75.75 0 0 1 0-1.5c.41 0 .74.33.74.75 0 .41-.32.75-.74.75Zm-.6 8.31v-7.1h1.2v7.1h-1.2Zm5.62.14c-1.68 0-2.7-.86-2.83-2.13l-.01-.06h1.19l.01.07c.15.7.67 1.13 1.64 1.13.97 0 1.54-.4 1.54-1.05 0-.52-.27-.8-1.07-1l-1.13-.28c-1.34-.32-1.99-.94-1.99-1.97 0-1.23 1.07-2.1 2.61-2.1 1.56 0 2.55.91 2.64 2.1v.1h-1.13v-.06c-.1-.69-.63-1.14-1.5-1.14s-1.4.41-1.4 1.04c0 .5.32.83 1.1 1.02l1.13.27c1.44.35 1.96.92 1.96 1.93 0 1.25-1.18 2.13-2.76 2.13ZM178 453v-9.86h1.19v3.88h.02c.39-.8 1.16-1.27 2.22-1.27 1.5 0 2.54 1.17 2.54 2.9V453h-1.19v-4.15c0-1.29-.66-2.04-1.76-2.04s-1.83.83-1.83 2.04V453H178Zm10.69.14c-2.05 0-3.28-1.43-3.28-3.67 0-2.2 1.26-3.72 3.2-3.72 1.94 0 3.13 1.45 3.13 3.58v.44h-5.12c.02 1.46.83 2.31 2.1 2.31.9 0 1.53-.45 1.74-1.06l.02-.06h1.17l-.02.07c-.23 1.18-1.4 2.1-2.94 2.1Zm-.08-6.33c-1.04 0-1.84.7-1.97 2.03h3.89c-.12-1.38-.89-2.03-1.92-2.03Zm7.28 6.33c-1.82 0-3.02-1.45-3.02-3.7 0-2.24 1.22-3.69 3-3.69 1 0 1.83.51 2.28 1.33h.03v-3.94h1.19V453h-1.2v-1.2h-.02a2.47 2.47 0 0 1-2.26 1.34Zm.23-1.06c1.2 0 2.06-1.04 2.06-2.63v-.01c0-1.59-.86-2.63-2.06-2.63-1.25 0-2.03 1-2.03 2.63 0 1.64.78 2.64 2.03 2.64Zm-51.24 30.08c-2.45 0-3.92-1.47-3.92-3.62v-6.4h1.23v6.32c0 1.52.98 2.57 2.7 2.57 1.7 0 2.67-1.05 2.67-2.57v-6.32h1.23v6.4c0 2.15-1.46 3.62-3.9 3.62Zm5.92-.16v-7.1h1.2v1h.03c.38-.66 1.1-1.15 2.19-1.15 1.55 0 2.46 1.02 2.46 2.64V482h-1.2v-4.4c0-1.16-.53-1.8-1.63-1.8-1.12 0-1.85.8-1.85 2.02V482h-1.19Zm8.05 0v-6.13h-1v-.98h1v-.87c0-1.37.63-2.02 1.94-2.02.27 0 .55.02.73.05v.96a3.78 3.78 0 0 0-.51-.03c-.66 0-.99.34-.99 1.04v.87h1.47v.99h-1.45V482h-1.2Zm4.81-8.31a.75.75 0 0 1 0-1.5c.42 0 .75.33.75.75 0 .41-.33.75-.75.75Zm-.59 8.31v-7.1h1.19v7.1h-1.19Zm3.15 0v-9.86h1.2V482h-1.2Zm3.14 0v-9.86h1.19V482h-1.2Zm6 .14c-2.04 0-3.27-1.43-3.27-3.67 0-2.2 1.25-3.72 3.2-3.72 1.94 0 3.12 1.45 3.12 3.58v.44h-5.12c.03 1.46.83 2.31 2.1 2.31.9 0 1.54-.45 1.74-1.06l.02-.06h1.17l-.01.07c-.24 1.18-1.4 2.1-2.95 2.1Zm-.08-6.33c-1.03 0-1.84.7-1.97 2.03h3.89c-.12-1.38-.88-2.03-1.92-2.03Zm7.28 6.33c-1.81 0-3.02-1.45-3.02-3.7 0-2.24 1.22-3.69 3-3.69 1.01 0 1.84.51 2.28 1.33h.03v-3.94h1.19V482h-1.2v-1.2h-.02a2.47 2.47 0 0 1-2.25 1.34Zm.24-1.06c1.2 0 2.06-1.04 2.06-2.63v-.01c0-1.59-.87-2.63-2.06-2.63-1.26 0-2.04 1-2.04 2.63 0 1.64.78 2.64 2.04 2.64Z"/>
  <path fill="#454C54" d="M348.29 569.21a.95.95 0 0 1-.7-.32l-3.98-4.06a.86.86 0 1 1 1.25-1.18l3.44 3.54 3.43-3.54c.17-.18.4-.28.63-.28.47 0 .85.39.85.87a.8.8 0 0 1-.24.59l-3.98 4.06a.94.94 0 0 1-.7.32Z" opacity=".4"/>
  <path fill="#454C54" d="m130.17 571 3.67-9.86h1.22l3.66 9.86h-1.29l-1-2.82h-3.97l-1 2.82h-1.29Zm4.27-8.39-1.6 4.52h3.22l-1.6-4.52h-.02ZM140 571v-9.86h1.2V571H140Zm3.14 0v-9.86h1.2V571h-1.2Zm8.66.14c-1.56 0-2.47-1.01-2.47-2.63v-4.62h1.2v4.4c0 1.16.53 1.8 1.63 1.8 1.12 0 1.85-.8 1.85-2.02v-4.18h1.19V571h-1.19v-1.01h-.03c-.38.66-1.1 1.15-2.18 1.15Zm7.75 0c-1.67 0-2.68-.86-2.83-2.13v-.06h1.19l.01.07c.14.7.67 1.13 1.64 1.13.97 0 1.54-.4 1.54-1.05 0-.52-.27-.8-1.07-1l-1.13-.28c-1.34-.32-2-.94-2-1.97 0-1.23 1.08-2.1 2.62-2.1 1.56 0 2.55.91 2.64 2.1v.1h-1.13v-.06c-.1-.69-.63-1.14-1.51-1.14-.86 0-1.4.41-1.4 1.04 0 .5.33.83 1.11 1.02l1.13.27c1.44.35 1.96.92 1.96 1.93 0 1.25-1.18 2.13-2.77 2.13Zm7.2 0c-2.03 0-3.27-1.43-3.27-3.67 0-2.2 1.26-3.72 3.2-3.72 1.94 0 3.13 1.45 3.13 3.58v.44h-5.12c.03 1.46.83 2.31 2.1 2.31.9 0 1.53-.45 1.74-1.06l.02-.06h1.17l-.01.07c-.24 1.18-1.4 2.1-2.95 2.1Zm-.07-6.33c-1.03 0-1.84.7-1.97 2.03h3.89c-.12-1.38-.88-2.03-1.92-2.03Zm4.61 6.19v-7.1h1.19v1.2h.03c.24-.83.85-1.35 1.65-1.35.2 0 .39.04.48.05v1.16a2.4 2.4 0 0 0-.64-.07c-.92 0-1.52.64-1.52 1.72V571h-1.19Zm7.12.14c-1.67 0-2.68-.86-2.83-2.13v-.06h1.19l.01.07c.14.7.67 1.13 1.64 1.13.96 0 1.54-.4 1.54-1.05 0-.52-.27-.8-1.07-1l-1.13-.28c-1.34-.32-2-.94-2-1.97 0-1.23 1.08-2.1 2.62-2.1 1.56 0 2.55.91 2.64 2.1v.1h-1.13v-.06c-.1-.69-.63-1.14-1.51-1.14-.86 0-1.4.41-1.4 1.04 0 .5.33.83 1.11 1.02l1.13.27c1.44.35 1.96.92 1.96 1.93 0 1.25-1.18 2.13-2.77 2.13Z"/>
  <path fill="#454C54" d="M348.29 669.21a.95.95 0 0 1-.7-.32l-3.98-4.06a.86.86 0 1 1 1.25-1.18l3.44 3.54 3.43-3.54c.17-.18.4-.28.63-.28.47 0 .85.39.85.87a.8.8 0 0 1-.24.59l-3.98 4.06a.94.94 0 0 1-.7.32Z" opacity=".4"/>
  <path fill="#454C54" d="m130.17 671 3.67-9.86h1.22l3.66 9.86h-1.29l-1-2.82h-3.97l-1 2.82h-1.29Zm4.27-8.39-1.6 4.52h3.22l-1.6-4.52h-.02ZM140 671v-9.86h1.2V671H140Zm3.14 0v-9.86h1.2V671h-1.2Zm8.66.14c-1.56 0-2.47-1.01-2.47-2.63v-4.62h1.2v4.4c0 1.16.53 1.8 1.63 1.8 1.12 0 1.85-.8 1.85-2.02v-4.18h1.19V671h-1.19v-1.01h-.03c-.38.66-1.1 1.15-2.18 1.15Zm7.75 0c-1.67 0-2.68-.86-2.83-2.13v-.06h1.19l.01.07c.14.7.67 1.13 1.64 1.13.97 0 1.54-.4 1.54-1.05 0-.52-.27-.8-1.07-1l-1.13-.28c-1.34-.32-2-.94-2-1.97 0-1.23 1.08-2.1 2.62-2.1 1.56 0 2.55.91 2.64 2.1v.1h-1.13v-.06c-.1-.69-.63-1.14-1.51-1.14-.86 0-1.4.41-1.4 1.04 0 .5.33.83 1.11 1.02l1.13.27c1.44.35 1.96.92 1.96 1.93 0 1.25-1.18 2.13-2.77 2.13Zm7.2 0c-2.03 0-3.27-1.43-3.27-3.67 0-2.2 1.26-3.72 3.2-3.72 1.94 0 3.13 1.45 3.13 3.58v.44h-5.12c.03 1.46.83 2.31 2.1 2.31.9 0 1.53-.45 1.74-1.06l.02-.06h1.17l-.01.07c-.24 1.18-1.4 2.1-2.95 2.1Zm-.07-6.33c-1.03 0-1.84.7-1.97 2.03h3.89c-.12-1.38-.88-2.03-1.92-2.03Zm4.61 6.19v-7.1h1.19v1.2h.03c.24-.83.85-1.35 1.65-1.35.2 0 .39.04.48.05v1.16a2.4 2.4 0 0 0-.64-.07c-.92 0-1.52.64-1.52 1.72V671h-1.19Zm7.12.14c-1.67 0-2.68-.86-2.83-2.13v-.06h1.19l.01.07c.14.7.67 1.13 1.64 1.13.96 0 1.54-.4 1.54-1.05 0-.52-.27-.8-1.07-1l-1.13-.28c-1.34-.32-2-.94-2-1.97 0-1.23 1.08-2.1 2.62-2.1 1.56 0 2.55.91 2.64 2.1v.1h-1.13v-.06c-.1-.69-.63-1.14-1.51-1.14-.86 0-1.4.41-1.4 1.04 0 .5.33.83 1.11 1.02l1.13.27c1.44.35 1.96.92 1.96 1.93 0 1.25-1.18 2.13-2.77 2.13Z"/>
  <path fill="#454C54" d="M675.29 211.21a.95.95 0 0 1-.7-.32l-3.98-4.06a.86.86 0 1 1 1.25-1.18l3.43 3.54 3.44-3.54c.17-.18.4-.28.63-.28.47 0 .85.39.85.87a.8.8 0 0 1-.24.59l-3.98 4.06a.94.94 0 0 1-.7.32Z" opacity=".4"/>
  <path fill="#454C54" d="m466.17 213 3.67-9.86h1.22l3.66 9.86h-1.29l-1-2.82h-3.97l-1 2.82h-1.29Zm4.27-8.39-1.6 4.52h3.22l-1.6-4.52h-.02ZM476 213v-9.86h1.2V213H476Zm3.14 0v-9.86h1.2V213h-1.2Zm7.64 0-2-7.1h1.19l1.42 5.77h.03l1.6-5.78h1.15l1.62 5.78h.02l1.43-5.78h1.17l-1.98 7.11h-1.21l-1.6-5.5h-.03L488 213h-1.21Zm11.84.14c-1.98 0-3.3-1.43-3.3-3.7 0-2.27 1.33-3.69 3.29-3.69s3.3 1.41 3.3 3.68v.01c0 2.28-1.33 3.7-3.3 3.7Zm0-1.06c1.25 0 2.07-.97 2.07-2.64 0-1.68-.82-2.63-2.08-2.63-1.24 0-2.07.96-2.07 2.62v.01c0 1.68.83 2.64 2.08 2.64Zm4.77.92v-7.1h1.19v1.2h.03c.23-.83.85-1.35 1.65-1.35.2 0 .38.04.48.05v1.16a2.4 2.4 0 0 0-.64-.07c-.92 0-1.52.64-1.52 1.72V213h-1.2Zm6.93.14c-1.82 0-3.02-1.45-3.02-3.7 0-2.24 1.21-3.69 3-3.69 1 0 1.83.51 2.28 1.33h.02v-3.94h1.2V213h-1.2v-1.2h-.02a2.47 2.47 0 0 1-2.26 1.34Zm.23-1.06c1.2 0 2.06-1.04 2.06-2.64 0-1.59-.86-2.63-2.06-2.63-1.26 0-2.04 1-2.04 2.63 0 1.64.78 2.64 2.04 2.64Zm7.65 1.06c-1.67 0-2.69-.86-2.83-2.13v-.06h1.18l.02.07c.14.7.67 1.13 1.64 1.13.96 0 1.54-.4 1.54-1.05 0-.52-.27-.8-1.08-1l-1.13-.28c-1.33-.32-1.98-.94-1.98-1.97 0-1.23 1.07-2.1 2.6-2.1 1.57 0 2.56.91 2.65 2.1v.1h-1.13l-.01-.06c-.1-.69-.62-1.14-1.5-1.14-.86 0-1.4.41-1.4 1.04 0 .5.32.83 1.1 1.02l1.14.27c1.43.35 1.95.92 1.95 1.93 0 1.25-1.17 2.13-2.76 2.13Zm9.5 0c-1.4 0-2.36-.86-2.36-2.15v-.01c0-1.21.95-1.97 2.58-2.07l2.04-.11v-.6c0-.87-.57-1.4-1.56-1.4-.92 0-1.5.44-1.63 1.08l-.01.06h-1.15v-.07c.11-1.17 1.13-2.12 2.8-2.12 1.69 0 2.74.91 2.74 2.34V213h-1.2v-1.16h-.02a2.52 2.52 0 0 1-2.22 1.3Zm-1.14-2.15c0 .68.56 1.11 1.42 1.11 1.12 0 1.98-.77 1.98-1.8v-.58l-1.9.12c-.95.05-1.5.47-1.5 1.14v.01Zm6.38 2.01v-7.1h1.19v1.2h.02c.24-.83.86-1.35 1.66-1.35.2 0 .38.04.48.05v1.16a2.2 2.2 0 0 0-.64-.07c-.92 0-1.52.64-1.52 1.72V213h-1.2Zm7.18.14c-2.04 0-3.27-1.43-3.27-3.67 0-2.2 1.26-3.72 3.2-3.72 1.94 0 3.12 1.45 3.12 3.58v.44h-5.12c.03 1.46.84 2.31 2.1 2.31.9 0 1.54-.45 1.74-1.06l.02-.06h1.17l-.01.07c-.23 1.18-1.4 2.1-2.95 2.1Zm-.08-6.33c-1.03 0-1.84.7-1.97 2.03h3.9c-.13-1.38-.9-2.03-1.93-2.03Zm8.15 6.19v-6.13h-1v-.98h1v-.87c0-1.37.63-2.02 1.95-2.02.26 0 .54.02.72.05v.96a3.77 3.77 0 0 0-.51-.03c-.66 0-.99.34-.99 1.04v.87h1.47v.99h-1.45V213h-1.2Zm6.41.14c-1.98 0-3.3-1.43-3.3-3.7 0-2.27 1.33-3.69 3.3-3.69 1.96 0 3.29 1.41 3.29 3.68v.01c0 2.28-1.33 3.7-3.29 3.7Zm0-1.06c1.26 0 2.07-.97 2.07-2.64 0-1.68-.82-2.63-2.08-2.63-1.23 0-2.07.96-2.07 2.62v.01c0 1.68.83 2.64 2.09 2.64Zm7.2 1.06c-1.56 0-2.46-1.01-2.46-2.63v-4.62h1.19v4.4c0 1.16.54 1.8 1.63 1.8 1.12 0 1.85-.8 1.85-2.02v-4.18h1.2V213h-1.2v-1.01H564c-.39.66-1.11 1.15-2.2 1.15Zm5.23-.14v-7.1h1.2v1h.02c.38-.66 1.1-1.15 2.19-1.15 1.56 0 2.46 1.02 2.46 2.64V213h-1.19v-4.4c0-1.16-.54-1.8-1.63-1.8-1.13 0-1.86.8-1.86 2.02V213h-1.19Zm10.34.14c-1.82 0-3.02-1.45-3.02-3.7 0-2.24 1.22-3.69 3-3.69 1 0 1.83.51 2.28 1.33h.02v-3.94h1.2V213h-1.2v-1.2h-.02a2.47 2.47 0 0 1-2.26 1.34Zm.23-1.06c1.2 0 2.06-1.04 2.06-2.64 0-1.59-.86-2.63-2.06-2.63-1.26 0-2.03 1-2.03 2.63 0 1.64.77 2.64 2.03 2.64ZM455.15 489v-6.13h-.99v-.98h1v-.87c0-1.37.63-2.02 1.94-2.02.27 0 .55.02.73.05v.96a3.77 3.77 0 0 0-.51-.03c-.66 0-.99.34-.99 1.04v.87h1.46v.99h-1.44V489h-1.2Zm4.15 0v-7.1h1.2v1.2h.02c.24-.83.86-1.35 1.66-1.35.2 0 .38.04.47.05v1.16c-.1-.04-.34-.07-.63-.07-.92 0-1.53.64-1.53 1.72V489h-1.19Zm7.2.14c-1.97 0-3.29-1.43-3.29-3.7 0-2.27 1.33-3.69 3.3-3.69 1.95 0 3.29 1.41 3.29 3.68v.01c0 2.27-1.33 3.7-3.3 3.7Zm.02-1.06c1.25 0 2.06-.97 2.06-2.63v-.02c0-1.67-.82-2.62-2.08-2.62-1.24 0-2.07.96-2.07 2.62v.01c0 1.68.83 2.64 2.09 2.64Zm4.76.92v-7.1h1.19v1.03h.03a2.06 2.06 0 0 1 1.94-1.18 2 2 0 0 1 2 1.37h.03a2.38 2.38 0 0 1 2.23-1.37c1.4 0 2.31.93 2.31 2.34V489h-1.19v-4.63c0-.98-.53-1.56-1.47-1.56-.95 0-1.6.7-1.6 1.67V489h-1.2v-4.76c0-.87-.57-1.43-1.45-1.43-.95 0-1.63.74-1.63 1.73V489h-1.19Zm315.87 195v-6.13h-.99v-.98h1v-.87c0-1.37.63-2.02 1.94-2.02.27 0 .55.02.73.05v.96a3.77 3.77 0 0 0-.51-.03c-.66 0-.99.34-.99 1.04v.87h1.46v.99h-1.44V684h-1.2Zm4.15 0v-7.1h1.2v1.2h.02c.24-.83.86-1.35 1.66-1.35.2 0 .38.04.47.05v1.16c-.1-.04-.35-.07-.63-.07-.92 0-1.53.64-1.53 1.72V684h-1.19Zm7.2.14c-1.97 0-3.29-1.43-3.29-3.7 0-2.27 1.33-3.69 3.3-3.69 1.95 0 3.29 1.41 3.29 3.68v.02c0 2.26-1.33 3.69-3.3 3.69Zm.02-1.06c1.25 0 2.06-.97 2.06-2.63v-.02c0-1.67-.82-2.62-2.08-2.62-1.24 0-2.07.96-2.07 2.62v.02c0 1.67.83 2.63 2.09 2.63Zm4.76.92v-7.1h1.19v1.03h.03a2.06 2.06 0 0 1 1.95-1.18 2 2 0 0 1 2 1.37h.02a2.38 2.38 0 0 1 2.23-1.37c1.4 0 2.31.93 2.31 2.34V684h-1.18v-4.63c0-.98-.55-1.56-1.48-1.56-.95 0-1.6.7-1.6 1.67V684h-1.2v-4.76c0-.87-.57-1.43-1.45-1.43-.95 0-1.63.74-1.63 1.73V684h-1.19Zm-157.4-187.84c-2.45 0-3.92-1.47-3.92-3.62v-6.4h1.23v6.32c0 1.52.98 2.57 2.7 2.57 1.7 0 2.67-1.05 2.67-2.57v-6.32h1.23v6.4c0 2.15-1.46 3.62-3.9 3.62Zm9.33 0c-2.13 0-3.57-1.04-3.7-2.73v-.1h1.23l.01.1c.14 1 1.1 1.6 2.53 1.6 1.42 0 2.32-.64 2.32-1.66 0-.88-.57-1.36-1.92-1.66l-1.1-.24c-1.93-.43-2.83-1.3-2.83-2.74 0-1.62 1.45-2.76 3.48-2.76 1.92 0 3.33 1.12 3.44 2.73v.1h-1.22l-.02-.1c-.15-1-.99-1.6-2.24-1.6-1.32.01-2.18.64-2.18 1.6 0 .8.6 1.31 1.88 1.6l1.1.23c2.02.45 2.87 1.27 2.87 2.77 0 1.76-1.4 2.86-3.65 2.86Zm5.37-.16v-9.86h3.31c2.92 0 4.66 1.81 4.66 4.91v.01c0 3.12-1.72 4.94-4.66 4.94h-3.31Zm1.23-1.1h2c2.24 0 3.48-1.38 3.48-3.82v-.02c0-2.46-1.24-3.82-3.48-3.82h-2v7.65Zm-16.9 9.24-2.77 12.25H641l2.78-12.25h1.14ZM641.97 532v-9.86h1.42l3.42 8.3h.04l3.42-8.3h1.42V532h-1.15v-7.62h-.04l-3.15 7.62h-1.04l-3.15-7.62h-.04V532h-1.15Zm14.67.14c-1.97 0-3.3-1.43-3.3-3.7 0-2.27 1.33-3.69 3.3-3.69 1.96 0 3.3 1.41 3.3 3.68v.02c0 2.26-1.33 3.69-3.3 3.69Zm.01-1.06c1.25 0 2.07-.97 2.07-2.63v-.02c0-1.67-.83-2.62-2.08-2.62-1.24 0-2.08.96-2.08 2.62v.02c0 1.67.83 2.63 2.09 2.63Zm4.76.92v-7.1h1.2v1h.02c.38-.66 1.1-1.15 2.19-1.15 1.56 0 2.46 1.02 2.46 2.64V532h-1.19v-4.4c0-1.16-.54-1.8-1.63-1.8-1.12 0-1.86.8-1.86 2.02V532h-1.19Zm9.98.14c-1.3 0-1.95-.6-1.95-1.95v-4.32h-1.04v-.98h1.04v-1.92h1.23v1.92h1.35v.99h-1.35v4.3c0 .76.34.97.97.97l.38-.02v.96c-.15.02-.4.05-.63.05Zm2.25-.14v-9.86h1.2v3.88h.02c.38-.8 1.16-1.27 2.22-1.27 1.5 0 2.54 1.17 2.54 2.9V532h-1.2v-4.15c0-1.28-.65-2.04-1.75-2.04s-1.84.83-1.84 2.04V532h-1.19Zm-216.56 6.14c-1.3 0-1.94-.6-1.94-1.95v-4.32h-1.04v-.98h1.03v-1.92h1.24v1.92h1.35v.99h-1.36v4.3c0 .76.34.97.98.97l.38-.02v.96c-.15.02-.4.05-.64.05Zm4.94 0c-1.98 0-3.3-1.43-3.3-3.7 0-2.27 1.33-3.69 3.3-3.69 1.95 0 3.29 1.41 3.29 3.68v.02c0 2.26-1.33 3.69-3.3 3.69Zm0-1.06c1.26 0 2.07-.97 2.07-2.63v-.02c0-1.67-.82-2.62-2.08-2.62-1.24 0-2.07.96-2.07 2.62v.02c0 1.67.83 2.63 2.08 2.63Z"/>
  <path fill="#454C54" d="M847.29 211.21a.95.95 0 0 1-.7-.32l-3.98-4.06a.86.86 0 1 1 1.25-1.18l3.43 3.54 3.44-3.54c.17-.18.4-.28.63-.28.47 0 .85.39.85.87a.8.8 0 0 1-.24.59l-3.98 4.06a.94.94 0 0 1-.7.32Z" opacity=".4"/>
  <path fill="#454C54" d="M727.96 213v-9.86h6.1v1.1h-4.87v3.17h4.63v1.1h-4.63v3.38h4.88V213h-6.11Zm9.83 0-2.61-7.1h1.25l1.96 5.84h.03l1.96-5.85h1.24l-2.61 7.11h-1.22Zm7.7.14c-2.04 0-3.27-1.43-3.27-3.67 0-2.2 1.25-3.72 3.2-3.72 1.94 0 3.12 1.45 3.12 3.58v.44h-5.12c.03 1.46.83 2.31 2.1 2.31.9 0 1.54-.45 1.74-1.06l.02-.06h1.17l-.01.07c-.24 1.18-1.4 2.1-2.95 2.1Zm-.08-6.33c-1.03 0-1.84.7-1.97 2.03h3.89c-.12-1.38-.88-2.03-1.92-2.03Zm4.61 6.19v-7.1h1.2v1.2h.02c.24-.83.85-1.35 1.65-1.35.2 0 .39.04.48.05v1.16a2.4 2.4 0 0 0-.63-.07c-.93 0-1.53.64-1.53 1.72V213h-1.19Zm5.5 2.4c-.24 0-.5-.03-.64-.06v-.97c.1.02.24.04.38.04.75 0 1.17-.2 1.46-1l.14-.4-2.64-7.12h1.27l1.96 5.92h.03l1.97-5.92h1.25l-2.78 7.55c-.5 1.37-1.12 1.95-2.4 1.95Zm7.8-2.4-1.98-7.1h1.18l1.42 5.77h.03l1.6-5.78h1.15l1.62 5.78h.02l1.42-5.78h1.18l-1.98 7.11h-1.21l-1.6-5.5h-.04l-1.6 5.5h-1.2Zm8.96 0v-9.86h1.19v3.89h.03c.38-.8 1.15-1.28 2.21-1.28 1.51 0 2.54 1.17 2.54 2.9V213h-1.18v-4.15c0-1.28-.66-2.04-1.77-2.04-1.1 0-1.83.83-1.83 2.04V213h-1.19Zm10.7.14c-2.05 0-3.28-1.43-3.28-3.67 0-2.2 1.25-3.72 3.2-3.72 1.94 0 3.12 1.45 3.12 3.58v.44h-5.12c.03 1.46.83 2.31 2.1 2.31.9 0 1.54-.45 1.74-1.06l.02-.06h1.17l-.01.07c-.24 1.18-1.4 2.1-2.95 2.1Zm-.1-6.33c-1.02 0-1.83.7-1.96 2.03h3.89c-.12-1.38-.88-2.03-1.92-2.03Zm4.62 6.19v-7.1h1.2v1.2h.02c.24-.83.85-1.35 1.65-1.35.2 0 .39.04.48.05v1.16a2.4 2.4 0 0 0-.63-.07c-.93 0-1.53.64-1.53 1.72V213h-1.19Zm7.19.14c-2.05 0-3.28-1.43-3.28-3.67 0-2.2 1.26-3.72 3.2-3.72 1.94 0 3.13 1.45 3.13 3.58v.44h-5.12c.02 1.46.83 2.31 2.1 2.31.9 0 1.53-.45 1.74-1.06l.02-.06h1.17l-.02.07c-.23 1.18-1.4 2.1-2.94 2.1Zm-.09-6.33c-1.03 0-1.83.7-1.96 2.03h3.89c-.12-1.38-.89-2.03-1.92-2.03Z"/>
  <path fill="#B7BABD" d="M118.71 121v-7.75h3.01c1.59 0 2.59.92 2.59 2.37v.01c0 1.06-.58 1.9-1.5 2.21l1.73 3.16h-1.39l-1.58-2.98h-1.65V121h-1.2Zm1.2-3.96h1.7c.92 0 1.45-.51 1.45-1.4 0-.86-.56-1.38-1.49-1.38h-1.65v2.78Zm8.2 3.96v-7.75h4.92v1.04h-3.72v2.26h3.52v1h-3.52v2.41h3.72V121h-4.92Zm11.44.13c-1.74 0-2.9-.83-2.99-2.2v-.07h1.17v.07c.12.71.83 1.16 1.87 1.16 1.03 0 1.69-.47 1.69-1.2 0-.62-.42-.96-1.45-1.19l-.84-.17c-1.52-.33-2.26-1.03-2.26-2.17v-.01c0-1.32 1.17-2.23 2.8-2.23s2.73.88 2.81 2.18v.1h-1.16v-.08c-.12-.72-.74-1.16-1.66-1.16-.96 0-1.57.47-1.57 1.14 0 .59.44.94 1.4 1.15l.85.18c1.6.34 2.3.99 2.3 2.18 0 1.42-1.12 2.32-2.96 2.32Zm6.68-.13v-7.75h2.88c1.52 0 2.57 1.02 2.57 2.54v.01c0 1.52-1.05 2.55-2.57 2.55h-1.68V121h-1.2Zm2.58-6.73h-1.38v3.07h1.38c1.05 0 1.65-.56 1.65-1.53v-.02c0-.96-.6-1.53-1.65-1.53Zm9.92 6.86c-2.23 0-3.63-1.54-3.63-4v-.01c0-2.46 1.4-4 3.63-4s3.63 1.54 3.63 4c0 2.47-1.4 4-3.63 4Zm0-1.06c1.49 0 2.4-1.15 2.4-2.94v-.01c0-1.8-.93-2.94-2.4-2.94-1.47 0-2.4 1.13-2.4 2.94s.93 2.94 2.4 2.94Zm7.42.93v-7.75h1.11l3.99 5.73h.03v-5.73h1.2V121h-1.11l-4-5.74h-.03V121h-1.19Zm13.04.13c-1.74 0-2.9-.83-2.99-2.2v-.07h1.17v.07c.12.71.83 1.16 1.87 1.16 1.03 0 1.69-.47 1.69-1.2 0-.62-.43-.96-1.45-1.19l-.84-.17c-1.52-.33-2.26-1.03-2.26-2.17v-.01c0-1.32 1.17-2.23 2.8-2.23s2.73.88 2.81 2.18v.1h-1.16v-.08c-.12-.72-.74-1.16-1.66-1.16-.96 0-1.57.47-1.57 1.14 0 .59.44.94 1.4 1.15l.85.18c1.6.34 2.3.99 2.3 2.18 0 1.42-1.13 2.32-2.96 2.32Zm6.68-.13v-7.75h1.2V121h-1.2Zm5.27 0v-7.75h3.1c1.37 0 2.27.77 2.27 1.94 0 .83-.62 1.58-1.43 1.7v.02c1.1.12 1.81.87 1.81 1.9 0 1.36-1 2.19-2.64 2.19h-3.11Zm2.8-6.77h-1.6v2.32h1.33c1.07 0 1.64-.43 1.64-1.2v-.02c0-.7-.5-1.1-1.37-1.1Zm-.02 3.25h-1.58v2.54H194c1.08 0 1.66-.44 1.66-1.27 0-.84-.59-1.27-1.74-1.27Zm6.65 3.52v-7.75h1.2v6.71h3.61V121h-4.81Zm8.48 0v-7.75h4.92v1.04h-3.72v2.26h3.52v1h-3.52v2.41h3.72V121h-4.92Zm13.67 0v-7.75h4.84v1.04h-3.63v2.45h3.32v1.02h-3.32V121h-1.2Zm11.88.13c-2.23 0-3.63-1.54-3.63-4v-.01c0-2.46 1.4-4 3.63-4s3.63 1.54 3.63 4c0 2.47-1.39 4-3.63 4Zm0-1.06c1.49 0 2.4-1.15 2.4-2.94v-.01c0-1.8-.93-2.94-2.4-2.94-1.47 0-2.4 1.13-2.4 2.94s.93 2.94 2.4 2.94Zm7.42.93v-7.75h3c1.6 0 2.6.92 2.6 2.37v.01c0 1.06-.58 1.9-1.51 2.21l1.73 3.16h-1.38l-1.58-2.98h-1.66V121h-1.2Zm1.2-3.96h1.69c.93 0 1.46-.51 1.46-1.4 0-.86-.57-1.38-1.5-1.38h-1.65v2.78Zm16.39 4.09c-2.2 0-3.6-1.55-3.6-4v-.01c0-2.46 1.4-4 3.6-4 1.7 0 2.99 1.05 3.23 2.58v.05h-1.18l-.04-.1c-.25-.91-.97-1.47-2.01-1.47-1.44 0-2.37 1.14-2.37 2.94s.93 2.94 2.37 2.94c1.03 0 1.74-.53 2.03-1.52l.02-.04h1.19v.05c-.25 1.54-1.53 2.58-3.25 2.58Zm6.3-.13 2.82-7.75h1.3l2.81 7.75h-1.26l-.7-2.1h-3l-.7 2.1h-1.27Zm3.46-6.47-1.16 3.4h2.33l-1.15-3.4h-.02Zm6.97 6.47v-7.75h1.11l3.99 5.73h.03v-5.73h1.2V121h-1.11l-4-5.74h-.03V121h-1.19Zm10.4 0v-7.75h2.73c2.3 0 3.67 1.41 3.67 3.85v.01c0 2.45-1.36 3.89-3.67 3.89h-2.73Zm1.2-1.04h1.42c1.64 0 2.55-1 2.55-2.84 0-1.83-.92-2.83-2.55-2.83h-1.42v5.67Zm8.99 1.04v-7.75h1.2V121h-1.2Zm5.27 0v-7.75h2.74c2.3 0 3.66 1.41 3.66 3.85v.01c0 2.45-1.36 3.89-3.67 3.89h-2.73Zm1.2-1.04h1.42c1.65 0 2.55-1 2.55-2.84 0-1.83-.92-2.83-2.55-2.83h-1.42v5.67Zm8.16 1.04 2.82-7.75h1.3l2.81 7.75h-1.26l-.7-2.1h-3l-.7 2.1h-1.27Zm3.46-6.47-1.16 3.4h2.34l-1.16-3.4h-.02Zm7.83 6.47v-6.71h-2.37v-1.04h5.94v1.04h-2.36V121h-1.2Zm7.2 0v-7.75h4.92v1.04h-3.72v2.26h3.52v1h-3.52v2.41h3.72V121h-4.92Zm124.66 0v-7.75h1.2v3.71h.04l3.13-3.71h1.42l-2.93 3.43 3.19 4.32h-1.5l-2.55-3.5-.8.91V121h-1.2Zm9.47 0v-7.75h4.92v1.04h-3.72v2.26h3.52v1h-3.52v2.41h3.72V121h-4.92Zm10.94 0v-3.17l-2.72-4.58h1.33l1.98 3.42h.04l1.97-3.42h1.34l-2.73 4.58V121h-1.2Zm9.05 0-2.09-7.75h1.25l1.45 6.07h.02l1.64-6.07h1.14l1.64 6.07h.02l1.45-6.07h1.25l-2.1 7.75h-1.15l-1.67-5.84H487l-1.67 5.84h-1.16Zm14.45.13c-2.24 0-3.63-1.54-3.63-4v-.01c0-2.46 1.4-4 3.63-4s3.63 1.54 3.63 4c0 2.47-1.4 4-3.63 4Zm0-1.06c1.49 0 2.4-1.15 2.4-2.94v-.01c0-1.8-.93-2.94-2.4-2.94-1.47 0-2.4 1.13-2.4 2.94s.93 2.94 2.4 2.94Zm7.42.93v-7.75h3c1.6 0 2.59.92 2.59 2.37v.01c0 1.06-.57 1.9-1.5 2.21l1.73 3.16h-1.38l-1.58-2.98h-1.66V121h-1.2Zm1.2-3.96h1.69c.93 0 1.46-.51 1.46-1.4 0-.86-.57-1.38-1.5-1.38h-1.65v2.78Zm8.2 3.96v-7.75h2.73c2.3 0 3.67 1.41 3.67 3.85v.01c0 2.45-1.36 3.89-3.67 3.89h-2.74Zm1.2-1.04h1.42c1.64 0 2.55-1 2.55-2.84 0-1.83-.92-2.83-2.55-2.83h-1.42v5.67Zm11.63 1.17c-1.74 0-2.89-.83-2.99-2.2v-.07h1.17v.07c.12.71.83 1.16 1.87 1.16 1.03 0 1.69-.47 1.69-1.2 0-.62-.42-.96-1.45-1.19l-.84-.17c-1.52-.33-2.26-1.03-2.26-2.17v-.01c0-1.32 1.17-2.23 2.81-2.23 1.62 0 2.72.88 2.8 2.18v.1h-1.16v-.08c-.12-.72-.74-1.16-1.66-1.16-.96 0-1.57.47-1.57 1.14 0 .59.44.94 1.4 1.15l.86.18c1.6.34 2.28.99 2.28 2.18 0 1.42-1.11 2.32-2.95 2.32Zm-73.65 132.25v-1.05h2.26v-2.17h1.05v2.17h2.27v1.05h-2.27v2.17h-1.05v-2.17h-2.26Zm13.86 2.62 2.81-7.75h1.3l2.82 7.75h-1.26l-.71-2.1h-2.99l-.71 2.1h-1.26Zm3.45-6.47-1.16 3.4h2.34l-1.15-3.4h-.03Zm6.98 6.47v-7.75h2.73c2.3 0 3.67 1.41 3.67 3.85v.01c0 2.45-1.36 3.89-3.67 3.89h-2.73Zm1.2-1.04h1.42c1.64 0 2.55-1 2.55-2.84 0-1.83-.92-2.83-2.55-2.83h-1.42v5.67Zm9 1.04v-7.75h2.72c2.3 0 3.67 1.41 3.67 3.85v.01c0 2.45-1.36 3.89-3.67 3.89h-2.73Zm1.2-1.04h1.41c1.64 0 2.55-1 2.55-2.84 0-1.83-.92-2.83-2.55-2.83h-1.42v5.67Zm17.17 1.17c-2.2 0-3.6-1.55-3.6-4v-.01c0-2.46 1.4-4 3.6-4 1.7 0 3 1.05 3.23 2.58l.02.05h-1.2l-.03-.1c-.26-.91-.98-1.47-2.02-1.47-1.44 0-2.36 1.14-2.36 2.94s.93 2.94 2.36 2.94c1.03 0 1.75-.53 2.04-1.52l.01-.04h1.2l-.01.05c-.24 1.54-1.53 2.58-3.24 2.58Zm10.33 0c-2.24 0-3.63-1.54-3.63-4v-.01c0-2.46 1.4-4 3.63-4s3.63 1.54 3.63 4c0 2.47-1.4 4-3.63 4Zm0-1.06c1.48 0 2.4-1.15 2.4-2.94v-.01c0-1.8-.93-2.94-2.4-2.94-1.47 0-2.41 1.13-2.41 2.94s.94 2.94 2.4 2.94Zm7.42.93v-7.75h1.1l4 5.73h.03v-5.73h1.19V256h-1.1l-4-5.74h-.03V256h-1.2Zm10.4 0v-7.75h2.73c2.3 0 3.66 1.41 3.66 3.85v.01c0 2.45-1.35 3.89-3.66 3.89h-2.74Zm1.2-1.04h1.41c1.65 0 2.55-1 2.55-2.84 0-1.83-.91-2.83-2.55-2.83h-1.41v5.67Zm8.99 1.04v-7.75h1.2V256h-1.2Zm7.19 0v-6.71h-2.38v-1.04h5.95v1.04h-2.37V256h-1.2Zm7.2 0v-7.75h1.2V256h-1.2Zm8.62.13c-2.24 0-3.63-1.54-3.63-4v-.01c0-2.46 1.4-4 3.63-4s3.63 1.54 3.63 4c0 2.47-1.4 4-3.63 4Zm0-1.06c1.49 0 2.4-1.15 2.4-2.94v-.01c0-1.8-.93-2.94-2.4-2.94-1.47 0-2.4 1.13-2.4 2.94s.93 2.94 2.4 2.94Zm7.42.93v-7.75h1.1l4 5.73h.03v-5.73h1.19V256h-1.1l-4-5.74h-.03V256h-1.2Zm-121.54 52v-7.75h3.01c1.59 0 2.59.92 2.59 2.37v.01c0 1.06-.58 1.9-1.5 2.21l1.73 3.16h-1.39l-1.58-2.98h-1.65V308h-1.2Zm1.2-3.96h1.7c.92 0 1.45-.51 1.45-1.4 0-.87-.56-1.38-1.49-1.38h-1.65v2.78Zm8.2 3.96v-7.75h4.92v1.04h-3.72v2.26h3.52v1h-3.52v2.41h3.72V308h-4.92Zm12.13.13c-2.22 0-3.61-1.55-3.61-4.04 0-2.45 1.4-3.97 3.6-3.97 1.81 0 2.95 1.05 3.27 2.44l.02.1h-1.23l-.02-.06a2.04 2.04 0 0 0-2.04-1.42c-1.48 0-2.38 1.08-2.38 2.9 0 1.86.93 2.99 2.4 2.99 1.26 0 2.13-.8 2.15-1.98v-.13h-2.04v-.98h3.22v.8c0 2.1-1.24 3.35-3.34 3.35Zm7.16-.13v-7.75h1.2V308h-1.2Zm8.62.13c-2.23 0-3.63-1.54-3.63-4v-.01c0-2.46 1.4-4 3.63-4 2.24 0 3.63 1.54 3.63 4 0 2.47-1.39 4-3.63 4Zm0-1.06c1.49 0 2.4-1.15 2.4-2.94v-.01c0-1.8-.93-2.94-2.4-2.94-1.46 0-2.4 1.13-2.4 2.94s.93 2.94 2.4 2.94Zm7.42.93v-7.75h1.11l3.99 5.73h.03v-5.73h1.2V308h-1.11l-4-5.74h-.03V308h-1.19Zm-42.08 144.13c-1.74 0-2.9-.83-2.99-2.2v-.07h1.17v.07c.11.71.83 1.16 1.86 1.16 1.04 0 1.7-.47 1.7-1.2 0-.62-.43-.96-1.45-1.19l-.85-.18c-1.52-.32-2.25-1.02-2.25-2.16v-.01c0-1.32 1.17-2.23 2.8-2.23 1.62 0 2.73.88 2.81 2.18v.1H459v-.08c-.1-.72-.73-1.16-1.65-1.16-.96 0-1.57.46-1.57 1.14 0 .59.44.94 1.4 1.15l.85.18c1.6.34 2.3.99 2.3 2.18 0 1.42-1.13 2.32-2.96 2.32Zm6.04-.13 2.82-7.75h1.3l2.81 7.75h-1.26l-.71-2.1h-2.99l-.71 2.1h-1.26Zm3.46-6.47-1.16 3.4h2.33l-1.15-3.4h-.02Zm6.97 6.47v-7.75h1.2v6.71h3.61V452h-4.81Zm7.9 0 2.83-7.75h1.3l2.81 7.75h-1.26l-.7-2.1h-3l-.7 2.1h-1.27Zm3.47-6.47-1.16 3.4h2.33l-1.15-3.4h-.02Zm6.97 6.47v-7.75h3.01c1.58 0 2.58.92 2.58 2.37v.01c0 1.06-.57 1.9-1.5 2.21L498 452h-1.4l-1.57-2.98h-1.65V452h-1.2Zm1.2-3.96h1.7c.92 0 1.45-.51 1.45-1.4 0-.87-.57-1.38-1.49-1.38h-1.65v2.78Zm10.06 3.96v-3.17l-2.73-4.58h1.34l1.98 3.42h.04l1.97-3.42h1.34l-2.73 4.58V452h-1.2Zm283.28 0v-7.75h4.92v1.04h-3.71v2.26h3.52v1h-3.52v2.41h3.71V452h-4.92Zm8.32 0 2.58-3.9v-.02l-2.55-3.83h1.43l1.92 3h.05l1.92-3h1.36l-2.63 3.87v.02l2.58 3.86h-1.4l-1.94-2.96h-.04l-1.95 2.96h-1.33Zm10.3 0v-7.75h2.89c1.52 0 2.57 1.02 2.57 2.54v.01c0 1.51-1.05 2.55-2.57 2.55h-1.68V452h-1.2Zm2.59-6.74h-1.38v3.08h1.38c1.05 0 1.65-.56 1.65-1.53v-.01c0-.97-.6-1.54-1.65-1.54Zm6.57 6.74v-7.75h4.92v1.04h-3.72v2.26h3.52v1h-3.52v2.41h3.72V452h-4.92Zm8.8 0v-7.75h3c1.58 0 2.58.92 2.58 2.37v.01c0 1.06-.57 1.9-1.5 2.21l1.73 3.16h-1.38l-1.58-2.98h-1.66V452h-1.2Zm1.2-3.96h1.68c.93 0 1.46-.51 1.46-1.4 0-.87-.57-1.38-1.5-1.38h-1.65v2.78Zm8.19 3.96v-7.75h1.2V452h-1.2Zm5.27 0v-7.75h4.92v1.04h-3.72v2.26h3.52v1h-3.52v2.41h3.72V452h-4.92Zm8.8 0v-7.75h1.1l4 5.73h.02v-5.73h1.2V452h-1.11l-3.99-5.74h-.03V452h-1.2Zm13.7.13c-2.2 0-3.59-1.55-3.59-4v-.01c0-2.46 1.4-4 3.6-4 1.7 0 2.99 1.05 3.23 2.58v.05h-1.18l-.04-.1c-.25-.91-.97-1.47-2.01-1.47-1.44 0-2.37 1.14-2.37 2.94s.93 2.94 2.37 2.94c1.03 0 1.74-.53 2.03-1.51l.02-.05h1.19v.05c-.25 1.54-1.53 2.58-3.25 2.58Zm6.98-.13v-7.75h4.92v1.04h-3.72v2.26h3.52v1h-3.52v2.41h3.72V452h-4.92Zm-81.29 195 2.82-7.75h1.3l2.81 7.75h-1.26l-.7-2.1h-3l-.7 2.1h-1.27Zm3.46-6.47-1.16 3.4h2.33l-1.15-3.4h-.02Zm10.03 6.6c-2.22 0-3.62-1.55-3.62-4.04 0-2.45 1.4-3.97 3.6-3.97 1.82 0 2.96 1.05 3.28 2.44l.02.1h-1.23l-.02-.06a2.04 2.04 0 0 0-2.04-1.42c-1.48 0-2.38 1.08-2.38 2.9 0 1.86.92 2.99 2.4 2.99 1.26 0 2.13-.8 2.14-1.98v-.13h-2.03v-.98h3.22v.8c0 2.1-1.24 3.35-3.34 3.35Zm7.16-.13v-7.75h4.92v1.04h-3.72v2.26h3.52v1h-3.52v2.41h3.72V647h-4.92Zm-350.15-44v-6.71h-2.38v-1.04h5.95v1.04h-2.37V603h-1.2Zm9.35 0v-3.17l-2.73-4.58h1.34l1.97 3.42h.04l1.97-3.42h1.34l-2.73 4.58V603h-1.2Zm7.43 0v-7.75h2.89c1.52 0 2.57 1.02 2.57 2.54v.01c0 1.52-1.05 2.55-2.57 2.55h-1.69V603h-1.2Zm2.59-6.74h-1.38v3.08H476c1.04 0 1.64-.56 1.64-1.53v-.01c0-.97-.6-1.53-1.64-1.53Zm6.56 6.74v-7.75h4.92v1.04h-3.72v2.26h3.52v1h-3.52v2.41h3.72V603h-4.92Zm17.02.13c-2.23 0-3.63-1.54-3.63-4v-.01c0-2.46 1.4-4 3.63-4 2.24 0 3.63 1.54 3.63 4 0 2.47-1.39 4-3.63 4Zm0-1.06c1.5 0 2.4-1.15 2.4-2.94v-.01c0-1.8-.93-2.94-2.4-2.94-1.46 0-2.4 1.13-2.4 2.94s.93 2.95 2.4 2.95Zm7.42.93v-7.75h4.84v1.04h-3.63v2.45h3.33v1.02h-3.33V603h-1.2Zm13.4 0v-7.75h4.92v1.04h-3.71v2.26h3.52v1h-3.52v2.41h3.71V603h-4.92Zm8.8 0v-7.75h1.4l2.5 6.19h.03l2.51-6.19h1.4V603h-1.1v-5.72h-.04l-2.34 5.72h-.9l-2.33-5.72h-.04V603h-1.09Zm11.9 0v-7.75h2.88c1.52 0 2.58 1.02 2.58 2.54v.01c0 1.52-1.06 2.55-2.58 2.55h-1.68V603h-1.2Zm2.58-6.74h-1.38v3.08h1.38c1.05 0 1.65-.56 1.65-1.53v-.01c0-.97-.6-1.53-1.65-1.53Zm9.92 6.87c-2.23 0-3.63-1.54-3.63-4v-.01c0-2.46 1.4-4 3.63-4 2.24 0 3.63 1.54 3.63 4 0 2.47-1.39 4-3.63 4Zm0-1.06c1.49 0 2.4-1.15 2.4-2.94v-.01c0-1.8-.93-2.94-2.4-2.94-1.47 0-2.4 1.13-2.4 2.94s.93 2.95 2.4 2.95Zm9.17.93v-3.17l-2.73-4.58h1.34l1.97 3.42h.04l1.98-3.42h1.33l-2.73 4.58V603h-1.2Zm7.43 0v-7.75h1.4l2.5 6.19h.03l2.52-6.19h1.38V603h-1.1v-5.72h-.03l-2.34 5.72h-.89l-2.33-5.72h-.04V603h-1.1Zm11.9 0v-7.75h4.92v1.04h-3.71v2.26h3.51v1h-3.51v2.41h3.71V603h-4.92Zm8.8 0v-7.75h1.11l3.99 5.73h.03v-5.73h1.19V603h-1.1l-4-5.74h-.03V603h-1.2Zm12.32 0v-6.71h-2.38v-1.04h5.95v1.04h-2.37V603h-1.2Zm185.41-295v-6.71h-2.38v-1.04h5.95v1.04h-2.37V308h-1.2Zm5.55 0 2.82-7.75h1.3l2.82 7.75h-1.26l-.71-2.1h-2.99l-.71 2.1h-1.27Zm3.46-6.47-1.16 3.4h2.34l-1.16-3.4h-.02Zm10.03 6.6c-2.21 0-3.61-1.55-3.61-4.04 0-2.45 1.4-3.97 3.6-3.97 1.81 0 2.95 1.05 3.27 2.44l.02.1h-1.23l-.02-.06a2.04 2.04 0 0 0-2.04-1.42c-1.48 0-2.38 1.08-2.38 2.9 0 1.86.93 2.99 2.4 2.99 1.26 0 2.13-.8 2.15-1.98v-.13h-2.04v-.98h3.22v.8c0 2.1-1.24 3.35-3.34 3.35Zm9.8 0c-1.74 0-2.89-.83-2.98-2.2v-.07h1.16l.01.07c.11.71.83 1.16 1.86 1.16 1.04 0 1.7-.47 1.7-1.2 0-.62-.43-.96-1.46-1.19l-.84-.18c-1.52-.32-2.26-1.02-2.26-2.16v-.01c0-1.32 1.18-2.23 2.81-2.23 1.62 0 2.73.88 2.8 2.18l.01.1h-1.17v-.08c-.11-.72-.74-1.16-1.65-1.16-.97 0-1.58.46-1.58 1.14 0 .59.44.94 1.41 1.15l.85.18c1.6.34 2.29.99 2.29 2.18 0 1.42-1.12 2.32-2.96 2.32Z"/>
  <path fill="#3CA0EA" d="M849.73 303.56v-1.11h2.9v-2.83h1.12v2.83h2.91v1.1h-2.91v2.83h-1.11v-2.82h-2.91Zm14.2 3.58c-1.3 0-1.94-.6-1.94-1.95v-4.31h-1.04v-.99H862v-1.92h1.23v1.92h1.35v.99h-1.35v4.3c0 .76.33.97.97.97l.38-.02v.96c-.15.02-.4.05-.63.05Zm4.14 0c-1.41 0-2.36-.86-2.36-2.15v-.01c0-1.21.94-1.97 2.57-2.07l2.04-.11v-.6c0-.87-.57-1.4-1.56-1.4-.91 0-1.49.44-1.62 1.08l-.02.06h-1.14v-.07c.1-1.17 1.12-2.12 2.8-2.12 1.68 0 2.73.91 2.73 2.33V307h-1.19v-1.15h-.03a2.51 2.51 0 0 1-2.22 1.29Zm-1.15-2.15c0 .68.57 1.11 1.42 1.11 1.12 0 1.98-.77 1.98-1.8v-.58l-1.9.11c-.95.06-1.5.48-1.5 1.15v.01Zm9.39 4.54c-1.76 0-2.86-.83-3.1-1.88l-.01-.06h1.2l.02.06c.23.51.9.83 1.88.83 1.25 0 1.96-.7 1.96-1.8v-.9h-.03a2.5 2.5 0 0 1-2.26 1.29c-1.8 0-3.02-1.44-3.02-3.67 0-2.21 1.24-3.65 3.05-3.65 1 0 1.8.55 2.23 1.34h.03v-1.2h1.19v6.91c0 1.65-1.21 2.73-3.14 2.73Zm-.08-3.51c1.2 0 2.03-1.04 2.03-2.62 0-1.57-.83-2.6-2.03-2.6-1.27 0-2.06 1.02-2.06 2.6 0 1.62.8 2.62 2.06 2.62Z"/>
  <path fill="#B7BABD" d="M118.71 222v-7.75h3.01c1.59 0 2.59.92 2.59 2.37v.01c0 1.06-.58 1.9-1.5 2.21l1.73 3.16h-1.39l-1.58-2.98h-1.65V222h-1.2Zm1.2-3.96h1.7c.92 0 1.45-.51 1.45-1.4 0-.86-.56-1.38-1.49-1.38h-1.65v2.78Zm8.2 3.96v-7.75h4.92v1.04h-3.72v2.26h3.52v1h-3.52v2.41h3.72V222h-4.92Zm11.44.13c-1.74 0-2.9-.83-2.99-2.2v-.07h1.17v.07c.12.71.83 1.16 1.87 1.16 1.03 0 1.69-.47 1.69-1.2 0-.62-.42-.96-1.45-1.19l-.84-.17c-1.52-.33-2.26-1.03-2.26-2.18 0-1.32 1.17-2.23 2.8-2.23s2.73.88 2.81 2.18v.1h-1.16v-.08c-.12-.72-.74-1.16-1.66-1.16-.96 0-1.57.47-1.57 1.14 0 .59.44.94 1.4 1.15l.85.18c1.6.34 2.3.99 2.3 2.18 0 1.42-1.12 2.32-2.96 2.32Zm6.68-.13v-7.75h2.88c1.52 0 2.57 1.02 2.57 2.54v.01c0 1.51-1.05 2.55-2.57 2.55h-1.68V222h-1.2Zm2.58-6.74h-1.38v3.08h1.38c1.05 0 1.65-.56 1.65-1.53v-.02c0-.96-.6-1.53-1.65-1.53Zm9.92 6.87c-2.23 0-3.63-1.54-3.63-4v-.01c0-2.46 1.4-4 3.63-4s3.63 1.54 3.63 4c0 2.47-1.4 4-3.63 4Zm0-1.06c1.49 0 2.4-1.15 2.4-2.94v-.01c0-1.8-.93-2.94-2.4-2.94-1.47 0-2.4 1.13-2.4 2.94s.93 2.94 2.4 2.94Zm7.42.93v-7.75h1.11l3.99 5.73h.03v-5.73h1.2V222h-1.11l-4-5.74h-.03V222h-1.19Zm13.04.13c-1.74 0-2.9-.83-2.99-2.2v-.07h1.17v.07c.12.71.83 1.16 1.87 1.16 1.03 0 1.69-.47 1.69-1.2 0-.62-.43-.96-1.45-1.19l-.84-.17c-1.52-.33-2.26-1.03-2.26-2.18 0-1.32 1.17-2.23 2.8-2.23s2.73.88 2.81 2.18v.1h-1.16v-.08c-.12-.72-.74-1.16-1.66-1.16-.96 0-1.57.47-1.57 1.14 0 .59.44.94 1.4 1.15l.85.18c1.6.34 2.3.99 2.3 2.18 0 1.42-1.13 2.32-2.96 2.32Zm6.68-.13v-7.75h1.2V222h-1.2Zm5.27 0v-7.75h3.1c1.37 0 2.27.77 2.27 1.94 0 .83-.62 1.58-1.43 1.7v.02c1.1.12 1.81.87 1.81 1.9 0 1.36-1 2.19-2.64 2.19h-3.11Zm2.8-6.77h-1.6v2.32h1.33c1.07 0 1.64-.43 1.64-1.2v-.02c0-.7-.5-1.1-1.37-1.1Zm-.02 3.25h-1.58v2.54H194c1.08 0 1.66-.44 1.66-1.27 0-.84-.59-1.27-1.74-1.27Zm6.65 3.52v-7.75h1.2v6.71h3.61V222h-4.81Zm8.48 0v-7.75h4.92v1.04h-3.72v2.26h3.52v1h-3.52v2.41h3.72V222h-4.92Zm13.67 0v-7.75h4.84v1.04h-3.63v2.45h3.32v1.02h-3.32V222h-1.2Zm11.88.13c-2.23 0-3.63-1.54-3.63-4v-.01c0-2.46 1.4-4 3.63-4s3.63 1.54 3.63 4c0 2.47-1.39 4-3.63 4Zm0-1.06c1.49 0 2.4-1.15 2.4-2.94v-.01c0-1.8-.93-2.94-2.4-2.94-1.47 0-2.4 1.13-2.4 2.94s.93 2.94 2.4 2.94Zm7.42.93v-7.75h3c1.6 0 2.6.92 2.6 2.37v.01c0 1.06-.58 1.9-1.51 2.21l1.73 3.16h-1.38l-1.58-2.98h-1.66V222h-1.2Zm1.2-3.96h1.69c.93 0 1.46-.51 1.46-1.4 0-.86-.57-1.38-1.5-1.38h-1.65v2.78Zm15.71 4.09c-1.74 0-2.89-.83-2.98-2.2v-.07h1.16l.01.07c.11.71.83 1.16 1.86 1.16 1.04 0 1.7-.47 1.7-1.2 0-.62-.43-.96-1.46-1.19l-.84-.17c-1.52-.33-2.25-1.03-2.25-2.18 0-1.32 1.17-2.23 2.8-2.23 1.62 0 2.73.88 2.8 2.18l.01.1h-1.17v-.08c-.11-.72-.73-1.16-1.65-1.16-.96 0-1.58.47-1.58 1.14 0 .59.44.94 1.41 1.15l.85.18c1.6.34 2.29.99 2.29 2.18 0 1.42-1.12 2.32-2.96 2.32Zm8.4-.13v-6.71h-2.38v-1.04h5.94v1.04h-2.37V222h-1.2Zm5.55 0 2.82-7.75h1.3l2.81 7.75h-1.26l-.71-2.1h-2.99l-.71 2.1h-1.26Zm3.46-6.47-1.16 3.4h2.33l-1.15-3.4h-.02Zm7.83 6.47v-6.71h-2.37v-1.04h5.94v1.04h-2.37V222h-1.2Zm10.34.13c-1.95 0-3.14-1.16-3.14-2.85v-5.03h1.2v4.93c0 1.13.7 1.88 1.94 1.88 1.23 0 1.93-.75 1.93-1.88v-4.93h1.2v5.03c0 1.7-1.18 2.85-3.13 2.85Zm9.84 0c-1.74 0-2.89-.83-2.99-2.2v-.07h1.17l.01.07c.1.71.82 1.16 1.86 1.16s1.69-.47 1.69-1.2c0-.62-.42-.96-1.45-1.19l-.84-.17c-1.52-.33-2.26-1.03-2.26-2.18 0-1.32 1.17-2.23 2.81-2.23 1.62 0 2.72.88 2.8 2.18v.1H306v-.08c-.12-.72-.74-1.16-1.66-1.16-.96 0-1.57.47-1.57 1.14 0 .59.44.94 1.4 1.15l.86.18c1.6.34 2.28.99 2.28 2.18 0 1.42-1.11 2.32-2.95 2.32ZM118.71 368v-7.75h4.84v1.04h-3.63v2.45h3.33v1.02h-3.33V368h-1.2Zm8.53 0v-7.75h4.92v1.04h-3.72v2.26h3.52v1h-3.52v2.41h3.72V368h-4.92Zm8.8 0v-7.75h4.92v1.04h-3.72v2.26h3.52v1h-3.52v2.41h3.72V368h-4.92Zm8.8 0v-7.75h2.73c2.3 0 3.66 1.41 3.66 3.85v.01c0 2.45-1.35 3.89-3.66 3.89h-2.74Zm1.2-1.04h1.41c1.65 0 2.55-1 2.55-2.84 0-1.83-.91-2.83-2.55-2.83h-1.41v5.67Zm8.98 1.04v-7.75h3.1c1.37 0 2.27.77 2.27 1.94 0 .83-.61 1.58-1.43 1.7v.02c1.1.11 1.82.87 1.82 1.9 0 1.36-1 2.19-2.65 2.19h-3.1Zm2.8-6.77h-1.6v2.32h1.34c1.06 0 1.64-.43 1.64-1.2v-.02c0-.7-.5-1.1-1.37-1.1Zm-.01 3.25h-1.58v2.54h1.66c1.08 0 1.66-.44 1.66-1.26v-.02c0-.83-.6-1.26-1.74-1.26Zm6.07 3.52 2.82-7.75h1.3l2.81 7.75h-1.26l-.7-2.1h-3l-.71 2.1h-1.26Zm3.46-6.47-1.16 3.4h2.33l-1.15-3.4h-.02Zm10 6.6c-2.2 0-3.59-1.55-3.59-4v-.01c0-2.46 1.4-4 3.6-4 1.7 0 2.99 1.05 3.23 2.58l.01.05h-1.2l-.02-.1c-.26-.91-.98-1.47-2.02-1.47-1.44 0-2.37 1.14-2.37 2.94s.93 2.94 2.37 2.94c1.03 0 1.74-.53 2.03-1.51l.02-.05h1.19v.05c-.25 1.54-1.53 2.58-3.24 2.58Zm6.98-.13v-7.75h1.2v3.71h.04l3.12-3.71h1.43l-2.94 3.43 3.2 4.32h-1.5l-2.56-3.5-.79.91V368h-1.2Zm14.34 0v-7.75h4.84v1.04h-3.64v2.45h3.33v1.02h-3.33V368h-1.2Zm11.87.13c-2.23 0-3.63-1.54-3.63-4v-.01c0-2.46 1.4-4 3.63-4 2.24 0 3.63 1.54 3.63 4 0 2.47-1.39 4-3.63 4Zm0-1.06c1.5 0 2.4-1.15 2.4-2.94v-.01c0-1.8-.92-2.94-2.4-2.94-1.46 0-2.4 1.13-2.4 2.94s.93 2.94 2.4 2.94Zm7.43.93v-7.75h3c1.59 0 2.59.92 2.59 2.37v.01c0 1.06-.58 1.9-1.5 2.21l1.73 3.16h-1.39l-1.58-2.98h-1.65V368h-1.2Zm1.2-3.96h1.68c.93 0 1.47-.51 1.47-1.4 0-.87-.57-1.38-1.5-1.38h-1.65v2.78Zm8.2 3.96v-7.75h1.38l2.51 6.19h.03l2.52-6.19h1.38V368h-1.1v-5.72h-.03L231.7 368h-.89l-2.33-5.72h-.04V368h-1.1Zm14.53.13c-1.74 0-2.89-.83-2.98-2.2v-.07h1.16l.01.07c.11.71.82 1.16 1.86 1.16s1.7-.47 1.7-1.2c0-.62-.43-.96-1.46-1.19l-.84-.18c-1.52-.32-2.25-1.02-2.25-2.16v-.01c0-1.32 1.17-2.23 2.8-2.23 1.62 0 2.73.88 2.8 2.18l.01.1h-1.17v-.08c-.11-.72-.73-1.16-1.65-1.16-.96 0-1.58.46-1.58 1.14 0 .59.44.94 1.41 1.15l.85.18c1.6.34 2.29.99 2.29 2.18 0 1.42-1.12 2.32-2.96 2.32ZM118.14 535l2.82-7.75h1.3l2.81 7.75h-1.26l-.7-2.1h-3l-.7 2.1h-1.27Zm3.46-6.47-1.16 3.4h2.34l-1.16-3.4h-.02Zm9.55 6.6c-1.74 0-2.89-.83-2.99-2.2v-.07h1.17l.01.07c.1.71.82 1.16 1.86 1.16s1.7-.47 1.7-1.2c0-.62-.43-.96-1.46-1.19l-.84-.18c-1.52-.32-2.26-1.02-2.26-2.16v-.01c0-1.32 1.17-2.23 2.81-2.23 1.62 0 2.72.88 2.8 2.18l.01.1h-1.17v-.08c-.11-.72-.74-1.16-1.66-1.16-.96 0-1.57.47-1.57 1.14 0 .59.44.94 1.4 1.15l.86.18c1.6.34 2.28.99 2.28 2.18 0 1.42-1.11 2.32-2.95 2.32Zm9.32 0c-1.74 0-2.89-.83-2.98-2.2v-.07h1.16l.01.07c.11.71.83 1.16 1.86 1.16 1.04 0 1.7-.47 1.7-1.2 0-.62-.43-.96-1.46-1.19l-.84-.18c-1.52-.32-2.26-1.02-2.26-2.16v-.01c0-1.32 1.18-2.23 2.81-2.23 1.62 0 2.73.88 2.8 2.18l.01.1h-1.17v-.08c-.11-.72-.74-1.16-1.65-1.16-.97 0-1.58.47-1.58 1.14 0 .59.44.94 1.41 1.15l.85.18c1.6.34 2.29.99 2.29 2.18 0 1.42-1.12 2.32-2.96 2.32Zm6.68-.13v-7.75h1.2V535h-1.2Zm8.6.13c-2.2 0-3.6-1.55-3.6-4.04 0-2.45 1.4-3.97 3.6-3.97 1.8 0 2.95 1.05 3.27 2.44l.02.1h-1.23l-.02-.06a2.04 2.04 0 0 0-2.04-1.42c-1.48 0-2.38 1.08-2.38 2.9 0 1.86.92 2.99 2.4 2.99 1.26 0 2.13-.8 2.14-1.98v-.13h-2.03v-.98h3.22v.8c0 2.1-1.24 3.35-3.34 3.35Zm7.17-.13v-7.75h1.1l4 5.73h.03v-5.73h1.19V535h-1.1l-4-5.74h-.03V535h-1.2Zm10.4 0v-7.75h4.91v1.04h-3.72v2.26h3.52v1h-3.52v2.41h3.72V535h-4.92Zm8.79 0v-7.75h2.73c2.3 0 3.67 1.41 3.67 3.85v.01c0 2.45-1.36 3.89-3.67 3.89h-2.73Zm1.2-1.04h1.42c1.64 0 2.55-1 2.55-2.84 0-1.83-.92-2.83-2.55-2.83h-1.42v5.67Zm13.86 1.04v-7.75h4.84v1.04h-3.63v2.45h3.33v1.02h-3.33V535h-1.2Zm11.88.13c-2.23 0-3.63-1.54-3.63-4v-.01c0-2.46 1.4-4 3.63-4 2.24 0 3.63 1.54 3.63 4 0 2.47-1.39 4-3.63 4Zm0-1.06c1.49 0 2.4-1.15 2.4-2.94v-.01c0-1.8-.93-2.94-2.4-2.94-1.46 0-2.4 1.13-2.4 2.94s.93 2.95 2.4 2.95Zm7.42.93v-7.75h3.01c1.58 0 2.58.92 2.58 2.37v.01c0 1.06-.57 1.9-1.5 2.21l1.73 3.16h-1.38l-1.58-2.98h-1.66V535h-1.2Zm1.2-3.96h1.7c.92 0 1.45-.51 1.45-1.4 0-.87-.57-1.38-1.49-1.38h-1.66v2.78Zm8.2 3.96v-7.75h1.39l2.5 6.19h.04l2.51-6.19h1.39V535h-1.1v-5.72h-.03l-2.34 5.72h-.9l-2.33-5.72h-.03V535h-1.1ZM118.71 636v-7.75h4.92v1.04h-3.71v2.26h3.52v1h-3.52v2.41h3.71V636h-4.92Zm10.99 0-2.76-7.75h1.29l2.12 6.41h.02l2.12-6.41h1.3l-2.77 7.75h-1.32Zm6.1 0 2.82-7.75h1.3l2.82 7.75h-1.26l-.71-2.1h-2.99l-.71 2.1h-1.26Zm3.46-6.47-1.16 3.4h2.34l-1.15-3.4h-.03Zm6.98 6.47v-7.75h1.2v6.71h3.61V636h-4.81Zm11.3.13c-1.95 0-3.15-1.16-3.15-2.85v-5.03h1.2v4.93c0 1.13.7 1.89 1.94 1.89s1.94-.76 1.94-1.89v-4.93h1.2v5.03c0 1.7-1.19 2.85-3.14 2.85Zm9.12-.13v-6.71h-2.38v-1.04h5.95v1.04h-2.37V636h-1.2Zm7.19 0v-7.75h4.92v1.04h-3.72v2.26h3.52v1h-3.52v2.41h3.72V636h-4.92Zm11.44.13c-1.74 0-2.9-.83-2.99-2.2v-.07h1.17v.07c.11.71.83 1.16 1.87 1.16 1.03 0 1.69-.47 1.69-1.2 0-.62-.43-.96-1.45-1.19l-.85-.18c-1.52-.32-2.25-1.02-2.25-2.16v-.01c0-1.32 1.17-2.23 2.8-2.23 1.62 0 2.73.88 2.81 2.18v.1h-1.16l-.01-.08c-.1-.72-.73-1.16-1.65-1.16-.96 0-1.57.47-1.57 1.14 0 .59.44.94 1.4 1.15l.85.18c1.6.34 2.3.99 2.3 2.18 0 1.42-1.13 2.32-2.96 2.32Z"/>
  <path fill="#EDEDF0" d="M454 399h577v1H454zM118 82h913v1H118zm0 232h248v1H118zm292-202h-1v588h1zm333 331h-1v257h1z"/>
  <path fill="#fff" d="M124.07 393.82a1 1 0 0 1-.8-.35l-2-2.3a.9.9 0 0 1-.27-.66c0-.52.4-.9.93-.9.3 0 .51.1.7.3l1.43 1.65 2.87-4.5c.23-.34.46-.47.82-.47a.9.9 0 0 1 .94.9c0 .19-.06.4-.2.6l-3.58 5.31a.94.94 0 0 1-.84.42Zm336 237a1 1 0 0 1-.8-.35l-2-2.3a.9.9 0 0 1-.27-.66c0-.52.4-.9.93-.9.3 0 .51.1.7.3l1.43 1.65 2.87-4.5c.23-.34.46-.47.82-.47a.9.9 0 0 1 .94.9c0 .19-.06.4-.2.6l-3.58 5.31a.94.94 0 0 1-.84.42Zm332-152a1 1 0 0 1-.8-.35l-2-2.3a.9.9 0 0 1-.27-.66c0-.52.4-.9.93-.9.3 0 .51.1.7.3l1.42 1.65 2.88-4.5c.23-.34.46-.47.82-.47a.9.9 0 0 1 .94.9c0 .19-.06.4-.2.6l-3.58 5.31a.94.94 0 0 1-.84.42Z"/>
  <path fill="#010101" d="M119.06 60V47.32h8.3v2.19h-5.65v3.4h5.16V55h-5.16v5h-2.65Zm11.17-10.63c-.77 0-1.37-.61-1.37-1.34 0-.73.6-1.34 1.37-1.34.77 0 1.37.61 1.37 1.34 0 .73-.6 1.34-1.37 1.34ZM128.95 60v-9.42h2.56V60h-2.56Zm4.53 0V47.32h2.56V60h-2.56Zm8.22.2c-2.1 0-3.08-.82-3.08-2.84v-4.85h-1.3v-1.93h1.3v-2.3h2.6v2.3h1.72v1.93h-1.72v4.57c0 .88.4 1.18 1.16 1.18.23 0 .4-.03.56-.04v1.88c-.3.04-.7.1-1.24.1Zm6.98 0c-2.88 0-4.63-1.88-4.63-4.9 0-3 1.77-4.92 4.53-4.92 2.76 0 4.49 1.88 4.49 4.72v.8h-6.49c.03 1.5.84 2.38 2.16 2.38 1.05 0 1.7-.58 1.88-1.11l.01-.05H153l-.03.1c-.29 1.38-1.59 2.97-4.28 2.97Zm-.06-7.9c-1.05 0-1.84.7-2.01 1.98h4c-.16-1.3-.93-1.98-1.99-1.98Zm5.95 7.7v-9.42h2.57v1.64h.05c.28-1.16 1.05-1.84 2.15-1.84.28 0 .54.05.74.1v2.26a2.67 2.67 0 0 0-.94-.14c-1.26 0-2 .76-2 2.13V60h-2.56Z"/>
  <path fill="#3CA0EA" d="m970.28 58 2.89-7.75h.95L977 58h-1l-.79-2.22h-3.12L971.3 58h-1.02Zm3.36-6.59-1.26 3.55h2.53l-1.25-3.55h-.02Zm6.9 6.59v-7.75h2.75c1.46 0 2.5 1 2.5 2.48s-1.04 2.5-2.5 2.5h-1.79V58h-.97Zm2.5-6.9h-1.54v3.27h1.55c1.1 0 1.74-.6 1.74-1.62v-.01c0-1.02-.64-1.63-1.74-1.63Zm6.5 6.9v-7.75h2.75c1.46 0 2.5 1 2.5 2.48s-1.04 2.5-2.5 2.5h-1.79V58h-.97Zm2.5-6.9h-1.54v3.27h1.55c1.1 0 1.74-.6 1.74-1.62v-.01c0-1.02-.64-1.63-1.74-1.63Zm6.5 6.9v-7.75h.96v6.88h3.74V58h-4.7Zm9.46 0v-3.34l-2.75-4.41h1.1l2.12 3.48h.03l2.12-3.48h1.1l-2.75 4.41V58h-.97Z"/>
  <path fill="#B7BABD" d="M875.07 58.13c-2.15 0-3.54-1.57-3.54-4v-.01c0-2.44 1.38-4 3.54-4 1.61 0 2.86.98 3.16 2.44l.01.06h-.98l-.03-.12c-.3-.94-1.07-1.49-2.16-1.49-1.55 0-2.54 1.22-2.54 3.1v.01c0 1.89 1 3.12 2.54 3.12 1.09 0 1.84-.54 2.18-1.56l.01-.05h.98v.06c-.3 1.48-1.55 2.44-3.17 2.44Zm6.34-.13 2.88-7.75h.96l2.88 7.75h-1.02l-.78-2.22h-3.12l-.79 2.22h-1.01Zm3.35-6.59-1.26 3.55h2.54l-1.26-3.55h-.02Zm6.9 6.59v-7.75h.94l4.26 6.12h.03v-6.12h.96V58h-.94l-4.27-6.12h-.02V58h-.96Zm13.57.13c-2.15 0-3.54-1.57-3.54-4v-.01c0-2.44 1.38-4 3.54-4 1.61 0 2.86.98 3.16 2.44v.06h-.97l-.04-.12c-.3-.94-1.06-1.49-2.15-1.49-1.55 0-2.55 1.22-2.55 3.1v.01c0 1.89 1 3.12 2.55 3.12 1.08 0 1.84-.54 2.17-1.56l.02-.05h.98l-.01.06c-.3 1.48-1.54 2.44-3.16 2.44Zm6.95-.13v-7.75h4.8v.87h-3.83v2.49h3.63v.86h-3.63v2.66h3.83V58h-4.8Zm8.72 0v-7.75h.97v6.88h3.74V58h-4.7Z"/>
</svg>
