<svg xmlns="http://www.w3.org/2000/svg" width="1440" height="867" fill="none" viewBox="0 0 1440 867">
  <g clip-path="url(#a)">
    <path fill="#FAFAFA" fill-rule="evenodd" d="M1440 0H0v867h1440V0Zm-230 413H230v398h980V413Z" clip-rule="evenodd"/>
    <path fill="#222" d="m636.84 210-6.04-22.55h4.18l3.93 17.02h.07l4.52-17.02h3.66l4.51 17.02h.08l3.92-17.02h4.19L653.8 210h-3.89l-4.54-16.17h-.1L640.73 210h-3.89Zm25.68 0v-22.55h8.68c4.57 0 7.67 3.02 7.67 7.53v.04c0 4.5-3.1 7.53-7.67 7.53h-4.65V210h-4.03Zm7.68-19.25h-3.65v8.55h3.65c2.9 0 4.58-1.57 4.58-4.27V195c0-2.7-1.69-4.25-4.58-4.25ZM681.83 210v-22.55h9.36c4.1 0 6.75 2.22 6.75 5.64v.03a5 5 0 0 1-4.25 4.93v.07c3.17.29 5.33 2.5 5.33 5.47v.03c0 3.94-2.93 6.38-7.74 6.38h-9.45Zm8.34-19.4h-4.31v6.38h3.62c2.91 0 4.47-1.18 4.47-3.3v-.04c0-1.95-1.39-3.05-3.78-3.05Zm-.04 9.3h-4.27v6.96h4.5c2.95 0 4.55-1.2 4.55-3.47v-.03c0-2.27-1.63-3.45-4.78-3.45ZM708.3 210v-22.55h9c4.8 0 7.75 2.68 7.75 7.03v.04c0 3.03-1.63 5.48-4.25 6.43l4.92 9.05h-4.6l-4.43-8.44h-4.36V210h-4.03Zm4.03-11.63h4.54c2.55 0 4.05-1.4 4.05-3.82v-.03c0-2.36-1.6-3.8-4.12-3.8h-4.47v7.66Zm14.4 11.63 8.07-22.55h4.53l8.06 22.55h-4.23l-1.91-5.83h-8.4l-1.9 5.83h-4.22Zm10.29-18.53-3.14 9.6h6.35l-3.12-9.6h-.1ZM752.44 210l-6.05-22.55h4.19l3.92 17.02h.08l4.51-17.02h3.66l4.52 17.02h.07l3.93-17.02h4.18L769.41 210h-3.9l-4.54-16.17h-.1L756.34 210h-3.9Zm30.78 0 7.34-11.36v-.05l-7.28-11.14h4.77l5.23 8.49h.17l5.22-8.49h4.52l-7.53 11.25v.05l7.4 11.25h-4.64l-5.33-8.3h-.14l-5.34 8.3h-4.4Zm-318.53 64v-45.1h8.06V274h-8.06Zm15.22 0v-33.13h7.78v5.2h.15c1.72-3.57 5.1-5.88 10.13-5.88 7.28 0 11.44 4.69 11.44 12.37V274h-7.79v-19.88c0-4.71-2.18-7.37-6.62-7.37-4.47 0-7.31 3.25-7.31 8.03V274h-7.78Zm35.75 0v-33.13h7.78v5.2h.15c1.72-3.57 5.1-5.88 10.13-5.88 7.28 0 11.44 4.69 11.44 12.37V274h-7.78v-19.88c0-4.71-2.2-7.37-6.63-7.37-4.47 0-7.31 3.25-7.31 8.03V274h-7.78Zm50.4.66c-9.75 0-16.03-6.5-16.03-17.22v-.06c0-10.63 6.38-17.2 16-17.2 9.66 0 16.06 6.5 16.06 17.2v.06c0 10.75-6.3 17.22-16.03 17.22Zm.03-6.29c4.91 0 8.07-4 8.07-10.93v-.06c0-6.91-3.2-10.88-8.13-10.88-4.84 0-8.06 4-8.06 10.88v.06c0 6.97 3.15 10.94 8.12 10.94Zm28.75 5.63-11.72-33.13h8.29l7.68 25.91h.2l7.65-25.9h8.12L603.41 274h-8.57Zm32.85.56c-6.63 0-11.1-4.1-11.1-10v-.06c0-5.88 4.57-9.4 12.6-9.9l8.65-.54v-2.28c0-3.34-2.18-5.37-6.12-5.37-3.69 0-5.94 1.72-6.44 4.15l-.06.28H618l.03-.37c.47-5.88 5.56-10.28 13.97-10.28 8.28 0 13.63 4.37 13.63 11.03V274h-7.79v-5.1h-.18c-1.91 3.48-5.6 5.66-9.97 5.66Zm-3.35-10.31c0 2.72 2.25 4.38 5.66 4.38 4.47 0 7.84-2.97 7.84-6.91v-2.5l-7.56.47c-3.84.25-5.94 1.9-5.94 4.53v.03Zm39.88 10.4c-6.94 0-10.22-2.8-10.22-9.62v-18.15h-4.69v-6H654v-8.41h7.9v8.4h6.16v6h-6.15v17.5c0 3.25 1.43 4.29 4.28 4.29.75 0 1.34-.1 1.87-.13v5.85c-.9.12-2.28.28-3.84.28Zm13.31-38.52a4.3 4.3 0 0 1-4.34-4.25c0-2.38 1.9-4.29 4.34-4.29s4.31 1.91 4.31 4.28a4.27 4.27 0 0 1-4.3 4.25Zm-3.9 37.87v-33.13h7.78V274h-7.78Zm29.06.66c-9.75 0-16.03-6.5-16.03-17.22v-.06c0-10.63 6.37-17.2 16-17.2 9.65 0 16.06 6.5 16.06 17.2v.06c0 10.75-6.31 17.22-16.03 17.22Zm.03-6.29c4.9 0 8.06-4 8.06-10.93v-.06c0-6.91-3.19-10.88-8.12-10.88-4.85 0-8.07 4-8.07 10.88v.06c0 6.97 3.16 10.94 8.13 10.94Zm21 5.63v-33.13h7.78v5.2h.16c1.72-3.57 5.09-5.88 10.12-5.88 7.28 0 11.44 4.69 11.44 12.37V274h-7.78v-19.88c0-4.71-2.19-7.37-6.63-7.37-4.47 0-7.31 3.25-7.31 8.03V274h-7.78Zm52.69-37.88a4.3 4.3 0 0 1-4.35-4.25c0-2.37 1.9-4.28 4.35-4.28a4.27 4.27 0 1 1 0 8.53ZM772.5 274v-33.13h7.78V274h-7.78Zm14.4 0v-33.13h7.79v5.2h.15c1.72-3.57 5.1-5.88 10.13-5.88 7.28 0 11.44 4.69 11.44 12.37V274h-7.78v-19.88c0-4.71-2.2-7.37-6.63-7.37-4.47 0-7.31 3.25-7.31 8.03V274h-7.78Zm48.57 10.94v-44.06h7.78v5.71h.16c1.9-3.97 5.53-6.4 10.28-6.4 8.4 0 13.72 6.56 13.72 17.25v.03c0 10.62-5.32 17.19-13.63 17.19-4.72 0-8.5-2.38-10.37-6.25h-.16v16.53h-7.78Zm15.9-16.85c4.97 0 8.1-4.09 8.1-10.62v-.03c0-6.63-3.13-10.69-8.1-10.69-4.8 0-8.18 4.19-8.18 10.69v.03c0 6.47 3.37 10.62 8.18 10.62Zm21.25 5.91v-45.1h7.79V274h-7.78Zm24.2.56c-6.63 0-11.1-4.1-11.1-10v-.06c0-5.88 4.56-9.4 12.6-9.9l8.65-.54v-2.28c0-3.34-2.19-5.37-6.13-5.37-3.68 0-5.93 1.72-6.43 4.15l-.07.28h-7.22l.04-.37c.47-5.88 5.56-10.28 13.97-10.28 8.28 0 13.62 4.37 13.62 11.03V274h-7.78v-5.1h-.19c-1.9 3.48-5.6 5.66-9.97 5.66Zm-3.35-10.31c0 2.72 2.25 4.38 5.65 4.38 4.47 0 7.85-2.97 7.85-6.91v-2.5l-7.56.47c-3.85.25-5.94 1.9-5.94 4.53v.03Zm39.87 10.4c-6.93 0-10.22-2.8-10.22-9.62v-18.15h-4.68v-6h4.68v-8.41h7.91v8.4h6.16v6h-6.16v17.5c0 3.25 1.44 4.29 4.28 4.29.75 0 1.35-.1 1.88-.13v5.85c-.9.12-2.28.28-3.85.28Zm23.13 0c-9.94 0-15.94-6.59-15.94-17.12v-.03c0-10.44 6.1-17.31 15.56-17.31 9.47 0 15.35 6.65 15.35 16.65v2.5h-23.19c.13 5.82 3.31 9.25 8.38 9.25 3.87 0 6.4-2.06 7.15-4.28l.06-.22h7.28l-.09.35c-1.03 5.1-5.9 10.22-14.56 10.22Zm-.28-28.37c-4.13 0-7.22 2.78-7.85 7.88h15.53c-.56-5.25-3.56-7.88-7.68-7.88ZM558.94 352.94v-44.06h7.78v5.71h.15a10.97 10.97 0 0 1 10.29-6.4c8.4 0 13.72 6.56 13.72 17.25v.03c0 10.62-5.32 17.19-13.63 17.19-4.72 0-8.5-2.38-10.38-6.25h-.15v16.53h-7.78Zm15.9-16.85c4.97 0 8.1-4.09 8.1-10.62v-.03c0-6.63-3.13-10.69-8.1-10.69-4.8 0-8.18 4.19-8.18 10.69v.03c0 6.47 3.37 10.62 8.18 10.62Zm21.03 5.91v-33.13h7.79v5.72h.15c1.03-4 3.78-6.4 7.6-6.4.97 0 1.87.15 2.47.31v7.03a9.88 9.88 0 0 0-3.16-.44c-4.4 0-7.06 2.79-7.06 7.7V342h-7.78Zm35.41.66c-9.75 0-16.03-6.5-16.03-17.22v-.06c0-10.63 6.38-17.2 16-17.2 9.66 0 16.06 6.5 16.06 17.2v.06c0 10.75-6.31 17.22-16.03 17.22Zm.03-6.29c4.9 0 8.07-4 8.07-10.93v-.06c0-6.91-3.2-10.88-8.13-10.88-4.84 0-8.06 4-8.06 10.88v.06c0 6.97 3.15 10.94 8.12 10.94Zm33.32 6.29c-8.38 0-13.7-6.57-13.7-17.22v-.03c0-10.7 5.35-17.22 13.66-17.22 4.7 0 8.47 2.4 10.35 6.37h.18v-17.65h7.79V342h-7.78v-5.63h-.2c-1.87 3.91-5.52 6.29-10.3 6.29Zm2.34-6.57c4.81 0 8.15-4.15 8.15-10.65v-.03c0-6.47-3.37-10.66-8.15-10.66-4.97 0-8.1 4.06-8.1 10.66v.03c0 6.6 3.1 10.65 8.1 10.65Zm33.75 6.57c-7.28 0-11.44-4.7-11.44-12.38v-21.4h7.78v19.87c0 4.69 2.19 7.34 6.63 7.34 4.47 0 7.31-3.21 7.31-8.03v-19.19h7.78V342H711v-5.19h-.16c-1.72 3.53-5.12 5.85-10.12 5.85Zm39.1 0c-9.85 0-16-6.63-16-17.25v-.04c0-10.56 6.24-17.18 15.9-17.18 8.72 0 14.15 5.53 14.62 12.15l.03.25h-7.34l-.06-.28c-.66-3.22-3.03-5.81-7.16-5.81-4.9 0-8.06 4.16-8.06 10.94v.03c0 6.9 3.19 10.9 8.1 10.9 3.93 0 6.43-2.34 7.15-5.8l.06-.29h7.35l-.03.22c-.6 6.9-6.2 12.16-14.57 12.16Zm31.55 0c-6.93 0-10.21-2.82-10.21-9.63v-18.15h-4.7v-6h4.7v-8.41h7.9v8.4h6.16v6h-6.16v17.5c0 3.25 1.44 4.29 4.28 4.29.75 0 1.35-.1 1.88-.13v5.85c-.9.12-2.28.28-3.85.28Zm13.32-38.54a4.3 4.3 0 0 1-4.35-4.25 4.29 4.29 0 0 1 4.35-4.28 4.27 4.27 0 1 1 0 8.53Zm-3.9 37.88v-33.13h7.77V342h-7.78Zm29.05.66c-9.75 0-16.03-6.5-16.03-17.22v-.06c0-10.63 6.38-17.2 16-17.2 9.66 0 16.07 6.5 16.07 17.2v.06c0 10.75-6.32 17.22-16.04 17.22Zm.03-6.29c4.91 0 8.07-4 8.07-10.93v-.06c0-6.91-3.19-10.88-8.13-10.88-4.84 0-8.06 4-8.06 10.88v.06c0 6.97 3.16 10.94 8.13 10.94Zm21 5.63v-33.13h7.79v5.2h.15c1.72-3.57 5.1-5.88 10.13-5.88 7.28 0 11.43 4.69 11.43 12.37V342h-7.78v-19.88c0-4.71-2.18-7.37-6.62-7.37-4.47 0-7.31 3.25-7.31 8.03V342h-7.78Zm39.97.5a4.5 4.5 0 0 1-4.53-4.53c0-2.5 2-4.5 4.53-4.5 2.53 0 4.5 2 4.5 4.5a4.47 4.47 0 0 1-4.5 4.53Z"/>
    <path fill="#000" fill-rule="evenodd" d="m60.24 36.22-1.5 2.48 2.9 4.84 3.1-.35.14-.88-.92-.55.21-1.74-3.93-3.8ZM39.95 29.4A47.07 47.07 0 0 1 36 38.06l.03 1.38 2.2 3.39 1.65-.49.1-1.74 2.6-2.47-1.97-7.93-.66-.8Z" clip-rule="evenodd"/>
    <path fill="#000" fill-rule="evenodd" d="m70.1 44 4.46-.36.19-.7c-.59-.2-1.17-.25-1.74-.44-1.17-2.18-2.38-4.92-3.76-7.12l4.4-2.72c.88.47 2.25.7 3.06.62l.3-.4c.68.18 1.06.17 1.37.13.6-.11.54-.29.98-.68.49-.43.02-.6-.18-.82-.38-.49-.37-.62-.75-1.1-.15-.17-.36-.24-.5-.3l.27-.79c.1-.37.03-.67-.27-1.04-.5-.58-1.03-2.46-1.8-3.07-1.92-1.5-2.7-1.39-4.6-1.82a8.41 8.41 0 0 1-1.87-.84c-.82-.5-1.83-1.05-2.75-1.04-1.5.02-2.02 1-3.51.88-.85-.14-1.35-.43-1.95-.62-5.42-1.73-10.34-2.3-14.18-1.21-3.6 1.02-4.06 1.98-7.1 4.85l-.7.51-.32.95.4.58 1.08 1.14c1.34 4.5 2.5 9.12 3.5 13.75l1.56.84 2.8-.77v-.64l-1.48-.3 2.27-3.58c3.12-1.07 6.98-2.46 10.1-3.54.34.37.77.87 1.19 1.27 2.59 2.5 6.5 5.72 9.53 8.38Z" clip-rule="evenodd"/>
    <path fill="#000" d="m95.48 33.78-2.53 2.6V40h-1.98V26h1.98v7.82l7.52-7.82h2.26l-5.92 6.3 6.3 7.7h-2.32l-5.3-6.22Zm12.62-4.48c1.45 0 2.56.36 3.33 1.08.78.72 1.17 1.8 1.17 3.22V40h-1.8v-1.4c-.32.5-.78.87-1.37 1.14-.58.25-1.28.38-2.08.38a4.39 4.39 0 0 1-2.83-.86 2.78 2.78 0 0 1-1.05-2.26c0-.93.33-1.68 1-2.24.68-.57 1.75-.86 3.21-.86h3.01v-.38c0-.83-.23-1.46-.7-1.9-.48-.44-1.18-.66-2.1-.66a5.36 5.36 0 0 0-3.33 1.14l-.8-1.44a5.6 5.6 0 0 1 1.94-1 7.84 7.84 0 0 1 2.4-.36Zm-.43 9.34c.72 0 1.35-.16 1.88-.48.52-.33.9-.8 1.14-1.4v-1.48h-2.93c-1.6 0-2.41.55-2.41 1.64 0 .53.2.95.61 1.26.41.3.98.46 1.7.46Zm9.87-7.46c.33-.61.82-1.08 1.47-1.4a5.28 5.28 0 0 1 2.35-.48v1.86a3.7 3.7 0 0 0-.43-.02 3.2 3.2 0 0 0-2.44.94c-.58.61-.87 1.5-.87 2.64V40h-1.9V29.4h1.82v1.78Zm15.16 3.58c0 .15-.01.34-.04.58h-8.52c.12.93.53 1.69 1.21 2.26.7.56 1.57.84 2.6.84a3.9 3.9 0 0 0 3.03-1.28l1.05 1.24a4.6 4.6 0 0 1-1.78 1.28c-.7.3-1.49.44-2.36.44-1.11 0-2.1-.23-2.95-.68a5.03 5.03 0 0 1-2-1.94 5.64 5.64 0 0 1-.7-2.8c0-1.03.23-1.95.68-2.78A4.95 4.95 0 0 1 124.8 30c.8-.47 1.7-.7 2.71-.7 1 0 1.9.23 2.68.7.79.45 1.4 1.1 1.84 1.92.45.83.67 1.77.67 2.84Zm-5.19-3.84a3.3 3.3 0 0 0-2.3.84c-.6.56-.96 1.3-1.06 2.2h6.73a3.36 3.36 0 0 0-3.37-3.04Zm7.44-5.76h1.9V40h-1.9V25.16Zm5.13 4.24h1.9V40h-1.9V29.4Zm.95-2.04a1.3 1.3 0 0 1-.93-.36 1.2 1.2 0 0 1-.35-.88c0-.35.11-.64.35-.88.25-.25.56-.38.93-.38s.68.12.91.36c.25.23.38.51.38.86a1.26 1.26 0 0 1-1.29 1.28Zm8.01 1.94c1.45 0 2.56.36 3.33 1.08.78.72 1.17 1.8 1.17 3.22V40h-1.8v-1.4c-.32.5-.78.87-1.37 1.14-.58.25-1.28.38-2.08.38a4.39 4.39 0 0 1-2.83-.86A2.78 2.78 0 0 1 144.4 37c0-.93.33-1.68 1-2.24.68-.57 1.75-.86 3.21-.86h3.01v-.38c0-.83-.23-1.46-.7-1.9-.48-.44-1.18-.66-2.1-.66a5.36 5.36 0 0 0-3.34 1.14l-.79-1.44a5.6 5.6 0 0 1 1.94-1 7.84 7.84 0 0 1 2.4-.36Zm-.44 9.34c.73 0 1.36-.16 1.89-.48.52-.33.9-.8 1.14-1.4v-1.48h-2.93c-1.6 0-2.41.55-2.41 1.64 0 .53.2.95.61 1.26.41.3.98.46 1.7.46ZM156.94 26h5.84c1.47 0 2.77.3 3.9.88a6.34 6.34 0 0 1 2.63 2.48c.64 1.05.96 2.27.96 3.64s-.32 2.6-.96 3.66a6.38 6.38 0 0 1-2.63 2.46 8.38 8.38 0 0 1-3.9.88h-5.84V26Zm5.72 12.26a6.3 6.3 0 0 0 2.95-.66 4.75 4.75 0 0 0 1.98-1.84c.46-.8.7-1.72.7-2.76 0-1.04-.24-1.95-.7-2.74a4.71 4.71 0 0 0-1.98-1.86 6.3 6.3 0 0 0-2.95-.66h-3.74v10.52h3.74Zm14.28 1.9a9.67 9.67 0 0 1-3.03-.48 6.3 6.3 0 0 1-2.27-1.28l.73-1.56c.53.48 1.2.87 2.02 1.18.83.3 1.68.44 2.55.44 1.15 0 2.01-.2 2.58-.58.57-.4.85-.93.85-1.58 0-.48-.16-.87-.47-1.16-.3-.3-.7-.54-1.15-.7-.45-.16-1.1-.34-1.93-.54-1.04-.25-1.88-.5-2.53-.76a4.32 4.32 0 0 1-1.64-1.16 3.21 3.21 0 0 1-.68-2.14c0-.75.2-1.42.58-2.02.4-.6.99-1.08 1.78-1.44.8-.36 1.78-.54 2.95-.54.82 0 1.63.1 2.42.32.79.21 1.47.52 2.04.92l-.66 1.6a6.9 6.9 0 0 0-1.86-.84c-.66-.2-1.3-.3-1.94-.3a4.3 4.3 0 0 0-2.53.62 1.9 1.9 0 0 0-.84 1.6c0 .48.16.87.48 1.18.32.3.7.53 1.17.7.47.16 1.11.33 1.92.52 1.04.25 1.88.5 2.51.76a4.1 4.1 0 0 1 1.63 1.16c.46.52.7 1.22.7 2.1a3.65 3.65 0 0 1-2.4 3.46 7.5 7.5 0 0 1-2.98.52ZM190.22 26c1.8 0 3.2.43 4.24 1.3a4.43 4.43 0 0 1 1.54 3.58c0 1.52-.51 2.71-1.54 3.58-1.03.87-2.45 1.3-4.24 1.3h-3.43V40h-1.98V26h5.4Zm-.06 8.02c1.25 0 2.2-.27 2.87-.8.66-.55.99-1.33.99-2.34 0-1.01-.33-1.79-1-2.32-.65-.55-1.6-.82-2.86-.82h-3.37v6.28h3.37Z"/>
    <path fill="#000" d="M309.51 36v-8.46h1.06v7.51h4.08V36h-5.14Zm7.76 0-2.3-8.46h1.1l1.68 6.88h.07l1.89-6.88h1.06l1.9 6.88h.07l1.68-6.88h1.1l-2.3 8.46h-1l-1.94-6.67h-.07L318.26 36h-1Zm9.86 0v-8.46h3.18c1.6 0 2.72 1.1 2.72 2.7v.02a2.6 2.6 0 0 1-2.72 2.72h-2.13V36h-1.05Zm2.92-7.52h-1.87v3.56h1.87c1.2 0 1.9-.66 1.9-1.77v-.01c0-1.12-.7-1.78-1.9-1.78Zm4.7 7.52v-8.46H338c1.55 0 2.5.82 2.5 2.1v.02c0 .87-.64 1.67-1.46 1.82v.09c1.16.15 1.89.94 1.89 2.05v.01c0 1.49-1.07 2.37-2.87 2.37h-3.3Zm3.02-7.52h-1.96v2.7h1.69c1.27 0 1.93-.45 1.93-1.34v-.01c0-.86-.61-1.35-1.66-1.35Zm.03 3.62h-1.99v2.97h2.09c1.27 0 1.94-.52 1.94-1.49v-.01c0-.97-.7-1.47-2.04-1.47Zm12.2 2.8a.55.55 0 0 1-.4-.18l-4.53-4.64a.55.55 0 0 1-.16-.38c0-.3.23-.54.53-.54.15 0 .29.06.38.15l4.18 4.27 4.17-4.27c.1-.09.24-.15.38-.15a.54.54 0 0 1 .38.92l-4.54 4.64a.53.53 0 0 1-.39.17Zm96.42 1.3c-2.3 0-3.73-1.7-3.73-4.42v-.01c0-2.73 1.43-4.42 3.73-4.42 1.78 0 3.17 1.11 3.42 2.74v.01h-1.07v-.01a2.32 2.32 0 0 0-2.35-1.77c-1.63 0-2.65 1.33-2.65 3.45v.01c0 2.12 1.02 3.45 2.65 3.45 1.18 0 2.08-.6 2.34-1.58l.01-.01h1.07v.01c-.28 1.55-1.62 2.55-3.42 2.55Zm4.28-.2 3.12-8.46h1.04l3.12 8.46h-1.1l-.86-2.42h-3.36L451.8 36h-1.1Zm3.6-7.09-1.33 3.77h2.74l-1.32-3.77h-.1Zm6.36 7.09v-7.5h-2.72v-.96h6.5v.95h-2.72V36h-1.06Zm3.74 0 3.12-8.46h1.04l3.12 8.46h-1.11l-.85-2.42h-3.36L465.5 36h-1.11Zm3.6-7.09-1.33 3.77h2.74l-1.33-3.77H468Zm5.16 7.09v-8.46h1.05v7.51h4.08V36h-5.13Zm10.02.2c-2.43 0-3.88-1.72-3.88-4.42v-.02c0-2.7 1.49-4.41 3.88-4.41 2.4 0 3.88 1.7 3.88 4.41v.02c0 2.7-1.47 4.42-3.88 4.42Zm0-.97c1.73 0 2.8-1.36 2.8-3.45v-.02c0-2.1-1.07-3.44-2.8-3.44-1.72 0-2.8 1.33-2.8 3.44v.02c0 2.09 1.04 3.45 2.8 3.45Zm9.21.97c-2.34 0-3.83-1.72-3.83-4.42v-.02c0-2.66 1.52-4.41 3.83-4.41 1.88 0 3.2 1.05 3.53 2.66v.05h-1.06l-.01-.05c-.35-1.1-1.2-1.7-2.46-1.7-1.68 0-2.75 1.36-2.75 3.45v.02c0 2.12 1.06 3.45 2.76 3.45 1.5 0 2.53-.97 2.53-2.4v-.2h-2.38v-.93h3.43v1.03c0 2.09-1.43 3.47-3.59 3.47Zm90.53-.2v-8.46h1.06v7.51h4.08V36h-5.14Zm9.88.2c-2.1 0-3.36-1.27-3.36-3.1v-5.56h1.05v5.48c0 1.3.85 2.2 2.31 2.2 1.47 0 2.3-.9 2.3-2.2v-5.48h1.05v5.55c0 1.84-1.25 3.1-3.35 3.1Zm5.5-.2v-8.46h1.22l2.9 7.06h.1l2.89-7.06h1.22V36h-.98v-6.46h-.07L602.91 36h-.9l-2.66-6.46h-.07V36h-.98Zm10.49 0v-8.46h3.23c1.55 0 2.5.82 2.5 2.1v.02c0 .87-.64 1.67-1.46 1.82v.09c1.16.15 1.9.94 1.9 2.05v.01c0 1.49-1.08 2.37-2.88 2.37h-3.3Zm3-7.52h-1.95v2.7h1.69c1.28 0 1.93-.45 1.93-1.34v-.01c0-.86-.61-1.35-1.66-1.35Zm.04 3.62h-1.99v2.97h2.09c1.27 0 1.94-.52 1.94-1.49v-.01c0-.97-.7-1.47-2.04-1.47Zm4.84 3.9v-8.46h5.24v.95h-4.18v2.72h3.97v.93h-3.97v2.91h4.18V36h-5.24Zm7.15 0v-8.46h3.23c1.63 0 2.7 1 2.7 2.52v.01c0 1.17-.64 2.09-1.7 2.42L630 36h-1.23l-1.81-3.35h-2.08V36h-1.06Zm1.06-4.28h2.08c1.08 0 1.7-.58 1.7-1.61v-.02c0-1-.66-1.6-1.75-1.6h-2.03v3.23Zm13.83 3.18a.55.55 0 0 1-.4-.18l-4.53-4.64a.54.54 0 0 1-.16-.38c0-.3.23-.54.54-.54.15 0 .28.06.38.15l4.17 4.27 4.18-4.27c.1-.09.23-.15.38-.15.3 0 .53.24.53.54 0 .15-.06.28-.16.38l-4.53 4.64a.53.53 0 0 1-.4.17Zm96.14 1.3c-1.86 0-3.05-.97-3.18-2.35v-.06h1.05v.06c.09.84.96 1.38 2.18 1.38 1.15 0 1.99-.6 1.99-1.46 0-.7-.49-1.19-1.65-1.44l-.93-.2c-1.7-.38-2.43-1.16-2.43-2.39 0-1.4 1.23-2.4 2.98-2.4 1.68 0 2.86 1 2.95 2.26v.08h-1.05l-.01-.07c-.12-.75-.82-1.3-1.92-1.3-1.06.01-1.87.51-1.87 1.4 0 .68.46 1.13 1.6 1.39l.95.2c1.76.4 2.46 1.1 2.46 2.33 0 1.58-1.24 2.57-3.13 2.57Zm4.88-.2v-8.46h5.23v.95h-4.18v2.72h3.97v.93h-3.97v2.91h4.18V36h-5.23Zm7.14 0v-8.46h3.23c1.63 0 2.7 1 2.7 2.52v.01c0 1.17-.64 2.09-1.7 2.42l1.96 3.51h-1.24L750 32.65h-2.08V36h-1.06Zm1.06-4.28H750c1.08 0 1.7-.58 1.7-1.61v-.02c0-1-.66-1.6-1.75-1.6h-2.03v3.23Zm9.05 4.28-3.12-8.46h1.11l2.49 7.1h.09l2.48-7.1h1.11L758.02 36h-1.04Zm5.64 0v-8.46h1.06V36h-1.06Zm6.62.2c-2.3 0-3.73-1.7-3.73-4.42v-.01c0-2.73 1.43-4.42 3.72-4.42 1.78 0 3.17 1.11 3.42 2.74v.01h-1.06v-.01a2.32 2.32 0 0 0-2.36-1.77c-1.62 0-2.64 1.33-2.64 3.45v.01c0 2.12 1.02 3.45 2.65 3.45 1.18 0 2.07-.6 2.34-1.58v-.01h1.07v.01c-.28 1.55-1.61 2.55-3.41 2.55Zm5.18-.2v-8.46h5.24v.95h-4.18v2.72h3.97v.93h-3.97v2.91h4.18V36h-5.24Zm9.93.2c-1.86 0-3.05-.97-3.18-2.35v-.06h1.05v.06c.09.84.96 1.38 2.18 1.38 1.15 0 1.99-.6 1.99-1.46 0-.7-.49-1.19-1.65-1.44l-.93-.2c-1.7-.38-2.43-1.16-2.43-2.39 0-1.4 1.23-2.4 2.98-2.4 1.68 0 2.86 1 2.95 2.26v.08h-1.05l-.01-.07c-.12-.75-.82-1.3-1.92-1.3-1.06.01-1.87.51-1.87 1.4 0 .68.46 1.13 1.6 1.39l.95.2c1.76.4 2.46 1.1 2.46 2.33 0 1.58-1.24 2.57-3.13 2.57Zm12.22-1.3a.55.55 0 0 1-.4-.18l-4.53-4.64a.55.55 0 0 1-.16-.38c0-.3.23-.54.53-.54.15 0 .29.06.38.15l4.18 4.27 4.17-4.27c.1-.09.24-.15.38-.15a.54.54 0 0 1 .38.92l-4.54 4.64a.53.53 0 0 1-.39.17Zm92.48 1.1 3.12-8.46h1.04l3.12 8.46h-1.1l-.86-2.42h-3.36l-.85 2.42h-1.1Zm3.6-7.09-1.33 3.77h2.74l-1.32-3.77h-.1ZM897.8 36v-8.46h3.24c1.55 0 2.5.82 2.5 2.1v.02c0 .87-.64 1.67-1.46 1.82v.09c1.15.15 1.89.94 1.89 2.05v.01c0 1.49-1.07 2.37-2.87 2.37h-3.3Zm3.02-7.52h-1.96v2.7h1.69c1.27 0 1.92-.45 1.92-1.34v-.01c0-.86-.6-1.35-1.65-1.35Zm.02 3.62h-1.98v2.97h2.08c1.28 0 1.94-.52 1.94-1.49v-.01c0-.97-.69-1.47-2.04-1.47Zm8.4 4.1c-2.42 0-3.88-1.72-3.88-4.42v-.02c0-2.7 1.49-4.41 3.88-4.41 2.4 0 3.88 1.7 3.88 4.41v.02c0 2.7-1.47 4.42-3.88 4.42Zm0-.97c1.74 0 2.8-1.36 2.8-3.45v-.02c0-2.1-1.07-3.44-2.8-3.44-1.72 0-2.8 1.33-2.8 3.44v.02c0 2.09 1.04 3.45 2.8 3.45Zm9.06.97c-2.1 0-3.36-1.27-3.36-3.1v-5.56H916v5.48c0 1.3.85 2.2 2.31 2.2s2.3-.9 2.3-2.2v-5.48h1.05v5.55c0 1.84-1.25 3.1-3.35 3.1Zm7.7-.2v-7.5h-2.73v-.96h6.5v.95h-2.72V36H926Zm12.13.2c-2.1 0-3.37-1.27-3.37-3.1v-5.56h1.06v5.48c0 1.3.84 2.2 2.3 2.2 1.47 0 2.3-.9 2.3-2.2v-5.48h1.06v5.55c0 1.84-1.25 3.1-3.35 3.1Zm8.26 0c-1.85 0-3.04-.97-3.16-2.35l-.01-.06h1.05l.01.06c.08.84.96 1.38 2.17 1.38 1.15 0 1.99-.6 1.99-1.46 0-.7-.49-1.19-1.65-1.44l-.93-.2c-1.7-.38-2.43-1.16-2.43-2.39 0-1.4 1.23-2.4 2.98-2.4 1.68 0 2.86 1 2.95 2.26v.08h-1.05l-.01-.07c-.12-.75-.82-1.3-1.92-1.3-1.06.01-1.87.51-1.87 1.4 0 .68.46 1.13 1.61 1.39l.94.2c1.76.4 2.46 1.1 2.46 2.33 0 1.58-1.24 2.57-3.13 2.57Zm93.41 0c-2.3 0-3.74-1.7-3.74-4.42v-.01c0-2.73 1.43-4.42 3.73-4.42 1.78 0 3.17 1.11 3.42 2.74v.01h-1.06l-.01-.01a2.32 2.32 0 0 0-2.35-1.77c-1.62 0-2.64 1.33-2.64 3.45v.01c0 2.12 1.02 3.45 2.65 3.45 1.18 0 2.07-.6 2.34-1.58l.01-.01h1.06v.01c-.28 1.55-1.61 2.55-3.41 2.55Zm8.73 0c-2.42 0-3.88-1.72-3.88-4.42v-.02c0-2.7 1.49-4.41 3.88-4.41 2.41 0 3.88 1.7 3.88 4.41v.02c0 2.7-1.46 4.42-3.88 4.42Zm0-.97c1.74 0 2.8-1.36 2.8-3.45v-.02c0-2.1-1.07-3.44-2.8-3.44-1.72 0-2.8 1.33-2.8 3.44v.02c0 2.09 1.05 3.45 2.8 3.45Zm5.71.77v-8.46h1.03l4.58 6.59h.1v-6.59h1.04V36h-1.02l-4.59-6.56h-.1V36h-1.04Zm11.1 0v-7.5h-2.72v-.96h6.5v.95h-2.72V36h-1.06Zm3.74 0 3.12-8.46h1.04l3.12 8.46h-1.11l-.85-2.42h-3.36l-.85 2.42h-1.11Zm3.59-7.09-1.32 3.77h2.74l-1.32-3.77h-.1Zm8.17 7.29c-2.3 0-3.74-1.7-3.74-4.42v-.01c0-2.73 1.43-4.42 3.73-4.42 1.78 0 3.17 1.11 3.42 2.74v.01h-1.06l-.01-.01a2.32 2.32 0 0 0-2.35-1.77c-1.62 0-2.64 1.33-2.64 3.45v.01c0 2.12 1.02 3.45 2.65 3.45 1.17 0 2.07-.6 2.33-1.58l.02-.01h1.06v.01c-.28 1.55-1.61 2.55-3.41 2.55Zm7.09-.2v-7.5h-2.73v-.96h6.51v.95h-2.73V36h-1.05Zm93.05.14c-1.8 0-3.07-1-3.07-2.43 0-1.05.73-1.92 1.81-2.17v-.02c-.92-.29-1.51-1-1.51-1.88v-.02c0-1.27 1.17-2.22 2.77-2.22s2.76.95 2.76 2.23c0 .9-.58 1.6-1.51 1.89v.02a2.24 2.24 0 0 1 1.82 2.16v.01c0 1.42-1.28 2.43-3.07 2.43Zm0-5.02c1.02 0 1.71-.58 1.71-1.4 0-.83-.69-1.4-1.71-1.4s-1.72.57-1.72 1.4c0 .82.7 1.4 1.72 1.4Zm0 4.1c1.16 0 2-.66 2-1.57v-.01c0-.93-.83-1.59-2-1.59s-2 .66-2 1.59v.01c0 .91.83 1.57 2 1.57Zm10.29 2.89a8.65 8.65 0 0 1-1.67-5.47c0-2.17.52-3.95 1.67-5.46h.85c-.85 1.08-1.48 3.43-1.48 5.46 0 2.05.63 4.39 1.48 5.47h-.85Zm5.33-1.97c-1.79 0-3.07-1-3.07-2.43 0-1.05.73-1.92 1.81-2.17v-.02c-.92-.29-1.51-1-1.51-1.88v-.02c0-1.27 1.17-2.22 2.77-2.22s2.76.95 2.76 2.23c0 .9-.58 1.6-1.51 1.89v.02a2.23 2.23 0 0 1 1.82 2.16v.01c0 1.42-1.28 2.43-3.07 2.43Zm0-5.02c1.02 0 1.71-.58 1.71-1.4 0-.83-.69-1.4-1.71-1.4s-1.72.57-1.72 1.4c0 .82.7 1.4 1.72 1.4Zm0 4.1c1.16 0 2-.66 2-1.57v-.01c0-.93-.83-1.59-2-1.59s-2 .66-2 1.59v.01c0 .91.83 1.57 2 1.57Zm6.84.78v-7.28h-.09l-2.15 1.56v-1.12l2.25-1.62h1.05V36h-1.06Zm3.5 0v-.73l2.86-3.09c1.08-1.17 1.39-1.6 1.39-2.34v-.02c0-.89-.6-1.55-1.6-1.55-1.01 0-1.68.66-1.68 1.65l-.01.02-1.01-.01h-.01c.01-1.5 1.17-2.58 2.78-2.58 1.48 0 2.61 1 2.61 2.36v.01c0 .97-.41 1.67-1.94 3.25l-1.93 1.99v.1h4.01V36h-5.47Zm7.8 2.1h-.86c.85-1.07 1.49-3.4 1.49-5.46 0-2.03-.64-4.38-1.49-5.46h.86a8.66 8.66 0 0 1 1.66 5.46 8.7 8.7 0 0 1-1.66 5.47Zm7.75-2.1 3.8-7.43v-.08h-4.53v-.95h5.6v.98L1223.6 36h-1.11Zm9.64 0v-1.75h-4.12v-.96a133.5 133.5 0 0 1 3.62-5.75h1.53v5.76h1.2v.95h-1.2V36h-1.03Zm-3.04-2.69h3.05v-4.79h-.08a120.3 120.3 0 0 0-2.97 4.72v.07Zm9.73 2.89c-1.87 0-2.98-1.7-2.98-4.42v-.02c0-2.72 1.11-4.41 2.98-4.41 1.87 0 2.99 1.7 2.99 4.41v.02c0 2.71-1.12 4.42-2.99 4.42Zm0-.92c1.21 0 1.93-1.35 1.93-3.5v-.02c0-2.15-.72-3.49-1.93-3.49s-1.92 1.34-1.92 3.5.71 3.5 1.92 3.5Zm4.65-2.21v-.95h3.93v.95h-3.93Zm6.09 2.93 3.8-7.43v-.08h-4.53v-.95h5.6v.98l-3.76 7.48h-1.11Zm9.14.2c-1.57 0-2.7-1.01-2.82-2.37l-.01-.06h1.02v.04c.1.81.83 1.46 1.82 1.46 1.13 0 1.9-.8 1.9-1.95v-.01c0-1.12-.78-1.93-1.88-1.93a2 2 0 0 0-1.41.52c-.14.14-.28.3-.38.5h-.92l.45-4.86h4.7v.95h-3.87l-.29 2.86h.1a2.09 2.09 0 0 1 1.8-.88c1.59 0 2.73 1.19 2.73 2.82v.01c0 1.71-1.22 2.9-2.94 2.9Zm4.56-3.13v-.95h3.94v.95h-3.94Zm8.52 3.13c-1.58 0-2.7-1.01-2.82-2.37l-.01-.06h1.01l.01.04c.1.81.83 1.46 1.82 1.46 1.13 0 1.9-.8 1.9-1.95v-.01c0-1.12-.79-1.93-1.88-1.93a2 2 0 0 0-1.41.52c-.14.14-.28.3-.38.5h-.92l.45-4.86h4.7v.95h-3.87l-.29 2.86h.1a2.07 2.07 0 0 1 1.8-.88c1.59 0 2.73 1.19 2.73 2.82v.01c0 1.71-1.22 2.9-2.94 2.9Zm7.53-.06c-1.79 0-3.07-1-3.07-2.43 0-1.05.73-1.92 1.82-2.17v-.02c-.93-.29-1.52-1-1.52-1.88v-.02c0-1.27 1.17-2.22 2.77-2.22s2.76.95 2.76 2.23c0 .9-.58 1.6-1.51 1.89v.02a2.23 2.23 0 0 1 1.82 2.16v.01c0 1.42-1.28 2.43-3.07 2.43Zm0-5.02c1.02 0 1.72-.58 1.72-1.4 0-.83-.7-1.4-1.72-1.4s-1.72.57-1.72 1.4c0 .82.7 1.4 1.72 1.4Zm0 4.1c1.17 0 2-.66 2-1.57v-.01c0-.93-.83-1.59-2-1.59s-2 .66-2 1.59v.01c0 .91.83 1.57 2 1.57Zm94.79-.12c-.85 0-1.29-.52-1.41-1.36l-.94-6.43h-1.98a.45.45 0 0 1-.43-.44c0-.24.2-.44.43-.44h2.06c.6 0 .76.22.82.68l.11.74h9.57c.32 0 .53.2.53.47l-.02.23-.47 3.1c-.12.83-.56 1.36-1.42 1.36h-7.43l.09.62c.05.35.26.59.59.59h6.74c.23 0 .43.19.43.44s-.2.44-.43.44h-6.84Zm7.77-6.37h-8.98l.5 3.4h7.48c.34 0 .53-.23.58-.59l.42-2.8Zm-7.3 9.22a.94.94 0 0 1-.96-.95c0-.53.42-.95.96-.95a.95.95 0 0 1 0 1.9Zm5.47 0a.95.95 0 1 1 0-1.9c.54 0 .96.42.96.95s-.42.95-.96.95Zm11.14-1.1v-1c-1.4-.12-2.55-.97-2.6-2.33l1.02-.01v.01c.11.73.56 1.3 1.58 1.42v-2.82l-.14-.03c-1.46-.36-2.24-1-2.24-2.15v-.02c0-1.25.99-2.1 2.38-2.23v-1h.7v1c1.35.12 2.4 1 2.45 2.29h-1.02c-.08-.79-.64-1.27-1.43-1.37v2.68l.18.05c1.51.36 2.35.98 2.35 2.2v.02c0 1.4-1.15 2.2-2.53 2.3v.99h-.7Zm-1.36-6.98c0 .56.35 1 1.36 1.25v-2.51c-.89.12-1.36.68-1.36 1.24v.02Zm2.1 2.43h-.04v2.65c1.09-.09 1.51-.64 1.51-1.31v-.01c0-.64-.31-1.05-1.47-1.33Zm7.15 3.9c-1.87 0-2.98-1.7-2.98-4.42v-.02c0-2.72 1.11-4.41 2.98-4.41 1.87 0 2.99 1.7 2.99 4.41v.02c0 2.71-1.12 4.42-2.99 4.42Zm0-.92c1.21 0 1.93-1.35 1.93-3.5v-.02c0-2.15-.72-3.49-1.93-3.49s-1.92 1.34-1.92 3.5.71 3.5 1.92 3.5Z" opacity=".6"/>
  </g>
  <defs>
    <clipPath id="a">
      <path fill="#fff" d="M0 0h1440v867H0z"/>
    </clipPath>
  </defs>
</svg>
