<svg xmlns="http://www.w3.org/2000/svg" width="1920" height="1048" fill="none" viewBox="0 0 1920 1048">
  <path fill="#fff" fill-rule="evenodd" d="M1920 0H0v1048h1920V0Zm-678 84H670v880h572V84Z" clip-rule="evenodd"/>
  <path fill="#000" d="M280.53 715h1.5v-4.27h3.01a3.7 3.7 0 0 0 3.85-3.87v-.01c0-2.28-1.6-3.83-3.85-3.83h-4.51V715Zm4.13-10.65c1.71 0 2.7.94 2.7 2.51v.02c0 1.58-.99 2.52-2.7 2.52h-2.64v-5.05h2.64Zm4.97 10.65h1.57l1.2-3.43h4.77l1.2 3.43h1.57l-4.41-11.98h-1.48L289.63 715Zm5.1-10.04h.12l1.88 5.34h-3.88l1.87-5.34Zm9.01 10.04h1.5v-10.63h3.86v-1.35h-9.22v1.35h3.87V715Zm7.67 0h7.42v-1.35h-5.93v-4.11h5.62v-1.33h-5.62v-3.84h5.93v-1.35h-7.42V715Zm10.12 0h1.5v-4.18l1.43-1.59 4.33 5.77h1.93l-5.23-6.8 4.8-5.18h-1.88l-5.25 5.82h-.13v-5.82h-1.5V715Zm16 0h1.49v-4.27h3.02a3.7 3.7 0 0 0 3.84-3.87v-.01c0-2.28-1.6-3.83-3.84-3.83h-4.52V715Zm4.12-10.65c1.71 0 2.7.94 2.7 2.51v.02c0 1.58-.99 2.52-2.7 2.52h-2.63v-5.05h2.63Zm6.68 10.65h1.5v-5.45h6.57V715h1.5v-11.98h-1.5v5.18h-6.58v-5.18h-1.5V715Zm12.62 0h1.49v-11.98h-1.5V715Zm4.54 0h7.28v-1.35h-5.78v-10.63h-1.5V715Zm9.67 0h1.49v-11.98h-1.5V715Zm4.54 0h1.5v-4.27h3.02a3.7 3.7 0 0 0 3.84-3.87v-.01a3.66 3.66 0 0 0-3.84-3.83h-4.52V715Zm4.14-10.65c1.7 0 2.7.94 2.7 2.51v.02c0 1.58-1 2.52-2.7 2.52h-2.64v-5.05h2.64ZM390.5 715h1.5v-4.27h3.02a3.7 3.7 0 0 0 3.84-3.87v-.01c0-2.28-1.6-3.83-3.84-3.83h-4.52V715Zm4.14-10.65c1.7 0 2.7.94 2.7 2.51v.02c0 1.58-1 2.52-2.7 2.52H392v-5.05h2.64Zm6.67 10.65h7.42v-1.35h-5.93v-4.11h5.62v-1.33h-5.62v-3.84h5.93v-1.35h-7.42V715Z"/>
  <path fill="#C0AF9F" d="M280.44 909h8.98v-1.66h-7.14V894.2h-1.84V909Zm14.81.2c2.33 0 4.07-1.39 4.42-3.15l.02-.1h-1.75l-.03.09c-.3.9-1.26 1.59-2.62 1.59-1.9 0-3.1-1.29-3.14-3.48h7.68v-.66c0-3.2-1.78-5.36-4.69-5.36s-4.8 2.27-4.8 5.57c0 3.36 1.85 5.5 4.91 5.5Zm-.12-9.49c1.56 0 2.7.97 2.88 3.04h-5.83c.2-1.98 1.4-3.04 2.95-3.04Zm9.62 9.5c1.42 0 2.7-.77 3.33-1.94h.04V909h1.78v-7.37c0-2.13-1.57-3.5-4.1-3.5-2.5 0-4.04 1.42-4.19 3.17l-.01.11h1.72l.02-.09c.2-.95 1.07-1.61 2.44-1.61 1.49 0 2.34.79 2.34 2.1v.88l-3.06.18c-2.44.14-3.86 1.28-3.86 3.1v.01c0 1.94 1.43 3.23 3.55 3.23Zm-1.73-3.23v-.01c0-1 .83-1.64 2.25-1.72l2.85-.17v.87c0 1.55-1.3 2.7-2.97 2.7-1.28 0-2.13-.64-2.13-1.66Zm9.15 3.02h1.79v-6.58c0-1.62.9-2.59 2.28-2.59.43 0 .81.05.96.1v-1.73c-.15-.02-.41-.07-.72-.07-1.2 0-2.13.78-2.48 2.01h-.04v-1.8h-1.79V909Zm6.48 0h1.79v-6.27c0-1.82 1.1-3.02 2.77-3.02 1.65 0 2.46.95 2.46 2.69v6.6h1.78v-6.92c0-2.43-1.35-3.95-3.7-3.95-1.61 0-2.7.73-3.27 1.72h-.04v-1.51h-1.79V909Zm15.66 0h1.72v-11.43h.06l4.73 11.43h1.56l4.73-11.43h.06V909h1.72v-14.8h-2.13l-5.13 12.47h-.06l-5.13-12.47h-2.13V909Zm21.6.2c2.94 0 4.93-2.13 4.93-5.53v-.02c0-3.4-2-5.52-4.95-5.52-2.94 0-4.93 2.12-4.93 5.52v.02c0 3.4 1.98 5.54 4.94 5.54Zm0-1.57c-1.88 0-3.12-1.45-3.12-3.96v-.02c0-2.5 1.25-3.94 3.1-3.94 1.9 0 3.12 1.44 3.12 3.94v.02c0 2.5-1.22 3.96-3.1 3.96Zm6.73 1.37h1.79v-6.58c0-1.62.9-2.59 2.28-2.59.43 0 .81.05.96.1v-1.73c-.15-.02-.42-.07-.72-.07-1.2 0-2.13.78-2.48 2.01h-.05v-1.8h-1.78V909Zm10.36.2c2.32 0 4.07-1.39 4.42-3.15l.02-.1h-1.76l-.03.09c-.3.9-1.26 1.59-2.61 1.59-1.9 0-3.1-1.29-3.15-3.48h7.68v-.66c0-3.2-1.77-5.36-4.69-5.36-2.9 0-4.8 2.27-4.8 5.57 0 3.36 1.85 5.5 4.92 5.5Zm-.13-9.49c1.56 0 2.71.97 2.89 3.04h-5.84c.2-1.98 1.4-3.04 2.95-3.04Zm11.95 9.32c.2 0 .39-.07.53-.21l4.67-4.66a.77.77 0 0 0 .25-.57.76.76 0 0 0-.25-.58l-4.67-4.65a.74.74 0 0 0-.53-.22c-.21 0-.4.07-.54.22a.71.71 0 0 0-.23.54c0 .22.07.4.24.55l4.14 4.14-4.14 4.13a.75.75 0 0 0-.24.55c0 .22.07.4.23.55.14.14.33.21.54.21Z"/>
  <path fill="#000" d="M280.75 785h5.56v-34.97h.5L311.28 785h5.47v-45.1h-5.56V775h-.5l-24.47-35.1h-5.47V785Zm42.63 0h5.9l4.53-12.9h17.94l4.53 12.9h5.9l-16.62-45.1H340L323.38 785Zm19.15-37.81h.5l7.07 20.12h-14.63l7.06-20.12Zm43.22 38.87c11.19 0 17.88-6.75 17.88-16.56v-29.6H398v29.23c0 6.93-4.44 11.75-12.25 11.75s-12.31-4.82-12.31-11.75V739.9h-5.63v29.59c0 9.81 6.75 16.56 17.94 16.56ZM425.5 785h5.63v-40.03h14.53v-5.06h-34.69v5.06h14.53V785Zm27.57 0h5.62v-45.1h-5.62V785Zm15.84 0h27.38v-5.06h-21.75V739.9h-5.63V785Zm51.41 1.06c11.19 0 17.88-6.75 17.88-16.56v-29.6h-5.63v29.23c0 6.93-4.44 11.75-12.25 11.75s-12.31-4.82-12.31-11.75V739.9h-5.63v29.59c0 9.81 6.75 16.56 17.94 16.56Zm42.81 0c10.07 0 16.66-5.25 16.66-13.68v-.04c0-6.5-3.72-10.28-13.13-12.37l-5-1.13c-6.12-1.34-8.59-3.78-8.59-7.37v-.03c0-4.72 4.34-7.38 9.97-7.4 5.88-.04 9.63 2.9 10.25 6.87l.06.4h5.63l-.03-.43c-.47-6.72-6.75-12.04-15.75-12.04-9.32 0-15.85 5.28-15.88 12.75v.03c0 6.54 3.9 10.7 12.94 12.7l5 1.09c6.19 1.37 8.78 3.93 8.78 7.68v.03c0 4.6-4.47 7.75-10.6 7.75-6.5 0-11.18-2.84-11.59-7.34l-.03-.34h-5.62l.03.34c.65 7.35 7.03 12.53 16.9 12.53Zm-268.29 70c9.16 0 15.7-6.34 15.7-15.43v-.07c0-8.72-6.1-15.06-14.57-15.06-4.1 0-7.63 1.66-9.63 4.69h-.5l1.54-15.25h20.65v-5.03h-25.1l-2.37 25.9h4.88a10.58 10.58 0 0 1 2.06-2.68c1.94-1.85 4.5-2.75 7.5-2.75 5.84 0 10.03 4.28 10.03 10.28v.06c0 6.1-4.12 10.37-10.12 10.37-5.29 0-9.2-3.43-9.72-7.75l-.03-.25h-5.41l.03.35c.66 7.22 6.66 12.62 15.06 12.62Zm38.22-47.22c-9.09 0-15.78 6.53-15.78 15.53v.07c0 8.65 6.32 15.1 14.78 15.1 6.1 0 10.35-3.29 12-6.98h.6c0 .35 0 .72-.03 1.07-.35 9.4-3.7 17.4-11.88 17.4-4.56 0-7.72-2.34-9.1-6.12l-.12-.35h-5.65l.09.4c1.53 6.66 7.16 11.1 14.72 11.1 10.94 0 17.34-9 17.34-24.37v-.07c0-16.96-8.72-22.78-16.97-22.78Zm-.03 25.78c-5.84 0-10.1-4.3-10.1-10.3v-.07c0-5.84 4.54-10.44 10.2-10.44 5.72 0 10.18 4.69 10.18 10.63v.03c0 5.87-4.43 10.15-10.28 10.15Zm40.16 21.13c9.56 0 16.38-5.38 16.38-12.94v-.06c0-5.56-3.91-10.19-9.7-11.53v-.13c4.94-1.53 8.07-5.28 8.07-10.03V821c0-6.81-6.22-11.84-14.75-11.84-8.53 0-14.75 5.03-14.75 11.84v.06c0 4.75 3.13 8.5 8.06 10.03v.13c-5.78 1.34-9.69 5.97-9.69 11.53v.06c0 7.57 6.82 12.94 16.38 12.94Zm0-26.75c-5.44 0-9.16-3.1-9.16-7.47v-.06c0-4.38 3.72-7.47 9.16-7.47 5.44 0 9.16 3.1 9.16 7.47v.06c0 4.38-3.72 7.47-9.16 7.47Zm0 21.84c-6.22 0-10.66-3.5-10.66-8.37v-.06c0-4.94 4.41-8.47 10.66-8.47s10.66 3.53 10.66 8.47v.06c0 4.87-4.44 8.37-10.66 8.37Zm39.28 5.22c9.97 0 15.97-9.1 15.97-23.6v-.05c0-14.5-6-23.57-15.97-23.57s-15.9 9.07-15.9 23.57v.06c0 14.5 5.93 23.6 15.9 23.6Zm0-4.9c-6.47 0-10.25-7.2-10.25-18.7v-.05c0-11.5 3.78-18.63 10.25-18.63 6.47 0 10.31 7.13 10.31 18.63v.06c0 11.5-3.84 18.69-10.3 18.69Zm38.38-43.22h-5.22l-14.25 58.31h5.22l14.25-58.31ZM465.66 855h5.63v-45.1h-5.6l-12 8.63v5.94l11.47-8.31h.5V855Zm18.1 0h5.62v-17.84h11.1l9.65 17.84h6.6l-10.44-18.72c5.65-1.78 9.06-6.65 9.06-12.9v-.07c0-8.1-5.69-13.4-14.37-13.4h-17.22V855Zm5.62-22.84V814.9h10.85c5.8 0 9.3 3.22 9.3 8.59v.06c0 5.5-3.27 8.6-9.05 8.6h-11.1Z"/>
  <path fill="#211E1E" d="m116.57 31.5 6.88-7.5h2.53l-5.27 5.7 5.38 10.3h-2.3l-4.48-8.81-2.74 2.95V40h-2.03V24h2.03v7.5Z"/>
  <path fill="#211E1E" fill-rule="evenodd" d="M88.46 36.18h-7.2L79.8 40h-2.1l6.33-16h1.93l6.21 16h-2.25l-1.46-3.82Zm-6.54-1.73h5.89l-2.94-7.7-2.95 7.7ZM69 24.01h5.5c.84 0 2.32.2 3.32 1a4.4 4.4 0 0 1 1.62 3.55c0 .98-.24 2.29-1.2 3.23-1.25 1.22-2.56 1.4-4.4 1.4h-2.81V40H69V24.01Zm2.03 1.7v5.78h2.81l.77-.01c.86 0 1.42-.19 1.96-.68.55-.51.79-1.34.79-2.2 0-.87-.24-1.61-.8-2.22-.55-.61-1.6-.67-1.77-.67h-3.76Z" clip-rule="evenodd"/>
  <path fill="#211E1E" d="M147.65 24h-2.03v16h2.03v-7.36h7.18V40h2.03V24h-2.03v6.87h-7.18v-6.86Zm12.79 0h2.03v16h-2.03V24Zm7.55 0h-2.03v16h8.95v-1.77H168V24.01Zm-66.41 0v1.78h-4.87V40h-2.03V25.78H89.8V24h11.78Zm9.77 1.78 1.02-1.77h-9.1V40h8.96l-1-1.77h-5.92v-5.68h5.65v-1.77h-5.65v-5h6.04Z"/>
  <path fill="#211E1E" fill-rule="evenodd" d="M138.37 24.01h-5.5V40h2.02v-6.8h2.82c1.83 0 3.14-.19 4.4-1.41a4.49 4.49 0 0 0 1.19-3.23c0-.97-.25-2.42-1.62-3.54-1-.82-2.48-1-3.3-1Zm-3.48 7.48v-5.78h3.76c.18 0 1.22.05 1.77.67.56.6.8 1.35.8 2.21 0 .87-.24 1.7-.78 2.2-.54.5-1.1.69-1.97.69l-.76.01h-2.82Z" clip-rule="evenodd"/>
  <path fill="#211E1E" d="M176.62 24h2.02v16h-2.02V24Z"/>
  <path fill="#211E1E" fill-rule="evenodd" d="M187.6 24.01h-5.52V40h2.03v-6.8h2.82c1.83 0 3.14-.19 4.4-1.41a4.49 4.49 0 0 0 1.19-3.23 4.4 4.4 0 0 0-1.62-3.54c-1-.82-2.47-1-3.3-1Zm-3.49 7.48v-5.78h3.76c.18 0 1.22.05 1.77.67.56.6.8 1.35.8 2.21 0 .87-.24 1.7-.8 2.2-.52.5-1.1.69-1.95.69l-.76.01h-2.82Zm10.64-7.48h5.51c.83 0 2.3.2 3.3 1a4.41 4.41 0 0 1 1.63 3.55c0 .98-.24 2.29-1.2 3.23-1.25 1.22-2.56 1.4-4.4 1.4h-2.81V40h-2.03V24.01Zm2.03 1.7v5.78h2.82l.76-.01c.86 0 1.42-.19 1.96-.68.55-.51.79-1.34.79-2.2 0-.87-.24-1.61-.8-2.22-.56-.61-1.59-.67-1.78-.67h-3.75Z" clip-rule="evenodd"/>
  <path fill="#211E1E" d="m215.57 25.78 1-1.77h-9.08V40h8.95l-1-1.77h-5.92v-5.68h5.65v-1.77h-5.65v-5h6.05Z"/>
  <path fill="#C0AF9F" d="M39.54 32.46h-6.49c-1.04 0-2.1.64-2.1 1.5 0 .3.25.9 1.12.9 1.11 0 2.08-1.16 3.08-1.16.88 0 1 .8 1 .8-.52 0-.72.02-1.37.34a8.16 8.16 0 0 0-1.98 1.63c-.54.59-1.42 1.35-2.48 1.35s-2.1-.68-2.1-1.91c0-1.63 1.3-2.15 1.3-2.74 0-.18-.08-.4-.42-.4-.53 0-1.56.76-2.55.76C25.18 33.53 24 32 24 32s1.18-1.53 2.55-1.53c1 0 2.02.76 2.55.76.34 0 .42-.22.42-.4 0-.59-1.3-1.11-1.3-2.74 0-1.23 1.04-1.9 2.1-1.9 1.05 0 1.94.75 2.48 1.34a8.16 8.16 0 0 0 1.98 1.63c.65.32.84.35 1.37.33 0 0-.12.81-1 .81-1 0-1.97-1.15-3.08-1.15-.87 0-1.12.58-1.12.9 0 .86 1.06 1.5 2.1 1.5h6.5v-6.5c0-1.04-.65-2.1-1.5-2.1-.32 0-.9.25-.9 1.12 0 1.11 1.15 2.08 1.15 3.08 0 .88-.8 1-.8 1 0-.53-.02-.71-.34-1.37a8.37 8.37 0 0 0-1.63-1.98c-.59-.54-1.35-1.43-1.35-2.48 0-1.06.68-2.1 1.91-2.1 1.63 0 2.15 1.3 2.74 1.3.18 0 .4-.08.4-.42 0-.53-.76-1.56-.76-2.55C38.47 17.18 40 16 40 16s1.53 1.18 1.53 2.55c0 1-.76 2.02-.76 2.55 0 .34.22.43.4.43.59 0 1.11-1.3 2.74-1.3 1.23 0 1.9 1.03 1.9 2.1 0 1.04-.75 1.93-1.34 2.47a8.53 8.53 0 0 0-1.63 1.98 2.3 2.3 0 0 0-.33 1.37s-.81-.12-.81-1c0-1 1.15-1.97 1.15-3.08 0-.87-.58-1.12-.9-1.12-.85 0-1.5 1.06-1.5 2.1v6.5h6.5c1.04 0 2.1-.64 2.1-1.5 0-.32-.25-.9-1.12-.9-1.11 0-2.08 1.15-3.08 1.15-.88 0-1-.8-1-.8.52 0 .72-.02 1.37-.34a8.24 8.24 0 0 0 1.98-1.63c.54-.59 1.42-1.35 2.48-1.35s2.1.68 2.1 1.91c0 1.63-1.3 2.15-1.3 2.74 0 .18.07.4.42.4.53 0 1.56-.76 2.55-.76C54.82 30.47 56 32 56 32s-1.18 1.53-2.55 1.53c-1 0-2.02-.76-2.55-.76-.35 0-.43.22-.43.4 0 .6 1.3 1.11 1.3 2.74 0 1.23-1.03 1.9-2.1 1.9-1.05 0-1.93-.75-2.47-1.34a8.24 8.24 0 0 0-1.98-1.63 2.26 2.26 0 0 0-1.37-.33s.12-.81 1-.81c1 0 1.97 1.15 3.08 1.15.87 0 1.12-.58 1.12-.9 0-.85-1.06-1.5-2.1-1.5h-6.5v6.5c0 1.04.65 2.1 1.5 2.1.32 0 .9-.25.9-1.12 0-1.11-1.15-2.08-1.15-3.08 0-.88.8-1 .8-1 0 .53.02.72.34 1.37.3.61 1.05 1.44 1.63 1.98.59.54 1.35 1.43 1.35 2.48 0 1.06-.68 2.1-1.91 2.1-1.63 0-2.15-1.3-2.74-1.3-.18 0-.4.08-.4.42 0 .53.76 1.56.76 2.55C41.53 46.82 40 48 40 48s-1.53-1.18-1.53-2.55c0-1 .76-2.02.76-2.55 0-.34-.22-.42-.4-.42-.59 0-1.11 1.3-2.74 1.3-1.23 0-1.9-1.04-1.9-2.1 0-1.05.75-1.94 1.34-2.48a8.26 8.26 0 0 0 1.63-1.98c.32-.65.35-.84.33-1.37 0 0 .81.12.81 1 0 1-1.15 1.97-1.15 3.08 0 .87.58 1.12.9 1.12.85 0 1.5-1.06 1.5-2.1v-6.5Z"/>
  <path fill="#211E1E" d="M1484.57 37.56c2.1 0 3.66-1.17 3.99-2.97v-.02h-1.25l-.01.02c-.31 1.13-1.35 1.84-2.73 1.84-1.9 0-3.09-1.56-3.09-4.02v-.02c0-2.47 1.19-4.02 3.09-4.02 1.36 0 2.41.8 2.74 2.06v.01h1.25c-.3-1.9-1.92-3.2-3.99-3.2-2.68 0-4.35 1.97-4.35 5.15v.02c0 3.17 1.67 5.15 4.35 5.15Zm10.2 0c2.81 0 4.52-2.02 4.52-5.16v-.01c0-3.16-1.72-5.16-4.52-5.16-2.79 0-4.53 2-4.53 5.16s1.7 5.17 4.53 5.17Zm0-1.13c-2.06 0-3.27-1.59-3.27-4.03v-.01c0-2.47 1.26-4.02 3.27-4.02s3.26 1.55 3.26 4.02c0 2.45-1.24 4.04-3.26 4.04Zm6.65.9h5.99v-1.1h-4.76v-8.77h-1.23v9.87Zm7.96 0h5.99v-1.1h-4.76v-8.77h-1.23v9.87Zm7.96 0h6.11v-1.1h-4.88v-3.4h4.63v-1.1h-4.63v-3.16h4.88v-1.1h-6.11v9.86Zm12.31.23c2.1 0 3.66-1.17 3.98-2.97v-.02h-1.24l-.01.02c-.31 1.13-1.36 1.84-2.73 1.84-1.9 0-3.09-1.56-3.09-4.02v-.02c0-2.47 1.19-4.02 3.08-4.02 1.36 0 2.42.8 2.74 2.06l.01.01h1.24c-.29-1.9-1.91-3.2-3.99-3.2-2.68 0-4.35 1.97-4.35 5.15v.02c0 3.17 1.68 5.15 4.36 5.15Zm8.27-.23h1.23v-8.76h3.18v-1.1h-7.59v1.1h3.18v8.76Zm6.31 0h1.23v-9.87h-1.23v9.87Zm7.89.23c2.82 0 4.52-2.02 4.52-5.16v-.01c0-3.16-1.72-5.16-4.52-5.16-2.79 0-4.53 2-4.53 5.16s1.7 5.17 4.53 5.17Zm0-1.13c-2.05 0-3.27-1.59-3.27-4.03v-.01c0-2.47 1.26-4.02 3.27-4.02 2.02 0 3.27 1.55 3.27 4.02 0 2.45-1.25 4.04-3.27 4.04Zm6.66.9h1.21v-7.65h.11l5.36 7.65h1.19v-9.87h-1.21v7.68h-.11l-5.36-7.68h-1.19v9.87Zm46.79.23c2.1 0 3.66-1.17 3.99-2.97v-.02h-1.25l-.01.02c-.31 1.13-1.35 1.84-2.73 1.84-1.9 0-3.09-1.56-3.09-4.02v-.02c0-2.47 1.19-4.02 3.09-4.02 1.36 0 2.41.8 2.74 2.06v.01h1.25c-.3-1.9-1.92-3.2-3.99-3.2-2.68 0-4.35 1.97-4.35 5.15v.02c0 3.17 1.67 5.15 4.35 5.15Zm10.2 0c2.81 0 4.52-2.02 4.52-5.16v-.01c0-3.16-1.72-5.16-4.52-5.16-2.79 0-4.53 2-4.53 5.16s1.7 5.17 4.53 5.17Zm0-1.13c-2.06 0-3.27-1.59-3.27-4.03v-.01c0-2.47 1.26-4.02 3.27-4.02s3.26 1.55 3.26 4.02c0 2.45-1.24 4.04-3.26 4.04Zm6.65.9h1.15v-7.54h.08l3.11 7.54h1.04l3.12-7.54h.08v7.54h1.14v-9.87h-1.42l-3.38 8.23h-.11l-3.38-8.23h-1.43v9.87Zm12.24 0h1.23V33.8h2.49c1.85 0 3.16-1.3 3.16-3.18v-.01a3.02 3.02 0 0 0-3.16-3.16h-3.72v9.87Zm3.4-8.77c1.41 0 2.23.77 2.23 2.07v.01c0 1.3-.82 2.07-2.23 2.07h-2.17v-4.15h2.17Zm4.1 8.77h1.29l.99-2.83h3.93l.99 2.83h1.29l-3.64-9.87h-1.21l-3.64 9.87Zm4.19-8.27h.11l1.54 4.4h-3.2l1.55-4.4Zm6.03 8.27h1.22v-7.65h.1l5.36 7.65h1.19v-9.87h-1.21v7.68h-.11l-5.36-7.68h-1.19v9.87Zm13.1 0h1.23v-4.25l3.5-5.62h-1.4l-2.66 4.39h-.11l-2.66-4.39h-1.4l3.5 5.62v4.25Zm42.35.23c2.21 0 3.65-1.15 3.65-3 0-1.42-.81-2.25-2.87-2.7l-1.1-.25c-1.34-.3-1.88-.83-1.88-1.62 0-1.04.95-1.62 2.18-1.62 1.29-.01 2.11.63 2.25 1.5l.01.09h1.23l-.01-.1c-.1-1.47-1.47-2.63-3.44-2.63-2.04 0-3.47 1.16-3.47 2.79 0 1.44.85 2.35 2.83 2.78l1.09.24c1.35.3 1.92.86 1.92 1.68v.01c0 1-.98 1.7-2.32 1.7-1.42 0-2.44-.63-2.53-1.61l-.01-.08h-1.23l.01.08c.14 1.6 1.53 2.74 3.69 2.74Zm5.7-.23h6.11v-1.1h-4.88v-3.4h4.63v-1.1h-4.63v-3.16h4.88v-1.1h-6.11v9.86Zm8.34 0h1.23v-3.9h2.43l2.11 3.9h1.44l-2.28-4.1a2.8 2.8 0 0 0 1.98-2.82v-.01c0-1.77-1.24-2.94-3.14-2.94h-3.77v9.87Zm1.23-5v-3.77h2.37c1.27 0 2.04.7 2.04 1.88v.01c0 1.2-.72 1.88-1.98 1.88h-2.43Zm10.56 5h1.22l3.63-9.87h-1.29l-2.9 8.28h-.11l-2.89-8.28h-1.3l3.64 9.87Zm6.58 0h1.23v-9.87h-1.23v9.87Zm7.72.23c2.1 0 3.66-1.17 3.99-2.97v-.02h-1.25l-.01.02c-.31 1.13-1.35 1.84-2.73 1.84-1.9 0-3.09-1.56-3.09-4.02v-.02c0-2.47 1.19-4.02 3.09-4.02 1.36 0 2.41.8 2.74 2.06v.01h1.25c-.3-1.9-1.92-3.2-3.99-3.2-2.68 0-4.35 1.97-4.35 5.15v.02c0 3.17 1.67 5.15 4.35 5.15Zm6.05-.23h6.11v-1.1h-4.88v-3.4h4.63v-1.1h-4.63v-3.16h4.88v-1.1h-6.11v9.86Zm40.59 0h1.23v-3.9h2.43l2.11 3.9h1.44l-2.28-4.1a2.8 2.8 0 0 0 1.98-2.82v-.01c0-1.77-1.24-2.94-3.14-2.94h-3.77v9.87Zm1.23-5v-3.77h2.37c1.28 0 2.04.7 2.04 1.88v.01c0 1.2-.72 1.88-1.98 1.88h-2.43Zm7.92 5h6.11v-1.1h-4.88v-3.4h4.63v-1.1h-4.63v-3.16h4.88v-1.1h-6.11v9.86Zm10.9 0h1.23v-8.76h3.18v-1.1h-7.59v1.1h3.18v8.76Zm4.36 0h1.29l1-2.83h3.92l.99 2.83h1.29l-3.63-9.87h-1.22l-3.64 9.87Zm4.19-8.27h.11l1.55 4.4h-3.2l1.54-4.4Zm6.03 8.27h1.23v-9.87h-1.23v9.87Zm3.75 0h5.99v-1.1h-4.76v-8.77h-1.23v9.87Z" opacity=".9"/>
  <g opacity=".9">
    <circle cx="1878.84" cy="30.5" r="5.82" stroke="#211E1E" stroke-width="1.36"/>
    <path stroke="#211E1E" stroke-linecap="round" stroke-width="1.36" d="m1883.31 35 4.69 4.7"/>
  </g>
</svg>
