<svg xmlns="http://www.w3.org/2000/svg" width="1200" height="624" fill="none" viewBox="0 0 1200 624">
  <g clip-path="url(#a)">
    <path fill="#fff" d="M0 0h1200v624H0z"/>
    <path fill="#96969E" d="M195.6 93V81.8h4.19c1.28 0 2.3.32 3.05.96a3.25 3.25 0 0 1 1.14 2.62 3.2 3.2 0 0 1-1.26 2.7 5 5 0 0 1-3.14.97h-2.72V93h-1.27Zm1.26-5.1h2.77a3.4 3.4 0 0 0 2.22-.68 2.2 2.2 0 0 0 .85-1.82c0-.78-.27-1.38-.82-1.8a3.42 3.42 0 0 0-2.19-.63h-2.83v4.93Zm8.9 5.1v-8.27h1.23v2.16c.32-.72.77-1.29 1.36-1.71a3.1 3.1 0 0 1 2.01-.6v1.33h-.1c-.94 0-1.73.33-2.35 1-.62.66-.92 1.59-.92 2.8V93h-1.24Zm12.66-1.07a4.17 4.17 0 0 1-3.08 1.26 4.25 4.25 0 0 1-4.29-4.32c0-1.18.4-2.2 1.23-3.04a4.14 4.14 0 0 1 3.09-1.28 4.1 4.1 0 0 1 3.07 1.27 4.22 4.22 0 0 1 1.23 3.05 4.2 4.2 0 0 1-1.25 3.06Zm-3.05.16c.88 0 1.6-.31 2.17-.93.58-.62.87-1.38.87-2.29 0-.9-.3-1.66-.9-2.29a2.86 2.86 0 0 0-2.17-.94 2.8 2.8 0 0 0-2.18.94 3.27 3.27 0 0 0-.85 2.3c0 .89.3 1.65.88 2.28.59.62 1.31.93 2.18.93Zm9.69 1.09a3.82 3.82 0 0 1-2.77-1.17 4.26 4.26 0 0 1-1.19-3.15c0-1.3.4-2.33 1.19-3.12a3.8 3.8 0 0 1 5.93.57v-4.99h1.24V93h-1.24v-1.66c-.83 1.22-1.88 1.84-3.16 1.84Zm.22-1.1c.8 0 1.5-.31 2.1-.92.6-.6.9-1.38.9-2.32 0-.92-.3-1.67-.9-2.27-.6-.61-1.3-.91-2.1-.91-.83 0-1.53.29-2.08.88a3.22 3.22 0 0 0-.83 2.33c0 .95.28 1.72.84 2.32.57.59 1.26.88 2.07.88Zm9.65 1.1c-.98 0-1.76-.3-2.32-.9a3.4 3.4 0 0 1-.85-2.42v-5.13h1.23v4.83c0 .78.2 1.4.6 1.84.4.44.97.66 1.69.66s1.3-.24 1.78-.72c.47-.48.7-1.1.7-1.88v-4.73h1.22V93h-1.22v-1.44a3.17 3.17 0 0 1-2.83 1.62Zm10.22.01c-1.19 0-2.2-.42-3.02-1.26a4.29 4.29 0 0 1-1.22-3.06c0-1.18.41-2.2 1.22-3.04a4.04 4.04 0 0 1 3.03-1.28c1.28 0 2.38.5 3.3 1.47l-.78.84a3.45 3.45 0 0 0-2.54-1.22c-.83 0-1.54.31-2.11.94a3.27 3.27 0 0 0-.85 2.3c0 .89.29 1.65.86 2.28.59.62 1.31.93 2.18.93.88 0 1.72-.42 2.5-1.25l.81.75a4.41 4.41 0 0 1-3.38 1.6Zm7.87-.05a2.5 2.5 0 0 1-1.72-.56c-.41-.38-.62-.97-.62-1.77v-5h-1.15v-1.08h1.15v-2.5h1.23v2.5h2.63v1.09h-2.63v4.83c0 .92.47 1.37 1.4 1.37.4 0 .8-.1 1.2-.28v1.05c-.45.24-.95.35-1.5.35Zm6.11.02a5.57 5.57 0 0 1-3.42-1.22l.62-.88c.94.7 1.9 1.06 2.87 1.06.5 0 .9-.12 1.23-.37.32-.24.48-.57.48-.97a.95.95 0 0 0-.53-.87 6.7 6.7 0 0 0-1.53-.59 7.07 7.07 0 0 1-1.82-.72 1.8 1.8 0 0 1-.7-.67c-.15-.28-.22-.6-.22-.98 0-.7.26-1.27.78-1.71a3.1 3.1 0 0 1 2.04-.66c1.06 0 2.05.3 2.97.92l-.56.92a4.48 4.48 0 0 0-2.45-.8c-.48 0-.87.12-1.16.36-.3.22-.44.51-.44.88 0 .15.04.28.13.41.09.13.18.24.29.32a4.77 4.77 0 0 0 1.06.48 71.05 71.05 0 0 1 1.63.55c.25.1.53.25.81.43a1.9 1.9 0 0 1 .86 1.63c0 .77-.27 1.38-.83 1.82a3.3 3.3 0 0 1-2.1.66Zm142.91.04a5.34 5.34 0 0 1-4.01-1.67 5.76 5.76 0 0 1-1.6-4.13 5.69 5.69 0 0 1 5.66-5.8c.94 0 1.74.16 2.4.47.66.3 1.3.75 1.94 1.35l-.83.9a5.02 5.02 0 0 0-3.53-1.54 4.1 4.1 0 0 0-3.1 1.32 4.66 4.66 0 0 0-1.23 3.3c0 1.3.41 2.4 1.25 3.3a4.07 4.07 0 0 0 3.08 1.32c.73 0 1.37-.13 1.93-.4a6.82 6.82 0 0 0 1.7-1.21l.82.88a6.92 6.92 0 0 1-1.98 1.42c-.7.32-1.53.48-2.5.48Zm12.88-1.27a4.17 4.17 0 0 1-3.1 1.26 4.25 4.25 0 0 1-4.29-4.32c.01-1.18.42-2.2 1.24-3.04a4.14 4.14 0 0 1 3.09-1.28c1.23 0 2.25.42 3.07 1.27a4.22 4.22 0 0 1 1.23 3.05c0 1.19-.41 2.2-1.24 3.06Zm-3.06.16c.88 0 1.61-.31 2.18-.93.57-.62.86-1.38.86-2.29 0-.9-.3-1.66-.9-2.29a2.86 2.86 0 0 0-2.17-.94 2.8 2.8 0 0 0-2.18.94 3.26 3.26 0 0 0-.85 2.3c0 .89.3 1.65.88 2.28a2.9 2.9 0 0 0 2.18.93Zm8.95 1.07a5.58 5.58 0 0 1-3.42-1.22l.62-.88c.94.7 1.9 1.06 2.87 1.06.5 0 .9-.12 1.23-.37.32-.24.48-.57.48-.97a.95.95 0 0 0-.53-.87c-.34-.2-.85-.4-1.54-.59a7.22 7.22 0 0 1-1.82-.72c-.31-.18-.54-.4-.69-.67-.15-.28-.22-.6-.22-.98 0-.7.26-1.27.78-1.71a3.1 3.1 0 0 1 2.03-.66c1.07 0 2.06.3 2.98.92l-.56.92a4.47 4.47 0 0 0-2.45-.8c-.48 0-.87.12-1.17.36-.28.22-.43.51-.43.88 0 .15.04.28.13.41.08.13.18.24.29.32a5.55 5.55 0 0 0 1.05.48 55.48 55.48 0 0 1 1.63.55c.26.1.53.25.82.43a1.9 1.9 0 0 1 .86 1.63c0 .77-.27 1.38-.83 1.82a3.3 3.3 0 0 1-2.1.66Zm7.53-.02a2.5 2.5 0 0 1-1.72-.56c-.41-.38-.62-.97-.62-1.77v-5h-1.15v-1.08H426v-2.5h1.23v2.5h2.63v1.09h-2.63v4.83c0 .92.47 1.37 1.4 1.37.4 0 .8-.1 1.2-.28v1.05c-.45.24-.95.35-1.5.35ZM557.01 51.2a5.34 5.34 0 0 1-4.01-1.67 5.76 5.76 0 0 1-1.6-4.13 5.69 5.69 0 0 1 5.66-5.8c.94 0 1.74.16 2.4.47.66.3 1.3.75 1.93 1.35l-.83.9a5.02 5.02 0 0 0-3.52-1.54 4.1 4.1 0 0 0-3.1 1.32 4.66 4.66 0 0 0-1.23 3.3c0 1.3.41 2.4 1.25 3.3a4.07 4.07 0 0 0 3.08 1.32 4.3 4.3 0 0 0 1.92-.4 6.82 6.82 0 0 0 1.7-1.21l.83.88a6.94 6.94 0 0 1-1.98 1.42c-.7.32-1.53.48-2.5.48Zm8.63-.02c-.84 0-1.57-.23-2.18-.7-.6-.45-.9-1.1-.9-1.91 0-.87.31-1.53.95-2 .64-.47 1.5-.7 2.58-.7.85 0 1.7.11 2.52.35v-.26c0-.73-.2-1.28-.63-1.66a2.6 2.6 0 0 0-1.81-.58c-.81 0-1.65.2-2.51.6l-.37-1.02a7.19 7.19 0 0 1 3-.7c1.18 0 2.07.3 2.68.91.57.58.86 1.39.86 2.43V51h-1.22v-1.23a3.58 3.58 0 0 1-2.97 1.4Zm.24-1c.77 0 1.42-.2 1.95-.62s.8-.95.8-1.6v-.77a8.65 8.65 0 0 0-2.41-.35c-.76 0-1.35.15-1.78.46-.43.3-.64.71-.64 1.24 0 .5.2.9.6 1.2.4.3.9.44 1.48.44Zm6.35.82V39.32h1.24V51h-1.24Zm3.89 0V39.32h1.23V51h-1.23Zm8.24 0v-8.27h1.24v1.39c.69-1.05 1.58-1.57 2.67-1.57 1.24 0 2.12.55 2.65 1.65a3.31 3.31 0 0 1 2.92-1.65c.94 0 1.7.3 2.24.9.55.6.83 1.4.83 2.43V51h-1.23v-4.83c0-.8-.2-1.42-.58-1.84-.37-.44-.9-.66-1.57-.66-.65 0-1.2.23-1.63.69a2.6 2.6 0 0 0-.66 1.87V51h-1.21v-4.86c0-.77-.2-1.37-.58-1.81-.37-.44-.89-.66-1.55-.66s-1.21.25-1.65.74a2.73 2.73 0 0 0-.65 1.87V51h-1.24ZM600 47.37a2.84 2.84 0 0 0 2.91 2.75c1 0 1.86-.39 2.6-1.17l.78.69a4.4 4.4 0 0 1-3.41 1.55 4 4 0 0 1-2.95-1.2 4.29 4.29 0 0 1-1.18-3.12c0-1.2.38-2.22 1.14-3.05a3.65 3.65 0 0 1 2.83-1.27c1.18 0 2.12.42 2.81 1.25a4.73 4.73 0 0 1 1.03 3.57H600Zm0-1h5.33a3.4 3.4 0 0 0-.8-1.98 2.27 2.27 0 0 0-1.84-.8c-.7 0-1.31.26-1.81.79a3.3 3.3 0 0 0-.88 2Zm17.29 4.8a3.7 3.7 0 0 1-3.17-1.75V51h-1.23V39.32h1.23v5.07c.83-1.22 1.89-1.84 3.17-1.84 1.05 0 1.98.4 2.77 1.19a4.2 4.2 0 0 1 1.18 3.13c0 1.3-.4 2.33-1.18 3.12a3.8 3.8 0 0 1-2.77 1.19Zm-.23-1.1c.84 0 1.53-.29 2.08-.86.56-.59.84-1.37.84-2.35 0-.95-.29-1.72-.85-2.3a2.85 2.85 0 0 0-4.16.02c-.6.6-.9 1.36-.9 2.3 0 .92.3 1.69.9 2.3.6.6 1.3.9 2.1.9Zm8.6 1.1a3.5 3.5 0 0 1-2.18-.68c-.6-.46-.91-1.1-.91-1.92 0-.87.32-1.53.96-2 .64-.47 1.5-.7 2.58-.7.85 0 1.7.11 2.52.35v-.26c0-.73-.21-1.28-.64-1.66a2.61 2.61 0 0 0-1.8-.58c-.82 0-1.65.2-2.52.6l-.36-1.02a7.19 7.19 0 0 1 3-.7c1.18 0 2.07.3 2.68.91.57.58.86 1.39.86 2.43V51h-1.22v-1.23a3.58 3.58 0 0 1-2.97 1.4Zm.24-.99c.77 0 1.42-.2 1.95-.62s.8-.95.8-1.6v-.77a8.66 8.66 0 0 0-2.42-.35c-.75 0-1.35.15-1.77.46-.43.3-.64.71-.64 1.24 0 .5.2.9.59 1.2.4.3.9.44 1.49.44Zm9.97 1.01c-1.2 0-2.2-.42-3.03-1.26a4.28 4.28 0 0 1-1.21-3.06c0-1.18.4-2.2 1.21-3.04a4.03 4.03 0 0 1 3.03-1.28c1.28 0 2.38.5 3.3 1.47l-.77.84a3.45 3.45 0 0 0-2.55-1.22c-.83 0-1.53.31-2.11.94a3.27 3.27 0 0 0-.85 2.3c0 .89.29 1.65.87 2.28.58.62 1.3.93 2.17.93.89 0 1.72-.42 2.5-1.25l.81.75a4.41 4.41 0 0 1-3.37 1.6Zm5.09-.19V39.32h1.23v8.06l4.47-4.65h1.53l-3.47 3.55L648.3 51h-1.47l-2.96-3.86-1.68 1.7V51h-1.23ZM469.1 53.05l7.43-14.82h1.13l-7.42 14.82h-1.14Zm253 0 7.43-14.82h1.13l-7.42 14.82h-1.14ZM575.64 93V82.97h-3.76V81.8h8.8v1.17h-3.76V93h-1.28Zm5.47 0v-8.27h1.23v2.16c.32-.72.77-1.29 1.36-1.71a3.1 3.1 0 0 1 2.01-.6v1.33h-.1c-.94 0-1.73.33-2.34 1a3.93 3.93 0 0 0-.93 2.8V93h-1.23Zm8.22.18a3.5 3.5 0 0 1-2.18-.7c-.6-.45-.91-1.1-.91-1.91 0-.87.32-1.53.96-2 .64-.47 1.5-.7 2.58-.7.85 0 1.7.11 2.52.35v-.26c0-.73-.21-1.28-.64-1.66a2.61 2.61 0 0 0-1.8-.58c-.82 0-1.65.2-2.52.6l-.36-1.02a7.19 7.19 0 0 1 3-.7c1.18 0 2.07.3 2.68.91.57.58.86 1.39.86 2.43V93h-1.22v-1.23a3.58 3.58 0 0 1-2.97 1.4Zm.24-1c.77 0 1.42-.2 1.95-.62s.8-.95.8-1.6v-.77a8.66 8.66 0 0 0-2.42-.35c-.75 0-1.35.15-1.77.46-.43.3-.64.71-.64 1.24 0 .5.2.9.59 1.2.4.3.9.44 1.49.44Zm6.27-9.26v-1.36h1.4v1.36h-1.4Zm.08 10.08v-8.27h1.23V93h-1.23Zm3.77 0v-8.27h1.23v1.44a3.12 3.12 0 0 1 2.84-1.62c.98 0 1.75.3 2.32.91.56.6.84 1.4.84 2.4V93h-1.23v-4.83c0-.78-.2-1.39-.6-1.83-.4-.44-.96-.67-1.69-.67-.71 0-1.3.24-1.77.72s-.7 1.1-.7 1.87V93h-1.24Zm9.57-10.08v-1.36h1.41v1.36h-1.4Zm.08 10.08v-8.27h1.24V93h-1.24Zm3.77 0v-8.27h1.24v1.44a3.12 3.12 0 0 1 2.83-1.62c.98 0 1.75.3 2.32.91.56.6.85 1.4.85 2.4V93h-1.24v-4.83c0-.78-.2-1.39-.6-1.83-.4-.44-.96-.67-1.68-.67s-1.31.24-1.78.72-.7 1.1-.7 1.87V93h-1.24Zm13.2 2.6a6.5 6.5 0 0 1-3.75-1.16l.56-.96a5.3 5.3 0 0 0 3.18 1.06c.93 0 1.66-.26 2.2-.77.54-.5.81-1.23.81-2.18v-.97a3.93 3.93 0 0 1-5.98.67 3.72 3.72 0 0 1-1.16-2.83 3.87 3.87 0 0 1 3.89-3.9c1.32 0 2.4.55 3.23 1.66v-1.5h1.24v6.84c0 1.25-.36 2.22-1.06 2.93a4.3 4.3 0 0 1-3.15 1.1Zm0-4.33c.8 0 1.51-.26 2.12-.8.6-.53.91-1.2.91-2.03 0-.82-.3-1.5-.91-2.02-.6-.52-1.3-.78-2.13-.78-.8 0-1.5.26-2.05.78a2.66 2.66 0 0 0-.81 2.04c0 .8.28 1.48.83 2.01.57.54 1.24.8 2.03.8Z"/>
    <path fill="#1FB1F7" d="M495.5 407v-11.29h-4.22v-1.31h9.9v1.31h-4.23V407h-1.44Zm13.2-1.2a4.69 4.69 0 0 1-3.48 1.42 4.78 4.78 0 0 1-4.82-4.86 4.7 4.7 0 0 1 1.38-3.42 4.66 4.66 0 0 1 3.47-1.44 4.78 4.78 0 0 1 4.85 4.86c0 1.33-.47 2.47-1.4 3.43Zm-3.45.17c1 0 1.81-.34 2.45-1.04.65-.7.97-1.55.97-2.57 0-1.01-.33-1.87-1-2.58a3.21 3.21 0 0 0-2.45-1.06c-1 0-1.82.35-2.45 1.06-.64.7-.95 1.56-.95 2.58 0 1 .32 1.86.99 2.57a3.2 3.2 0 0 0 2.44 1.04Zm10.11 1.2c-.8 0-1.45-.22-1.93-.64-.46-.43-.7-1.1-.7-2v-5.61h-1.3v-1.23h1.3v-2.8h1.39v2.8h2.95v1.23h-2.95v5.43c0 1.04.52 1.55 1.56 1.55.46 0 .91-.1 1.35-.32v1.19c-.5.26-1.06.4-1.67.4Zm6.57.03c-.94 0-1.76-.26-2.44-.78a2.55 2.55 0 0 1-1.03-2.16c0-.97.36-1.72 1.08-2.25a4.8 4.8 0 0 1 2.9-.79c.96 0 1.9.13 2.84.4v-.29c0-.82-.24-1.44-.72-1.87a2.94 2.94 0 0 0-2.03-.65c-.91 0-1.86.22-2.83.67l-.41-1.14a8.09 8.09 0 0 1 3.38-.79c1.32 0 2.33.34 3 1.03.66.64.98 1.56.98 2.73V407h-1.37v-1.39a4.03 4.03 0 0 1-3.35 1.59Zm.28-1.12c.86 0 1.6-.23 2.2-.7.6-.47.9-1.07.9-1.8v-.86a9.74 9.74 0 0 0-2.73-.4c-.85 0-1.51.17-2 .52-.48.34-.72.8-.72 1.39 0 .56.23 1.01.67 1.35.46.33 1.01.5 1.68.5Zm7.14.92v-13.14h1.39V407h-1.39Zm9.8 0v-8.08h-1.27v-1.2h1.27v-.82c0-1.05.27-1.85.81-2.4a2.7 2.7 0 0 1 2-.71c.59 0 1.1.08 1.53.23v1.2a5.2 5.2 0 0 0-1.35-.23c-1.08 0-1.62.66-1.62 1.98v.76h2.95v1.19h-2.93V407h-1.39Zm5.73 0v-9.3h1.39v2.42a4.7 4.7 0 0 1 1.53-1.92 3.5 3.5 0 0 1 2.27-.67v1.5h-.11c-1.07 0-1.95.37-2.65 1.11-.7.75-1.04 1.8-1.04 3.15V407h-1.39Zm14.25-1.2a4.69 4.69 0 0 1-3.47 1.42 4.78 4.78 0 0 1-4.82-4.86 4.7 4.7 0 0 1 1.38-3.42 4.66 4.66 0 0 1 3.48-1.44 4.6 4.6 0 0 1 3.45 1.42c.93.95 1.39 2.1 1.39 3.44 0 1.33-.47 2.47-1.4 3.43Zm-3.43.17c1 0 1.8-.34 2.44-1.04.65-.7.98-1.55.98-2.57 0-1.01-.34-1.87-1.01-2.58a3.21 3.21 0 0 0-2.45-1.06c-1 0-1.81.35-2.45 1.06-.63.7-.95 1.56-.95 2.58 0 1 .33 1.86.99 2.57.66.7 1.47 1.04 2.45 1.04Zm6.99 1.03v-9.3h1.38v1.56c.78-1.18 1.79-1.76 3.01-1.76 1.4 0 2.39.61 2.99 1.85a3.73 3.73 0 0 1 3.27-1.85c1.07 0 1.91.33 2.52 1 .63.68.94 1.59.94 2.74V407h-1.38v-5.44a3 3 0 0 0-.65-2.07 2.2 2.2 0 0 0-1.77-.73 2.4 2.4 0 0 0-1.83.77 2.9 2.9 0 0 0-.74 2.1V407h-1.37v-5.47c0-.87-.21-1.54-.65-2.04-.42-.49-1-.73-1.74-.73-.75 0-1.37.27-1.86.82a3.08 3.08 0 0 0-.73 2.11V407h-1.4Zm25.5 1.76v-1.8a7.53 7.53 0 0 1-4.24-1.85l.8-1.08c1.13 1 2.3 1.58 3.5 1.71v-4.5a6.92 6.92 0 0 1-2.94-1.3c-.6-.54-.9-1.28-.9-2.23 0-.92.35-1.69 1.05-2.3a4.4 4.4 0 0 1 2.73-1.01v-1.04h1.16v1.08c1.2.1 2.34.58 3.43 1.44l-.77 1.08a5.56 5.56 0 0 0-2.72-1.3v4.43c1.37.31 2.36.75 2.97 1.31.61.55.92 1.3.92 2.22 0 .96-.35 1.74-1.06 2.35-.71.62-1.63.96-2.77 1.03v1.76h-1.16Zm.06-8.92v-4.23c-.75.02-1.34.22-1.78.6-.45.4-.67.87-.67 1.45 0 .54.17.98.52 1.31.35.34 1 .63 1.93.87Zm1.04 5.95a2.96 2.96 0 0 0 1.82-.63c.46-.4.68-.89.68-1.49 0-.55-.18-1-.54-1.33a4.3 4.3 0 0 0-1.96-.85v4.3Zm7.95 1.21v-11.21l-2.37.73-.35-1.15 3.08-1.06h1.05V407h-1.4Zm8.18.22a6.04 6.04 0 0 1-3.88-1.55l.82-1.1a4.69 4.69 0 0 0 3.1 1.35c1.12 0 2.01-.5 2.7-1.5.7-1 1.04-2.3 1.04-3.86v-.17a3.98 3.98 0 0 1-3.56 2.02c-1.3 0-2.35-.37-3.17-1.1a3.68 3.68 0 0 1-1.22-2.84c0-1.21.42-2.23 1.27-3.04a4.48 4.48 0 0 1 3.26-1.25c1.5 0 2.67.5 3.55 1.5.89 1 1.33 2.57 1.33 4.71 0 2-.49 3.65-1.46 4.92a4.54 4.54 0 0 1-3.78 1.9Zm.38-6.03c.93 0 1.68-.3 2.25-.87.59-.57.88-1.25.88-2.01 0-.82-.3-1.5-.9-2.04a3.27 3.27 0 0 0-2.3-.83 2.93 2.93 0 0 0-3.02 2.99c0 .8.28 1.47.86 1.98a3.2 3.2 0 0 0 2.23.78Zm12.2 8.69v-12.19h1.38v1.88c.93-1.38 2.12-2.07 3.56-2.07 1.19 0 2.23.44 3.11 1.33a4.73 4.73 0 0 1 1.34 3.53c0 1.45-.45 2.62-1.34 3.5a4.27 4.27 0 0 1-6.67-.64v4.66h-1.39Zm4.69-3.92c.93 0 1.71-.33 2.34-.98a3.7 3.7 0 0 0 .94-2.64 3.6 3.6 0 0 0-.96-2.6 3.2 3.2 0 0 0-4.68.02c-.67.69-1 1.55-1 2.6 0 1.04.33 1.9 1 2.59.67.67 1.46 1 2.36 1Zm7.72-3.05a3.22 3.22 0 0 0 3.27 3.1c1.13 0 2.1-.44 2.94-1.31l.87.77a4.95 4.95 0 0 1-3.84 1.75 4.5 4.5 0 0 1-3.3-1.35 4.82 4.82 0 0 1-1.34-3.51c0-1.36.42-2.5 1.28-3.44a4.1 4.1 0 0 1 3.18-1.42 3.9 3.9 0 0 1 3.17 1.4 5.32 5.32 0 0 1 1.15 4.01h-7.38Zm0-1.11h6a3.82 3.82 0 0 0-.9-2.23c-.5-.6-1.2-.9-2.07-.9-.8 0-1.47.29-2.04.88a3.7 3.7 0 0 0-.99 2.25Zm9.47 5.2v-9.3h1.38v2.42a4.7 4.7 0 0 1 1.53-1.92 3.5 3.5 0 0 1 2.27-.67v1.5h-.1c-1.08 0-1.96.37-2.65 1.11-.7.75-1.05 1.8-1.05 3.15V407h-1.38Zm11.97 0v-9.3h1.38v1.56c.78-1.18 1.79-1.76 3.01-1.76 1.4 0 2.39.61 2.99 1.85a3.73 3.73 0 0 1 3.27-1.85c1.07 0 1.91.33 2.52 1 .63.68.94 1.59.94 2.74V407h-1.39v-5.44c0-.9-.21-1.59-.64-2.07a2.2 2.2 0 0 0-1.77-.73 2.4 2.4 0 0 0-1.83.77 2.9 2.9 0 0 0-.74 2.1V407h-1.37v-5.47a3 3 0 0 0-.65-2.04c-.42-.49-1-.73-1.74-.73-.75 0-1.37.27-1.86.82a3.09 3.09 0 0 0-.74 2.11V407h-1.38Zm24.48-1.2a4.69 4.69 0 0 1-3.47 1.42 4.78 4.78 0 0 1-4.82-4.86 4.7 4.7 0 0 1 1.38-3.42 4.66 4.66 0 0 1 3.47-1.44 4.77 4.77 0 0 1 4.84 4.86c0 1.33-.46 2.47-1.4 3.43Zm-3.44.17c1 0 1.82-.34 2.45-1.04.65-.7.97-1.55.97-2.57 0-1.01-.33-1.87-1-2.58a3.21 3.21 0 0 0-2.45-1.06c-1 0-1.82.35-2.45 1.06-.64.7-.95 1.56-.95 2.58 0 1 .32 1.86.99 2.57a3.2 3.2 0 0 0 2.44 1.04Zm7 1.03v-9.3h1.38v1.61a3.5 3.5 0 0 1 3.19-1.81c1.1 0 1.97.34 2.6 1.02.64.67.96 1.57.96 2.7V407h-1.38v-5.44a2.9 2.9 0 0 0-.69-2.05 2.39 2.39 0 0 0-1.89-.75c-.8 0-1.47.27-2 .8a2.95 2.95 0 0 0-.79 2.11V407h-1.38Zm13.84.16c-.8 0-1.44-.2-1.92-.63-.47-.43-.7-1.1-.7-2v-5.61h-1.3v-1.23h1.3v-2.8h1.38v2.8h2.95v1.23h-2.95v5.43c0 1.04.52 1.55 1.57 1.55.45 0 .9-.1 1.35-.32v1.19c-.5.26-1.07.4-1.68.4Zm3.8-.16v-13.14h1.4v5.45a3.5 3.5 0 0 1 3.18-1.81c1.1 0 1.97.34 2.6 1.02.64.67.96 1.57.96 2.7V407h-1.38v-5.44a2.9 2.9 0 0 0-.69-2.05 2.39 2.39 0 0 0-1.89-.75c-.8 0-1.47.27-2 .8a2.9 2.9 0 0 0-.79 2.11V407h-1.38Zm11.24-3.56-.41-8.01v-1.03h1.62v1.03l-.44 8h-.77Zm-.43 3.56v-1.89h1.65V407h-1.65Z"/>
    <path fill="#1D1F53" fill-rule="evenodd" d="m598.98 522.1-13.5-12.5 2.04-2.2 12.46 11.54 11.98-11.52 2.08 2.16-13 12.5a1.5 1.5 0 0 1-2.06.02Z" clip-rule="evenodd"/>
    <path fill="#96969E" d="m752.96 93 5.1-11.28h1.2l5.1 11.28h-1.37l-1.3-2.96h-6.1L754.26 93h-1.3Zm3.12-4.1h5.1l-2.54-5.7-2.56 5.7Zm14.35 4.28a3.7 3.7 0 0 1-3.16-1.76V93h-1.24V81.32h1.24v5.07c.83-1.22 1.88-1.84 3.16-1.84 1.06 0 1.98.4 2.77 1.19a4.2 4.2 0 0 1 1.19 3.13c0 1.3-.4 2.33-1.19 3.12a3.8 3.8 0 0 1-2.77 1.19Zm-.22-1.1c.83 0 1.53-.3 2.08-.87.56-.59.83-1.37.83-2.35 0-.95-.28-1.72-.85-2.3a2.85 2.85 0 0 0-4.16.02c-.6.6-.9 1.36-.9 2.3 0 .92.3 1.69.9 2.3.6.6 1.3.9 2.1.9Zm13-.15a4.17 4.17 0 0 1-3.1 1.26 4.25 4.25 0 0 1-4.29-4.32c0-1.18.42-2.2 1.24-3.04a4.14 4.14 0 0 1 3.09-1.28c1.23 0 2.25.42 3.07 1.27a4.22 4.22 0 0 1 1.23 3.05 4.2 4.2 0 0 1-1.25 3.06Zm-3.06.16c.88 0 1.6-.31 2.17-.93.58-.62.87-1.38.87-2.29 0-.9-.3-1.66-.9-2.29a2.85 2.85 0 0 0-2.17-.94 2.8 2.8 0 0 0-2.18.94 3.27 3.27 0 0 0-.85 2.3c0 .89.3 1.65.88 2.28.59.62 1.31.93 2.18.93Zm9.25 1.09c-.98 0-1.75-.3-2.32-.9a3.4 3.4 0 0 1-.84-2.42v-5.13h1.23v4.83c0 .78.2 1.4.59 1.84.4.44.97.66 1.7.66.71 0 1.3-.24 1.77-.72s.7-1.1.7-1.88v-4.73h1.22V93h-1.21v-1.44a3.17 3.17 0 0 1-2.84 1.62Zm9.27-.04a2.5 2.5 0 0 1-1.71-.56c-.42-.38-.62-.97-.62-1.77v-5h-1.16v-1.08h1.16v-2.5h1.23v2.5h2.62v1.09h-2.62v4.83c0 .92.46 1.37 1.39 1.37.4 0 .8-.1 1.2-.28v1.05a3.1 3.1 0 0 1-1.49.35Zm10.9.04c-.98 0-1.76-.3-2.32-.9a3.4 3.4 0 0 1-.85-2.42v-5.13h1.23v4.83c0 .78.2 1.4.6 1.84.4.44.97.66 1.7.66.7 0 1.3-.24 1.77-.72s.7-1.1.7-1.88v-4.73h1.22V93h-1.22v-1.44a3.17 3.17 0 0 1-2.83 1.62Zm9.23-.02a5.58 5.58 0 0 1-3.42-1.22l.62-.88c.94.7 1.9 1.06 2.87 1.06.5 0 .91-.12 1.23-.37.32-.24.48-.57.48-.97a.95.95 0 0 0-.53-.87 6.7 6.7 0 0 0-1.53-.59 7.22 7.22 0 0 1-1.82-.72c-.32-.18-.55-.4-.7-.67-.14-.28-.22-.6-.22-.98 0-.7.26-1.27.78-1.71a3.1 3.1 0 0 1 2.04-.66c1.06 0 2.05.3 2.97.92l-.56.92a4.47 4.47 0 0 0-2.45-.8c-.48 0-.86.12-1.16.36-.3.22-.44.51-.44.88 0 .15.05.28.13.41.09.13.18.24.29.32a4.77 4.77 0 0 0 1.06.48 55.48 55.48 0 0 1 1.63.55c.25.1.53.25.81.43.3.18.5.4.64.69.15.26.23.58.23.94 0 .77-.28 1.38-.83 1.82a3.3 3.3 0 0 1-2.12.66Zm125.94.04a5.34 5.34 0 0 1-4.02-1.67 5.76 5.76 0 0 1-1.6-4.13 5.69 5.69 0 0 1 5.67-5.8c.94 0 1.74.16 2.4.47.66.3 1.3.75 1.93 1.35l-.83.9a5.02 5.02 0 0 0-3.52-1.54c-1.24 0-2.27.44-3.1 1.32a4.66 4.66 0 0 0-1.24 3.3c0 1.3.42 2.4 1.25 3.3a4.07 4.07 0 0 0 3.09 1.32 4.3 4.3 0 0 0 1.92-.4 6.82 6.82 0 0 0 1.7-1.21l.83.88c-.63.63-1.3 1.1-1.99 1.42a5.9 5.9 0 0 1-2.5.48Zm12.87-1.27a4.17 4.17 0 0 1-3.09 1.26 4.25 4.25 0 0 1-4.29-4.32c0-1.18.41-2.2 1.24-3.04a4.14 4.14 0 0 1 3.08-1.28c1.23 0 2.25.42 3.08 1.27a4.22 4.22 0 0 1 1.23 3.05c0 1.19-.42 2.2-1.25 3.06Zm-3.06.16a2.8 2.8 0 0 0 2.18-.93c.58-.62.86-1.38.86-2.29 0-.9-.3-1.66-.9-2.29a2.85 2.85 0 0 0-2.17-.94 2.8 2.8 0 0 0-2.17.94 3.27 3.27 0 0 0-.85 2.3c0 .89.3 1.65.88 2.28.59.62 1.31.93 2.17.93Zm6.22.91v-8.27H962v1.44a3.12 3.12 0 0 1 2.83-1.62c.99 0 1.76.3 2.32.91.57.6.85 1.4.85 2.4V93h-1.23v-4.83c0-.78-.2-1.39-.6-1.83-.4-.44-.96-.67-1.69-.67-.71 0-1.3.24-1.77.72s-.7 1.1-.7 1.87V93h-1.24Zm12.3.14a2.5 2.5 0 0 1-1.7-.56c-.42-.38-.63-.97-.63-1.77v-5h-1.15v-1.08h1.15v-2.5h1.23v2.5h2.63v1.09h-2.63v4.83c0 .92.47 1.37 1.4 1.37.4 0 .8-.1 1.2-.28v1.05c-.45.24-.95.35-1.5.35Zm5.85.04c-.84 0-1.57-.23-2.17-.7a2.25 2.25 0 0 1-.92-1.91c0-.87.32-1.53.96-2 .64-.47 1.5-.7 2.58-.7.85 0 1.7.11 2.53.35v-.26c0-.73-.22-1.28-.64-1.66a2.6 2.6 0 0 0-1.81-.58c-.81 0-1.65.2-2.51.6l-.37-1.02a7.19 7.19 0 0 1 3-.7c1.18 0 2.07.3 2.68.91.58.58.86 1.39.86 2.43V93h-1.21v-1.23a3.58 3.58 0 0 1-2.98 1.4Zm.24-1c.77 0 1.42-.2 1.95-.62.54-.42.8-.95.8-1.6v-.77a8.65 8.65 0 0 0-2.41-.35c-.76 0-1.35.15-1.78.46-.42.3-.64.71-.64 1.24 0 .5.2.9.6 1.2.4.3.9.44 1.48.44Zm9.97 1.01c-1.2 0-2.2-.42-3.02-1.26a4.28 4.28 0 0 1-1.22-3.06c0-1.18.4-2.2 1.22-3.04a4.03 4.03 0 0 1 3.02-1.28c1.28 0 2.39.5 3.31 1.47l-.78.84a3.45 3.45 0 0 0-2.54-1.22c-.84 0-1.54.31-2.12.94a3.26 3.26 0 0 0-.84 2.3c0 .89.28 1.65.86 2.28.59.62 1.31.93 2.18.93.88 0 1.71-.42 2.5-1.25l.8.75a4.41 4.41 0 0 1-3.37 1.6Zm7.86-.05a2.5 2.5 0 0 1-1.71-.56c-.42-.38-.62-.97-.62-1.77v-5h-1.16v-1.08h1.16v-2.5h1.23v2.5h2.62v1.09h-2.62v4.83c0 .92.46 1.37 1.39 1.37.4 0 .8-.1 1.2-.28v1.05a3.1 3.1 0 0 1-1.49.35Zm6.12.02a5.5 5.5 0 0 1-3.43-1.22l.63-.88c.94.7 1.89 1.06 2.86 1.06a2 2 0 0 0 1.24-.37c.32-.24.48-.57.48-.97a.95.95 0 0 0-.53-.87 6.8 6.8 0 0 0-1.54-.59 6.83 6.83 0 0 1-1.82-.72c-.31-.18-.54-.4-.69-.67-.15-.28-.22-.6-.22-.98 0-.7.26-1.27.78-1.71a3.09 3.09 0 0 1 2.03-.66c1.07 0 2.06.3 2.98.92l-.56.92a4.48 4.48 0 0 0-2.45-.8c-.48 0-.87.12-1.17.36-.29.22-.43.51-.43.88 0 .15.04.28.13.41.08.13.18.24.29.32.1.09.27.18.49.27a7.7 7.7 0 0 0 1.22.42c.39.12.72.23.97.34.26.1.53.25.82.43a1.9 1.9 0 0 1 .86 1.63 2.2 2.2 0 0 1-.83 1.82 3.3 3.3 0 0 1-2.11.66Z"/>
    <path fill="#AEAEB8" fill-rule="evenodd" d="M1011.9 31h-95.8c-1.46 0-2.5 0-3.31.07-.8.07-1.28.2-1.66.4a4 4 0 0 0-1.66 1.66c-.2.38-.33.86-.4 1.66-.07.8-.07 1.85-.07 3.31v15.8c0 1.46 0 2.5.07 3.31.07.8.2 1.28.4 1.66a4 4 0 0 0 1.66 1.67c.38.2.86.32 1.66.4.8.06 1.85.06 3.31.06h95.8c1.46 0 2.5 0 3.31-.07.8-.07 1.28-.2 1.66-.4a4.04 4.04 0 0 0 1.67-1.66c.2-.38.32-.86.39-1.66.07-.8.07-1.85.07-3.31V38.1c0-1.46 0-2.5-.07-3.31a4.3 4.3 0 0 0-.39-1.66 4.04 4.04 0 0 0-1.67-1.67c-.38-.2-.86-.32-1.66-.4-.81-.06-1.85-.06-3.31-.06Zm-103.32 1.66c-.58 1.1-.58 2.55-.58 5.44v15.8c0 2.9 0 4.34.58 5.44a5 5 0 0 0 2.08 2.08c1.1.58 2.55.58 5.44.58h95.8c2.89 0 4.34 0 5.44-.58a4.98 4.98 0 0 0 2.08-2.08c.58-1.1.58-2.55.58-5.44V38.1c0-2.9 0-4.34-.58-5.44a4.98 4.98 0 0 0-2.08-2.08c-1.1-.58-2.55-.58-5.44-.58h-95.8c-2.9 0-4.34 0-5.44.58a5 5 0 0 0-2.08 2.08Z" clip-rule="evenodd"/>
    <path fill="#1FB1F7" fill-rule="evenodd" d="M1139.9 31h-95.8c-1.46 0-2.5 0-3.31.07-.8.07-1.28.2-1.66.4-.71.37-1.29.95-1.67 1.66-.2.38-.32.86-.39 1.66-.07.8-.07 1.85-.07 3.31v15.8c0 1.46 0 2.5.07 3.31.07.8.19 1.28.39 1.66.38.71.96 1.29 1.67 1.67.38.2.86.32 1.66.4.81.06 1.85.06 3.31.06h95.8c1.46 0 2.5 0 3.31-.07.8-.07 1.28-.2 1.66-.4a4.04 4.04 0 0 0 1.67-1.66c.2-.38.32-.86.39-1.66.07-.8.07-1.85.07-3.31V38.1c0-1.46 0-2.5-.07-3.31a4.3 4.3 0 0 0-.39-1.66 4.04 4.04 0 0 0-1.67-1.67c-.38-.2-.86-.32-1.66-.4-.81-.06-1.85-.06-3.31-.06Zm-103.32 1.66c-.58 1.1-.58 2.55-.58 5.44v15.8c0 2.9 0 4.34.58 5.44a4.98 4.98 0 0 0 2.08 2.08c1.1.58 2.55.58 5.44.58h95.8c2.89 0 4.34 0 5.44-.58a4.98 4.98 0 0 0 2.08-2.08c.58-1.1.58-2.55.58-5.44V38.1c0-2.9 0-4.34-.58-5.44a4.98 4.98 0 0 0-2.08-2.08c-1.1-.58-2.55-.58-5.44-.58h-95.8c-2.89 0-4.34 0-5.44.58a4.98 4.98 0 0 0-2.08 2.08Z" clip-rule="evenodd"/>
    <path fill="#96969E" d="M941.6 51V39.8h1.26v10.03h6.3V51h-7.56Zm16.08-1.07a4.17 4.17 0 0 1-3.09 1.26 4.25 4.25 0 0 1-4.29-4.32c0-1.18.42-2.2 1.24-3.04a4.14 4.14 0 0 1 3.09-1.28 4.1 4.1 0 0 1 3.07 1.27 4.22 4.22 0 0 1 1.23 3.05c0 1.19-.42 2.2-1.25 3.06Zm-3.05.16c.88 0 1.6-.31 2.17-.93.58-.62.87-1.38.87-2.29 0-.9-.3-1.66-.9-2.29a2.86 2.86 0 0 0-2.18-.94 2.8 2.8 0 0 0-2.17.94 3.27 3.27 0 0 0-.85 2.3c0 .89.3 1.65.88 2.28.59.62 1.31.93 2.17.93Zm9.88 3.5a6.4 6.4 0 0 1-3.76-1.15l.55-.96a5.3 5.3 0 0 0 3.19 1.06c.93 0 1.66-.26 2.2-.77.53-.5.8-1.23.8-2.18v-.97a3.94 3.94 0 0 1-5.98.67 3.72 3.72 0 0 1-1.15-2.83 3.86 3.86 0 0 1 3.89-3.9c1.32 0 2.4.55 3.23 1.66v-1.5h1.23v6.84c0 1.25-.35 2.22-1.05 2.93a4.3 4.3 0 0 1-3.15 1.1Zm-.02-4.32c.8 0 1.52-.26 2.13-.8.6-.53.9-1.2.9-2.03 0-.82-.3-1.5-.9-2.02a3.15 3.15 0 0 0-2.13-.78c-.81 0-1.5.26-2.05.78a2.66 2.66 0 0 0-.82 2.04 2.81 2.81 0 0 0 2.87 2.81Zm11.16-8.35v-1.36h1.41v1.36h-1.4Zm.09 10.08v-8.27h1.23V51h-1.24Zm3.77 0v-8.27h1.23v1.44a3.12 3.12 0 0 1 2.83-1.62c.98 0 1.75.3 2.32.91.57.6.85 1.4.85 2.4V51h-1.23v-4.83c0-.78-.2-1.39-.61-1.83-.4-.44-.96-.67-1.68-.67s-1.3.24-1.78.72c-.47.48-.7 1.1-.7 1.87V51h-1.23Z"/>
    <path fill="#1FB1F7" d="M1068.78 51.16c-1.71 0-3.24-.6-4.57-1.8l.78-.92a5.24 5.24 0 0 0 3.84 1.58 2.9 2.9 0 0 0 1.81-.52c.46-.37.69-.84.69-1.41 0-.55-.21-.98-.61-1.3a5.95 5.95 0 0 0-2.31-.83 6.85 6.85 0 0 1-2.88-1.17 2.6 2.6 0 0 1-.88-2.1c0-.88.35-1.61 1.04-2.19.7-.57 1.58-.86 2.64-.86 1.49 0 2.8.46 3.94 1.38l-.74.97a4.98 4.98 0 0 0-3.23-1.21 2.7 2.7 0 0 0-1.73.52 1.6 1.6 0 0 0-.65 1.32c0 .55.21.99.62 1.3.43.33 1.23.62 2.42.87 1.27.28 2.19.67 2.77 1.17.58.5.88 1.17.88 2.03 0 .95-.36 1.72-1.08 2.3-.71.58-1.63.87-2.75.87Zm5.9-10.24v-1.36h1.41v1.36h-1.41Zm.08 10.08v-8.27h1.23V51h-1.23Zm7.44 2.6c-1.4 0-2.65-.4-3.76-1.16l.56-.96a5.3 5.3 0 0 0 3.18 1.06c.93 0 1.66-.26 2.19-.77.55-.5.82-1.23.82-2.18v-.97a3.95 3.95 0 0 1-5.99.67 3.74 3.74 0 0 1-1.15-2.83 3.88 3.88 0 0 1 3.89-3.9c1.32 0 2.4.55 3.23 1.66v-1.5h1.23v6.84c0 1.25-.35 2.22-1.05 2.93a4.3 4.3 0 0 1-3.15 1.1Zm-.02-4.33a3.1 3.1 0 0 0 2.13-.8c.61-.53.91-1.2.91-2.03 0-.82-.3-1.5-.91-2.02a3.14 3.14 0 0 0-2.13-.78 2.9 2.9 0 0 0-2.05.78 2.67 2.67 0 0 0-.81 2.04c0 .8.27 1.48.83 2.01.56.54 1.24.8 2.03.8Zm6.66 1.73v-8.27h1.23v1.44a3.11 3.11 0 0 1 2.83-1.62 3 3 0 0 1 2.32.91c.57.6.85 1.4.85 2.4V51h-1.23v-4.83a2.6 2.6 0 0 0-.61-1.83c-.4-.44-.96-.67-1.68-.67s-1.31.24-1.78.72-.7 1.1-.7 1.87V51h-1.23Zm17.05.18c-.98 0-1.75-.3-2.32-.9a3.43 3.43 0 0 1-.84-2.42v-5.13h1.23v4.83c0 .78.19 1.4.59 1.84.4.44.97.66 1.7.66.71 0 1.3-.24 1.77-.72s.71-1.1.71-1.88v-4.73h1.21V51h-1.21v-1.44a3.18 3.18 0 0 1-2.84 1.62Zm6.5 2.38V42.73h1.23v1.66c.84-1.22 1.89-1.84 3.17-1.84 1.06 0 1.98.4 2.77 1.19a4.2 4.2 0 0 1 1.18 3.13 4.2 4.2 0 0 1-1.18 3.12 3.8 3.8 0 0 1-5.94-.57v4.14h-1.23Zm4.18-3.49a2.8 2.8 0 0 0 2.08-.86 3.3 3.3 0 0 0 .83-2.35c0-.95-.28-1.72-.85-2.3a2.86 2.86 0 0 0-4.16.02c-.59.6-.89 1.36-.89 2.3 0 .92.3 1.69.89 2.3.6.6 1.3.9 2.1.9Z"/>
    <path fill="#96969E" d="M251.53 49.24v-3.3h-3.33V44.8h3.33v-3.3h1.18v3.3h3.33v1.15h-3.33v3.3h-1.18ZM259.1 51l5.05-10.05H258V39.8h7.6v.94L260.51 51h-1.4Zm26.06 0v-2.66h-5.9l-.32-.9 6.33-7.72h1.1v7.57h1.75v1.05h-1.74V51h-1.22Zm-4.7-3.71h4.7V41.5l-4.7 5.78Zm12.77 3.9a5.4 5.4 0 0 1-3.46-1.37l.74-.98c.9.8 1.82 1.2 2.75 1.2 1 0 1.8-.44 2.4-1.33.62-.9.93-2.04.93-3.44v-.14a3.54 3.54 0 0 1-3.17 1.79c-1.15 0-2.1-.33-2.82-.98a3.27 3.27 0 0 1-1.08-2.52 3.6 3.6 0 0 1 1.13-2.7 3.98 3.98 0 0 1 2.9-1.11c1.32 0 2.37.44 3.15 1.33.79.88 1.18 2.28 1.18 4.19a7 7 0 0 1-1.3 4.37 4.04 4.04 0 0 1-3.35 1.7Zm.33-5.36a2.7 2.7 0 0 0 2-.77c.53-.5.79-1.1.79-1.79 0-.72-.27-1.33-.8-1.8a2.9 2.9 0 0 0-2.05-.74 2.6 2.6 0 0 0-2.69 2.66c0 .7.26 1.3.77 1.75.51.46 1.17.7 1.98.7Zm9.84 5.36a5.52 5.52 0 0 1-4-1.77l.83-.92c1.05 1.03 2.12 1.54 3.18 1.54.8 0 1.45-.23 1.95-.7s.76-1.08.76-1.81c0-.7-.27-1.26-.79-1.7a2.97 2.97 0 0 0-2-.65c-.77 0-1.55.2-2.35.64l-.85-.56.32-5.46h6.45v1.17h-5.34l-.24 3.58a5.5 5.5 0 0 1 2.2-.5c1.12 0 2.05.32 2.77.95a3.1 3.1 0 0 1 1.1 2.51c0 1.09-.37 1.98-1.11 2.66a4.1 4.1 0 0 1-2.88 1.02Zm22.08.01a4.98 4.98 0 0 1-4.18-2l.91-.82c.9 1.1 2 1.66 3.28 1.66.7 0 1.28-.2 1.75-.6.46-.41.7-.95.7-1.6 0-.7-.29-1.22-.86-1.6a4.03 4.03 0 0 0-2.28-.57h-.72l-.25-.75 3.53-3.98h-5.47V39.8h7.15v.93l-3.52 3.9c1.07.09 1.95.4 2.64.93.7.52 1.06 1.27 1.06 2.26 0 .98-.36 1.79-1.09 2.43-.71.63-1.6.94-2.65.94Zm6.31-.2 5.06-10.05h-6.16V39.8h7.6v.94L333.2 51h-1.4Zm12.58 0v-2.66h-5.9l-.33-.9 6.34-7.72h1.1v7.57h1.75v1.05h-1.75V51h-1.21Zm-4.7-3.71h4.7V41.5l-4.7 5.78Zm24.8 3.91c-1.2 0-2.35-.47-3.46-1.38l.74-.98c.9.8 1.82 1.2 2.75 1.2 1 0 1.8-.44 2.4-1.33.62-.9.93-2.04.93-3.44v-.14a3.54 3.54 0 0 1-3.17 1.79 4.04 4.04 0 0 1-2.81-.98 3.27 3.27 0 0 1-1.1-2.52 3.6 3.6 0 0 1 1.14-2.7 3.98 3.98 0 0 1 2.9-1.11c1.32 0 2.37.44 3.15 1.33.8.88 1.19 2.28 1.19 4.19a7 7 0 0 1-1.3 4.37 4.04 4.04 0 0 1-3.36 1.7Zm.34-5.37a2.7 2.7 0 0 0 2-.77c.52-.5.78-1.1.78-1.79 0-.72-.27-1.33-.8-1.8a2.9 2.9 0 0 0-2.05-.74 2.6 2.6 0 0 0-2.69 2.66c0 .7.26 1.3.77 1.75.51.46 1.18.7 1.99.7Zm14.12 3.68a4.14 4.14 0 0 1-3.43 1.68c-1.4 0-2.55-.55-3.42-1.66a6.56 6.56 0 0 1-1.3-4.13 6.5 6.5 0 0 1 1.31-4.1 4.17 4.17 0 0 1 3.44-1.7 4.1 4.1 0 0 1 3.41 1.69 6.49 6.49 0 0 1 1.3 4.11c0 1.61-.44 2.98-1.31 4.11Zm-5.88-.83a2.92 2.92 0 0 0 4.93.02c.63-.91.94-2 .94-3.3 0-1.27-.31-2.36-.96-3.26a2.87 2.87 0 0 0-2.46-1.38c-1.01 0-1.83.45-2.46 1.36-.63.9-.95 1.99-.95 3.28 0 1.27.32 2.36.96 3.28Zm25.28 2.52c-1.35 0-2.4-.45-3.19-1.34-.77-.88-1.16-2.27-1.16-4.17 0-1.75.41-3.2 1.24-4.35a4 4 0 0 1 3.41-1.73 5.1 5.1 0 0 1 3.31 1.28l-.73.97a4.1 4.1 0 0 0-2.64-1.1c-1 0-1.79.45-2.39 1.36-.6.9-.9 2.09-.9 3.54v.04a3.66 3.66 0 0 1 3.2-1.7c1.07 0 1.98.31 2.73.95a3.13 3.13 0 0 1 1.13 2.51c0 1.08-.38 1.97-1.15 2.68a4.08 4.08 0 0 1-2.86 1.05Zm.01-1.13c.81 0 1.47-.24 1.96-.73.5-.5.75-1.11.75-1.86 0-.7-.26-1.26-.77-1.71a2.84 2.84 0 0 0-1.97-.69c-.8 0-1.48.25-2.01.75a2.3 2.3 0 0 0-.79 1.73c0 .71.27 1.31.8 1.8.54.47 1.21.71 2.03.71Zm9.52 1.12a4.98 4.98 0 0 1-4.18-2l.92-.81c.9 1.1 2 1.66 3.27 1.66.7 0 1.28-.2 1.75-.6.47-.41.7-.95.7-1.6 0-.7-.28-1.22-.86-1.6a4.03 4.03 0 0 0-2.27-.57h-.72l-.26-.75 3.54-3.98h-5.48V39.8h7.16v.93l-3.52 3.9c1.06.09 1.94.4 2.64.93.7.52 1.05 1.27 1.05 2.26 0 .98-.36 1.79-1.09 2.43-.71.63-1.6.94-2.65.94Z"/>
    <path stroke="#F5F5F7" d="M0 114.5h1200"/>
    <path fill="#1D1F53" d="M259.17 311.48c-4.3 0-7.72-1.39-10.28-4.16-2.54-2.77-3.8-6.21-3.8-10.32 0-3.92 1.29-7.3 3.88-10.16a12.78 12.78 0 0 1 9.96-4.32c2.16 0 4.02.3 5.6.92 1.6.61 3.14 1.53 4.64 2.76l-1.36 1.56a13.24 13.24 0 0 0-9-3.36 10.6 10.6 0 0 0-8.28 3.68 12.93 12.93 0 0 0-3.28 8.92c0 3.7 1.08 6.75 3.24 9.12 2.16 2.35 5.08 3.52 8.76 3.52a14.04 14.04 0 0 0 8.92-3.2v-8.04h-9.36v-1.92h11.36v10.8a17.66 17.66 0 0 1-4.96 3.04c-1.9.77-3.91 1.16-6.04 1.16Zm25.88 0c-2.74 0-5.1-1-7.08-3-1.94-2-2.92-4.57-2.92-7.72 0-2.99.92-5.5 2.76-7.56a8.98 8.98 0 0 1 6.92-3.08 8.4 8.4 0 0 1 6.76 3.04c1.74 2.03 2.6 4.57 2.6 7.64 0 .32-.01.59-.04.8h-16.92a8.77 8.77 0 0 0 2.56 5.88 7.73 7.73 0 0 0 5.44 2.16c2.67 0 5-1.07 7-3.2l1.36 1.2a11.14 11.14 0 0 1-8.44 3.84Zm-7.92-11.64h14.84a9.7 9.7 0 0 0-2.12-5.64 6.37 6.37 0 0 0-5.2-2.28c-2 0-3.7.76-5.12 2.28a9 9 0 0 0-2.4 5.64Zm28.68 11.52a6.03 6.03 0 0 1-4.12-1.4c-1.06-.96-1.6-2.36-1.6-4.2V292.4h-2.96v-1.8h2.96v-6.52h1.96v6.52h7.16v1.8h-7.16v13.16c0 2.64 1.36 3.96 4.08 3.96a7.3 7.3 0 0 0 3-.72v1.84a7.83 7.83 0 0 1-3.32.72Zm28.61.12a9.86 9.86 0 0 1-7.4-3.12c-2-2.08-3-4.6-3-7.56 0-2.93 1-5.44 3-7.52a9.88 9.88 0 0 1 7.4-3.16c3.17 0 5.88 1.27 8.12 3.8l-1.36 1.4c-2.19-2.24-4.45-3.36-6.8-3.36-2.27 0-4.21.87-5.84 2.6a8.88 8.88 0 0 0-2.4 6.24c0 2.45.81 4.55 2.44 6.28a7.92 7.92 0 0 0 5.96 2.56c2.43 0 4.68-1.16 6.76-3.48l1.44 1.28c-2.37 2.7-5.15 4.04-8.32 4.04Zm28.99-3.16c-2 2.1-4.5 3.16-7.48 3.16a9.95 9.95 0 0 1-7.48-3.12 10.67 10.67 0 0 1-2.96-7.56c0-2.9 1-5.41 3-7.52a10.02 10.02 0 0 1 7.52-3.16 9.76 9.76 0 0 1 7.44 3.16c2 2.08 3 4.59 3 7.52 0 2.9-1.02 5.41-3.04 7.52Zm-7.4 1.32c2.26 0 4.2-.87 5.84-2.6a8.72 8.72 0 0 0 2.48-6.24c0-2.45-.83-4.53-2.48-6.24a7.82 7.82 0 0 0-5.92-2.6c-2.3 0-4.26.87-5.88 2.6a8.7 8.7 0 0 0-2.44 6.24c0 2.45.8 4.55 2.44 6.28a7.92 7.92 0 0 0 5.96 2.56Zm15.66 1.36v-20.4h1.96v3.64c.8-1.28 1.72-2.28 2.76-3a6.76 6.76 0 0 1 4.04-1.12c3.2 0 5.5 1.47 6.88 4.4 1.7-2.93 4.16-4.4 7.36-4.4 2.4 0 4.3.77 5.72 2.32 1.42 1.55 2.12 3.61 2.12 6.2V311h-1.96v-12.12c0-2.19-.53-3.9-1.6-5.12a5.57 5.57 0 0 0-4.44-1.84 6.1 6.1 0 0 0-4.56 1.96c-1.25 1.3-1.88 3.05-1.88 5.24V311h-1.96v-12.24c0-2.1-.55-3.77-1.64-5a5.43 5.43 0 0 0-4.32-1.84c-1.81 0-3.36.7-4.64 2.12a7.55 7.55 0 0 0-1.88 5.2V311h-1.96Zm37.25 6.4v-26.8h1.96v4.56c2.21-3.36 5.01-5.04 8.4-5.04 2.61 0 4.92.99 6.92 2.96 2 1.95 3 4.52 3 7.72 0 3.17-1 5.75-3 7.72a9.57 9.57 0 0 1-6.92 2.96c-3.47 0-6.27-1.63-8.4-4.88v10.8h-1.96Zm10.16-7.8c2.3 0 4.2-.79 5.72-2.36 1.52-1.6 2.28-3.75 2.28-6.44 0-2.61-.79-4.73-2.36-6.36a7.49 7.49 0 0 0-5.64-2.44c-2.21 0-4.16.84-5.84 2.52a8.56 8.56 0 0 0-2.48 6.32 8.51 8.51 0 0 0 8.32 8.76Zm15.73 1.4v-29.2h1.95V311h-1.95Zm17.48.48c-2.75 0-5.11-1-7.08-3-1.95-2-2.92-4.57-2.92-7.72 0-2.99.92-5.5 2.76-7.56a8.98 8.98 0 0 1 6.92-3.08 8.4 8.4 0 0 1 6.76 3.04c1.73 2.03 2.6 4.57 2.6 7.64 0 .32-.02.59-.04.8h-16.92a8.77 8.77 0 0 0 2.56 5.88 7.73 7.73 0 0 0 5.44 2.16c2.66 0 5-1.07 7-3.2l1.36 1.2a11.14 11.14 0 0 1-8.44 3.84Zm-7.92-11.64h14.84a9.7 9.7 0 0 0-2.12-5.64 6.37 6.37 0 0 0-5.2-2.28c-2 0-3.71.76-5.12 2.28a9 9 0 0 0-2.4 5.64Zm28.68 11.52a6.03 6.03 0 0 1-4.13-1.4c-1.06-.96-1.6-2.36-1.6-4.2V292.4h-2.95v-1.8h2.95v-6.52h1.97v6.52h7.15v1.8h-7.15v13.16c0 2.64 1.35 3.96 4.07 3.96a7.3 7.3 0 0 0 3-.72v1.84a7.83 7.83 0 0 1-3.31.72Zm16.43.12c-2.75 0-5.11-1-7.09-3-1.94-2-2.91-4.57-2.91-7.72 0-2.99.91-5.5 2.75-7.56a8.98 8.98 0 0 1 6.92-3.08 8.4 8.4 0 0 1 6.77 3.04c1.73 2.03 2.6 4.57 2.6 7.64 0 .32-.02.59-.04.8h-16.93a8.77 8.77 0 0 0 2.56 5.88 7.73 7.73 0 0 0 5.44 2.16c2.67 0 5-1.07 7-3.2l1.37 1.2a11.14 11.14 0 0 1-8.44 3.84Zm-7.93-11.64h14.84a9.7 9.7 0 0 0-2.12-5.64 6.37 6.37 0 0 0-5.2-2.28c-2 0-3.7.76-5.12 2.28a9 9 0 0 0-2.4 5.64Zm42.08 11.64a9.86 9.86 0 0 1-7.4-3.12c-2-2.08-3-4.6-3-7.56 0-2.93 1-5.44 3-7.52a9.88 9.88 0 0 1 7.4-3.16c3.17 0 5.88 1.27 8.12 3.8l-1.36 1.4c-2.19-2.24-4.46-3.36-6.8-3.36-2.27 0-4.22.87-5.84 2.6a8.88 8.88 0 0 0-2.4 6.24c0 2.45.81 4.55 2.44 6.28a7.92 7.92 0 0 0 5.96 2.56c2.42 0 4.68-1.16 6.76-3.48l1.44 1.28c-2.38 2.7-5.15 4.04-8.32 4.04Zm28.98-3.16c-2 2.1-4.5 3.16-7.48 3.16a9.95 9.95 0 0 1-7.48-3.12 10.68 10.68 0 0 1-2.96-7.56c0-2.9 1-5.41 3-7.52a10.02 10.02 0 0 1 7.52-3.16 9.76 9.76 0 0 1 7.44 3.16c2 2.08 3 4.59 3 7.52 0 2.9-1.01 5.41-3.04 7.52Zm-7.4 1.32c2.27 0 4.21-.87 5.84-2.6a8.72 8.72 0 0 0 2.48-6.24c0-2.45-.82-4.53-2.48-6.24a7.82 7.82 0 0 0-5.92-2.6c-2.3 0-4.25.87-5.88 2.6a8.7 8.7 0 0 0-2.44 6.24c0 2.45.82 4.55 2.44 6.28a7.92 7.92 0 0 0 5.96 2.56Zm15.67 1.36v-20.4h1.96v3.8a7.95 7.95 0 0 1 7.36-4.28c2.53 0 4.52.79 5.96 2.36a8.42 8.42 0 0 1 2.2 6.04V311h-1.96v-12.12c0-2.13-.58-3.83-1.72-5.08-1.15-1.25-2.74-1.88-4.76-1.88-2.03 0-3.72.7-5.08 2.08a7.12 7.12 0 0 0-2 5.2V311h-1.96Zm30.53.36a6.03 6.03 0 0 1-4.12-1.4c-1.07-.96-1.6-2.36-1.6-4.2V292.4h-2.96v-1.8h2.96v-6.52h1.96v6.52h7.16v1.8h-7.16v13.16c0 2.64 1.36 3.96 4.08 3.96.93 0 1.93-.24 3-.72v1.84a7.83 7.83 0 0 1-3.32.72Zm8.42-.36v-20.4h1.95v5.8a10.84 10.84 0 0 1 3.64-4.52 8.53 8.53 0 0 1 5.4-1.6v2.16h-.2c-2.48 0-4.57.9-6.27 2.72-1.71 1.81-2.57 4.3-2.57 7.48V311h-1.95Zm30.71-2.68a9.9 9.9 0 0 1-7.47 3.16 9.95 9.95 0 0 1-7.49-3.12 10.67 10.67 0 0 1-2.96-7.56c0-2.9 1-5.41 3-7.52a10.02 10.02 0 0 1 7.52-3.16 9.76 9.76 0 0 1 7.45 3.16c2 2.08 3 4.59 3 7.52 0 2.9-1.02 5.41-3.05 7.52Zm-7.4 1.32c2.27 0 4.22-.87 5.85-2.6a8.72 8.72 0 0 0 2.48-6.24c0-2.45-.83-4.53-2.49-6.24a7.82 7.82 0 0 0-5.91-2.6 7.8 7.8 0 0 0-5.89 2.6 8.7 8.7 0 0 0-2.43 6.24c0 2.45.8 4.55 2.43 6.28a7.92 7.92 0 0 0 5.97 2.56ZM639.1 311v-29.2h1.96V311h-1.96Zm36.6-2.68c-2 2.1-4.5 3.16-7.49 3.16a9.95 9.95 0 0 1-7.48-3.12 10.67 10.67 0 0 1-2.96-7.56c0-2.9 1-5.41 3-7.52a10.02 10.02 0 0 1 7.52-3.16 9.76 9.76 0 0 1 7.44 3.16c2 2.08 3 4.59 3 7.52 0 2.9-1.01 5.41-3.04 7.52Zm-7.4 1.32c2.26 0 4.2-.87 5.83-2.6a8.72 8.72 0 0 0 2.48-6.24c0-2.45-.82-4.53-2.48-6.24a7.82 7.82 0 0 0-5.92-2.6 7.8 7.8 0 0 0-5.88 2.6 8.7 8.7 0 0 0-2.44 6.24c0 2.45.82 4.55 2.44 6.28a7.92 7.92 0 0 0 5.96 2.56Zm21.53 1.52-9.16-20.56h2.28l7.72 18.2 7.8-18.2h2.2l-9.16 20.56h-1.68Zm22.79.32c-2.75 0-5.1-1-7.08-3-1.95-2-2.92-4.57-2.92-7.72 0-2.99.92-5.5 2.76-7.56a8.98 8.98 0 0 1 6.92-3.08 8.4 8.4 0 0 1 6.76 3.04c1.73 2.03 2.6 4.57 2.6 7.64 0 .32-.01.59-.04.8H704.7a8.77 8.77 0 0 0 2.56 5.88 7.73 7.73 0 0 0 5.44 2.16c2.67 0 5-1.07 7-3.2l1.36 1.2a11.14 11.14 0 0 1-8.44 3.84Zm-7.92-11.64h14.84a9.7 9.7 0 0 0-2.12-5.64 6.37 6.37 0 0 0-5.2-2.28c-2 0-3.7.76-5.12 2.28a9.01 9.01 0 0 0-2.4 5.64ZM726.57 311v-20.4h1.96v5.8a10.85 10.85 0 0 1 3.64-4.52 8.53 8.53 0 0 1 5.4-1.6v2.16h-.2a8.3 8.3 0 0 0-6.28 2.72c-1.7 1.81-2.56 4.3-2.56 7.48V311h-1.96Zm32.6.48a9.23 9.23 0 0 1-5.51-1.72 5.56 5.56 0 0 1-2.36-4.76c0-2.08.81-3.7 2.44-4.88 1.62-1.17 3.78-1.76 6.48-1.76 2.29 0 4.54.3 6.76.88v-.88c0-2.03-.59-3.57-1.76-4.64-1.18-1.07-2.83-1.6-4.96-1.6-2.14 0-4.27.55-6.4 1.64l-.72-1.72a17.25 17.25 0 0 1 7.24-1.76c2.8 0 4.94.75 6.44 2.24 1.38 1.39 2.08 3.3 2.08 5.76V311h-1.92v-3.4c-1.84 2.59-4.44 3.88-7.8 3.88Zm.13-1.84c2.13 0 3.94-.59 5.44-1.76a5.54 5.54 0 0 0 2.28-4.52v-2.32c-2.4-.61-4.71-.92-6.92-.92-2.14 0-3.79.44-4.96 1.32a4.12 4.12 0 0 0-1.76 3.52c0 1.41.57 2.55 1.72 3.4a6.95 6.95 0 0 0 4.2 1.28Zm24.45 1.84a9.63 9.63 0 0 1-6.92-2.92c-2-1.97-3-4.56-3-7.76 0-3.17 1-5.75 3-7.72 2-1.97 4.3-2.96 6.91-2.96 3.47 0 6.27 1.63 8.4 4.88v-13.2h1.97V311h-1.97v-4.56c-2.2 3.36-5 5.04-8.4 5.04Zm-5.49-4.32a7.95 7.95 0 0 0 11.48-.04 8.62 8.62 0 0 0 2.52-6.36c0-2.53-.84-4.63-2.51-6.28a7.95 7.95 0 0 0-5.8-2.48c-2.3 0-4.2.8-5.73 2.4-1.51 1.57-2.27 3.7-2.27 6.4 0 2.61.77 4.73 2.31 6.36Zm29.57 4-9.16-20.56h2.28l7.72 18.2 7.8-18.2h2.2l-9.16 20.56h-1.68Zm22.8.32a9.6 9.6 0 0 1-7.09-3c-1.94-2-2.92-4.57-2.92-7.72 0-2.99.92-5.5 2.76-7.56a8.98 8.98 0 0 1 6.92-3.08 8.4 8.4 0 0 1 6.76 3.04c1.74 2.03 2.6 4.57 2.6 7.64 0 .32-.01.59-.04.8H822.7a8.77 8.77 0 0 0 2.56 5.88 7.73 7.73 0 0 0 5.44 2.16c2.67 0 5-1.07 7-3.2l1.36 1.2a11.14 11.14 0 0 1-8.44 3.84Zm-7.93-11.64h14.84a9.7 9.7 0 0 0-2.12-5.64 6.37 6.37 0 0 0-5.2-2.28c-2 0-3.7.76-5.12 2.28a9 9 0 0 0-2.4 5.64ZM844.58 311v-20.4h1.96v5.8a10.85 10.85 0 0 1 3.64-4.52 8.53 8.53 0 0 1 5.4-1.6v2.16h-.2a8.3 8.3 0 0 0-6.28 2.72c-1.7 1.81-2.56 4.3-2.56 7.48V311h-1.96Zm22.02.36a6.03 6.03 0 0 1-4.12-1.4c-1.07-.96-1.6-2.36-1.6-4.2V292.4h-2.96v-1.8h2.96v-6.52h1.96v6.52H870v1.8h-7.16v13.16c0 2.64 1.36 3.96 4.08 3.96.93 0 1.93-.24 3-.72v1.84a7.83 7.83 0 0 1-3.32.72Zm8.7-.36v-20.4h1.95V311h-1.96Zm-.25-25.72v-2.68h2.44v2.68h-2.44Zm15.72 26.12a13.48 13.48 0 0 1-8.36-2.96l1.16-1.56a11.82 11.82 0 0 0 7.32 2.68 5.6 5.6 0 0 0 3.52-1.08 3.46 3.46 0 0 0 1.4-2.88 2.7 2.7 0 0 0-1.4-2.48c-.9-.56-2.24-1.1-4-1.6l-2.04-.6a17.3 17.3 0 0 1-1.8-.72 6.44 6.44 0 0 1-1.72-1.04c-.34-.35-.68-.8-1-1.36a5 5 0 0 1 1.44-6 7.2 7.2 0 0 1 4.84-1.6c2.59 0 5 .75 7.24 2.24l-1.04 1.64a11.26 11.26 0 0 0-6.28-2.04 5.2 5.2 0 0 0-3.36 1.04 3.15 3.15 0 0 0-1.28 2.6c0 .43.11.83.32 1.2.24.37.51.68.8.92.32.24.76.5 1.32.76a24.38 24.38 0 0 0 3.24 1.08c1.02.3 1.84.56 2.48.8.64.24 1.32.59 2.04 1.04a4.45 4.45 0 0 1 2.2 3.96c0 1.79-.68 3.23-2.04 4.32a7.63 7.63 0 0 1-5 1.64Zm12.77-.4v-20.4h1.96V311h-1.96Zm-.24-25.72v-2.68h2.44v2.68h-2.44Zm9.12 25.72v-20.4h1.96v3.8a7.95 7.95 0 0 1 7.36-4.28c2.53 0 4.52.79 5.96 2.36a8.42 8.42 0 0 1 2.2 6.04V311h-1.96v-12.12c0-2.13-.58-3.83-1.72-5.08-1.15-1.25-2.74-1.88-4.76-1.88-2.03 0-3.72.7-5.08 2.08a7.12 7.12 0 0 0-2 5.2V311h-1.96Zm32.69 6.48c-3.44 0-6.56-1.04-9.36-3.12l1.16-1.6a13.14 13.14 0 0 0 8.24 2.88c2.43 0 4.36-.68 5.8-2.04 1.46-1.36 2.2-3.32 2.2-5.88v-2.96c-2.19 3.15-5.03 4.72-8.52 4.72a9.9 9.9 0 0 1-6.84-2.68 9.08 9.08 0 0 1-2.96-7c0-2.83.99-5.15 2.96-6.96a9.8 9.8 0 0 1 6.84-2.72c3.54 0 6.38 1.52 8.52 4.56v-4.08h1.96v17.24c0 2.88-.87 5.19-2.6 6.92-1.81 1.81-4.28 2.72-7.4 2.72Zm-.28-9.88c2.21 0 4.17-.73 5.88-2.2a7.17 7.17 0 0 0 2.56-5.64c0-2.27-.86-4.12-2.56-5.56a8.66 8.66 0 0 0-5.88-2.2c-2.22 0-4.08.72-5.6 2.16a7.33 7.33 0 0 0-2.28 5.64c0 2.24.77 4.1 2.32 5.6a7.8 7.8 0 0 0 5.56 2.2ZM410.8 363.48a9.23 9.23 0 0 1-5.52-1.72 5.56 5.56 0 0 1-2.36-4.76c0-2.08.82-3.7 2.44-4.88 1.63-1.17 3.79-1.76 6.48-1.76 2.3 0 4.55.3 6.76.88v-.88c0-2.03-.58-3.57-1.76-4.64-1.17-1.07-2.82-1.6-4.96-1.6a14 14 0 0 0-6.4 1.64l-.72-1.72a17.25 17.25 0 0 1 7.24-1.76c2.8 0 4.95.75 6.44 2.24 1.39 1.39 2.08 3.3 2.08 5.76V363h-1.92v-3.4c-1.84 2.59-4.44 3.88-7.8 3.88Zm.12-1.84c2.14 0 3.95-.59 5.44-1.76a5.54 5.54 0 0 0 2.28-4.52v-2.32c-2.4-.61-4.7-.92-6.92-.92-2.13 0-3.78.44-4.96 1.32a4.12 4.12 0 0 0-1.76 3.52c0 1.41.58 2.55 1.72 3.4a6.95 6.95 0 0 0 4.2 1.28Zm15.85 1.36v-20.4h1.96v3.8a7.95 7.95 0 0 1 7.36-4.28c2.53 0 4.52.79 5.96 2.36a8.42 8.42 0 0 1 2.2 6.04V363h-1.96v-12.12c0-2.13-.57-3.83-1.72-5.08s-2.73-1.88-4.76-1.88-3.72.7-5.08 2.08a7.12 7.12 0 0 0-2 5.2V363h-1.96Zm32.33.48a9.63 9.63 0 0 1-6.92-2.92c-2-1.97-3-4.56-3-7.76 0-3.17 1-5.75 3-7.72 2-1.97 4.3-2.96 6.92-2.96 3.47 0 6.27 1.63 8.4 4.88v-13.2h1.96V363h-1.96v-4.56c-2.21 3.36-5.01 5.04-8.4 5.04Zm-5.48-4.32a7.95 7.95 0 0 0 11.48-.04 8.62 8.62 0 0 0 2.52-6.36c0-2.53-.84-4.63-2.52-6.28a7.95 7.95 0 0 0-5.8-2.48c-2.3 0-4.2.8-5.72 2.4-1.52 1.57-2.28 3.7-2.28 6.4 0 2.61.78 4.73 2.32 6.36Zm40.28 4.24a13.48 13.48 0 0 1-8.36-2.96l1.16-1.56a11.82 11.82 0 0 0 7.32 2.68 5.6 5.6 0 0 0 3.52-1.08 3.46 3.46 0 0 0 1.4-2.88c0-1.1-.47-1.92-1.4-2.48-.9-.56-2.24-1.1-4-1.6l-2.04-.6a15.7 15.7 0 0 1-1.8-.72 6.42 6.42 0 0 1-1.72-1.04 6.4 6.4 0 0 1-1-1.36 5 5 0 0 1 1.44-6 7.2 7.2 0 0 1 4.84-1.6c2.59 0 5 .75 7.24 2.24l-1.04 1.64a11.26 11.26 0 0 0-6.28-2.04c-1.39 0-2.5.35-3.36 1.04a3.15 3.15 0 0 0-1.28 2.6c0 .43.1.83.32 1.2.24.37.5.68.8.92.32.24.76.5 1.32.76a24.13 24.13 0 0 0 3.24 1.08c1.01.3 1.84.56 2.48.8.64.24 1.32.59 2.04 1.04a4.45 4.45 0 0 1 2.2 3.96c0 1.79-.68 3.23-2.04 4.32a7.63 7.63 0 0 1-5 1.64Zm18.68.08a9.23 9.23 0 0 1-5.52-1.72 5.56 5.56 0 0 1-2.36-4.76c0-2.08.82-3.7 2.44-4.88 1.63-1.17 3.79-1.76 6.48-1.76 2.3 0 4.55.3 6.76.88v-.88c0-2.03-.58-3.57-1.76-4.64-1.17-1.07-2.82-1.6-4.96-1.6a14 14 0 0 0-6.4 1.64l-.72-1.72a17.25 17.25 0 0 1 7.24-1.76c2.8 0 4.95.75 6.44 2.24 1.39 1.39 2.08 3.3 2.08 5.76V363h-1.92v-3.4c-1.84 2.59-4.44 3.88-7.8 3.88Zm.12-1.84c2.14 0 3.95-.59 5.44-1.76a5.54 5.54 0 0 0 2.28-4.52v-2.32c-2.4-.61-4.7-.92-6.92-.92-2.13 0-3.78.44-4.96 1.32a4.12 4.12 0 0 0-1.76 3.52c0 1.41.58 2.55 1.72 3.4a6.95 6.95 0 0 0 4.2 1.28Zm16.13 1.36v-29.2h1.96V363h-1.96Zm17.48.48c-2.74 0-5.1-1-7.08-3-1.94-2-2.92-4.57-2.92-7.72 0-2.99.92-5.5 2.76-7.56a8.98 8.98 0 0 1 6.92-3.08 8.4 8.4 0 0 1 6.76 3.04c1.74 2.03 2.6 4.57 2.6 7.64 0 .32-.01.59-.04.8H538.4a8.77 8.77 0 0 0 2.56 5.88 7.73 7.73 0 0 0 5.44 2.16c2.67 0 5-1.07 7-3.2l1.36 1.2a11.14 11.14 0 0 1-8.44 3.84Zm-7.92-11.64h14.84a9.7 9.7 0 0 0-2.12-5.64 6.37 6.37 0 0 0-5.2-2.28c-2 0-3.7.76-5.12 2.28a9.01 9.01 0 0 0-2.4 5.64Zm28.48 11.56a13.48 13.48 0 0 1-8.36-2.96l1.16-1.56a11.82 11.82 0 0 0 7.32 2.68 5.6 5.6 0 0 0 3.52-1.08 3.46 3.46 0 0 0 1.4-2.88 2.7 2.7 0 0 0-1.4-2.48c-.9-.56-2.24-1.1-4-1.6l-2.04-.6a17.3 17.3 0 0 1-1.8-.72 6.42 6.42 0 0 1-1.72-1.04c-.34-.35-.68-.8-1-1.36a5 5 0 0 1 1.44-6 7.2 7.2 0 0 1 4.84-1.6c2.59 0 5 .75 7.24 2.24l-1.04 1.64a11.26 11.26 0 0 0-6.28-2.04 5.2 5.2 0 0 0-3.36 1.04 3.15 3.15 0 0 0-1.28 2.6c0 .43.1.83.32 1.2.24.37.5.68.8.92.32.24.76.5 1.32.76a24.13 24.13 0 0 0 3.24 1.08c1.02.3 1.84.56 2.48.8.64.24 1.32.59 2.04 1.04a4.45 4.45 0 0 1 2.2 3.96c0 1.79-.68 3.23-2.04 4.32a7.63 7.63 0 0 1-5 1.64Zm30.48-.04a6.03 6.03 0 0 1-4.12-1.4c-1.07-.96-1.6-2.36-1.6-4.2V344.4h-2.96v-1.8h2.96v-6.52h1.96v6.52h7.16v1.8h-7.16v13.16c0 2.64 1.36 3.96 4.08 3.96.93 0 1.93-.24 3-.72v1.84a7.83 7.83 0 0 1-3.32.72Zm24.35-3.04c-2 2.1-4.5 3.16-7.48 3.16a9.95 9.95 0 0 1-7.48-3.12 10.68 10.68 0 0 1-2.96-7.56c0-2.9 1-5.41 3-7.52a10.02 10.02 0 0 1 7.52-3.16 9.76 9.76 0 0 1 7.44 3.16c2 2.08 3 4.59 3 7.52 0 2.9-1.02 5.41-3.04 7.52Zm-7.4 1.32c2.26 0 4.21-.87 5.84-2.6a8.72 8.72 0 0 0 2.48-6.24c0-2.45-.83-4.53-2.48-6.24a7.82 7.82 0 0 0-5.92-2.6c-2.3 0-4.26.87-5.88 2.6a8.7 8.7 0 0 0-2.44 6.24c0 2.45.81 4.55 2.44 6.28a7.92 7.92 0 0 0 5.96 2.56Zm29.34 7.88c-1.37 0-2.71-.3-4.04-.88l.67-1.72c1.05.5 2.2.76 3.49.76a3.9 3.9 0 0 0 2.75-1.08c.78-.72 1.54-1.96 2.28-3.72L639 342.6h2.28l8.49 18.24 7.36-18.24h2.15l-8.83 21.12c-.88 2.08-1.87 3.56-2.97 4.44a5.73 5.73 0 0 1-3.84 1.36Zm35.54-9.2c-2 2.1-4.5 3.16-7.48 3.16a9.95 9.95 0 0 1-7.48-3.12 10.68 10.68 0 0 1-2.96-7.56c0-2.9 1-5.41 3-7.52a10.02 10.02 0 0 1 7.52-3.16 9.76 9.76 0 0 1 7.44 3.16c2 2.08 3 4.59 3 7.52 0 2.9-1.01 5.41-3.04 7.52Zm-7.4 1.32c2.27 0 4.21-.87 5.84-2.6a8.72 8.72 0 0 0 2.48-6.24c0-2.45-.83-4.53-2.48-6.24a7.82 7.82 0 0 0-5.92-2.6c-2.3 0-4.25.87-5.88 2.6a8.7 8.7 0 0 0-2.44 6.24c0 2.45.81 4.55 2.44 6.28a7.92 7.92 0 0 0 5.96 2.56Zm23.43 1.84c-2.54 0-4.54-.77-6-2.32a8.65 8.65 0 0 1-2.16-6.08V342.6h1.96v12.12c0 2.13.57 3.83 1.72 5.08 1.14 1.25 2.73 1.88 4.76 1.88 2.02 0 3.7-.68 5.04-2.04a7.18 7.18 0 0 0 2.04-5.24v-11.8h1.96V363h-1.96v-3.8a7.95 7.95 0 0 1-7.36 4.28Zm15.97-.48v-20.4h1.96v5.8a10.85 10.85 0 0 1 3.64-4.52 8.53 8.53 0 0 1 5.4-1.6v2.16h-.2a8.3 8.3 0 0 0-6.28 2.72c-1.7 1.81-2.56 4.3-2.56 7.48V363h-1.96Zm33 .4a13.48 13.48 0 0 1-8.36-2.96l1.16-1.56a11.82 11.82 0 0 0 7.33 2.68 5.6 5.6 0 0 0 3.51-1.08 3.46 3.46 0 0 0 1.4-2.88 2.7 2.7 0 0 0-1.4-2.48c-.9-.56-2.24-1.1-4-1.6l-2.04-.6a17.3 17.3 0 0 1-1.8-.72 6.44 6.44 0 0 1-1.72-1.04c-.34-.35-.67-.8-1-1.36a5 5 0 0 1 1.44-6 7.2 7.2 0 0 1 4.84-1.6c2.6 0 5 .75 7.25 2.24l-1.04 1.64a11.26 11.26 0 0 0-6.28-2.04 5.2 5.2 0 0 0-3.37 1.04 3.15 3.15 0 0 0-1.27 2.6c0 .43.1.83.31 1.2.25.37.51.68.8.92.32.24.76.5 1.32.76a24.38 24.38 0 0 0 3.25 1.08c1 .3 1.84.56 2.48.8.63.24 1.32.59 2.03 1.04a4.45 4.45 0 0 1 2.2 3.96c0 1.79-.67 3.23-2.03 4.32a7.63 7.63 0 0 1-5 1.64Zm12.77-.4v-20.4h1.96V363h-1.96Zm-.24-25.72v-2.68h2.44v2.68h-2.44Zm15.92 26.08a6.03 6.03 0 0 1-4.12-1.4c-1.07-.96-1.6-2.36-1.6-4.2V344.4h-2.96v-1.8h2.96v-6.52h1.96v6.52h7.16v1.8h-7.16v13.16c0 2.64 1.36 3.96 4.08 3.96.93 0 1.93-.24 3-.72v1.84a7.83 7.83 0 0 1-3.32.72Zm16.43.12c-2.75 0-5.1-1-7.08-3-1.95-2-2.92-4.57-2.92-7.72 0-2.99.92-5.5 2.76-7.56a8.98 8.98 0 0 1 6.92-3.08 8.4 8.4 0 0 1 6.76 3.04c1.73 2.03 2.6 4.57 2.6 7.64 0 .32-.01.59-.04.8h-16.92a8.77 8.77 0 0 0 2.56 5.88 7.73 7.73 0 0 0 5.44 2.16c2.67 0 5-1.07 7-3.2l1.36 1.2a11.14 11.14 0 0 1-8.44 3.84Zm-7.92-11.64h14.84a9.7 9.7 0 0 0-2.12-5.64 6.37 6.37 0 0 0-5.2-2.28c-2 0-3.7.76-5.12 2.28a9.01 9.01 0 0 0-2.4 5.64Z"/>
    <path fill="#1FB1F7" d="M44 183h2v20h-2z"/>
    <path fill="#1FB1F7" d="M55 192v2H35v-2zm112 22h2v20h-2z"/>
    <path fill="#1FB1F7" d="M178 223v2h-20v-2zm169-88h2v20h-2z"/>
    <path fill="#1FB1F7" d="M358 144v2h-20v-2zm155 91h2v20h-2z"/>
    <path fill="#1FB1F7" d="M524 244v2h-20v-2zm74-88h2v20h-2z"/>
    <path fill="#1FB1F7" d="M609 165v2h-20v-2zm94 56h2v20h-2z"/>
    <path fill="#1FB1F7" d="M714 230v2h-20v-2zm202-81h2v20h-2z"/>
    <path fill="#1FB1F7" d="M927 158v2h-20v-2zm49 18h2v20h-2z"/>
    <path fill="#1FB1F7" d="M987 185v2h-20v-2zm107 97h2v20h-2z"/>
    <path fill="#1FB1F7" d="M1105 291v2h-20v-2zm71 64h2v20h-2z"/>
    <path fill="#1FB1F7" d="M1187 364v2h-20v-2zm-156 50h2v20h-2z"/>
    <path fill="#1FB1F7" d="M1042 423v2h-20v-2zm-193-39h2v20h-2z"/>
    <path fill="#1FB1F7" d="M860 393v2h-20v-2zm-78 116h2v20h-2z"/>
    <path fill="#1FB1F7" d="M793 518v2h-20v-2zm-145-51h2v20h-2z"/>
    <path fill="#1FB1F7" d="M659 476v2h-20v-2zm-242 34h2v20h-2z"/>
    <path fill="#1FB1F7" d="M428 519v2h-20v-2zM229 387h2v20h-2z"/>
    <path fill="#1FB1F7" d="M240 396v2h-20v-2zm-139 73h2v20h-2z"/>
    <path fill="#1FB1F7" d="M112 478v2H92v-2z"/>
    <path fill="#1FB1F7" fill-rule="evenodd" d="M138.42 64a16 16 0 1 0 0-32 16 16 0 0 0 0 32Zm0-8a8 8 0 1 0 0-16 8 8 0 0 0 0 16Zm34-16a8 8 0 0 0-8 8v12a4 4 0 0 1-8 0V48a16 16 0 1 1 32 0v12a4 4 0 0 1-8 0V48a8 8 0 0 0-8-8Zm-68 16a8 8 0 0 1-8-8V36a4 4 0 1 0-8 0v12a16 16 0 0 0 32 0V36a4 4 0 0 0-8 0v12a8 8 0 0 1-8 8Zm-19.17 8.83a4 4 0 0 0 0-5.66l-2.83-2.83-2.83 2.83L76.76 62l2.83 2.83a4 4 0 0 0 5.66 0Z" clip-rule="evenodd"/>
    <path fill="#1FB1F7" fill-rule="evenodd" d="M70.42 64a16 16 0 1 0 0-32 16 16 0 0 0 0 32Zm0-8a8 8 0 1 0 0-16 8 8 0 0 0 0 16Z" clip-rule="evenodd"/>
    <path fill="#1FB1F7" d="M51.4 48.04c0-2.62 2.26-4.23 4.48-4.23 2.22 0 3.78 1.6 5.37 4.19-1.55 2.74-3.17 4.17-5.37 4.17s-4.48-1.5-4.48-4.13Z"/>
    <path fill="#fff" fill-rule="evenodd" d="m65.89 47.92-1.16 2.05c-1.75 3.1-4.41 6.2-8.85 6.2-3.71 0-8.48-2.65-8.48-8.13 0-5.33 4.6-8.23 8.48-8.23 4.55 0 7.15 3.43 8.78 6.1l1.23 2.01Zm-4.64.08c-1.55 2.74-3.17 4.17-5.37 4.17s-4.48-1.5-4.48-4.13c0-2.62 2.26-4.23 4.48-4.23 2.22 0 3.78 1.6 5.37 4.19Z" clip-rule="evenodd"/>
    <path fill="#1FB1F7" d="M74.48 48.04c0-2.62-2.26-4.23-4.48-4.23-2.22 0-3.66 1.63-5.25 4.23 1.55 2.74 3.05 4.13 5.25 4.13s4.48-1.5 4.48-4.13Z"/>
    <path fill="#fff" fill-rule="evenodd" d="m60.11 47.96 1.16 2.05c1.72 3.04 4.25 6.16 8.73 6.16 3.71 0 8.48-2.65 8.48-8.13 0-5.33-4.6-8.23-8.48-8.23-4.64 0-7.13 3.65-8.66 6.15l-1.23 2Zm4.64.08c1.59-2.6 3.03-4.23 5.25-4.23s4.48 1.61 4.48 4.23-2.27 4.13-4.48 4.13c-2.2 0-3.7-1.39-5.25-4.13Z" clip-rule="evenodd"/>
    <path fill="#1FB1F7" d="M51.4 48.04c0-2.62 2.26-4.23 4.48-4.23 2.22 0 3.78 1.6 5.37 4.19-1.55 2.74-3.17 4.17-5.37 4.17s-4.48-1.5-4.48-4.13Z"/>
  </g>
  <defs>
    <clipPath id="a">
      <path fill="#fff" d="M0 0h1200v624H0z"/>
    </clipPath>
  </defs>
</svg>
