<svg xmlns="http://www.w3.org/2000/svg" width="1148" height="742" fill="none" viewBox="0 0 1148 742">
  <path fill="#fff" d="M236 334.1c0-2.9 0-4.34.58-5.44a5 5 0 0 1 2.08-2.08c1.1-.58 2.55-.58 5.44-.58h119.8c2.9 0 4.34 0 5.44.58a5 5 0 0 1 2.08 2.08c.58 1.1.58 2.54.58 5.44v18.8c0 2.9 0 4.34-.58 5.44a5 5 0 0 1-2.08 2.08c-1.1.58-2.54.58-5.44.58H244.1c-2.9 0-4.34 0-5.44-.58a5 5 0 0 1-2.08-2.08c-.58-1.1-.58-2.54-.58-5.44v-18.8Z"/>
  <path fill="#DADADA" fill-rule="evenodd" d="M363.9 327H244.1c-1.46 0-2.5 0-3.31.07-.8.07-1.28.2-1.66.4a4 4 0 0 0-1.66 1.66c-.2.38-.33.86-.4 1.66-.07.8-.07 1.85-.07 3.31v18.8c0 1.46 0 2.5.07 3.31.07.8.2 1.28.4 1.66a4 4 0 0 0 1.66 1.67c.38.2.86.32 1.66.4.8.06 1.85.06 3.31.06h119.8c1.46 0 2.5 0 3.31-.07.8-.07 1.28-.2 1.66-.4a4 4 0 0 0 1.67-1.66c.2-.38.32-.86.4-1.66.06-.8.06-1.85.06-3.31v-18.8c0-1.46 0-2.5-.07-3.31-.07-.8-.2-1.28-.4-1.66a4 4 0 0 0-1.66-1.67c-.38-.2-.86-.32-1.66-.4-.8-.06-1.85-.06-3.31-.06Zm-127.32 1.66c-.58 1.1-.58 2.54-.58 5.44v18.8c0 2.9 0 4.34.58 5.44a5 5 0 0 0 2.08 2.08c1.1.58 2.55.58 5.44.58h119.8c2.9 0 4.34 0 5.44-.58a5 5 0 0 0 2.08-2.08c.58-1.1.58-2.54.58-5.44v-18.8c0-2.9 0-4.34-.58-5.44a5 5 0 0 0-2.08-2.08c-1.1-.58-2.54-.58-5.44-.58H244.1c-2.9 0-4.34 0-5.44.58a5 5 0 0 0-2.08 2.08Z" clip-rule="evenodd"/>
  <path fill="#1A8FE6" d="M84 334.1c0-2.9 0-4.34.58-5.44a5 5 0 0 1 2.08-2.08c1.1-.58 2.55-.58 5.44-.58h119.8c2.9 0 4.34 0 5.44.58a5 5 0 0 1 2.08 2.08c.58 1.1.58 2.54.58 5.44v18.8c0 2.9 0 4.34-.58 5.44a5 5 0 0 1-2.08 2.08c-1.1.58-2.55.58-5.44.58H92.1c-2.9 0-4.34 0-5.44-.58a5 5 0 0 1-2.08-2.08c-.58-1.1-.58-2.54-.58-5.44v-18.8Z"/>
  <path fill="#C6C8CB" fill-rule="evenodd" d="M1062 160a2 2 0 1 1 0-4 2 2 0 0 1 0 4Zm-7 0a2 2 0 1 1 0-4 2 2 0 0 1 0 4Zm-7 0a2 2 0 1 1 0-4 2 2 0 0 1 0 4Z" clip-rule="evenodd"/>
  <path fill="#6C8" fill-rule="evenodd" d="M1003 148a10 10 0 1 1 0 20 10 10 0 0 1 0-20Z" clip-rule="evenodd" opacity=".85"/>
  <path fill="#000" d="M84.96 163h1.21v-7.79h.04l5.43 7.79h1.2v-9.86h-1.22v7.78h-.04l-5.43-7.78h-1.2V163Zm12.67.14c1.55 0 2.71-.93 2.94-2.1l.02-.08h-1.17l-.02.06c-.2.61-.84 1.06-1.75 1.06-1.26 0-2.07-.85-2.1-2.31h5.13v-.44c0-2.13-1.19-3.58-3.13-3.58s-3.2 1.51-3.2 3.72c0 2.24 1.23 3.67 3.28 3.67Zm-.08-6.33c1.03 0 1.8.65 1.92 2.03h-3.9c.14-1.33.94-2.03 1.98-2.03Zm5.88 6.19h1.2l1.6-5.5h.03l1.61 5.5h1.21l1.98-7.1h-1.17l-1.42 5.77h-.03l-1.61-5.78h-1.15l-1.61 5.78h-.03l-1.42-5.78h-1.18l1.99 7.11Z"/>
  <path fill="#6F757C" d="M492.96 163h1.21v-7.79h.04l5.43 7.79h1.2v-9.86h-1.22v7.78h-.04l-5.43-7.78h-1.2V163Zm12.55.14c1.96 0 3.29-1.42 3.29-3.7 0-2.28-1.34-3.69-3.3-3.69-1.96 0-3.29 1.42-3.29 3.68v.01c0 2.27 1.32 3.7 3.3 3.7Zm0-1.06c-1.25 0-2.08-.96-2.08-2.64 0-1.67.83-2.63 2.07-2.63 1.26 0 2.08.95 2.08 2.62v.01c0 1.67-.81 2.64-2.06 2.64Zm10.03 1.06a2.5 2.5 0 0 0 2.26-1.34h.03v1.2h1.19v-9.86h-1.2v3.94h-.02a2.52 2.52 0 0 0-2.28-1.33c-1.78 0-3 1.45-3 3.69 0 2.25 1.2 3.7 3.02 3.7Zm.24-1.06c-1.26 0-2.04-1-2.04-2.64 0-1.62.78-2.63 2.03-2.63 1.2 0 2.06 1.04 2.06 2.63 0 1.6-.85 2.64-2.06 2.64Zm6.92 1.06c.95 0 1.8-.52 2.22-1.3h.03V163h1.19v-4.91c0-1.43-1.05-2.34-2.74-2.34-1.67 0-2.69.95-2.8 2.12v.07h1.15l.01-.06c.14-.64.72-1.07 1.63-1.07 1 0 1.56.52 1.56 1.4v.59l-2.04.11c-1.63.1-2.57.86-2.57 2.07v.01c0 1.3.94 2.15 2.36 2.15Zm-1.15-2.15v-.01c0-.67.55-1.09 1.5-1.14l1.9-.12v.58c0 1.03-.86 1.8-1.98 1.8-.86 0-1.42-.43-1.42-1.11Zm8.41 2.15c.23 0 .49-.03.64-.05v-.97c-.1.01-.24.03-.39.03-.63 0-.97-.21-.97-.97v-4.3h1.36v-.99h-1.36v-1.92h-1.23v1.92h-1.04v.99h1.04v4.3c0 1.37.64 1.96 1.95 1.96Zm4.63 0c1.56 0 2.72-.93 2.95-2.1l.01-.08h-1.16l-.02.06c-.21.61-.85 1.06-1.75 1.06-1.26 0-2.07-.85-2.1-2.31h5.12v-.44c0-2.13-1.18-3.58-3.12-3.58-1.94 0-3.2 1.51-3.2 3.72 0 2.24 1.23 3.67 3.27 3.67Zm-.08-6.33c1.04 0 1.8.65 1.92 2.03h-3.89c.13-1.33.94-2.03 1.97-2.03Zm9.29 6.33c.95 0 1.8-.52 2.22-1.3h.02V163h1.2v-4.91c0-1.43-1.06-2.34-2.74-2.34-1.67 0-2.7.95-2.8 2.12v.07h1.15v-.06c.15-.64.72-1.07 1.64-1.07.99 0 1.55.52 1.55 1.4v.59l-2.03.11c-1.64.1-2.58.86-2.58 2.07v.01c0 1.3.95 2.15 2.37 2.15Zm-1.15-2.15v-.01c0-.67.54-1.09 1.5-1.14l1.9-.12v.58c0 1.03-.87 1.8-1.99 1.8-.85 0-1.41-.43-1.41-1.11Zm6.1 2.01h1.18v-4.18c0-1.21.74-2.01 1.86-2.01 1.1 0 1.63.63 1.63 1.79v4.4h1.19v-4.61c0-1.62-.9-2.64-2.46-2.64-1.08 0-1.8.49-2.19 1.15h-.03v-1h-1.18v7.1Zm10.05.14a2.5 2.5 0 0 0 2.26-1.34h.02v1.2h1.2v-9.86h-1.2v3.94h-.02a2.52 2.52 0 0 0-2.28-1.33c-1.78 0-3 1.45-3 3.69 0 2.25 1.2 3.7 3.02 3.7Zm.23-1.06c-1.25 0-2.03-1-2.03-2.64 0-1.62.77-2.63 2.03-2.63 1.2 0 2.06 1.04 2.06 2.63 0 1.6-.85 2.64-2.06 2.64Zm10.03 1.06c.23 0 .49-.03.64-.05v-.97c-.1.01-.24.03-.39.03-.63 0-.97-.21-.97-.97v-4.3h1.36v-.99h-1.36v-1.92h-1.23v1.92h-1.04v.99h1.04v4.3c0 1.37.65 1.96 1.95 1.96Zm2.59-8.45c.41 0 .74-.34.74-.75a.74.74 0 0 0-.74-.74.75.75 0 0 0 0 1.5Zm-.6 8.31h1.19v-7.1h-1.19v7.1Zm2.81 0h1.19v-4.46c0-.99.68-1.73 1.63-1.73.88 0 1.45.56 1.45 1.43V163h1.2v-4.52c0-.97.65-1.67 1.6-1.67.94 0 1.48.58 1.48 1.56V163h1.19v-4.9c0-1.42-.91-2.35-2.32-2.35-1 0-1.83.52-2.23 1.37h-.03a2 2 0 0 0-2-1.37c-.91 0-1.62.48-1.94 1.18h-.03v-1.04h-1.19V163Zm14.18.14c1.55 0 2.71-.93 2.94-2.1l.02-.08h-1.17l-.02.06c-.2.61-.84 1.06-1.74 1.06-1.27 0-2.08-.85-2.1-2.31h5.12v-.44c0-2.13-1.19-3.58-3.13-3.58s-3.2 1.51-3.2 3.72c0 2.24 1.23 3.67 3.28 3.67Zm-.08-6.33c1.03 0 1.8.65 1.92 2.03h-3.9c.14-1.33.94-2.03 1.98-2.03Z"/>
  <path stroke="#000" stroke-opacity=".08" d="M84 181.5h980"/>
  <path fill="#C6C8CB" fill-rule="evenodd" d="M1062 208a2 2 0 1 1 0-4 2 2 0 0 1 0 4Zm-7 0a2 2 0 1 1 0-4 2 2 0 0 1 0 4Zm-7 0a2 2 0 1 1 0-4 2 2 0 0 1 0 4Z" clip-rule="evenodd"/>
  <path fill="#6F757C" fill-rule="evenodd" d="M1003 196a10 10 0 1 1 0 20 10 10 0 0 1 0-20Z" clip-rule="evenodd" opacity=".85"/>
  <path fill="#000" d="M84.96 211h1.23v-9.86h-1.23V211Zm3.1 0h1.19v-4.18c0-1.21.73-2.01 1.85-2.01 1.1 0 1.63.63 1.63 1.79v4.4h1.2v-4.61c0-1.62-.91-2.64-2.47-2.64-1.08 0-1.8.49-2.19 1.15h-.02v-1h-1.2v7.1Zm9.52 0h1.22l2.61-7.1h-1.24l-1.97 5.84h-.02l-1.96-5.85h-1.26l2.62 7.11Zm5.58-8.31c.41 0 .74-.34.74-.75a.74.74 0 0 0-.74-.74.75.75 0 0 0 0 1.5Zm-.6 8.31h1.2v-7.1h-1.2v7.1Zm5.26.14c.24 0 .49-.03.64-.05v-.97c-.1.01-.24.03-.38.03-.64 0-.97-.21-.97-.97v-4.3h1.35v-.99h-1.35v-1.92h-1.24v1.92h-1.04v.99h1.04v4.3c0 1.37.65 1.96 1.95 1.96Zm4 0c.95 0 1.8-.52 2.22-1.3h.03V211h1.19v-4.91c0-1.43-1.06-2.34-2.74-2.34-1.67 0-2.7.95-2.8 2.12v.07h1.15l.01-.06c.14-.64.71-1.07 1.63-1.07.99 0 1.56.52 1.56 1.4v.59l-2.04.11c-1.63.1-2.58.86-2.58 2.07v.01c0 1.3.95 2.15 2.37 2.15Zm-1.15-2.15v-.01c0-.67.55-1.09 1.5-1.14l1.9-.12v.58c0 1.03-.86 1.8-1.98 1.8-.86 0-1.42-.43-1.42-1.11Zm8.55 2.15c.23 0 .48-.03.63-.05v-.97c-.1.01-.24.03-.38.03-.64 0-.97-.21-.97-.97v-4.3h1.35v-.99h-1.35v-1.92h-1.23v1.92h-1.04v.99h1.04v4.3c0 1.37.64 1.96 1.95 1.96Zm2.72-8.45c.42 0 .75-.34.75-.75a.74.74 0 0 0-.75-.74.75.75 0 0 0 0 1.5Zm-.6 8.31h1.2v-7.1h-1.2v7.1Zm5.9.14c1.97 0 3.3-1.42 3.3-3.7 0-2.28-1.34-3.69-3.3-3.69-1.97 0-3.3 1.42-3.3 3.68v.01c0 2.27 1.33 3.7 3.3 3.7Zm.01-1.06c-1.26 0-2.08-.96-2.08-2.64 0-1.67.83-2.63 2.07-2.63 1.25 0 2.07.95 2.07 2.62v.01c0 1.67-.8 2.64-2.06 2.64Zm4.62.92h1.2v-4.18c0-1.21.72-2.01 1.85-2.01 1.09 0 1.63.63 1.63 1.79v4.4h1.19v-4.61c0-1.62-.9-2.64-2.46-2.64-1.08 0-1.8.49-2.19 1.15h-.03v-1h-1.19v7.1Z"/>
  <path fill="#6F757C" d="M492.96 211h1.21v-7.79h.04l5.43 7.79h1.2v-9.86h-1.22v7.78h-.04l-5.43-7.78h-1.2V211Zm12.55.14c1.96 0 3.29-1.42 3.29-3.7 0-2.28-1.34-3.69-3.3-3.69-1.96 0-3.29 1.42-3.29 3.68v.01c0 2.27 1.32 3.7 3.3 3.7Zm0-1.06c-1.25 0-2.08-.96-2.08-2.64 0-1.67.83-2.63 2.07-2.63 1.26 0 2.08.95 2.08 2.62v.01c0 1.67-.81 2.64-2.06 2.64Zm10.03 1.06a2.5 2.5 0 0 0 2.26-1.34h.03v1.2h1.19v-9.86h-1.2v3.94h-.02a2.52 2.52 0 0 0-2.28-1.33c-1.78 0-3 1.45-3 3.69 0 2.25 1.2 3.7 3.02 3.7Zm.24-1.06c-1.26 0-2.04-1-2.04-2.64 0-1.62.78-2.63 2.03-2.63 1.2 0 2.06 1.04 2.06 2.63 0 1.6-.85 2.64-2.06 2.64Zm6.92 1.06c.95 0 1.8-.52 2.22-1.3h.03V211h1.19v-4.91c0-1.43-1.05-2.34-2.74-2.34-1.67 0-2.69.95-2.8 2.12v.07h1.15l.01-.06c.14-.64.72-1.07 1.63-1.07 1 0 1.56.52 1.56 1.4v.59l-2.04.11c-1.63.1-2.57.86-2.57 2.07v.01c0 1.3.94 2.15 2.36 2.15Zm-1.15-2.15v-.01c0-.67.55-1.09 1.5-1.14l1.9-.12v.58c0 1.03-.86 1.8-1.98 1.8-.86 0-1.42-.43-1.42-1.11Zm8.41 2.15c.23 0 .49-.03.64-.05v-.97c-.1.01-.24.03-.39.03-.63 0-.97-.21-.97-.97v-4.3h1.36v-.99h-1.36v-1.92h-1.23v1.92h-1.04v.99h1.04v4.3c0 1.37.64 1.96 1.95 1.96Zm4.63 0c1.56 0 2.72-.93 2.95-2.1l.01-.08h-1.16l-.02.06c-.21.61-.85 1.06-1.75 1.06-1.26 0-2.07-.85-2.1-2.31h5.12v-.44c0-2.13-1.18-3.58-3.12-3.58-1.94 0-3.2 1.51-3.2 3.72 0 2.24 1.23 3.67 3.27 3.67Zm-.08-6.33c1.04 0 1.8.65 1.92 2.03h-3.89c.13-1.33.94-2.03 1.97-2.03Zm9.29 6.33c.95 0 1.8-.52 2.22-1.3h.02V211h1.2v-4.91c0-1.43-1.06-2.34-2.74-2.34-1.67 0-2.7.95-2.8 2.12v.07h1.15v-.06c.15-.64.72-1.07 1.64-1.07.99 0 1.55.52 1.55 1.4v.59l-2.03.11c-1.64.1-2.58.86-2.58 2.07v.01c0 1.3.95 2.15 2.37 2.15Zm-1.15-2.15v-.01c0-.67.54-1.09 1.5-1.14l1.9-.12v.58c0 1.03-.87 1.8-1.99 1.8-.85 0-1.41-.43-1.41-1.11Zm6.1 2.01h1.18v-4.18c0-1.21.74-2.01 1.86-2.01 1.1 0 1.63.63 1.63 1.79v4.4h1.19v-4.61c0-1.62-.9-2.64-2.46-2.64-1.08 0-1.8.49-2.19 1.15h-.03v-1h-1.18v7.1Zm10.05.14a2.5 2.5 0 0 0 2.26-1.34h.02v1.2h1.2v-9.86h-1.2v3.94h-.02a2.52 2.52 0 0 0-2.28-1.33c-1.78 0-3 1.45-3 3.69 0 2.25 1.2 3.7 3.02 3.7Zm.23-1.06c-1.25 0-2.03-1-2.03-2.64 0-1.62.77-2.63 2.03-2.63 1.2 0 2.06 1.04 2.06 2.63 0 1.6-.85 2.64-2.06 2.64Zm10.03 1.06c.23 0 .49-.03.64-.05v-.97c-.1.01-.24.03-.39.03-.63 0-.97-.21-.97-.97v-4.3h1.36v-.99h-1.36v-1.92h-1.23v1.92h-1.04v.99h1.04v4.3c0 1.37.65 1.96 1.95 1.96Zm2.59-8.45c.41 0 .74-.34.74-.75a.74.74 0 0 0-.74-.74.75.75 0 0 0 0 1.5Zm-.6 8.31h1.19v-7.1h-1.19v7.1Zm2.81 0h1.19v-4.46c0-.99.68-1.73 1.63-1.73.88 0 1.45.56 1.45 1.43V211h1.2v-4.52c0-.97.65-1.67 1.6-1.67.94 0 1.48.58 1.48 1.56V211h1.19v-4.9c0-1.42-.91-2.35-2.32-2.35-1 0-1.83.52-2.23 1.37h-.03a2 2 0 0 0-2-1.37c-.91 0-1.62.48-1.94 1.18h-.03v-1.04h-1.19V211Zm14.18.14c1.55 0 2.71-.93 2.94-2.1l.02-.08h-1.17l-.02.06c-.2.61-.84 1.06-1.74 1.06-1.27 0-2.08-.85-2.1-2.31h5.12v-.44c0-2.13-1.19-3.58-3.13-3.58s-3.2 1.51-3.2 3.72c0 2.24 1.23 3.67 3.28 3.67Zm-.08-6.33c1.03 0 1.8.65 1.92 2.03h-3.9c.14-1.33.94-2.03 1.98-2.03Z"/>
  <path stroke="#000" stroke-opacity=".08" d="M84 229.5h980"/>
  <path fill="#C6C8CB" fill-rule="evenodd" d="M1062 256a2 2 0 1 1 0-4 2 2 0 0 1 0 4Zm-7 0a2 2 0 1 1 0-4 2 2 0 0 1 0 4Zm-7 0a2 2 0 1 1 0-4 2 2 0 0 1 0 4Z" clip-rule="evenodd"/>
  <path fill="#6F757C" fill-rule="evenodd" d="M1003 244a10 10 0 1 1 0 20 10 10 0 0 1 0-20Z" clip-rule="evenodd" opacity=".85"/>
  <path fill="#000" d="M89.08 259.16c2.06 0 3.64-1.22 4.02-3.1l.01-.07h-1.24l-.02.06a2.7 2.7 0 0 1-2.77 1.98c-1.96 0-3.24-1.57-3.24-3.97 0-2.4 1.27-3.95 3.24-3.95 1.39 0 2.36.7 2.74 1.89l.05.15h1.24l-.01-.07c-.38-1.86-1.97-3.1-4.02-3.1-2.75 0-4.5 1.97-4.5 5.08 0 3.1 1.76 5.1 4.5 5.1Zm7.52-.02c.95 0 1.8-.52 2.22-1.3h.03V259h1.19v-4.91c0-1.43-1.05-2.34-2.73-2.34s-2.7.95-2.8 2.12v.07h1.14l.02-.06c.13-.64.7-1.07 1.62-1.07 1 0 1.56.52 1.56 1.4v.59l-2.04.11c-1.63.1-2.57.86-2.57 2.07v.01c0 1.3.95 2.15 2.36 2.15Zm-1.15-2.15v-.01c0-.67.55-1.09 1.5-1.15l1.9-.11v.58c0 1.03-.86 1.8-1.98 1.8-.86 0-1.42-.43-1.42-1.11Zm6.3 2.01h1.2v-9.86h-1.2V259Zm3 0h1.19v-9.86h-1.19V259Zm3.6-8.31c.42 0 .75-.34.75-.75a.74.74 0 0 0-.74-.74.75.75 0 0 0 0 1.5Zm-.59 8.31h1.2v-7.1h-1.2v7.1Zm2.95 0h1.19v-4.18c0-1.21.73-2.01 1.85-2.01 1.1 0 1.64.63 1.64 1.79v4.4h1.19v-4.61c0-1.62-.9-2.64-2.47-2.64-1.08 0-1.8.49-2.18 1.15h-.03v-1h-1.19v7.1Zm10.53 2.53c1.93 0 3.14-1.08 3.14-2.73v-6.9h-1.19v1.2h-.03a2.51 2.51 0 0 0-2.23-1.35c-1.8 0-3.05 1.44-3.05 3.65 0 2.23 1.23 3.67 3.02 3.67a2.5 2.5 0 0 0 2.26-1.3h.03v.92c0 1.1-.71 1.79-1.96 1.79-.97 0-1.65-.32-1.88-.83l-.02-.06h-1.2l.02.06c.23 1.05 1.33 1.88 3.1 1.88Zm-.08-3.51c-1.27 0-2.06-1-2.06-2.62 0-1.58.8-2.6 2.06-2.6 1.2 0 2.03 1.03 2.03 2.6 0 1.58-.82 2.62-2.03 2.62Z"/>
  <path fill="#6F757C" d="M492.96 259h1.21v-7.79h.04l5.43 7.79h1.2v-9.86h-1.22v7.78h-.04l-5.43-7.78h-1.2V259Zm12.55.14c1.96 0 3.29-1.43 3.29-3.7 0-2.28-1.34-3.69-3.3-3.69-1.96 0-3.29 1.42-3.29 3.68v.01c0 2.27 1.32 3.7 3.3 3.7Zm0-1.06c-1.25 0-2.08-.96-2.08-2.63v-.02c0-1.66.83-2.62 2.07-2.62 1.26 0 2.08.95 2.08 2.62v.01c0 1.67-.81 2.64-2.06 2.64Zm10.03 1.06a2.5 2.5 0 0 0 2.26-1.34h.03v1.2h1.19v-9.86h-1.2v3.94h-.02a2.52 2.52 0 0 0-2.28-1.33c-1.78 0-3 1.45-3 3.69 0 2.25 1.2 3.7 3.02 3.7Zm.24-1.06c-1.26 0-2.04-1-2.04-2.63v-.01c0-1.62.78-2.63 2.03-2.63 1.2 0 2.06 1.04 2.06 2.63 0 1.6-.85 2.64-2.06 2.64Zm6.92 1.06c.95 0 1.8-.52 2.22-1.3h.03V259h1.19v-4.91c0-1.43-1.05-2.34-2.74-2.34-1.67 0-2.69.95-2.8 2.12v.07h1.15l.01-.06c.14-.64.72-1.07 1.63-1.07 1 0 1.56.52 1.56 1.4v.59l-2.04.11c-1.63.1-2.57.86-2.57 2.07v.01c0 1.3.94 2.15 2.36 2.15Zm-1.15-2.15v-.01c0-.67.55-1.09 1.5-1.15l1.9-.11v.58c0 1.03-.86 1.8-1.98 1.8-.86 0-1.42-.43-1.42-1.11Zm8.41 2.15c.23 0 .49-.03.64-.05v-.96l-.39.02c-.63 0-.97-.21-.97-.97v-4.3h1.36v-.99h-1.36v-1.92h-1.23v1.92h-1.04v.99h1.04v4.3c0 1.37.64 1.96 1.95 1.96Zm4.63 0c1.56 0 2.72-.93 2.95-2.1l.01-.08h-1.16l-.02.06c-.21.61-.85 1.06-1.75 1.06-1.26 0-2.07-.85-2.1-2.31h5.12v-.44c0-2.13-1.18-3.58-3.12-3.58-1.94 0-3.2 1.51-3.2 3.72 0 2.24 1.23 3.67 3.27 3.67Zm-.08-6.33c1.04 0 1.8.65 1.92 2.03h-3.89c.13-1.33.94-2.03 1.97-2.03Zm9.29 6.33c.95 0 1.8-.52 2.22-1.3h.02V259h1.2v-4.91c0-1.43-1.06-2.34-2.74-2.34-1.67 0-2.7.95-2.8 2.12v.07h1.15v-.06c.15-.64.72-1.07 1.64-1.07.99 0 1.55.52 1.55 1.4v.59l-2.03.11c-1.64.1-2.58.86-2.58 2.07v.01c0 1.3.95 2.15 2.37 2.15Zm-1.15-2.15v-.01c0-.67.54-1.09 1.5-1.15l1.9-.11v.58c0 1.03-.87 1.8-1.99 1.8-.85 0-1.41-.43-1.41-1.11Zm6.1 2.01h1.18v-4.18c0-1.21.74-2.01 1.86-2.01 1.1 0 1.63.63 1.63 1.79v4.4h1.19v-4.61c0-1.62-.9-2.64-2.46-2.64-1.08 0-1.8.49-2.19 1.15h-.03v-1h-1.18v7.1Zm10.05.14a2.5 2.5 0 0 0 2.26-1.34h.02v1.2h1.2v-9.86h-1.2v3.94h-.02a2.52 2.52 0 0 0-2.28-1.33c-1.78 0-3 1.45-3 3.69 0 2.25 1.2 3.7 3.02 3.7Zm.23-1.06c-1.25 0-2.03-1-2.03-2.63v-.01c0-1.62.77-2.63 2.03-2.63 1.2 0 2.06 1.04 2.06 2.63 0 1.6-.85 2.64-2.06 2.64Zm10.03 1.06c.23 0 .49-.03.64-.05v-.96l-.39.02c-.63 0-.97-.21-.97-.97v-4.3h1.36v-.99h-1.36v-1.92h-1.23v1.92h-1.04v.99h1.04v4.3c0 1.37.65 1.96 1.95 1.96Zm2.59-8.45c.41 0 .74-.34.74-.75a.74.74 0 0 0-.74-.74.75.75 0 0 0 0 1.5Zm-.6 8.31h1.19v-7.1h-1.19v7.1Zm2.81 0h1.19v-4.46c0-.99.68-1.73 1.63-1.73.88 0 1.45.56 1.45 1.43V259h1.2v-4.52c0-.97.65-1.67 1.6-1.67.94 0 1.48.58 1.48 1.56V259h1.19v-4.9c0-1.42-.91-2.35-2.32-2.35-1 0-1.83.52-2.23 1.37h-.03a2 2 0 0 0-2-1.37c-.91 0-1.62.48-1.94 1.18h-.03v-1.04h-1.19V259Zm14.18.14c1.55 0 2.71-.93 2.94-2.1l.02-.08h-1.17l-.02.06c-.2.61-.84 1.06-1.74 1.06-1.27 0-2.08-.85-2.1-2.31h5.12v-.44c0-2.13-1.19-3.58-3.13-3.58s-3.2 1.51-3.2 3.72c0 2.24 1.23 3.67 3.28 3.67Zm-.08-6.33c1.03 0 1.8.65 1.92 2.03h-3.9c.14-1.33.94-2.03 1.98-2.03Z"/>
  <path stroke="#000" stroke-opacity=".08" d="M84 277.5h980"/>
  <path fill="#C6C8CB" fill-rule="evenodd" d="M1062 304a2 2 0 1 1 0-4 2 2 0 0 1 0 4Zm-7 0a2 2 0 1 1 0-4 2 2 0 0 1 0 4Zm-7 0a2 2 0 1 1 0-4 2 2 0 0 1 0 4Z" clip-rule="evenodd"/>
  <path fill="#fff" fill-rule="evenodd" d="M1003 292a10 10 0 1 1 0 20 10 10 0 0 1 0-20Z" clip-rule="evenodd" opacity=".85"/>
  <path fill="#C4C4C4" d="M84.96 307h6.1v-1.1H86.2v-3.4h4.63v-1.1H86.2v-3.16h4.88v-1.1h-6.11V307Zm7.83 0h1.19v-4.18c0-1.21.73-2.01 1.85-2.01 1.1 0 1.64.63 1.64 1.79v4.4h1.19v-4.61c0-1.62-.9-2.64-2.47-2.64-1.08 0-1.8.49-2.18 1.15h-.03v-1h-1.19v7.1Zm9.97.14c.24 0 .49-.03.64-.05v-.96l-.38.02c-.64 0-.97-.21-.97-.97v-4.3h1.35v-.99h-1.35v-1.92h-1.23v1.92h-1.04v.99h1.04v4.3c0 1.37.64 1.96 1.94 1.96Zm4.92 0c1.55 0 2.71-.93 2.94-2.1l.02-.08h-1.17l-.02.06c-.2.61-.84 1.06-1.74 1.06-1.27 0-2.07-.85-2.1-2.31h5.12v-.44c0-2.13-1.19-3.58-3.13-3.58s-3.2 1.51-3.2 3.72c0 2.24 1.23 3.67 3.28 3.67Zm-.08-6.33c1.04 0 1.8.65 1.92 2.03h-3.9c.14-1.33.94-2.03 1.98-2.03Zm4.61 6.19h1.19v-4.39c0-1.08.6-1.72 1.52-1.72.3 0 .55.03.64.07v-1.16c-.1-.01-.27-.05-.48-.05-.8 0-1.41.52-1.65 1.34h-.03v-1.2h-1.19V307Zm10.28.14c1.58 0 2.76-.88 2.76-2.12 0-1.02-.52-1.59-1.96-1.94l-1.13-.27c-.78-.2-1.1-.53-1.1-1.01 0-.64.53-1.06 1.4-1.06.87 0 1.4.46 1.5 1.15v.05h1.14l-.01-.09c-.09-1.19-1.08-2.1-2.64-2.1-1.54 0-2.61.87-2.61 2.1 0 1.03.65 1.65 1.99 1.97l1.13.28c.8.2 1.07.48 1.07 1 0 .64-.58 1.05-1.54 1.05-.97 0-1.5-.42-1.64-1.13l-.01-.07h-1.2l.02.06c.14 1.27 1.15 2.13 2.83 2.13Zm6.58 0c.24 0 .49-.03.64-.05v-.96l-.38.02c-.64 0-.97-.21-.97-.97v-4.3h1.35v-.99h-1.35v-1.92h-1.23v1.92h-1.04v.99h1.04v4.3c0 1.37.64 1.96 1.94 1.96Zm4.14 0c.95 0 1.8-.52 2.22-1.3h.03V307h1.19v-4.92c0-1.42-1.06-2.33-2.74-2.33-1.67 0-2.69.95-2.8 2.12v.07h1.15l.01-.06c.14-.64.71-1.07 1.63-1.07 1 0 1.56.52 1.56 1.4v.59l-2.04.11c-1.63.1-2.58.86-2.58 2.07v.01c0 1.3.95 2.15 2.37 2.15Zm-1.15-2.15v-.01c0-.67.55-1.09 1.5-1.15l1.9-.11v.58c0 1.03-.86 1.8-1.98 1.8-.86 0-1.42-.43-1.42-1.11Zm8.69 2.15c.23 0 .49-.03.63-.05v-.96l-.38.02c-.63 0-.97-.21-.97-.97v-4.3h1.35v-.99h-1.35v-1.92h-1.23v1.92h-1.04v.99h1.04v4.3c0 1.37.64 1.96 1.95 1.96Zm4.62 0c1.08 0 1.8-.49 2.19-1.15h.03V307h1.19v-7.1h-1.2v4.17c0 1.21-.73 2.01-1.85 2.01-1.1 0-1.63-.63-1.63-1.79v-4.4h-1.2v4.62c0 1.62.91 2.63 2.47 2.63Zm7.76 0c1.59 0 2.76-.88 2.76-2.12 0-1.02-.52-1.59-1.95-1.94l-1.13-.27c-.79-.2-1.11-.53-1.11-1.01 0-.64.53-1.06 1.4-1.06.88 0 1.4.46 1.5 1.15v.05h1.14v-.09c-.1-1.19-1.09-2.1-2.65-2.1-1.53 0-2.6.87-2.6 2.1 0 1.03.64 1.65 1.98 1.97l1.13.28c.8.2 1.07.48 1.07 1 0 .64-.57 1.05-1.53 1.05-.97 0-1.5-.42-1.64-1.13l-.02-.07h-1.19v.06c.15 1.27 1.16 2.13 2.84 2.13Zm7.43-.14h1.19v-4.18c0-1.21.73-2.01 1.85-2.01 1.1 0 1.64.63 1.64 1.79v4.4h1.18v-4.61c0-1.62-.9-2.64-2.46-2.64-1.08 0-1.8.49-2.18 1.15h-.03v-1h-1.2v7.1Zm9.74.14c.95 0 1.8-.52 2.22-1.3h.03V307h1.19v-4.92c0-1.42-1.05-2.33-2.74-2.33-1.67 0-2.69.95-2.8 2.12v.07h1.15l.01-.06c.14-.64.71-1.07 1.63-1.07 1 0 1.56.52 1.56 1.4v.59l-2.04.11c-1.63.1-2.57.86-2.57 2.07v.01c0 1.3.94 2.15 2.36 2.15Zm-1.15-2.15v-.01c0-.67.55-1.09 1.5-1.15l1.9-.11v.58c0 1.03-.86 1.8-1.98 1.8-.86 0-1.42-.43-1.42-1.11Zm6.38 2.01h1.19v-4.46c0-.99.68-1.73 1.63-1.73.88 0 1.45.56 1.45 1.43V307h1.2v-4.52c0-.97.65-1.67 1.6-1.67.93 0 1.47.58 1.47 1.56V307h1.2v-4.9c0-1.42-.92-2.35-2.32-2.35-1 0-1.84.52-2.23 1.37h-.03a2 2 0 0 0-2-1.37c-.91 0-1.62.48-1.94 1.18h-.03v-1.04h-1.2V307Zm14.46.14c1.55 0 2.71-.93 2.94-2.1l.02-.08h-1.17l-.02.06c-.2.61-.84 1.06-1.75 1.06-1.26 0-2.07-.85-2.1-2.31h5.13v-.44c0-2.13-1.19-3.58-3.13-3.58s-3.2 1.51-3.2 3.72c0 2.24 1.23 3.67 3.28 3.67Zm-.09-6.33c1.04 0 1.8.65 1.93 2.03h-3.9c.14-1.33.94-2.03 1.97-2.03Zm5.35 6.29c.44 0 .78-.35.78-.78a.77.77 0 0 0-.78-.78.77.77 0 0 0-.78.78c0 .43.34.78.78.78Zm3.29 0c.44 0 .78-.35.78-.78a.77.77 0 0 0-.78-.78.77.77 0 0 0-.78.78c0 .43.34.78.78.78Zm3.29 0c.43 0 .77-.35.77-.78a.77.77 0 0 0-.77-.78.77.77 0 0 0-.78.78c0 .43.34.78.78.78Z"/>
  <path fill="#fff" d="M140.42 348.67c2.5 0 3.98-1.2 3.98-3.1 0-1.55-.93-2.4-3-2.8l-1.04-.22c-1.13-.22-1.64-.59-1.64-1.2v-.01c0-.7.64-1.2 1.7-1.2 1.02 0 1.73.47 1.83 1.24v.09h1.95v-.13c-.1-1.73-1.5-2.88-3.78-2.88-2.2 0-3.76 1.2-3.76 3 0 1.49.98 2.42 2.93 2.8l1.04.21c1.22.26 1.7.6 1.7 1.26 0 .76-.71 1.26-1.85 1.26-1.13 0-1.94-.48-2.07-1.25l-.02-.07h-1.95l.01.1c.12 1.83 1.63 2.9 3.97 2.9Zm7.4-.05a2.4 2.4 0 0 0 2.16-1.21h.04v1.09h2v-5.02c0-1.48-1.23-2.46-3.12-2.46-1.94 0-3.1.97-3.21 2.33v.08h1.82l.01-.06c.1-.48.55-.82 1.3-.82.77 0 1.2.4 1.2 1.05v.45l-1.81.1c-1.82.13-2.86.9-2.86 2.24v.01c0 1.3 1 2.22 2.47 2.22Zm-.49-2.32v-.01c0-.52.4-.85 1.18-.9l1.5-.1v.53c0 .77-.65 1.34-1.54 1.34-.7 0-1.14-.32-1.14-.86Zm8 2.2h2.26l2.51-7.33h-2.08l-1.51 5.57h-.04l-1.53-5.57h-2.14l2.54 7.33Zm8.69.15c2.09 0 3.1-1.24 3.33-2.32l.02-.07h-1.84v.04c-.15.4-.65.86-1.47.86-1.02 0-1.66-.68-1.68-1.85h5.05v-.62c0-2.21-1.35-3.67-3.5-3.67-2.14 0-3.52 1.5-3.52 3.82v.01c0 2.34 1.36 3.8 3.6 3.8Zm-.05-6.14c.83 0 1.42.53 1.54 1.54h-3.1c.12-1 .74-1.54 1.56-1.54Z"/>
  <path fill="#474747" d="M286.2 348.67c2.4 0 4.12-1.5 4.32-3.6V345h-2l-.02.07c-.27 1.17-1.1 1.85-2.3 1.85-1.57 0-2.58-1.28-2.58-3.36 0-2.07 1.01-3.35 2.59-3.35 1.23 0 2.04.72 2.27 1.8l.03.12h2v-.06c-.2-2.1-1.9-3.6-4.3-3.6-2.88 0-4.7 1.9-4.7 5.09 0 3.18 1.81 5.11 4.7 5.11Zm7.71-.05a2.4 2.4 0 0 0 2.16-1.21h.04v1.09h2v-5.02c0-1.48-1.23-2.46-3.12-2.46-1.94 0-3.1.97-3.2 2.33l-.01.08h1.82l.02-.06c.1-.48.54-.82 1.29-.82.78 0 1.2.4 1.2 1.05v.45l-1.81.1c-1.82.13-2.85.9-2.85 2.24v.01c0 1.3.99 2.22 2.46 2.22Zm-.49-2.32v-.01c0-.52.4-.85 1.18-.9l1.51-.1v.53c0 .77-.66 1.34-1.55 1.34-.7 0-1.14-.32-1.14-.86Zm6.12 2.2h2v-4.21c0-.96.56-1.61 1.46-1.61.9 0 1.34.54 1.34 1.5v4.32h2v-4.73c0-1.72-.91-2.75-2.53-2.75-1.1 0-1.86.51-2.23 1.36h-.04v-1.2h-2v7.32Zm11.56.15c1.95 0 3.21-1.22 3.31-2.82v-.04h-1.86v.06c-.14.74-.64 1.23-1.44 1.23-.99 0-1.6-.8-1.6-2.24v-.01c0-1.4.61-2.24 1.6-2.24.82 0 1.3.53 1.43 1.23l.01.06h1.85v-.05c-.07-1.58-1.34-2.8-3.33-2.8-2.19 0-3.6 1.45-3.6 3.8 0 2.36 1.39 3.82 3.63 3.82Zm7.75 0c2.1 0 3.1-1.24 3.33-2.32l.02-.07h-1.83l-.02.04c-.14.4-.64.86-1.46.86-1.02 0-1.65-.68-1.67-1.85h5.04v-.62c0-2.21-1.35-3.67-3.5-3.67-2.14 0-3.51 1.5-3.51 3.82v.01c0 2.34 1.36 3.8 3.6 3.8Zm-.05-6.14c.83 0 1.42.53 1.55 1.54h-3.11c.13-1 .74-1.54 1.56-1.54Zm4.68 5.99h2v-9.86h-2v9.86Z"/>
  <path fill="#6F757C" d="M492.9 307h3.49c2.94 0 4.67-1.83 4.67-4.95v-.01c0-3.1-1.75-4.9-4.67-4.9h-3.48V307Zm1.54-1.33v-7.22h1.8c2.08 0 3.25 1.28 3.25 3.6v.01c0 2.34-1.15 3.61-3.25 3.61h-1.8Zm10 1.46c.95 0 1.79-.5 2.2-1.26h.03V307h1.48v-4.96c0-1.44-1.11-2.37-2.87-2.37-1.77 0-2.84.95-2.94 2.19l-.01.07h1.4v-.06c.13-.57.66-.97 1.51-.97.92 0 1.43.47 1.43 1.27v.54l-1.96.11c-1.7.1-2.67.87-2.67 2.12v.02c0 1.29.97 2.17 2.4 2.17Zm-.9-2.2v-.02c0-.61.48-1 1.37-1.06l1.76-.1v.56c0 .93-.79 1.64-1.82 1.64-.8 0-1.32-.4-1.32-1.03Zm8.57 2.21c.3 0 .58-.03.75-.06v-1.14a3 3 0 0 1-.4.03c-.62 0-.94-.22-.94-.95v-4.04h1.34v-1.17h-1.34v-1.87H510v1.87h-1.04v1.17H510v4.13c0 1.43.68 2.03 2.1 2.03Zm4.87 0c1.74 0 2.85-1.04 3.08-2.18l.02-.07h-1.4l-.03.05c-.18.54-.76 1-1.64 1-1.17 0-1.92-.8-1.95-2.16h5.1v-.5c0-2.16-1.24-3.6-3.26-3.6-2.01 0-3.31 1.5-3.31 3.75 0 2.27 1.28 3.71 3.39 3.71Zm-.07-6.26c.96 0 1.66.61 1.78 1.85h-3.6c.13-1.2.86-1.85 1.82-1.85Zm9.35 6.25c.95 0 1.79-.5 2.2-1.26h.03V307h1.48v-4.96c0-1.44-1.11-2.37-2.87-2.37-1.77 0-2.84.95-2.94 2.19l-.01.07h1.4v-.06c.13-.57.66-.97 1.51-.97.92 0 1.43.47 1.43 1.27v.54l-1.96.11c-1.7.1-2.67.87-2.67 2.12v.02c0 1.29.97 2.17 2.4 2.17Zm-.9-2.2v-.02c0-.61.49-1 1.37-1.06l1.76-.1v.56c0 .93-.79 1.64-1.83 1.64-.79 0-1.3-.4-1.3-1.03Zm6.05 2.07h1.48v-4.19c0-1.12.67-1.87 1.7-1.87 1.03 0 1.54.6 1.54 1.69V307h1.48v-4.65c0-1.66-.91-2.68-2.49-2.68-1.09 0-1.82.5-2.2 1.23h-.03v-1.1h-1.48v7.2Zm10.32.14c1.03 0 1.82-.52 2.25-1.36h.03V307h1.48v-9.86h-1.48v3.9h-.03a2.46 2.46 0 0 0-2.27-1.37c-1.8 0-3 1.44-3 3.73 0 2.3 1.18 3.74 3.01 3.74Zm.38-1.27c-1.16 0-1.88-.93-1.88-2.47 0-1.52.72-2.46 1.88-2.46 1.11 0 1.9.97 1.9 2.46 0 1.5-.78 2.47-1.9 2.47Zm10.26 1.27c.3 0 .59-.03.76-.06v-1.14c-.11.01-.24.03-.4.03-.62 0-.95-.22-.95-.95v-4.04h1.35v-1.17h-1.35v-1.87h-1.51v1.87h-1.03v1.17h1.03v4.13c0 1.43.68 2.03 2.1 2.03Zm2.78-8.44a.85.85 0 1 0 0-1.7.86.86 0 0 0-.86.85c0 .47.38.85.86.85Zm-.74 8.3h1.48v-7.2h-1.48v7.2Zm3 0h1.48v-4.44c0-.93.62-1.62 1.5-1.62.83 0 1.36.53 1.36 1.36v4.7h1.45v-4.5c0-.9.6-1.56 1.48-1.56s1.37.54 1.37 1.47V307h1.49v-4.94c0-1.44-.93-2.39-2.35-2.39-1.03 0-1.88.54-2.25 1.42h-.03a1.97 1.97 0 0 0-2-1.42c-.95 0-1.68.5-1.99 1.25h-.03v-1.11h-1.48V307Zm14.63.14c1.74 0 2.85-1.04 3.08-2.18l.01-.07h-1.4l-.02.05c-.19.54-.77 1-1.64 1-1.18 0-1.92-.8-1.95-2.16h5.1v-.5c0-2.16-1.24-3.6-3.26-3.6-2.02 0-3.32 1.5-3.32 3.75 0 2.27 1.28 3.71 3.4 3.71Zm-.07-6.26c.96 0 1.66.61 1.78 1.85h-3.6c.12-1.2.86-1.85 1.82-1.85Z"/>
  <path stroke="#000" stroke-opacity=".08" d="M84 382.5h980"/>
  <path fill="#C6C8CB" fill-rule="evenodd" d="M1062 409a2 2 0 1 1 0-4 2 2 0 0 1 0 4Zm-7 0a2 2 0 1 1 0-4 2 2 0 0 1 0 4Zm-7 0a2 2 0 1 1 0-4 2 2 0 0 1 0 4Z" clip-rule="evenodd"/>
  <path fill="#FF6536" fill-rule="evenodd" d="M1003 397a10 10 0 1 1 0 20 10 10 0 0 1 0-20Z" clip-rule="evenodd" opacity=".85"/>
  <path fill="#000" d="M115.96 412h1.23v-9.86h-1.23V412Zm3.1 0h1.19v-4.18c0-1.21.73-2.01 1.85-2.01 1.1 0 1.63.63 1.63 1.79v4.4h1.2v-4.61c0-1.62-.91-2.64-2.47-2.64-1.08 0-1.8.49-2.19 1.15h-.02v-1h-1.2v7.1Zm9.83.14c.23 0 .49-.03.64-.05v-.96l-.39.02c-.63 0-.97-.21-.97-.97v-4.3h1.36v-.99h-1.36v-1.92h-1.23v1.92h-1.04v.99h1.04v4.3c0 1.37.64 1.96 1.95 1.96Zm4.78 0c1.55 0 2.7-.93 2.94-2.1l.01-.08h-1.16l-.02.06c-.2.61-.84 1.06-1.75 1.06-1.26 0-2.07-.85-2.1-2.31h5.12v-.44c0-2.13-1.18-3.58-3.12-3.58-1.94 0-3.2 1.51-3.2 3.72 0 2.24 1.23 3.67 3.28 3.67Zm-.09-6.33c1.04 0 1.8.65 1.92 2.03h-3.89c.13-1.33.94-2.03 1.97-2.03Zm4.48 6.19h1.19v-4.39c0-1.08.6-1.72 1.52-1.72.29 0 .54.03.64.07v-1.16c-.1-.01-.28-.05-.48-.05-.8 0-1.42.52-1.66 1.34h-.02v-1.2h-1.2V412Zm6.66 0h1.22l2.61-7.1h-1.23l-1.97 5.84h-.03l-1.96-5.85h-1.25l2.61 7.11Zm5.58-8.31c.42 0 .74-.34.74-.75a.74.74 0 0 0-.74-.74.75.75 0 0 0 0 1.5Zm-.6 8.31h1.2v-7.1h-1.2v7.1Zm5.88.14c1.55 0 2.71-.93 2.95-2.1l.01-.08h-1.17l-.02.06c-.2.61-.84 1.06-1.74 1.06-1.27 0-2.07-.85-2.1-2.31h5.12v-.44c0-2.13-1.18-3.58-3.13-3.58-1.94 0-3.2 1.51-3.2 3.72 0 2.24 1.24 3.67 3.28 3.67Zm-.08-6.33c1.04 0 1.8.65 1.92 2.03h-3.89c.13-1.33.94-2.03 1.97-2.03Zm5.88 6.19h1.21l1.6-5.5h.03l1.6 5.5h1.21l1.99-7.1h-1.18l-1.42 5.77h-.03l-1.61-5.78h-1.15l-1.6 5.78H162l-1.43-5.78h-1.18l2 7.11Zm14.08.14c.23 0 .48-.03.63-.05v-.96l-.38.02c-.64 0-.97-.21-.97-.97v-4.3h1.35v-.99h-1.35v-1.92h-1.23v1.92h-1.04v.99h1.04v4.3c0 1.37.64 1.96 1.95 1.96Zm4.8 0c1.95 0 3.28-1.43 3.28-3.7 0-2.28-1.33-3.69-3.3-3.69-1.96 0-3.28 1.42-3.28 3.68v.01c0 2.27 1.31 3.7 3.3 3.7Zm0-1.06c-1.26 0-2.09-.96-2.09-2.63v-.02c0-1.66.84-2.62 2.07-2.62 1.26 0 2.08.95 2.08 2.62v.01c0 1.67-.81 2.64-2.06 2.64Zm7.57 1.06c1.96 0 3.29-1.43 3.29-3.7 0-2.28-1.34-3.69-3.3-3.69-1.96 0-3.29 1.42-3.29 3.68v.01c0 2.27 1.32 3.7 3.3 3.7Zm0-1.06c-1.25 0-2.08-.96-2.08-2.63v-.02c0-1.66.83-2.62 2.07-2.62 1.26 0 2.08.95 2.08 2.62v.01c0 1.67-.81 2.64-2.06 2.64Zm4.72.92h1.2v-2.68l.66-.63 2.64 3.31h1.38l-3.18-4.04 3.08-3.07h-1.44l-3.12 3.14h-.03v-5.9h-1.19V412Zm9.86 2.4h1.19v-3.59h.02a2.52 2.52 0 0 0 2.28 1.33c1.78 0 3-1.45 3-3.69 0-2.25-1.2-3.7-3.02-3.7a2.5 2.5 0 0 0-2.26 1.34h-.03v-1.2h-1.18v9.5Zm3.24-3.32c-1.2 0-2.06-1.04-2.06-2.63 0-1.6.85-2.64 2.06-2.64 1.25 0 2.03 1 2.03 2.63v.01c0 1.62-.78 2.63-2.03 2.63Zm4.65.92h1.2v-9.86h-1.2V412Zm5.02.14c.95 0 1.8-.52 2.22-1.3h.03V412h1.19v-4.92c0-1.42-1.06-2.33-2.74-2.33-1.67 0-2.7.95-2.8 2.12v.07h1.15l.01-.06c.14-.64.71-1.07 1.63-1.07.99 0 1.56.52 1.56 1.4v.59l-2.04.11c-1.63.1-2.58.86-2.58 2.07v.01c0 1.3.95 2.15 2.37 2.15Zm-1.15-2.15v-.01c0-.67.55-1.09 1.5-1.15l1.9-.11v.58c0 1.03-.86 1.8-1.98 1.8-.86 0-1.42-.43-1.42-1.11Zm9.18 2.15c1.61 0 2.78-1.05 2.97-2.4v-.05h-1.16l-.01.05c-.2.8-.83 1.34-1.8 1.34-1.23 0-2.07-.97-2.07-2.63 0-1.62.82-2.64 2.06-2.64 1.05 0 1.62.63 1.8 1.34l.01.05h1.16v-.05c-.15-1.22-1.2-2.4-2.97-2.4-1.97 0-3.28 1.44-3.28 3.68 0 2.27 1.28 3.7 3.3 3.7Zm7.14 0c1.55 0 2.71-.93 2.94-2.1l.02-.08h-1.17l-.02.06c-.2.61-.84 1.06-1.75 1.06-1.26 0-2.07-.85-2.1-2.31h5.13v-.44c0-2.13-1.19-3.58-3.13-3.58s-3.2 1.51-3.2 3.72c0 2.24 1.23 3.67 3.28 3.67Zm-.09-6.33c1.04 0 1.81.65 1.93 2.03h-3.9c.14-1.33.94-2.03 1.97-2.03Z"/>
  <path fill="#C4C4C4" d="m94.7 408.3-2.99-3a1 1 0 0 0-1.42 1.42l1.3 1.28H87a1 1 0 0 1-1-1v-4a1 1 0 1 0-2 0v4a3 3 0 0 0 3 3h4.58l-1.29 1.28a1 1 0 0 0 1.42 1.43l3-3a1 1 0 0 0 0-1.42Z"/>
  <path stroke="#000" stroke-opacity=".08" d="M84 430.5h980"/>
  <path fill="#C6C8CB" fill-rule="evenodd" d="M1062 457a2 2 0 1 1 0-4 2 2 0 0 1 0 4Zm-7 0a2 2 0 1 1 0-4 2 2 0 0 1 0 4Zm-7 0a2 2 0 1 1 0-4 2 2 0 0 1 0 4Z" clip-rule="evenodd"/>
  <path fill="#FF6536" fill-rule="evenodd" d="M1003 445a10 10 0 1 1 0 20 10 10 0 0 1 0-20Z" clip-rule="evenodd" opacity=".85"/>
  <path fill="#000" d="M115.96 460h1.23v-9.86h-1.23V460Zm3.1 0h1.19v-4.18c0-1.21.73-2.01 1.85-2.01 1.1 0 1.63.63 1.63 1.79v4.4h1.2v-4.61c0-1.62-.91-2.64-2.47-2.64-1.08 0-1.8.49-2.19 1.15h-.02v-1h-1.2v7.1Zm9.83.14c.23 0 .49-.03.64-.05v-.96l-.39.02c-.63 0-.97-.21-.97-.97v-4.3h1.36v-.99h-1.36v-1.92h-1.23v1.92h-1.04v.99h1.04v4.3c0 1.37.64 1.96 1.95 1.96Zm4.78 0c1.55 0 2.7-.93 2.94-2.1l.01-.08h-1.16l-.02.06c-.2.61-.84 1.06-1.75 1.06-1.26 0-2.07-.85-2.1-2.31h5.12v-.44c0-2.13-1.18-3.58-3.12-3.58-1.94 0-3.2 1.51-3.2 3.72 0 2.24 1.23 3.67 3.28 3.67Zm-.09-6.33c1.04 0 1.8.65 1.92 2.03h-3.89c.13-1.33.94-2.03 1.97-2.03Zm4.48 6.19h1.19v-4.39c0-1.08.6-1.72 1.52-1.72.29 0 .54.03.64.07v-1.16c-.1-.01-.28-.05-.48-.05-.8 0-1.42.52-1.66 1.34h-.02v-1.2h-1.2V460Zm6.66 0h1.22l2.61-7.1h-1.23l-1.97 5.84h-.03l-1.96-5.85h-1.25l2.61 7.11Zm5.58-8.31c.42 0 .74-.34.74-.75a.74.74 0 0 0-.74-.74.75.75 0 0 0 0 1.5Zm-.6 8.31h1.2v-7.1h-1.2v7.1Zm5.88.14c1.55 0 2.71-.93 2.95-2.1l.01-.08h-1.17l-.02.06c-.2.61-.84 1.06-1.74 1.06-1.27 0-2.07-.85-2.1-2.31h5.12v-.44c0-2.13-1.18-3.58-3.13-3.58-1.94 0-3.2 1.51-3.2 3.72 0 2.24 1.24 3.67 3.28 3.67Zm-.08-6.33c1.04 0 1.8.65 1.92 2.03h-3.89c.13-1.33.94-2.03 1.97-2.03Zm5.88 6.19h1.21l1.6-5.5h.03l1.6 5.5h1.21l1.99-7.1h-1.18l-1.42 5.77h-.03l-1.61-5.78h-1.15l-1.6 5.78H162l-1.43-5.78h-1.18l2 7.11Zm14.44.14c1.02 0 1.8-.52 2.25-1.34h.03v1.2h1.2v-9.86h-1.2v3.94h-.03a2.52 2.52 0 0 0-2.27-1.33c-1.79 0-3 1.45-3 3.69 0 2.25 1.2 3.7 3.02 3.7Zm.23-1.06c-1.26 0-2.04-1-2.04-2.63v-.01c0-1.62.78-2.63 2.04-2.63 1.2 0 2.06 1.04 2.06 2.63 0 1.6-.86 2.64-2.06 2.64Zm5.66-7.4c.41 0 .74-.33.74-.74a.74.74 0 0 0-.74-.74.75.75 0 0 0 0 1.5Zm-.6 8.32h1.2v-7.1h-1.2v7.1Zm5.63.14a2.5 2.5 0 0 0 2.25-1.34h.03v1.2h1.19v-9.86H189v3.94a2.52 2.52 0 0 0-2.28-1.33c-1.78 0-3 1.45-3 3.69 0 2.25 1.2 3.7 3.03 3.7Zm.23-1.06c-1.26 0-2.04-1-2.04-2.63v-.01c0-1.62.78-2.63 2.04-2.63 1.2 0 2.06 1.04 2.06 2.63 0 1.6-.86 2.64-2.06 2.64Zm8 .92h1.18v-4.18c0-1.21.74-2.01 1.86-2.01 1.1 0 1.63.63 1.63 1.79v4.4h1.19v-4.61c0-1.62-.9-2.64-2.46-2.64-1.08 0-1.8.49-2.19 1.15h-.03v-1h-1.19v7.1Zm10.46.14c1.97 0 3.3-1.43 3.3-3.7 0-2.28-1.34-3.69-3.3-3.69-1.97 0-3.3 1.42-3.3 3.68v.01c0 2.27 1.33 3.7 3.3 3.7Zm.01-1.06c-1.26 0-2.08-.96-2.08-2.63v-.02c0-1.66.83-2.62 2.07-2.62 1.25 0 2.07.95 2.07 2.62v.01c0 1.67-.8 2.64-2.06 2.64Zm6.94 1.06c.23 0 .48-.03.63-.05v-.96l-.38.02c-.64 0-.97-.21-.97-.97v-4.3H213v-.99h-1.35v-1.92h-1.23v1.92h-1.04v.99h1.04v4.3c0 1.37.64 1.96 1.95 1.96Zm7.37 0c.23 0 .49-.03.64-.05v-.96l-.39.02c-.63 0-.97-.21-.97-.97v-4.3h1.36v-.99h-1.36v-1.92h-1.23v1.92h-1.04v.99h1.04v4.3c0 1.37.65 1.96 1.95 1.96Zm4 0c.95 0 1.8-.52 2.22-1.3h.03V460h1.19v-4.92c0-1.42-1.06-2.33-2.74-2.33-1.67 0-2.7.95-2.8 2.12v.07h1.15l.01-.06c.14-.64.71-1.07 1.63-1.07.99 0 1.56.52 1.56 1.4v.59l-2.04.11c-1.64.1-2.58.86-2.58 2.07v.01c0 1.3.95 2.15 2.37 2.15Zm-1.15-2.15v-.01c0-.67.55-1.09 1.5-1.15l1.9-.11v.58c0 1.03-.87 1.8-1.99 1.8-.85 0-1.41-.43-1.41-1.11Zm6.33 2.01h1.2v-2.68l.65-.63 2.64 3.31h1.38l-3.18-4.04 3.09-3.07h-1.44l-3.12 3.14h-.03v-5.9h-1.19V460Zm9.42.14c1.56 0 2.72-.93 2.95-2.1l.01-.08h-1.16l-.02.06c-.21.61-.84 1.06-1.75 1.06-1.26 0-2.07-.85-2.1-2.31h5.12v-.44c0-2.13-1.18-3.58-3.12-3.58-1.94 0-3.2 1.51-3.2 3.72 0 2.24 1.23 3.67 3.27 3.67Zm-.08-6.33c1.04 0 1.8.65 1.92 2.03h-3.89c.13-1.33.94-2.03 1.97-2.03Zm7.49 8.58h1.19v-3.58h.03a2.52 2.52 0 0 0 2.27 1.33c1.78 0 3-1.45 3-3.69 0-2.25-1.2-3.7-3.02-3.7-1.02 0-1.81.52-2.25 1.34h-.03v-1.2h-1.2v9.5Zm3.24-3.3c-1.2 0-2.06-1.05-2.06-2.64 0-1.6.85-2.64 2.06-2.64 1.26 0 2.03 1 2.03 2.63v.01c0 1.62-.77 2.63-2.03 2.63Zm4.66.91h1.19v-9.86h-1.2V460Zm5.01.14c.95 0 1.8-.52 2.22-1.3h.03V460h1.19v-4.92c0-1.42-1.05-2.33-2.74-2.33-1.67 0-2.69.95-2.8 2.12v.07h1.15l.01-.06c.14-.64.71-1.07 1.63-1.07 1 0 1.56.52 1.56 1.4v.59l-2.04.11c-1.63.1-2.57.86-2.57 2.07v.01c0 1.3.95 2.15 2.36 2.15Zm-1.15-2.15v-.01c0-.67.55-1.09 1.5-1.15l1.9-.11v.58c0 1.03-.86 1.8-1.98 1.8-.86 0-1.42-.43-1.42-1.11Zm9.19 2.15c1.6 0 2.77-1.05 2.96-2.4l.01-.05h-1.17l-.01.05c-.2.8-.82 1.34-1.8 1.34-1.22 0-2.07-.97-2.07-2.63 0-1.62.82-2.64 2.06-2.64 1.05 0 1.62.63 1.8 1.34l.01.05h1.17l-.01-.05c-.15-1.22-1.2-2.4-2.97-2.4-1.97 0-3.28 1.44-3.28 3.68 0 2.27 1.28 3.7 3.3 3.7Zm7.13 0c1.55 0 2.71-.93 2.95-2.1l.01-.08h-1.17l-.02.06c-.2.61-.84 1.06-1.74 1.06-1.27 0-2.07-.85-2.1-2.31h5.12v-.44c0-2.13-1.18-3.58-3.13-3.58-1.94 0-3.2 1.51-3.2 3.72 0 2.24 1.24 3.67 3.28 3.67Zm-.08-6.33c1.04 0 1.8.65 1.92 2.03h-3.9c.14-1.33.95-2.03 1.98-2.03Z"/>
  <path fill="#C4C4C4" d="m94.7 456.3-2.99-3a1 1 0 0 0-1.42 1.42l1.3 1.28H87a1 1 0 0 1-1-1v-4a1 1 0 1 0-2 0v4a3 3 0 0 0 3 3h4.58l-1.29 1.28a1 1 0 0 0 1.42 1.43l3-3a1 1 0 0 0 0-1.42Z"/>
  <path stroke="#000" stroke-opacity=".08" d="M84 478.5h980"/>
  <path fill="#C6C8CB" fill-rule="evenodd" d="M1062 505a2 2 0 1 1 0-4 2 2 0 0 1 0 4Zm-7 0a2 2 0 1 1 0-4 2 2 0 0 1 0 4Zm-7 0a2 2 0 1 1 0-4 2 2 0 0 1 0 4Z" clip-rule="evenodd"/>
  <path fill="#FF6536" fill-rule="evenodd" d="M1003 493a10 10 0 1 1 0 20 10 10 0 0 1 0-20Z" clip-rule="evenodd" opacity=".85"/>
  <path fill="#000" d="M84.17 508h1.3l1-2.82h3.96l1 2.82h1.3l-3.67-9.86h-1.22L84.17 508Zm4.27-8.39h.02l1.6 4.52h-3.22l1.6-4.52Zm8.24 10.92c1.93 0 3.14-1.08 3.14-2.73v-6.9h-1.19v1.2h-.03a2.51 2.51 0 0 0-2.23-1.35c-1.8 0-3.04 1.44-3.04 3.65 0 2.23 1.22 3.67 3.01 3.67a2.5 2.5 0 0 0 2.26-1.3h.03v.92c0 1.1-.7 1.79-1.96 1.79-.97 0-1.65-.32-1.87-.83l-.03-.06h-1.2l.02.06c.23 1.05 1.34 1.88 3.1 1.88Zm-.08-3.51c-1.26 0-2.06-1-2.06-2.62 0-1.58.8-2.6 2.06-2.6 1.2 0 2.03 1.03 2.03 2.6 0 1.58-.82 2.62-2.03 2.62Zm4.9.98h1.19v-4.39c0-1.08.6-1.72 1.52-1.72.3 0 .54.03.64.07v-1.16c-.1-.01-.27-.05-.48-.05-.8 0-1.41.52-1.65 1.34h-.03v-1.2h-1.19V508Zm7.04.14c1.56 0 2.72-.93 2.95-2.1l.01-.08h-1.17l-.02.06c-.2.61-.84 1.06-1.74 1.06-1.26 0-2.07-.85-2.1-2.31h5.12v-.44c0-2.13-1.18-3.58-3.12-3.58-1.94 0-3.2 1.51-3.2 3.72 0 2.24 1.23 3.67 3.27 3.67Zm-.08-6.33c1.04 0 1.8.65 1.92 2.03h-3.89c.13-1.33.94-2.03 1.97-2.03Zm7.4 6.33c1.55 0 2.72-.93 2.95-2.1l.01-.08h-1.17l-.02.06c-.2.61-.84 1.06-1.74 1.06-1.27 0-2.07-.85-2.1-2.31h5.12v-.44c0-2.13-1.18-3.58-3.12-3.58-1.95 0-3.2 1.51-3.2 3.72 0 2.24 1.23 3.67 3.27 3.67Zm-.08-6.33c1.04 0 1.8.65 1.92 2.03h-3.89c.13-1.33.94-2.03 1.97-2.03Zm4.47 6.19h1.2v-4.46c0-.99.68-1.73 1.62-1.73.88 0 1.46.56 1.46 1.43V508h1.19v-4.52c0-.97.66-1.67 1.6-1.67.94 0 1.48.58 1.48 1.56V508h1.19v-4.9c0-1.42-.91-2.35-2.32-2.35-1 0-1.83.52-2.23 1.37h-.02a2 2 0 0 0-2-1.37c-.92 0-1.63.48-1.95 1.18h-.03v-1.04h-1.19V508Zm14.32.14c1.55 0 2.72-.93 2.95-2.1l.01-.08h-1.17l-.02.06c-.2.61-.84 1.06-1.74 1.06-1.27 0-2.07-.85-2.1-2.31h5.12v-.44c0-2.13-1.18-3.58-3.12-3.58-1.94 0-3.2 1.51-3.2 3.72 0 2.24 1.23 3.67 3.27 3.67Zm-.08-6.33c1.04 0 1.8.65 1.92 2.03h-3.89c.13-1.33.94-2.03 1.97-2.03Zm4.47 6.19h1.2v-4.18c0-1.21.72-2.01 1.84-2.01 1.1 0 1.64.63 1.64 1.79v4.4h1.19v-4.61c0-1.62-.9-2.64-2.46-2.64-1.08 0-1.8.49-2.19 1.15h-.03v-1h-1.19v7.1Zm9.84.14c.23 0 .48-.03.63-.05v-.96l-.38.02c-.64 0-.97-.21-.97-.97v-4.3h1.35v-.99h-1.35v-1.92h-1.23v1.92h-1.04v.99h1.04v4.3c0 1.37.64 1.96 1.95 1.96Z"/>
  <path fill="#6F757C" d="M492.96 508h3.31c2.94 0 4.66-1.82 4.66-4.94 0-3.1-1.74-4.92-4.66-4.92h-3.31V508Zm1.23-1.1v-7.66h2c2.24 0 3.48 1.36 3.48 3.82v.02c0 2.44-1.24 3.81-3.48 3.81h-2Zm10.16 1.24c.95 0 1.8-.52 2.22-1.3h.03V508h1.2v-4.92c0-1.42-1.06-2.33-2.74-2.33-1.68 0-2.7.95-2.8 2.12v.07h1.14l.02-.06c.13-.64.7-1.07 1.62-1.07 1 0 1.56.52 1.56 1.4v.59l-2.04.11c-1.63.1-2.57.86-2.57 2.07v.01c0 1.3.95 2.15 2.36 2.15Zm-1.15-2.15v-.01c0-.67.55-1.09 1.5-1.15l1.9-.11v.58c0 1.03-.86 1.8-1.98 1.8-.86 0-1.42-.43-1.42-1.11Zm8.41 2.15c.24 0 .49-.03.64-.05v-.96l-.38.02c-.64 0-.98-.21-.98-.97v-4.3h1.36v-.99h-1.36v-1.92h-1.23v1.92h-1.04v.99h1.04v4.3c0 1.37.65 1.96 1.95 1.96Zm4.64 0c1.55 0 2.71-.93 2.94-2.1l.02-.08h-1.17l-.02.06c-.2.61-.84 1.06-1.75 1.06-1.26 0-2.07-.85-2.1-2.31h5.13v-.44c0-2.13-1.19-3.58-3.13-3.58s-3.2 1.51-3.2 3.72c0 2.24 1.23 3.67 3.28 3.67Zm-.09-6.33c1.04 0 1.81.65 1.93 2.03h-3.9c.14-1.33.94-2.03 1.97-2.03Zm9.29 6.33c.95 0 1.8-.52 2.22-1.3h.03V508h1.19v-4.92c0-1.42-1.06-2.33-2.74-2.33-1.67 0-2.7.95-2.8 2.12v.07h1.15l.01-.06c.14-.64.71-1.07 1.63-1.07.99 0 1.56.52 1.56 1.4v.59l-2.04.11c-1.63.1-2.58.86-2.58 2.07v.01c0 1.3.95 2.15 2.37 2.15Zm-1.15-2.15v-.01c0-.67.55-1.09 1.5-1.15l1.9-.11v.58c0 1.03-.86 1.8-1.99 1.8-.85 0-1.41-.43-1.41-1.11Zm6.1 2.01h1.19v-4.18c0-1.21.73-2.01 1.85-2.01 1.1 0 1.63.63 1.63 1.79v4.4h1.2v-4.61c0-1.62-.91-2.64-2.47-2.64-1.08 0-1.8.49-2.19 1.15h-.02v-1h-1.2v7.1Zm10.05.14a2.5 2.5 0 0 0 2.26-1.34h.03v1.2h1.19v-9.86h-1.2v3.94h-.02a2.52 2.52 0 0 0-2.28-1.33c-1.78 0-3 1.45-3 3.69 0 2.25 1.2 3.7 3.02 3.7Zm.24-1.06c-1.26 0-2.04-1-2.04-2.63v-.01c0-1.62.78-2.63 2.04-2.63 1.2 0 2.05 1.04 2.05 2.63 0 1.6-.85 2.64-2.05 2.64Zm10.02 1.06c.24 0 .49-.03.64-.05v-.96l-.38.02c-.64 0-.97-.21-.97-.97v-4.3h1.35v-.99H550v-1.92h-1.23v1.92h-1.04v.99h1.04v4.3c0 1.37.64 1.96 1.94 1.96Zm2.59-8.45c.42 0 .74-.34.74-.75a.74.74 0 0 0-.74-.74.75.75 0 0 0 0 1.5Zm-.6 8.31h1.2v-7.1h-1.2v7.1Zm2.81 0h1.2v-4.46c0-.99.68-1.73 1.62-1.73.88 0 1.45.56 1.45 1.43V508h1.2v-4.52c0-.97.66-1.67 1.6-1.67.94 0 1.48.58 1.48 1.56V508h1.19v-4.9c0-1.42-.91-2.35-2.32-2.35-1 0-1.83.52-2.23 1.37h-.03a2 2 0 0 0-2-1.37c-.9 0-1.62.48-1.94 1.18h-.03v-1.04h-1.19V508Zm14.18.14c1.55 0 2.71-.93 2.95-2.1l.01-.08h-1.17l-.02.06c-.2.61-.84 1.06-1.74 1.06-1.27 0-2.07-.85-2.1-2.31h5.12v-.44c0-2.13-1.18-3.58-3.13-3.58-1.94 0-3.2 1.51-3.2 3.72 0 2.24 1.24 3.67 3.28 3.67Zm-.08-6.33c1.04 0 1.8.65 1.92 2.03h-3.89c.13-1.33.94-2.03 1.97-2.03Z"/>
  <path stroke="#000" stroke-opacity=".08" d="M84 526.5h980"/>
  <path fill="#C6C8CB" fill-rule="evenodd" d="M1062 553a2 2 0 1 1 0-4 2 2 0 0 1 0 4Zm-7 0a2 2 0 1 1 0-4 2 2 0 0 1 0 4Zm-7 0a2 2 0 1 1 0-4 2 2 0 0 1 0 4Z" clip-rule="evenodd"/>
  <path fill="#FF6536" fill-rule="evenodd" d="M1003 541a10 10 0 1 1 0 20 10 10 0 0 1 0-20Z" clip-rule="evenodd" opacity=".85"/>
  <path fill="#000" d="M114.17 556h1.3l1-2.82h3.96l1 2.82h1.3l-3.67-9.86h-1.22l-3.67 9.86Zm4.27-8.39h.02l1.6 4.52h-3.22l1.6-4.52Zm8.24 10.92c1.93 0 3.14-1.08 3.14-2.73v-6.9h-1.19v1.2h-.03a2.51 2.51 0 0 0-2.23-1.35c-1.8 0-3.04 1.44-3.04 3.65 0 2.23 1.22 3.67 3.01 3.67a2.5 2.5 0 0 0 2.26-1.3h.03v.92c0 1.1-.7 1.79-1.96 1.79-.97 0-1.65-.32-1.87-.83l-.03-.06h-1.2l.02.06c.23 1.05 1.34 1.88 3.1 1.88Zm-.08-3.51c-1.26 0-2.06-1-2.06-2.62 0-1.58.8-2.6 2.06-2.6 1.2 0 2.03 1.03 2.03 2.6 0 1.58-.82 2.62-2.03 2.62Zm4.9.98h1.19v-4.39c0-1.08.6-1.72 1.52-1.72.3 0 .54.03.64.07v-1.16c-.1-.01-.27-.05-.48-.05-.8 0-1.41.52-1.65 1.34h-.03v-1.2h-1.19V556Zm7.04.14c1.56 0 2.72-.93 2.95-2.1l.01-.08h-1.16l-.03.06c-.2.61-.84 1.06-1.74 1.06-1.26 0-2.07-.85-2.1-2.31h5.12v-.44c0-2.13-1.18-3.58-3.12-3.58-1.94 0-3.2 1.51-3.2 3.72 0 2.24 1.23 3.67 3.27 3.67Zm-.08-6.33c1.04 0 1.8.65 1.92 2.03h-3.89c.13-1.33.94-2.03 1.97-2.03Zm7.4 6.33c1.55 0 2.72-.93 2.95-2.1l.01-.08h-1.17l-.02.06c-.2.61-.84 1.06-1.74 1.06-1.27 0-2.07-.85-2.1-2.31h5.12v-.44c0-2.13-1.18-3.58-3.12-3.58-1.94 0-3.2 1.51-3.2 3.72 0 2.24 1.23 3.67 3.27 3.67Zm-.08-6.33c1.04 0 1.8.65 1.92 2.03h-3.89c.13-1.33.94-2.03 1.97-2.03Zm7.15 6.33a2.5 2.5 0 0 0 2.25-1.34h.03v1.2h1.19v-9.86h-1.19v3.94h-.03a2.52 2.52 0 0 0-2.27-1.33c-1.79 0-3 1.45-3 3.69 0 2.25 1.2 3.7 3.02 3.7Zm.23-1.06c-1.26 0-2.04-1-2.04-2.63v-.01c0-1.62.78-2.63 2.04-2.63 1.2 0 2.06 1.04 2.06 2.63 0 1.6-.86 2.64-2.06 2.64Z"/>
  <path fill="#C4C4C4" d="m94.7 552.3-2.99-3a1 1 0 0 0-1.42 1.42l1.3 1.28H87a1 1 0 0 1-1-1v-4a1 1 0 1 0-2 0v4a3 3 0 0 0 3 3h4.58l-1.29 1.28a1 1 0 0 0 1.42 1.43l3-3a1 1 0 0 0 0-1.42Z"/>
  <path stroke="#000" stroke-opacity=".08" d="M84 574.5h980"/>
  <path fill="#C6C8CB" fill-rule="evenodd" d="M1062 601a2 2 0 1 1 0-4 2 2 0 0 1 0 4Zm-7 0a2 2 0 1 1 0-4 2 2 0 0 1 0 4Zm-7 0a2 2 0 1 1 0-4 2 2 0 0 1 0 4Z" clip-rule="evenodd"/>
  <path fill="#FF6536" fill-rule="evenodd" d="M1003 589a10 10 0 1 1 0 20 10 10 0 0 1 0-20Z" clip-rule="evenodd" opacity=".85"/>
  <path fill="#000" d="M115.96 604h1.21v-7.79h.04l5.43 7.79h1.2v-9.86h-1.23v7.78h-.03l-5.43-7.78h-1.2V604Zm12.69.14c1.96 0 3.29-1.42 3.29-3.7 0-2.28-1.34-3.69-3.3-3.69-1.96 0-3.29 1.42-3.29 3.68v.02c0 2.26 1.32 3.69 3.3 3.69Zm0-1.06c-1.25 0-2.08-.96-2.08-2.63v-.02c0-1.66.83-2.62 2.07-2.62 1.26 0 2.08.95 2.08 2.62v.02c0 1.66-.81 2.63-2.06 2.63Zm6.94 1.06c.23 0 .48-.03.63-.05v-.97c-.1.01-.23.03-.38.03-.63 0-.97-.21-.97-.97v-4.3h1.35v-.99h-1.35v-1.92h-1.23v1.92h-1.04v.99h1.04v4.3c0 1.37.64 1.96 1.95 1.96Zm7.14 0c.95 0 1.8-.52 2.23-1.3h.02V604h1.2v-4.91c0-1.43-1.06-2.34-2.74-2.34-1.68 0-2.7.95-2.8 2.12v.07h1.14l.02-.06c.13-.64.7-1.07 1.62-1.07 1 0 1.56.52 1.56 1.4v.59l-2.03.11c-1.64.1-2.58.86-2.58 2.07v.01c0 1.3.95 2.15 2.36 2.15Zm-1.15-2.15v-.01c0-.67.55-1.09 1.5-1.14l1.9-.12v.58c0 1.03-.86 1.8-1.98 1.8-.85 0-1.42-.43-1.42-1.11Zm9.25 4.54c1.93 0 3.14-1.08 3.14-2.73v-6.9h-1.2v1.2h-.02a2.51 2.51 0 0 0-2.24-1.35c-1.8 0-3.04 1.44-3.04 3.65 0 2.23 1.23 3.67 3.02 3.67a2.5 2.5 0 0 0 2.26-1.3h.03v.92c0 1.1-.71 1.79-1.96 1.79-.97 0-1.65-.32-1.88-.83l-.02-.06h-1.2l.01.06c.24 1.05 1.34 1.88 3.1 1.88Zm-.08-3.51c-1.27 0-2.06-1-2.06-2.62 0-1.58.8-2.6 2.06-2.6 1.2 0 2.03 1.03 2.03 2.6 0 1.58-.82 2.62-2.03 2.62Zm4.9.98h1.19v-4.39c0-1.08.6-1.72 1.52-1.72.29 0 .54.03.63.07v-1.16c-.09-.01-.27-.05-.47-.05-.8 0-1.42.52-1.66 1.34h-.03v-1.2h-1.18V604Zm7.04.14c1.55 0 2.71-.93 2.95-2.1l.01-.08h-1.17l-.02.06c-.2.61-.84 1.06-1.74 1.06-1.27 0-2.07-.85-2.1-2.31h5.12v-.44c0-2.13-1.18-3.58-3.13-3.58-1.94 0-3.2 1.51-3.2 3.72 0 2.24 1.24 3.67 3.28 3.67Zm-.08-6.33c1.04 0 1.8.65 1.92 2.03h-3.9c.14-1.33.95-2.03 1.98-2.03Zm7.4 6.33c1.55 0 2.71-.93 2.94-2.1l.02-.08h-1.17l-.02.06c-.2.61-.84 1.06-1.75 1.06-1.26 0-2.07-.85-2.1-2.31h5.13v-.44c0-2.13-1.19-3.58-3.13-3.58s-3.2 1.51-3.2 3.72c0 2.24 1.23 3.67 3.28 3.67Zm-.08-6.33c1.03 0 1.8.65 1.92 2.03h-3.9c.14-1.33.94-2.03 1.98-2.03Zm7.14 6.33a2.5 2.5 0 0 0 2.26-1.34h.03v1.2h1.18v-9.86h-1.18v3.94h-.03a2.52 2.52 0 0 0-2.28-1.33c-1.78 0-3 1.45-3 3.69 0 2.25 1.2 3.7 3.02 3.7Zm.24-1.06c-1.26 0-2.04-1-2.04-2.63v-.01c0-1.62.78-2.63 2.03-2.63 1.2 0 2.06 1.04 2.06 2.63 0 1.6-.85 2.64-2.06 2.64Z"/>
  <path fill="#C4C4C4" d="m94.7 600.3-2.99-3a1 1 0 0 0-1.42 1.42l1.3 1.28H87a1 1 0 0 1-1-1v-4a1 1 0 1 0-2 0v4a3 3 0 0 0 3 3h4.58l-1.29 1.28a1 1 0 0 0 1.42 1.43l3-3a1 1 0 0 0 0-1.42Z"/>
  <path stroke="#000" stroke-opacity=".08" d="M84 622.5h980"/>
  <path fill="#C6C8CB" fill-rule="evenodd" d="M1062 649a2 2 0 1 1 0-4 2 2 0 0 1 0 4Zm-7 0a2 2 0 1 1 0-4 2 2 0 0 1 0 4Zm-7 0a2 2 0 1 1 0-4 2 2 0 0 1 0 4Z" clip-rule="evenodd"/>
  <path fill="#1A8FE6" fill-rule="evenodd" d="M1003 637a10 10 0 1 1 0 20 10 10 0 0 1 0-20Z" clip-rule="evenodd" opacity=".85"/>
  <path fill="#000" d="M89.13 652.16c2.8 0 4.54-1.96 4.54-5.09v-.01c0-3.13-1.75-5.09-4.54-5.09-2.8 0-4.56 1.96-4.56 5.09v.01c0 3.13 1.75 5.1 4.56 5.1Zm0-1.13c-2.03 0-3.3-1.53-3.3-3.96v-.01c0-2.43 1.28-3.95 3.3-3.95 2 0 3.28 1.53 3.28 3.95v.01c0 2.4-1.25 3.96-3.28 3.96Zm6.4.97h1.2v-6.13h1.44v-.98h-1.46v-.87c0-.7.33-1.04.99-1.04.18 0 .36.01.5.03v-.96a5.32 5.32 0 0 0-.72-.05c-1.3 0-1.94.65-1.94 2.02v.87h-1v.99h1V652Zm4.4 0h1.19v-6.13h1.45v-.98h-1.47v-.87c0-.7.33-1.04.99-1.04.18 0 .37.01.51.03v-.96a5.3 5.3 0 0 0-.72-.05c-1.32 0-1.95.65-1.95 2.02v.87h-1v.99h1V652Zm6.25.14c1.55 0 2.71-.93 2.94-2.1l.02-.08h-1.17l-.02.06c-.2.61-.84 1.06-1.74 1.06-1.27 0-2.07-.85-2.1-2.31h5.12v-.44c0-2.13-1.19-3.58-3.13-3.58s-3.2 1.51-3.2 3.72c0 2.24 1.23 3.67 3.28 3.67Zm-.08-6.33c1.04 0 1.8.65 1.92 2.03h-3.9c.14-1.33.94-2.03 1.98-2.03Zm4.47 6.19h1.19v-4.39c0-1.08.6-1.72 1.52-1.72.3 0 .55.03.64.07v-1.16c-.1-.01-.27-.05-.48-.05-.8 0-1.41.52-1.65 1.34h-.03v-1.2h-1.19V652Z"/>
  <path fill="#6F757C" d="M495.45 652h1.23v-8.76h3.11v-1.1h-7.45v1.1h3.11V652Zm5.5 0h1.2l1.6-5.5h.04l1.6 5.5h1.21l1.98-7.1h-1.17l-1.42 5.77h-.03l-1.61-5.78h-1.15l-1.6 5.78h-.04l-1.42-5.78h-1.18l1.99 7.11Zm11.56.14c1.96 0 3.29-1.42 3.29-3.7 0-2.28-1.34-3.69-3.3-3.69-1.96 0-3.29 1.42-3.29 3.68v.02c0 2.26 1.32 3.69 3.3 3.69Zm0-1.06c-1.25 0-2.08-.96-2.08-2.63v-.02c0-1.66.83-2.62 2.07-2.62 1.26 0 2.08.95 2.08 2.62v.02c0 1.66-.81 2.63-2.07 2.63Zm10.03 1.06a2.5 2.5 0 0 0 2.26-1.34h.03v1.2h1.19v-9.86h-1.2v3.94h-.02a2.52 2.52 0 0 0-2.28-1.33c-1.78 0-3 1.45-3 3.69 0 2.25 1.2 3.7 3.02 3.7Zm.24-1.06c-1.26 0-2.04-1-2.04-2.63v-.01c0-1.62.78-2.63 2.03-2.63 1.2 0 2.06 1.04 2.06 2.63 0 1.6-.85 2.64-2.06 2.64Zm6.92 1.06c.95 0 1.8-.52 2.22-1.3h.03V652h1.19v-4.91c0-1.43-1.05-2.34-2.74-2.34-1.67 0-2.69.95-2.8 2.12v.07h1.15l.01-.06c.14-.64.72-1.07 1.63-1.07 1 0 1.56.52 1.56 1.4v.59l-2.04.11c-1.63.1-2.57.86-2.57 2.07v.01c0 1.3.94 2.15 2.36 2.15Zm-1.15-2.15v-.01c0-.67.55-1.09 1.5-1.14l1.9-.12v.58c0 1.03-.86 1.8-1.98 1.8-.86 0-1.42-.43-1.42-1.11Zm8.41 2.15c.23 0 .49-.03.64-.05v-.97c-.1.01-.24.03-.39.03-.63 0-.97-.21-.97-.97v-4.3h1.36v-.99h-1.36v-1.92h-1.23v1.92h-1.04v.99h1.04v4.3c0 1.37.64 1.96 1.95 1.96Zm4.63 0c1.56 0 2.72-.93 2.95-2.1l.01-.08h-1.16l-.02.06c-.21.61-.85 1.06-1.75 1.06-1.26 0-2.07-.85-2.1-2.31h5.12v-.44c0-2.13-1.18-3.58-3.12-3.58-1.94 0-3.2 1.51-3.2 3.72 0 2.24 1.23 3.67 3.27 3.67Zm-.08-6.33c1.04 0 1.8.65 1.92 2.03h-3.89c.13-1.33.94-2.03 1.97-2.03Zm6.86 6.33c1.59 0 2.76-.88 2.76-2.12 0-1.02-.52-1.59-1.95-1.94l-1.13-.27c-.79-.2-1.11-.53-1.11-1.01 0-.64.53-1.05 1.4-1.05.88 0 1.4.45 1.5 1.14v.05h1.14v-.09c-.1-1.19-1.09-2.1-2.64-2.1-1.54 0-2.62.87-2.62 2.1 0 1.03.65 1.65 2 1.97l1.12.27c.8.2 1.07.49 1.07 1v.01c0 .64-.57 1.05-1.53 1.05-.98 0-1.5-.42-1.64-1.13l-.02-.07h-1.19v.06c.15 1.27 1.16 2.13 2.84 2.13Z"/>
  <path stroke="#000" stroke-opacity=".08" d="M84 670.5h980"/>
  <path fill="#C6C8CB" fill-rule="evenodd" d="M1062 697a2 2 0 1 1 0-4 2 2 0 0 1 0 4Zm-7 0a2 2 0 1 1 0-4 2 2 0 0 1 0 4Zm-7 0a2 2 0 1 1 0-4 2 2 0 0 1 0 4Z" clip-rule="evenodd"/>
  <path fill="#1A8FE6" fill-rule="evenodd" d="M1003 685a10 10 0 1 1 0 20 10 10 0 0 1 0-20Z" clip-rule="evenodd" opacity=".85"/>
  <path fill="#000" d="M120.13 700.16c2.8 0 4.54-1.96 4.54-5.09v-.01c0-3.13-1.75-5.09-4.54-5.09-2.8 0-4.56 1.96-4.56 5.09v.01c0 3.13 1.75 5.1 4.56 5.1Zm0-1.13c-2.03 0-3.3-1.53-3.3-3.96v-.01c0-2.43 1.28-3.95 3.3-3.95 2 0 3.28 1.53 3.28 3.95v.01c0 2.4-1.25 3.96-3.28 3.96Zm6.4.97h1.2v-6.13h1.44v-.98h-1.46v-.87c0-.7.33-1.04.99-1.04.18 0 .37.01.5.03v-.96a5.3 5.3 0 0 0-.72-.05c-1.3 0-1.94.65-1.94 2.02v.87h-1v.99h1V700Zm4.4 0h1.19v-6.13h1.45v-.98h-1.47v-.87c0-.7.33-1.04.99-1.04.18 0 .37.01.51.03v-.96a5.3 5.3 0 0 0-.72-.05c-1.32 0-1.95.65-1.95 2.02v.87h-1v.99h1V700Zm6.25.14c1.55 0 2.71-.93 2.94-2.1l.02-.08h-1.17l-.02.06c-.2.61-.84 1.06-1.74 1.06-1.27 0-2.08-.85-2.1-2.31h5.12v-.44c0-2.13-1.19-3.58-3.13-3.58s-3.2 1.51-3.2 3.72c0 2.24 1.23 3.67 3.28 3.67Zm-.08-6.33c1.04 0 1.8.65 1.92 2.03h-3.9c.14-1.33.94-2.03 1.98-2.03Zm4.47 6.19h1.19v-4.39c0-1.08.6-1.72 1.53-1.72.28 0 .53.03.63.07v-1.16c-.1-.01-.27-.05-.48-.05-.8 0-1.41.52-1.65 1.34h-.03v-1.2h-1.19V700Zm9.55.14c.95 0 1.8-.52 2.22-1.3h.03V700h1.19v-4.91c0-1.43-1.05-2.34-2.74-2.34-1.67 0-2.69.95-2.8 2.12v.07h1.15l.01-.06c.14-.64.72-1.07 1.63-1.07 1 0 1.56.52 1.56 1.4v.59l-2.04.11c-1.63.1-2.58.86-2.58 2.07v.01c0 1.3.96 2.15 2.37 2.15Zm-1.15-2.15v-.01c0-.67.55-1.09 1.5-1.14l1.9-.12v.58c0 1.03-.86 1.8-1.98 1.8-.86 0-1.42-.43-1.42-1.11Zm9.19 2.15c1.6 0 2.77-1.05 2.96-2.4v-.05h-1.16l-.01.05c-.2.8-.82 1.34-1.8 1.34-1.22 0-2.07-.97-2.07-2.63 0-1.62.82-2.64 2.06-2.64 1.05 0 1.62.63 1.8 1.34l.01.05h1.17l-.01-.05c-.15-1.22-1.2-2.4-2.97-2.4-1.97 0-3.28 1.44-3.28 3.68 0 2.27 1.28 3.7 3.3 3.7Zm7.15 0c1.6 0 2.78-1.05 2.97-2.4v-.05h-1.17l-.01.05c-.2.8-.82 1.34-1.8 1.34-1.22 0-2.07-.97-2.07-2.63 0-1.62.83-2.64 2.07-2.64 1.04 0 1.62.63 1.8 1.34v.05h1.17v-.05c-.16-1.22-1.2-2.4-2.97-2.4-1.98 0-3.29 1.44-3.29 3.68 0 2.27 1.28 3.7 3.3 3.7Zm7.13 0c1.55 0 2.72-.93 2.95-2.1l.01-.08h-1.17l-.02.06c-.2.61-.84 1.06-1.74 1.06-1.26 0-2.07-.85-2.1-2.31h5.12v-.44c0-2.13-1.18-3.58-3.12-3.58-1.94 0-3.2 1.51-3.2 3.72 0 2.24 1.23 3.67 3.27 3.67Zm-.08-6.33c1.04 0 1.8.65 1.92 2.03h-3.89c.13-1.33.94-2.03 1.97-2.03Zm4.47 8.58h1.2v-3.58h.02a2.52 2.52 0 0 0 2.28 1.33c1.78 0 3-1.45 3-3.69 0-2.25-1.2-3.7-3.02-3.7a2.5 2.5 0 0 0-2.26 1.34h-.03v-1.2h-1.19v9.5Zm3.24-3.3c-1.2 0-2.05-1.05-2.05-2.64 0-1.6.85-2.64 2.05-2.64 1.26 0 2.04 1 2.04 2.64 0 1.62-.78 2.63-2.04 2.63Zm6.91 1.05c.24 0 .49-.03.64-.05v-.97c-.1.01-.24.03-.38.03-.64 0-.98-.21-.98-.97v-4.3h1.36v-.99h-1.36v-1.92h-1.23v1.92H185v.99h1.03v4.3c0 1.37.65 1.96 1.95 1.96Zm4.78 0c1.55 0 2.71-.93 2.94-2.1l.02-.08h-1.17l-.02.06c-.2.61-.84 1.06-1.75 1.06-1.26 0-2.07-.85-2.1-2.31h5.13v-.44c0-2.13-1.19-3.58-3.13-3.58s-3.2 1.51-3.2 3.72c0 2.24 1.23 3.67 3.28 3.67Zm-.08-6.33c1.03 0 1.8.65 1.92 2.03h-3.9c.14-1.33.94-2.03 1.98-2.03Zm7.14 6.33a2.5 2.5 0 0 0 2.26-1.34h.02v1.2h1.2v-9.86h-1.2v3.94h-.02a2.52 2.52 0 0 0-2.28-1.33c-1.78 0-3 1.45-3 3.69 0 2.25 1.2 3.7 3.02 3.7Zm.23-1.06c-1.25 0-2.03-1-2.03-2.63v-.01c0-1.62.78-2.63 2.03-2.63 1.2 0 2.06 1.04 2.06 2.63 0 1.6-.85 2.64-2.06 2.64Z"/>
  <path fill="#C4C4C4" d="m94.7 696.3-2.99-3a1 1 0 0 0-1.42 1.42l1.3 1.28H87a1 1 0 0 1-1-1v-4a1 1 0 1 0-2 0v4a3 3 0 0 0 3 3h4.58l-1.29 1.28a1 1 0 0 0 1.42 1.43l3-3a1 1 0 0 0 0-1.42Z"/>
  <path fill="#fff" d="M758 303.1c0-2.9 0-4.34.58-5.44a5 5 0 0 1 2.08-2.08c1.1-.58 2.55-.58 5.44-.58h259.8c2.89 0 4.34 0 5.44.58.89.47 1.61 1.2 2.08 2.08.58 1.1.58 2.54.58 5.44v394.8c0 2.9 0 4.34-.58 5.44a4.99 4.99 0 0 1-2.08 2.08c-1.1.58-2.55.58-5.44.58H766.1c-2.9 0-4.34 0-5.44-.58a5 5 0 0 1-2.08-2.08c-.58-1.1-.58-2.55-.58-5.44V303.1Z"/>
  <path fill="#6F757C" fill-opacity=".12" d="M778 661.1c0-2.9 0-4.34.58-5.44a5 5 0 0 1 2.08-2.08c1.1-.58 2.55-.58 5.44-.58h93.8c2.9 0 4.34 0 5.44.58a5 5 0 0 1 2.08 2.08c.58 1.1.58 2.55.58 5.44v16.8c0 2.9 0 4.34-.58 5.44a5 5 0 0 1-2.08 2.08c-1.1.58-2.55.58-5.44.58h-93.8c-2.9 0-4.34 0-5.44-.58a5 5 0 0 1-2.08-2.08c-.58-1.1-.58-2.55-.58-5.44v-16.8Z"/>
  <path fill="#6F757C" d="M816.2 674.67c2.4 0 4.12-1.5 4.32-3.6V671h-2l-.02.07c-.27 1.17-1.1 1.85-2.3 1.85-1.57 0-2.58-1.28-2.58-3.36 0-2.07 1.01-3.34 2.59-3.34 1.23 0 2.04.7 2.27 1.8l.03.1h2v-.05c-.2-2.1-1.9-3.6-4.3-3.6-2.88 0-4.7 1.9-4.7 5.09 0 3.18 1.81 5.11 4.7 5.11Zm7.71-.05a2.4 2.4 0 0 0 2.16-1.21h.04v1.09h2v-5.02c0-1.48-1.23-2.46-3.12-2.46-1.94 0-3.1.97-3.2 2.33l-.01.08h1.82l.02-.06c.1-.48.54-.82 1.29-.82.78 0 1.2.4 1.2 1.05v.45l-1.81.1c-1.82.13-2.85.9-2.85 2.24v.01c0 1.3.99 2.22 2.46 2.22Zm-.49-2.32v-.01c0-.52.4-.85 1.18-.9l1.51-.1v.53c0 .77-.66 1.34-1.55 1.34-.7 0-1.14-.32-1.14-.86Zm6.12 2.2h2v-4.21c0-.96.56-1.61 1.46-1.61.9 0 1.34.54 1.34 1.5v4.32h2v-4.73c0-1.72-.92-2.75-2.53-2.75-1.1 0-1.86.51-2.23 1.36h-.05v-1.2h-2v7.32Zm11.56.15c1.95 0 3.22-1.22 3.31-2.82v-.04h-1.86v.06c-.14.74-.64 1.24-1.44 1.24-.99 0-1.6-.82-1.6-2.25v-.01c0-1.4.61-2.24 1.6-2.24.82 0 1.3.53 1.43 1.23l.01.06h1.85v-.05c-.07-1.59-1.34-2.8-3.33-2.8-2.19 0-3.6 1.45-3.6 3.8 0 2.36 1.39 3.82 3.63 3.82Zm7.75 0c2.1 0 3.1-1.24 3.33-2.32l.02-.07h-1.83l-.02.04c-.14.4-.64.86-1.46.86-1.02 0-1.65-.68-1.67-1.85h5.04v-.62c0-2.21-1.35-3.67-3.5-3.67-2.14 0-3.51 1.5-3.51 3.82v.01c0 2.34 1.36 3.8 3.6 3.8Zm-.05-6.14c.83 0 1.42.53 1.55 1.54h-3.11c.13-1 .74-1.54 1.56-1.54Zm4.68 5.99h2v-9.86h-2v9.86Z"/>
  <circle cx="794" cy="361" r="15" fill="#FF2534"/>
  <circle cx="845" cy="361" r="15" fill="#FD546E"/>
  <circle cx="896" cy="361" r="15" fill="#FB7FBB"/>
  <circle cx="947" cy="361" r="15" fill="#F01FB7"/>
  <circle cx="998" cy="361" r="15" fill="#BF004E"/>
  <circle cx="794" cy="412" r="15" fill="#FDBA29"/>
  <circle cx="845" cy="412" r="15" fill="#FDD533"/>
  <circle cx="896" cy="412" r="15" fill="#FABE70"/>
  <circle cx="947" cy="412" r="15" fill="#FD8F23"/>
  <circle cx="998" cy="412" r="15" fill="#FF6536"/>
  <path fill="#fff" d="M996.32 418.16c.48 0 .85-.18 1.1-.55l5.42-8.16c.18-.27.26-.53.26-.78 0-.66-.53-1.16-1.21-1.16-.46 0-.76.17-1.05.62l-4.54 7.12-2.28-2.72a1.1 1.1 0 0 0-.93-.43c-.69 0-1.2.5-1.2 1.17 0 .3.1.56.35.85l3.02 3.56c.29.33.63.48 1.06.48Z"/>
  <circle cx="794" cy="463" r="15" fill="#6C8"/>
  <circle cx="845" cy="463" r="15" fill="#8EDD54"/>
  <circle cx="896" cy="463" r="15" fill="#C5D933"/>
  <circle cx="947" cy="463" r="15" fill="#40A748"/>
  <circle cx="998" cy="463" r="15" fill="#138D7D"/>
  <circle cx="794" cy="514" r="15" fill="#1A8FE6"/>
  <circle cx="845" cy="514" r="15" fill="#37B7FC"/>
  <circle cx="896" cy="514" r="15" fill="#5FDBF2"/>
  <circle cx="947" cy="514" r="15" fill="#1DB4CE"/>
  <circle cx="998" cy="514" r="15" fill="#1B3C9C"/>
  <circle cx="794" cy="565" r="15" fill="#6E2BDC"/>
  <circle cx="845" cy="565" r="15" fill="#CF64F8"/>
  <circle cx="896" cy="565" r="15" fill="#D6A7FC"/>
  <circle cx="947" cy="565" r="15" fill="#9332E8"/>
  <circle cx="998" cy="565" r="15" fill="#9317A6"/>
  <circle cx="794" cy="616" r="15" fill="#6F757C"/>
  <circle cx="845" cy="616" r="15" fill="#949494"/>
  <circle cx="896" cy="616" r="15" fill="#CCC"/>
  <circle cx="947" cy="616" r="15" fill="#434343"/>
  <circle cx="998" cy="616" r="15" fill="#151515"/>
  <path fill="#6F757C" d="M783.08 326.16c2.06 0 3.64-1.22 4.02-3.1l.01-.07h-1.24l-.02.06a2.7 2.7 0 0 1-2.77 1.98c-1.96 0-3.24-1.57-3.24-3.97 0-2.4 1.27-3.95 3.24-3.95 1.39 0 2.36.7 2.74 1.89l.05.15h1.24l-.01-.07c-.38-1.86-1.97-3.1-4.02-3.1-2.75 0-4.5 1.97-4.5 5.08 0 3.1 1.76 5.1 4.5 5.1Zm5.37-.16h1.18v-4.15c0-1.2.74-2.04 1.84-2.04s1.76.75 1.76 2.04V326h1.19v-4.35c0-1.73-1.03-2.9-2.54-2.9-1.06 0-1.84.48-2.22 1.27h-.02v-3.88h-1.2V326Zm10.43.14c1.96 0 3.28-1.43 3.28-3.7 0-2.28-1.33-3.69-3.29-3.69s-3.29 1.42-3.29 3.68v.01c0 2.27 1.32 3.7 3.3 3.7Zm0-1.06c-1.25 0-2.08-.96-2.08-2.63v-.02c0-1.66.83-2.62 2.07-2.62 1.26 0 2.08.95 2.08 2.62v.01c0 1.67-.82 2.64-2.07 2.64Zm7.43 1.06c1.97 0 3.3-1.43 3.3-3.7 0-2.28-1.34-3.69-3.3-3.69-1.96 0-3.29 1.42-3.29 3.68v.01c0 2.27 1.32 3.7 3.3 3.7Zm.01-1.06c-1.26 0-2.08-.96-2.08-2.63v-.02c0-1.66.83-2.62 2.07-2.62 1.26 0 2.08.95 2.08 2.62v.01c0 1.67-.82 2.64-2.07 2.64Zm7 1.06c1.6 0 2.77-.88 2.77-2.12 0-1.02-.52-1.59-1.96-1.94l-1.12-.27c-.79-.2-1.11-.53-1.11-1.01 0-.64.53-1.06 1.4-1.06.88 0 1.4.46 1.5 1.15v.05h1.14v-.09c-.1-1.19-1.09-2.1-2.65-2.1-1.53 0-2.6.87-2.6 2.1 0 1.03.64 1.65 1.98 1.97l1.13.28c.8.2 1.07.48 1.07 1 0 .64-.57 1.05-1.53 1.05-.98 0-1.5-.42-1.65-1.13v-.07h-1.2v.06c.15 1.27 1.16 2.13 2.84 2.13Zm6.93 0c1.55 0 2.72-.93 2.95-2.1l.01-.08h-1.17l-.02.06c-.2.61-.84 1.06-1.74 1.06-1.26 0-2.07-.85-2.1-2.31h5.12v-.44c0-2.13-1.18-3.58-3.12-3.58-1.94 0-3.2 1.51-3.2 3.72 0 2.24 1.23 3.67 3.27 3.67Zm-.08-6.33c1.04 0 1.8.65 1.92 2.03h-3.89c.13-1.33.94-2.03 1.97-2.03Zm9.28 6.33c.95 0 1.8-.52 2.23-1.3h.02V326h1.2v-4.92c0-1.42-1.06-2.33-2.74-2.33-1.68 0-2.7.95-2.8 2.12v.07h1.14l.02-.06c.13-.64.7-1.07 1.63-1.07.99 0 1.55.52 1.55 1.4v.59l-2.03.11c-1.64.1-2.58.86-2.58 2.07v.01c0 1.3.95 2.15 2.36 2.15Zm-1.14-2.15v-.01c0-.67.54-1.09 1.5-1.15l1.9-.11v.58c0 1.03-.87 1.8-1.99 1.8-.85 0-1.41-.43-1.41-1.11Zm11.91 2.15c1.6 0 2.78-1.05 2.97-2.4v-.05h-1.17v.05c-.2.8-.83 1.34-1.8 1.34-1.23 0-2.08-.97-2.08-2.63 0-1.62.83-2.64 2.07-2.64 1.04 0 1.62.63 1.8 1.34v.05h1.17v-.05c-.16-1.22-1.2-2.4-2.97-2.4-1.98 0-3.28 1.44-3.28 3.68 0 2.27 1.27 3.7 3.3 3.7Zm7.01 0c1.97 0 3.3-1.43 3.3-3.7 0-2.28-1.34-3.69-3.3-3.69-1.96 0-3.3 1.42-3.3 3.68v.01c0 2.27 1.33 3.7 3.3 3.7Zm.01-1.06c-1.26 0-2.08-.96-2.08-2.63v-.02c0-1.66.83-2.62 2.07-2.62 1.25 0 2.08.95 2.08 2.62v.01c0 1.67-.82 2.64-2.07 2.64Zm4.55.92h1.19v-9.86h-1.2V326Zm5.74.14c1.96 0 3.29-1.43 3.29-3.7 0-2.28-1.34-3.69-3.3-3.69-1.96 0-3.29 1.42-3.29 3.68v.01c0 2.27 1.32 3.7 3.3 3.7Zm0-1.06c-1.25 0-2.08-.96-2.08-2.63v-.02c0-1.66.83-2.62 2.07-2.62 1.26 0 2.08.95 2.08 2.62v.01c0 1.67-.81 2.64-2.06 2.64Zm4.5.92h1.18v-4.39c0-1.08.6-1.72 1.52-1.72.3 0 .54.03.64.07v-1.16c-.1-.01-.27-.05-.48-.05-.8 0-1.41.52-1.65 1.34h-.03v-1.2h-1.19V326Z"/>
  <path fill="#1A8FE6" d="M939.2 674.5h2.16l.74-2.4h3.49l.75 2.4h2.16l-3.44-9.86h-2.42l-3.45 9.86Zm4.63-7.95h.04l1.24 4.01h-2.53l1.25-4.01Zm5.65 10.34h2v-3.64h.04a2.4 2.4 0 0 0 2.27 1.4c1.83 0 2.97-1.43 2.97-3.81v-.01c0-2.39-1.14-3.8-3-3.8-1.04 0-1.84.53-2.23 1.42h-.05v-1.28h-2v9.72Zm3.63-3.9c-.98 0-1.64-.83-1.64-2.15 0-1.33.66-2.16 1.64-2.16.99 0 1.62.8 1.62 2.15 0 1.34-.63 2.17-1.62 2.17Zm4.82 3.9h2v-3.64h.04a2.4 2.4 0 0 0 2.27 1.4c1.83 0 2.97-1.43 2.97-3.81v-.01c0-2.39-1.14-3.8-3-3.8-1.03 0-1.83.53-2.23 1.42h-.05v-1.28h-2v9.72Zm3.63-3.9c-.97 0-1.63-.83-1.63-2.15 0-1.33.66-2.16 1.63-2.16.99 0 1.62.8 1.62 2.15 0 1.34-.63 2.17-1.62 2.17Zm4.88 1.51h2v-9.86h-2v9.86Zm4.63 2.41c1.62 0 2.6-.55 3.18-2.28l2.52-7.46h-2.1l-1.56 5.73h-.05l-1.55-5.73h-2.2l2.6 7.33-.1.24c-.17.5-.5.67-1.1.67-.29 0-.52-.04-.66-.07v1.48c.23.04.63.1 1.02.1Z"/>
  <path fill="#1A8FE6" fill-opacity=".12" d="M903 661.1c0-2.9 0-4.34.58-5.44a5 5 0 0 1 2.08-2.08c1.1-.58 2.55-.58 5.44-.58h93.8c2.89 0 4.34 0 5.44.58.89.47 1.61 1.2 2.08 2.08.58 1.1.58 2.55.58 5.44v16.8c0 2.9 0 4.34-.58 5.44a4.99 4.99 0 0 1-2.08 2.08c-1.1.58-2.55.58-5.44.58h-93.8c-2.9 0-4.34 0-5.44-.58a5 5 0 0 1-2.08-2.08c-.58-1.1-.58-2.55-.58-5.44v-16.8Z"/>
  <path fill="#fff" d="M474 303.1c0-2.9 0-4.34.58-5.44a5 5 0 0 1 2.08-2.08c1.1-.58 2.54-.58 5.44-.58h203.8c2.9 0 4.34 0 5.44.58a5 5 0 0 1 2.08 2.08c.58 1.1.58 2.54.58 5.44v133.8c0 2.9 0 4.34-.58 5.44a5 5 0 0 1-2.08 2.08c-1.1.58-2.55.58-5.44.58H482.1c-2.9 0-4.34 0-5.44-.58a5 5 0 0 1-2.08-2.08c-.58-1.1-.58-2.54-.58-5.44V303.1Z"/>
  <path fill="#FAFAFA" d="M474 370h220v35H474z"/>
  <path fill="#C4C4C4" d="M497.18 323.16c2.26 0 3.65-1.1 3.65-2.85v-.01c0-1.5-.85-2.32-2.87-2.77l-1.1-.24c-1.28-.28-1.88-.78-1.88-1.6 0-.95.86-1.58 2.18-1.58 1.25 0 2.1.6 2.24 1.6l.02.1h1.23v-.11c-.12-1.61-1.52-2.73-3.45-2.73-2.03 0-3.47 1.14-3.47 2.76 0 1.45.9 2.31 2.82 2.74l1.1.24c1.35.3 1.92.78 1.92 1.65 0 1.03-.9 1.67-2.32 1.67-1.43 0-2.38-.6-2.53-1.6l-.01-.1h-1.23v.1c.13 1.69 1.57 2.73 3.7 2.73Zm7.22-.02c.23 0 .48-.03.63-.05v-.96l-.38.02c-.64 0-.97-.21-.97-.97v-4.3h1.35v-.99h-1.35v-1.92h-1.23v1.92h-1.04v.99h1.04v4.3c0 1.37.64 1.96 1.95 1.96Zm3.85 0c.95 0 1.8-.52 2.22-1.3h.03V323h1.19v-4.92c0-1.42-1.05-2.33-2.74-2.33-1.67 0-2.69.95-2.8 2.12v.07h1.15l.01-.06c.14-.64.71-1.07 1.63-1.07 1 0 1.56.52 1.56 1.4v.59l-2.04.11c-1.63.1-2.57.86-2.57 2.07v.01c0 1.3.95 2.15 2.36 2.15Zm-1.15-2.15v-.01c0-.67.55-1.09 1.5-1.15l1.9-.11v.58c0 1.03-.86 1.8-1.98 1.8-.86 0-1.42-.43-1.42-1.11Zm8.41 2.15c.23 0 .49-.03.64-.05v-.96l-.39.02c-.63 0-.97-.21-.97-.97v-4.3h1.36v-.99h-1.36v-1.92h-1.23v1.92h-1.04v.99h1.04v4.3c0 1.37.65 1.96 1.95 1.96Zm4.34 0c1.08 0 1.8-.49 2.19-1.15h.03V323h1.19v-7.1h-1.2v4.17c0 1.21-.72 2.01-1.85 2.01-1.09 0-1.63-.63-1.63-1.79v-4.4h-1.19v4.62c0 1.62.9 2.63 2.46 2.63Zm7.48 0c1.59 0 2.76-.88 2.76-2.12 0-1.02-.52-1.59-1.95-1.94l-1.13-.27c-.79-.2-1.1-.53-1.1-1.01 0-.64.52-1.06 1.39-1.06.88 0 1.4.46 1.5 1.15v.05h1.14v-.09c-.1-1.19-1.09-2.1-2.64-2.1-1.54 0-2.62.87-2.62 2.1 0 1.03.65 1.65 2 1.97l1.12.28c.8.2 1.08.48 1.08 1 0 .64-.58 1.05-1.54 1.05-.97 0-1.5-.42-1.64-1.13l-.02-.07h-1.19l.01.06c.14 1.27 1.15 2.13 2.83 2.13Zm9.18 0c.23 0 .49-.03.64-.05v-.96l-.39.02c-.63 0-.97-.21-.97-.97v-4.3h1.36v-.99h-1.36v-1.92h-1.23v1.92h-1.04v.99h1.04v4.3c0 1.37.65 1.96 1.95 1.96Zm2.6 2.25c1.28 0 1.9-.58 2.41-1.95l2.78-7.55h-1.25l-1.97 5.92h-.03l-1.96-5.92h-1.27l2.63 7.12-.14.4c-.29.8-.7 1-1.45 1-.15 0-.28-.02-.39-.04v.97c.15.03.4.05.64.05Zm6.12 0h1.2v-3.58h.02a2.52 2.52 0 0 0 2.28 1.33c1.78 0 3-1.45 3-3.69 0-2.25-1.2-3.7-3.02-3.7-1.02 0-1.82.52-2.26 1.34h-.03v-1.2h-1.19v9.5Zm3.24-3.3c-1.2 0-2.05-1.05-2.05-2.64 0-1.6.85-2.64 2.05-2.64 1.26 0 2.04 1 2.04 2.63v.01c0 1.62-.78 2.63-2.04 2.63Zm7.39 1.05c1.55 0 2.71-.93 2.94-2.1l.02-.08h-1.17l-.02.06c-.2.61-.84 1.06-1.75 1.06-1.26 0-2.07-.85-2.1-2.31h5.13v-.44c0-2.13-1.19-3.58-3.13-3.58s-3.2 1.51-3.2 3.72c0 2.24 1.23 3.67 3.28 3.67Zm-.09-6.33c1.04 0 1.8.65 1.93 2.03h-3.9c.14-1.33.94-2.03 1.97-2.03Z"/>
  <path fill="#6F757C" d="M493.96 358h1.21v-7.79h.04l5.43 7.79h1.2v-9.86h-1.22v7.78h-.04l-5.43-7.78h-1.2V358Zm12.55.14c1.96 0 3.29-1.43 3.29-3.7 0-2.28-1.34-3.69-3.3-3.69-1.96 0-3.29 1.42-3.29 3.68v.01c0 2.27 1.32 3.7 3.3 3.7Zm0-1.06c-1.25 0-2.08-.96-2.08-2.63v-.02c0-1.66.83-2.62 2.07-2.62 1.26 0 2.08.95 2.08 2.62v.01c0 1.67-.81 2.64-2.06 2.64Zm10.03 1.06a2.5 2.5 0 0 0 2.26-1.34h.03v1.2h1.19v-9.86h-1.2v3.94h-.02a2.52 2.52 0 0 0-2.28-1.33c-1.78 0-3 1.45-3 3.69 0 2.25 1.2 3.7 3.02 3.7Zm.24-1.06c-1.26 0-2.04-1-2.04-2.63v-.01c0-1.62.78-2.63 2.03-2.63 1.2 0 2.06 1.04 2.06 2.63 0 1.6-.85 2.64-2.06 2.64Zm6.92 1.06c.95 0 1.8-.52 2.22-1.3h.03V358h1.19v-4.92c0-1.42-1.05-2.33-2.74-2.33-1.67 0-2.69.95-2.8 2.12v.07h1.15l.01-.06c.14-.64.72-1.07 1.63-1.07 1 0 1.56.52 1.56 1.4v.59l-2.04.11c-1.63.1-2.57.86-2.57 2.07v.01c0 1.3.94 2.15 2.36 2.15Zm-1.15-2.15v-.01c0-.67.55-1.09 1.5-1.15l1.9-.11v.58c0 1.03-.86 1.8-1.98 1.8-.86 0-1.42-.43-1.42-1.11Zm8.41 2.15c.23 0 .49-.03.64-.05v-.96l-.39.02c-.63 0-.97-.21-.97-.97v-4.3h1.36v-.99h-1.36v-1.92h-1.23v1.92h-1.04v.99h1.04v4.3c0 1.37.64 1.96 1.95 1.96Zm4.63 0c1.56 0 2.72-.93 2.95-2.1l.01-.08h-1.16l-.02.06c-.21.61-.85 1.06-1.75 1.06-1.26 0-2.07-.85-2.1-2.31h5.12v-.44c0-2.13-1.18-3.58-3.12-3.58-1.94 0-3.2 1.51-3.2 3.72 0 2.24 1.23 3.67 3.27 3.67Zm-.08-6.33c1.04 0 1.8.65 1.92 2.03h-3.89c.13-1.33.94-2.03 1.97-2.03Zm9.29 6.33c.95 0 1.8-.52 2.22-1.3h.02V358h1.2v-4.92c0-1.42-1.06-2.33-2.74-2.33-1.67 0-2.7.95-2.8 2.12v.07h1.15v-.06c.15-.64.72-1.07 1.64-1.07.99 0 1.55.52 1.55 1.4v.59l-2.03.11c-1.64.1-2.58.86-2.58 2.07v.01c0 1.3.95 2.15 2.37 2.15Zm-1.15-2.15v-.01c0-.67.54-1.09 1.5-1.15l1.9-.11v.58c0 1.03-.87 1.8-1.99 1.8-.85 0-1.41-.43-1.41-1.11Zm6.1 2.01h1.18v-4.18c0-1.21.74-2.01 1.86-2.01 1.1 0 1.63.63 1.63 1.79v4.4h1.19v-4.61c0-1.62-.9-2.64-2.46-2.64-1.08 0-1.8.49-2.19 1.15h-.03v-1h-1.18v7.1Zm10.05.14a2.5 2.5 0 0 0 2.26-1.34h.02v1.2h1.2v-9.86h-1.2v3.94h-.02a2.52 2.52 0 0 0-2.28-1.33c-1.78 0-3 1.45-3 3.69 0 2.25 1.2 3.7 3.02 3.7Zm.23-1.06c-1.25 0-2.03-1-2.03-2.63v-.01c0-1.62.77-2.63 2.03-2.63 1.2 0 2.06 1.04 2.06 2.63 0 1.6-.85 2.64-2.06 2.64Zm10.03 1.06c.23 0 .49-.03.64-.05v-.96l-.39.02c-.63 0-.97-.21-.97-.97v-4.3h1.36v-.99h-1.36v-1.92h-1.23v1.92h-1.04v.99h1.04v4.3c0 1.37.65 1.96 1.95 1.96Zm2.59-8.45c.41 0 .74-.34.74-.75a.74.74 0 0 0-.74-.74.75.75 0 0 0 0 1.5Zm-.6 8.31h1.19v-7.1h-1.19v7.1Zm2.81 0h1.19v-4.46c0-.99.68-1.73 1.63-1.73.88 0 1.45.56 1.45 1.43V358h1.2v-4.52c0-.97.65-1.67 1.6-1.67.94 0 1.48.58 1.48 1.56V358h1.19v-4.9c0-1.42-.91-2.35-2.32-2.35-1 0-1.83.52-2.23 1.37h-.03a2 2 0 0 0-2-1.37c-.91 0-1.62.48-1.94 1.18h-.03v-1.04h-1.19V358Zm14.18.14c1.55 0 2.71-.93 2.94-2.1l.02-.08h-1.17l-.02.06c-.2.61-.84 1.06-1.74 1.06-1.27 0-2.08-.85-2.1-2.31h5.12v-.44c0-2.13-1.19-3.58-3.13-3.58s-3.2 1.51-3.2 3.72c0 2.24 1.23 3.67 3.28 3.67Zm-.08-6.33c1.03 0 1.8.65 1.92 2.03h-3.9c.14-1.33.94-2.03 1.98-2.03Z"/>
  <path fill="#464647" d="M493.96 393h3.31c2.94 0 4.66-1.82 4.66-4.94 0-3.1-1.74-4.92-4.66-4.92h-3.31V393Zm1.23-1.1v-7.66h2c2.24 0 3.48 1.36 3.48 3.82v.02c0 2.44-1.24 3.81-3.48 3.81h-2Zm10.16 1.24c.95 0 1.8-.52 2.22-1.3h.03V393h1.2v-4.92c0-1.42-1.06-2.33-2.74-2.33-1.68 0-2.7.95-2.8 2.12v.07h1.14l.02-.06c.13-.64.7-1.07 1.62-1.07 1 0 1.56.52 1.56 1.4v.59l-2.04.11c-1.63.1-2.57.86-2.57 2.07v.01c0 1.3.95 2.15 2.36 2.15Zm-1.15-2.15v-.01c0-.67.55-1.09 1.5-1.15l1.9-.11v.58c0 1.03-.86 1.8-1.98 1.8-.86 0-1.42-.43-1.42-1.11Zm8.41 2.15c.24 0 .49-.03.64-.05v-.96l-.38.02c-.64 0-.98-.21-.98-.97v-4.3h1.36v-.99h-1.36v-1.92h-1.23v1.92h-1.04v.99h1.04v4.3c0 1.37.65 1.96 1.95 1.96Zm4.64 0c1.55 0 2.71-.93 2.94-2.1l.02-.08h-1.17l-.02.06c-.2.61-.84 1.06-1.75 1.06-1.26 0-2.07-.85-2.1-2.31h5.13v-.44c0-2.13-1.19-3.58-3.13-3.58s-3.2 1.51-3.2 3.72c0 2.24 1.23 3.67 3.28 3.67Zm-.09-6.33c1.04 0 1.81.65 1.93 2.03h-3.9c.14-1.33.94-2.03 1.97-2.03Zm9.29 6.33c.95 0 1.8-.52 2.22-1.3h.03V393h1.19v-4.92c0-1.42-1.06-2.33-2.74-2.33-1.67 0-2.7.95-2.8 2.12v.07h1.15l.01-.06c.14-.64.71-1.07 1.63-1.07.99 0 1.56.52 1.56 1.4v.59l-2.04.11c-1.63.1-2.58.86-2.58 2.07v.01c0 1.3.95 2.15 2.37 2.15Zm-1.15-2.15v-.01c0-.67.55-1.09 1.5-1.15l1.9-.11v.58c0 1.03-.86 1.8-1.99 1.8-.85 0-1.41-.43-1.41-1.11Zm6.1 2.01h1.19v-4.18c0-1.21.73-2.01 1.85-2.01 1.1 0 1.63.63 1.63 1.79v4.4h1.2v-4.61c0-1.62-.91-2.64-2.47-2.64-1.08 0-1.8.49-2.19 1.15h-.02v-1h-1.2v7.1Zm10.05.14a2.5 2.5 0 0 0 2.26-1.34h.03v1.2h1.19v-9.86h-1.2v3.94h-.02a2.52 2.52 0 0 0-2.28-1.33c-1.78 0-3 1.45-3 3.69 0 2.25 1.2 3.7 3.02 3.7Zm.24-1.06c-1.26 0-2.04-1-2.04-2.63v-.01c0-1.62.78-2.63 2.04-2.63 1.2 0 2.05 1.04 2.05 2.63 0 1.6-.85 2.64-2.05 2.64Zm10.02 1.06c.24 0 .49-.03.64-.05v-.96l-.38.02c-.64 0-.97-.21-.97-.97v-4.3h1.35v-.99H551v-1.92h-1.23v1.92h-1.04v.99h1.04v4.3c0 1.37.64 1.96 1.94 1.96Zm2.59-8.45c.42 0 .74-.34.74-.75a.74.74 0 0 0-.74-.74.75.75 0 0 0 0 1.5Zm-.6 8.31h1.2v-7.1h-1.2v7.1Zm2.81 0h1.2v-4.46c0-.99.68-1.73 1.62-1.73.88 0 1.45.56 1.45 1.43V393h1.2v-4.52c0-.97.66-1.67 1.6-1.67.94 0 1.48.58 1.48 1.56V393h1.19v-4.9c0-1.42-.91-2.35-2.32-2.35-1 0-1.83.52-2.23 1.37h-.03a2 2 0 0 0-2-1.37c-.9 0-1.62.48-1.94 1.18h-.03v-1.04h-1.19V393Zm14.18.14c1.55 0 2.71-.93 2.95-2.1l.01-.08h-1.17l-.02.06c-.2.61-.84 1.06-1.74 1.06-1.27 0-2.07-.85-2.1-2.31h5.12v-.44c0-2.13-1.18-3.58-3.13-3.58-1.94 0-3.2 1.51-3.2 3.72 0 2.24 1.24 3.67 3.28 3.67Zm-.08-6.33c1.04 0 1.8.65 1.92 2.03h-3.89c.13-1.33.94-2.03 1.97-2.03Z"/>
  <path fill="#6F757C" d="M496.45 428h1.23v-8.76h3.11v-1.1h-7.45v1.1h3.11V428Zm5.5 0h1.2l1.6-5.5h.04l1.6 5.5h1.21l1.98-7.1h-1.17l-1.42 5.77h-.03l-1.61-5.78h-1.15l-1.6 5.78h-.04l-1.42-5.78h-1.18l1.99 7.11Zm11.56.14c1.96 0 3.29-1.43 3.29-3.7 0-2.28-1.34-3.69-3.3-3.69-1.96 0-3.29 1.42-3.29 3.68v.01c0 2.27 1.32 3.7 3.3 3.7Zm0-1.06c-1.25 0-2.08-.96-2.08-2.63v-.02c0-1.66.83-2.62 2.07-2.62 1.26 0 2.08.95 2.08 2.62v.01c0 1.67-.81 2.64-2.07 2.64Zm10.03 1.06a2.5 2.5 0 0 0 2.26-1.34h.03v1.2h1.19v-9.86h-1.2v3.94h-.02a2.52 2.52 0 0 0-2.28-1.33c-1.78 0-3 1.45-3 3.69 0 2.25 1.2 3.7 3.02 3.7Zm.24-1.06c-1.26 0-2.04-1-2.04-2.63v-.01c0-1.62.78-2.63 2.03-2.63 1.2 0 2.06 1.04 2.06 2.63 0 1.6-.85 2.64-2.06 2.64Zm6.92 1.06c.95 0 1.8-.52 2.22-1.3h.03V428h1.19v-4.92c0-1.42-1.05-2.33-2.74-2.33-1.67 0-2.69.95-2.8 2.12v.07h1.15l.01-.06c.14-.64.72-1.07 1.63-1.07 1 0 1.56.52 1.56 1.4v.59l-2.04.11c-1.63.1-2.57.86-2.57 2.07v.01c0 1.3.94 2.15 2.36 2.15Zm-1.15-2.15v-.01c0-.67.55-1.09 1.5-1.15l1.9-.11v.58c0 1.03-.86 1.8-1.98 1.8-.86 0-1.42-.43-1.42-1.11Zm8.41 2.15c.23 0 .49-.03.64-.05v-.96l-.39.02c-.63 0-.97-.21-.97-.97v-4.3h1.36v-.99h-1.36v-1.92h-1.23v1.92h-1.04v.99h1.04v4.3c0 1.37.64 1.96 1.95 1.96Zm4.63 0c1.56 0 2.72-.93 2.95-2.1l.01-.08h-1.16l-.02.06c-.21.61-.85 1.06-1.75 1.06-1.26 0-2.07-.85-2.1-2.31h5.12v-.44c0-2.13-1.18-3.58-3.12-3.58-1.94 0-3.2 1.51-3.2 3.72 0 2.24 1.23 3.67 3.27 3.67Zm-.08-6.33c1.04 0 1.8.65 1.92 2.03h-3.89c.13-1.33.94-2.03 1.97-2.03Z"/>
  <path fill="#fff" fill-opacity=".01" d="M0 0h1148v116H0z"/>
  <path fill="#002432" fill-rule="evenodd" d="M161 42.07c0 .44-.34.8-.78.8-.27 0-.5-.13-.69-.38l-4.33-5.63-1.5 1.21v4c0 .44-.34.8-.78.8a.78.78 0 0 1-.78-.8V25.78c0-.44.34-.79.78-.79s.79.35.79.8v10.4l5.77-4.8c.2-.17.4-.2.54-.2.44 0 .79.35.79.8 0 .2-.08.45-.32.65l-4.02 3.25 4.36 5.68a.7.7 0 0 1 .17.5Zm-11.46-9.43c-2.25 0-3.4 1.58-3.4 3.87v5.56c0 .44-.34.8-.79.8a.78.78 0 0 1-.78-.8V31.99c0-.45.34-.8.78-.8s.79.35.79.8v1.1c.49-1.15 1.71-2 3.4-2a.77.77 0 0 1 0 1.55Zm-12.56 10.35c-3.16 0-5.14-1.92-5.14-5.99s1.98-5.95 5.14-5.95c3.18 0 5.14 1.88 5.14 5.95s-1.96 6-5.14 6Zm0-10.5c-2.25 0-3.55 1.39-3.55 4.51 0 3.18 1.3 4.55 3.55 4.55s3.55-1.37 3.55-4.55c0-3.12-1.3-4.51-3.55-4.51Zm-9.72 9.85a.79.79 0 0 1-1.5-.05l-2.25-7.87-2.25 7.87a.79.79 0 0 1-1.5.05l-3.6-10a.98.98 0 0 1-.07-.35.78.78 0 0 1 1.52-.27l2.84 8.21 2.33-8.21a.74.74 0 0 1 .73-.52c.42 0 .66.27.74.52l2.32 8.21 2.84-8.21c.13-.33.4-.52.74-.52.44 0 .78.34.78.79 0 .1-.02.22-.07.35l-3.6 10Zm-17.85.65c-3.16 0-5.02-1.92-5.02-5.99s1.76-5.95 4.92-5.95c1.57 0 2.77.82 3.33 1.61v-6.88c0-.44.34-.79.78-.79s.79.35.79.8v12.3c0 3.28-2.01 4.9-4.8 4.9Zm3.23-8.32s-.93-2.18-3.23-2.18c-2.23 0-3.45 1.46-3.45 4.51 0 3.1 1.2 4.55 3.45 4.55 1.88 0 3.23-1.1 3.23-3.45v-3.43Zm-11.24 8.2a.78.78 0 0 1-.78-.8v-6.3c0-1.97-.57-3.3-2.94-3.3-2.43 0-3.26 1.48-3.26 3.47v6.13c0 .44-.34.8-.78.8a.78.78 0 0 1-.79-.8V31.99c0-.45.35-.8.79-.8.44 0 .78.35.78.8v.8c.47-.95 1.67-1.74 3.26-1.74 3.77 0 4.5 2.28 4.5 4.39v6.63c0 .44-.34.8-.78.8Zm-11.95-5.4H82.3c0 2.46 1.4 4.05 3.7 4.05 1.42 0 2.25-.54 2.94-1.07.14-.1.24-.14.44-.14.39 0 .7.32.7.72 0 .27-.12.42-.26.57A5.42 5.42 0 0 1 86 42.99c-3.26 0-5.3-1.82-5.3-5.99 0-3.82 1.87-5.95 5.05-5.95 3.92 0 4.68 3.15 4.68 4.84 0 .72 0 1.59-.98 1.59Zm-3.7-4.98c-2.13 0-3.3 1.39-3.45 3.6h6.59c0-1.8-.61-3.6-3.14-3.6Zm-8.27-3.63c-.6 0-.93-.35-.93-.94 0-.72.34-1 .93-1 .58 0 .93.28.93 1 0 .6-.35.94-.93.94Zm-3.36 3.78c-2.25 0-3.4 1.58-3.4 3.87v5.56c0 .44-.34.8-.79.8a.78.78 0 0 1-.78-.8V31.99c0-.45.34-.8.78-.8.45 0 .79.35.79.8v1.1c.49-1.15 1.71-2 3.4-2a.77.77 0 0 1 0 1.55Zm-7.32-5.5c-1.91 0-2.67 1.18-2.67 2.79v1.46h2.23c.42 0 .73.33.73.75s-.31.74-.73.74h-2.23v9.19c0 .44-.34.8-.78.8a.78.78 0 0 1-.79-.8v-9.19h-.83a.73.73 0 0 1-.73-.74c0-.42.32-.75.73-.75h.83v-1.46c0-2.23 1.25-4.27 4.24-4.27.42 0 .74.32.74.74 0 .43-.32.75-.74.75Zm10.68 4.06c.44 0 .78.34.78.79v10.08c0 .44-.34.8-.78.8a.78.78 0 0 1-.79-.8V31.99c0-.45.34-.8.79-.8Z" clip-rule="evenodd"/>
  <path fill="#29B8FF" fill-rule="evenodd" d="M34 53c-10.48 0-19-8.52-19-19a19.02 19.02 0 0 1 22.83-18.62 1.05 1.05 0 0 1-.42 2.06A16.92 16.92 0 0 0 17.1 34c0 9.32 7.58 16.9 16.9 16.9a16.92 16.92 0 0 0 12.96-27.76 1.05 1.05 0 0 1 1.6-1.35A19.01 19.01 0 0 1 34 53Zm-2.35-31.2a12.4 12.4 0 0 1 12.33 19.28 12.3 12.3 0 0 1-10.14 5.3c-5.55 0-10.6-3.77-12.01-9.3a1.05 1.05 0 1 1 2.03-.52 10.32 10.32 0 0 0 11.77 7.57c2.7-.48 5.06-2 6.63-4.25a10.3 10.3 0 0 0-14.72-14.04 1.05 1.05 0 1 1-1.28-1.65 12.41 12.41 0 0 1 5.39-2.38Zm-10.53 8.85a3.35 3.35 0 1 1 6.7 0 3.35 3.35 0 0 1-6.7 0ZM37.35 34a3.35 3.35 0 1 1-6.7 0 3.35 3.35 0 0 1 6.7 0Zm-8.84-5.26a1.05 1.05 0 0 1 .19-1.47 8.52 8.52 0 0 1 13.55 5.24c.4 2.23-.1 4.49-1.4 6.35a8.45 8.45 0 0 1-6.96 3.64 8.53 8.53 0 0 1-8.24-6.39 1.05 1.05 0 1 1 2.03-.52 6.42 6.42 0 0 0 11.45 2.07 6.36 6.36 0 0 0 1.05-4.78 6.36 6.36 0 0 0-7.42-5.18 6.3 6.3 0 0 0-2.78 1.23c-.46.35-1.12.26-1.47-.2Zm14.6-6.47a3.35 3.35 0 1 1 0-6.7 3.35 3.35 0 0 1 0 6.7Z" clip-rule="evenodd"/>
  <path fill="url(#a)" fill-rule="evenodd" d="M34 53c-10.48 0-19-8.52-19-19a19.02 19.02 0 0 1 22.83-18.62 1.05 1.05 0 0 1-.42 2.06A16.92 16.92 0 0 0 17.1 34c0 9.32 7.58 16.9 16.9 16.9a16.92 16.92 0 0 0 12.96-27.76 1.05 1.05 0 0 1 1.6-1.35A19.01 19.01 0 0 1 34 53Zm-2.35-31.2a12.4 12.4 0 0 1 12.33 19.28 12.3 12.3 0 0 1-10.14 5.3c-5.55 0-10.6-3.77-12.01-9.3a1.05 1.05 0 1 1 2.03-.52 10.32 10.32 0 0 0 11.77 7.57c2.7-.48 5.06-2 6.63-4.25a10.3 10.3 0 0 0-14.72-14.04 1.05 1.05 0 1 1-1.28-1.65 12.41 12.41 0 0 1 5.39-2.38Zm-10.53 8.85a3.35 3.35 0 1 1 6.7 0 3.35 3.35 0 0 1-6.7 0ZM37.35 34a3.35 3.35 0 1 1-6.7 0 3.35 3.35 0 0 1 6.7 0Zm-8.84-5.26a1.05 1.05 0 0 1 .19-1.47 8.52 8.52 0 0 1 13.55 5.24c.4 2.23-.1 4.49-1.4 6.35a8.45 8.45 0 0 1-6.96 3.64 8.53 8.53 0 0 1-8.24-6.39 1.05 1.05 0 1 1 2.03-.52 6.42 6.42 0 0 0 11.45 2.07 6.36 6.36 0 0 0 1.05-4.78 6.36 6.36 0 0 0-7.42-5.18 6.3 6.3 0 0 0-2.78 1.23c-.46.35-1.12.26-1.47-.2Zm14.6-6.47a3.35 3.35 0 1 1 0-6.7 3.35 3.35 0 0 1 0 6.7Z" clip-rule="evenodd"/>
  <path fill="#6F757C" d="M201.8 44.19c2.36 0 4.17-1.4 4.6-3.56l.01-.08H205l-.02.08a3.09 3.09 0 0 1-3.16 2.26c-2.25 0-3.7-1.79-3.7-4.53 0-2.75 1.44-4.52 3.7-4.52 1.58 0 2.69.8 3.13 2.16l.05.17h1.42l-.01-.08c-.43-2.13-2.25-3.55-4.6-3.55-3.14 0-5.14 2.26-5.14 5.81 0 3.56 2.01 5.84 5.15 5.84Zm8.76-.03c1.09 0 2.06-.59 2.54-1.48h.03V44h1.36v-5.62c0-1.62-1.2-2.66-3.12-2.66-1.92 0-3.08 1.08-3.2 2.41v.09h1.3l.02-.07c.16-.73.81-1.23 1.86-1.23 1.13 0 1.78.6 1.78 1.6v.68l-2.33.13c-1.86.1-2.94.97-2.94 2.36v.01c0 1.48 1.08 2.46 2.7 2.46Zm-1.31-2.46v-.01c0-.76.63-1.24 1.71-1.3l2.17-.14v.66c0 1.18-.98 2.07-2.26 2.07-.98 0-1.62-.5-1.62-1.28Zm7.29 2.3h1.36v-4.78c0-1.38.83-2.3 2.11-2.3 1.25 0 1.87.73 1.87 2.05V44h1.36v-5.27c0-1.85-1.03-3.01-2.81-3.01-1.24 0-2.06.55-2.5 1.31h-.03v-1.16h-1.36V44Zm11.81.16c1.16 0 2.07-.59 2.58-1.53h.03V44h1.36V32.73h-1.36v4.5h-.03a2.88 2.88 0 0 0-2.6-1.51c-2.04 0-3.43 1.65-3.43 4.21 0 2.57 1.37 4.23 3.45 4.23Zm.27-1.2c-1.44 0-2.33-1.16-2.33-3.02v-.01c0-1.85.89-3 2.33-3 1.36 0 2.35 1.19 2.35 3 0 1.83-.98 3.02-2.35 3.02Zm6.62-8.46c.48 0 .85-.38.85-.85a.84.84 0 0 0-.85-.85.85.85 0 0 0-.85.85c0 .47.38.85.85.85Zm-.68 9.5h1.36v-8.13h-1.36V44Zm6.59.16c1.16 0 2.07-.59 2.57-1.53h.04V44h1.36V32.73h-1.36v4.5h-.03a2.88 2.88 0 0 0-2.6-1.51c-2.05 0-3.44 1.65-3.44 4.21 0 2.57 1.38 4.23 3.46 4.23Zm.26-1.2c-1.44 0-2.33-1.16-2.33-3.02v-.01c0-1.85.9-3 2.33-3 1.37 0 2.35 1.19 2.35 3 0 1.83-.97 3.02-2.35 3.02Zm8.24 1.2c1.08 0 2.06-.59 2.54-1.48h.03V44h1.36v-5.62c0-1.62-1.2-2.66-3.13-2.66-1.91 0-3.08 1.08-3.2 2.41v.09h1.31l.02-.07c.15-.73.8-1.23 1.86-1.23 1.13 0 1.78.6 1.78 1.6v.68l-2.33.13c-1.87.1-2.95.97-2.95 2.36v.01c0 1.48 1.09 2.46 2.7 2.46Zm-1.32-2.46v-.01c0-.76.63-1.24 1.71-1.3l2.18-.14v.66c0 1.18-.99 2.07-2.27 2.07-.97 0-1.62-.5-1.62-1.28Zm9.93 2.46c.27 0 .56-.03.73-.06V43c-.12 0-.27.03-.44.03-.72 0-1.1-.24-1.1-1.1V37h1.54v-1.13h-1.55v-2.19h-1.4v2.2h-1.2V37h1.2v4.93c0 1.55.73 2.23 2.22 2.23Zm5.62 0c1.77 0 3.1-1.07 3.37-2.41l.01-.08h-1.33l-.03.07c-.23.7-.96 1.21-1.99 1.21-1.44 0-2.37-.97-2.4-2.65h5.86v-.5c0-2.43-1.36-4.08-3.58-4.08-2.21 0-3.65 1.73-3.65 4.24 0 2.56 1.4 4.2 3.74 4.2Zm-.1-7.24c1.2 0 2.07.74 2.2 2.32h-4.44c.14-1.51 1.07-2.32 2.25-2.32Zm8.16 7.24c1.81 0 3.16-1 3.16-2.43 0-1.16-.6-1.8-2.24-2.2l-1.29-.32c-.9-.22-1.26-.6-1.26-1.16 0-.72.6-1.2 1.6-1.2s1.6.52 1.71 1.31l.01.06h1.3l-.01-.1c-.1-1.36-1.24-2.4-3.02-2.4-1.75 0-2.98 1-2.98 2.39 0 1.18.74 1.89 2.27 2.26l1.3.31c.91.23 1.22.55 1.22 1.14 0 .74-.66 1.2-1.76 1.2s-1.71-.47-1.88-1.29l-.01-.07h-1.36v.07c.17 1.45 1.33 2.43 3.24 2.43Zm44.86.03c2.36 0 4.17-1.4 4.6-3.56l.01-.08H320l-.02.08a3.09 3.09 0 0 1-3.17 2.26c-2.24 0-3.7-1.79-3.7-4.53 0-2.75 1.45-4.52 3.7-4.52 1.6 0 2.7.8 3.14 2.16l.05.17h1.42l-.01-.08c-.43-2.13-2.25-3.55-4.6-3.55-3.14 0-5.14 2.26-5.14 5.81 0 3.56 2.01 5.84 5.14 5.84Zm8.76-.03c1.09 0 2.06-.59 2.54-1.48h.03V44h1.36v-5.62c0-1.62-1.2-2.66-3.12-2.66-1.92 0-3.08 1.08-3.2 2.41v.09h1.3l.02-.07c.16-.73.81-1.23 1.86-1.23 1.13 0 1.78.6 1.78 1.6v.68l-2.33.13c-1.86.1-2.94.97-2.94 2.36v.01c0 1.48 1.08 2.46 2.7 2.46Zm-1.31-2.46v-.01c0-.76.63-1.24 1.71-1.3l2.17-.14v.66c0 1.18-.98 2.07-2.26 2.07-.98 0-1.62-.5-1.62-1.28Zm7.29 2.3h1.36v-5.02c0-1.23.69-1.96 1.74-1.96.33 0 .62.03.73.07v-1.32c-.11-.01-.32-.05-.55-.05-.91 0-1.62.6-1.9 1.53h-.02v-1.38h-1.36V44Zm8.2.16c1.78 0 3.11-1.07 3.38-2.41l.01-.08h-1.33l-.03.07c-.23.7-.96 1.21-1.99 1.21-1.44 0-2.37-.97-2.4-2.65h5.85v-.5c0-2.43-1.35-4.08-3.57-4.08-2.22 0-3.65 1.73-3.65 4.24 0 2.56 1.4 4.2 3.74 4.2Zm-.09-7.24c1.2 0 2.07.74 2.2 2.32h-4.45c.15-1.51 1.08-2.32 2.25-2.32Zm8.62 7.24c1.78 0 3.1-1.07 3.37-2.41l.01-.08h-1.33l-.02.07c-.24.7-.97 1.21-2 1.21-1.44 0-2.36-.97-2.4-2.65h5.86v-.5c0-2.43-1.36-4.08-3.57-4.08-2.22 0-3.66 1.73-3.66 4.24 0 2.56 1.4 4.2 3.74 4.2Zm-.1-7.24c1.2 0 2.07.74 2.2 2.32h-4.44c.15-1.51 1.07-2.32 2.25-2.32Zm5.28 7.08h1.36v-5.02c0-1.23.69-1.96 1.74-1.96.33 0 .62.03.73.07v-1.32c-.11-.01-.31-.05-.55-.05-.91 0-1.61.6-1.89 1.53h-.03v-1.38h-1.36V44Zm8.14.16c1.81 0 3.16-1 3.16-2.43 0-1.16-.6-1.8-2.24-2.2l-1.28-.32c-.9-.22-1.27-.6-1.27-1.16 0-.72.6-1.2 1.6-1.2s1.6.52 1.71 1.31v.06h1.3v-.1c-.1-1.36-1.24-2.4-3.02-2.4-1.75 0-2.98 1-2.98 2.39 0 1.18.74 1.89 2.27 2.26l1.3.31c.91.23 1.22.55 1.22 1.14 0 .74-.66 1.2-1.76 1.2-1.11 0-1.71-.47-1.88-1.29l-.01-.07h-1.36v.07c.17 1.45 1.33 2.43 3.24 2.43Zm45.21.03c2.36 0 4.17-1.4 4.6-3.56l.01-.08H410l-.02.08a3.09 3.09 0 0 1-3.17 2.26c-2.24 0-3.7-1.79-3.7-4.53 0-2.75 1.45-4.52 3.7-4.52 1.6 0 2.7.8 3.14 2.16l.05.17h1.42l-.01-.08c-.43-2.13-2.25-3.55-4.6-3.55-3.14 0-5.14 2.26-5.14 5.81 0 3.56 2.01 5.84 5.14 5.84Zm8.76-.03c1.09 0 2.06-.59 2.54-1.48h.03V44h1.36v-5.62c0-1.62-1.2-2.66-3.12-2.66-1.92 0-3.08 1.08-3.2 2.41v.09h1.3l.02-.07c.16-.73.81-1.23 1.86-1.23 1.13 0 1.78.6 1.78 1.6v.68l-2.33.13c-1.86.1-2.94.97-2.94 2.36v.01c0 1.48 1.08 2.46 2.7 2.46Zm-1.31-2.46v-.01c0-.76.63-1.24 1.71-1.3l2.17-.14v.66c0 1.18-.98 2.07-2.26 2.07-.98 0-1.62-.5-1.62-1.28Zm7.36 2.3h1.36V32.73h-1.36V44Zm6.86.16c1.77 0 3.1-1.07 3.36-2.41l.02-.08h-1.34l-.02.07c-.23.7-.96 1.21-2 1.21-1.44 0-2.36-.97-2.39-2.65h5.85v-.5c0-2.43-1.35-4.08-3.57-4.08-2.22 0-3.65 1.73-3.65 4.24 0 2.56 1.4 4.2 3.74 4.2Zm-.1-7.24c1.2 0 2.07.74 2.2 2.32h-4.45c.15-1.51 1.07-2.32 2.25-2.32Zm5.28 7.08H435v-4.78c0-1.38.83-2.3 2.11-2.3 1.25 0 1.87.73 1.87 2.05V44h1.36v-5.27c0-1.85-1.03-3.01-2.81-3.01-1.24 0-2.06.55-2.5 1.31H435v-1.16h-1.36V44Zm11.8.16c1.17 0 2.08-.59 2.59-1.53h.03V44h1.36V32.73h-1.36v4.5h-.03a2.88 2.88 0 0 0-2.6-1.51c-2.04 0-3.43 1.65-3.43 4.21 0 2.57 1.37 4.23 3.45 4.23Zm.28-1.2c-1.44 0-2.33-1.16-2.33-3.02v-.01c0-1.85.89-3 2.33-3 1.36 0 2.35 1.19 2.35 3 0 1.83-.98 3.02-2.35 3.02Zm8.23 1.2c1.09 0 2.06-.59 2.54-1.48h.03V44h1.36v-5.62c0-1.62-1.2-2.66-3.13-2.66-1.91 0-3.07 1.08-3.2 2.41v.09h1.31l.02-.07c.16-.73.81-1.23 1.86-1.23 1.13 0 1.78.6 1.78 1.6v.68l-2.33.13c-1.87.1-2.94.97-2.94 2.36v.01c0 1.48 1.08 2.46 2.7 2.46Zm-1.31-2.46v-.01c0-.76.62-1.24 1.7-1.3l2.18-.14v.66c0 1.18-.98 2.07-2.27 2.07-.97 0-1.61-.5-1.61-1.28Zm7.29 2.3h1.36v-5.02c0-1.23.68-1.96 1.74-1.96.32 0 .61.03.72.07v-1.32c-.1-.01-.3-.05-.54-.05-.92 0-1.62.6-1.9 1.53h-.02v-1.38h-1.37V44Zm44.86.19c2.36 0 4.17-1.4 4.6-3.56l.01-.08H508l-.02.08a3.09 3.09 0 0 1-3.17 2.26c-2.24 0-3.7-1.79-3.7-4.53 0-2.75 1.45-4.52 3.7-4.52 1.6 0 2.7.8 3.14 2.16l.05.17h1.42l-.01-.08c-.43-2.13-2.25-3.55-4.6-3.55-3.14 0-5.14 2.26-5.14 5.81 0 3.56 2.01 5.84 5.14 5.84Zm9.16-.03c1.24 0 2.06-.56 2.5-1.32h.03V44h1.36v-8.13h-1.36v4.79c0 1.38-.83 2.3-2.12 2.3-1.25 0-1.86-.73-1.86-2.05v-5.03h-1.36v5.27c0 1.85 1.03 3 2.81 3Zm8.87 0c1.81 0 3.15-1 3.15-2.43 0-1.16-.59-1.8-2.23-2.2l-1.29-.32c-.9-.22-1.26-.6-1.26-1.16 0-.72.6-1.2 1.59-1.2 1 0 1.6.52 1.72 1.31v.06h1.3v-.1c-.1-1.36-1.24-2.4-3.02-2.4-1.76 0-2.99 1-2.99 2.39 0 1.18.75 1.89 2.28 2.26l1.29.31c.92.23 1.22.55 1.22 1.14 0 .74-.65 1.2-1.75 1.2-1.11 0-1.72-.47-1.88-1.29l-.01-.07h-1.37l.01.07c.17 1.45 1.32 2.43 3.24 2.43Zm7.53 0c.26 0 .55-.03.73-.06V43c-.12 0-.28.03-.44.03-.73 0-1.11-.24-1.11-1.1V37h1.55v-1.13h-1.55v-2.19h-1.4v2.2h-1.2V37h1.2v4.93c0 1.55.73 2.23 2.22 2.23Zm5.64 0c2.24 0 3.76-1.63 3.76-4.22v-.02c0-2.6-1.53-4.2-3.77-4.2s-3.76 1.62-3.76 4.2v.02c0 2.58 1.51 4.22 3.77 4.22Zm0-1.2c-1.43 0-2.38-1.1-2.38-3.02v-.02c0-1.9.96-3 2.37-3 1.44 0 2.38 1.1 2.38 3v.02c0 1.9-.93 3.01-2.36 3.01Zm5.45 1.04h1.36v-5.1c0-1.13.78-1.98 1.86-1.98 1 0 1.66.65 1.66 1.63V44h1.36v-5.16c0-1.11.76-1.92 1.84-1.92 1.07 0 1.69.67 1.69 1.78V44h1.36v-5.6c0-1.63-1.04-2.68-2.65-2.68-1.14 0-2.1.58-2.55 1.56h-.03a2.28 2.28 0 0 0-2.28-1.56c-1.05 0-1.86.54-2.23 1.34h-.03v-1.19h-1.36V44Zm16.52.16c1.78 0 3.1-1.07 3.37-2.41l.02-.08h-1.34l-.02.07c-.24.7-.96 1.21-2 1.21-1.44 0-2.36-.97-2.4-2.65h5.86v-.5c0-2.43-1.35-4.08-3.57-4.08-2.22 0-3.66 1.73-3.66 4.24 0 2.56 1.4 4.2 3.75 4.2Zm-.09-7.24c1.19 0 2.06.74 2.2 2.32h-4.45c.15-1.51 1.07-2.32 2.25-2.32Zm5.27 7.08h1.36v-5.02c0-1.23.7-1.96 1.75-1.96.32 0 .61.03.72.07v-1.32c-.1-.01-.31-.05-.55-.05-.9 0-1.61.6-1.88 1.53h-.04v-1.38h-1.36V44Zm8.14.16c1.82 0 3.16-1 3.16-2.43 0-1.16-.6-1.8-2.23-2.2l-1.3-.32c-.9-.22-1.26-.6-1.26-1.16 0-.72.61-1.2 1.6-1.2 1 0 1.6.52 1.71 1.31l.01.06h1.3v-.1c-.11-1.36-1.24-2.4-3.02-2.4-1.76 0-2.99 1-2.99 2.39 0 1.18.74 1.89 2.27 2.26l1.3.31c.91.23 1.22.55 1.22 1.14 0 .74-.66 1.2-1.76 1.2s-1.7-.47-1.87-1.29l-.02-.07h-1.36l.01.07c.16 1.45 1.32 2.43 3.23 2.43ZM610.2 44h1.47l1.14-3.23h4.54L618.5 44h1.48l-4.19-11.27h-1.39L610.2 44Zm4.87-9.59h.03l1.83 5.17h-3.69l1.83-5.17Zm6.3 9.59h1.36v-4.78c0-1.38.84-2.3 2.12-2.3 1.25 0 1.87.73 1.87 2.05V44h1.36v-5.27c0-1.85-1.03-3.01-2.82-3.01-1.23 0-2.06.55-2.5 1.31h-.03v-1.16h-1.36V44Zm11.14.16c1.08 0 2.06-.59 2.54-1.48h.03V44h1.36v-5.62c0-1.62-1.2-2.66-3.13-2.66-1.91 0-3.08 1.08-3.2 2.41v.09h1.31l.02-.07c.15-.73.8-1.23 1.86-1.23 1.13 0 1.78.6 1.78 1.6v.68l-2.33.13c-1.87.1-2.95.97-2.95 2.36v.01c0 1.48 1.09 2.46 2.7 2.46Zm-1.31-2.46v-.01c0-.76.62-1.24 1.7-1.3l2.18-.14v.66c0 1.18-.99 2.07-2.27 2.07-.97 0-1.61-.5-1.61-1.28Zm7.35 2.3h1.36V32.73h-1.36V44Zm4.3 2.73c1.47 0 2.18-.67 2.76-2.22l3.17-8.63h-1.43l-2.25 6.76h-.03l-2.24-6.77h-1.46l3.02 8.14-.16.46c-.33.92-.8 1.14-1.67 1.14a1.9 1.9 0 0 1-.44-.05v1.11c.18.03.47.06.73.06Zm9.96-2.57c.27 0 .56-.03.73-.06V43c-.12 0-.28.03-.44.03-.73 0-1.1-.24-1.1-1.1V37h1.54v-1.13h-1.55v-2.19h-1.4v2.2h-1.2V37h1.2v4.93c0 1.55.73 2.23 2.22 2.23Zm3.27-9.66c.48 0 .86-.38.86-.85a.84.84 0 0 0-.86-.85.85.85 0 0 0-.85.85c0 .47.38.85.85.85Zm-.68 9.5h1.36v-8.13h-1.36V44Zm6.9.16c1.84 0 3.17-1.2 3.4-2.75v-.05h-1.34l-.01.06c-.23.9-.94 1.53-2.05 1.53-1.4 0-2.37-1.11-2.37-3v-.01c0-1.85.94-3.02 2.36-3.02 1.2 0 1.85.72 2.05 1.53l.02.07h1.32v-.07c-.17-1.39-1.37-2.73-3.4-2.73-2.25 0-3.74 1.64-3.74 4.2v.01c0 2.59 1.46 4.23 3.76 4.23Zm7.85 0c1.82 0 3.16-1 3.16-2.43 0-1.16-.6-1.8-2.23-2.2l-1.3-.32c-.9-.22-1.26-.6-1.26-1.16 0-.72.61-1.2 1.6-1.2 1 0 1.6.52 1.71 1.31l.01.06h1.3l-.01-.1c-.1-1.36-1.23-2.4-3.01-2.4-1.76 0-2.99 1-2.99 2.39 0 1.18.74 1.89 2.27 2.26l1.3.31c.91.23 1.22.55 1.22 1.14 0 .74-.66 1.2-1.76 1.2s-1.7-.47-1.87-1.29l-.02-.07h-1.36v.07c.17 1.45 1.33 2.43 3.24 2.43Z"/>
  <path fill="#1A8FE6" fill-rule="evenodd" d="M311 114h53v2h-53v-2Z" clip-rule="evenodd" opacity=".5"/>
  <path fill="#6F757C" d="M84.17 96h1.3l1-2.82h3.96l1 2.82h1.3l-3.67-9.86h-1.22L84.17 96Zm4.27-8.39h.02l1.6 4.52h-3.22l1.6-4.52Zm8.32 8.53c1.6 0 2.78-1.05 2.97-2.4v-.05h-1.16l-.02.05c-.2.8-.82 1.34-1.79 1.34-1.23 0-2.08-.97-2.08-2.63 0-1.62.83-2.64 2.07-2.64 1.04 0 1.62.63 1.8 1.34l.01.05h1.16v-.05c-.15-1.22-1.2-2.4-2.97-2.4-1.98 0-3.28 1.44-3.28 3.68 0 2.27 1.28 3.7 3.3 3.7Zm7.3 0c1.6 0 2.77-1.05 2.96-2.4l.01-.05h-1.17l-.01.05c-.2.8-.82 1.34-1.8 1.34-1.22 0-2.07-.97-2.07-2.63 0-1.62.83-2.64 2.06-2.64 1.05 0 1.62.63 1.8 1.34l.01.05h1.17l-.01-.05c-.15-1.22-1.2-2.4-2.97-2.4-1.97 0-3.28 1.44-3.28 3.68 0 2.27 1.28 3.7 3.3 3.7Zm7.29 0c1.96 0 3.29-1.43 3.29-3.7 0-2.28-1.33-3.69-3.3-3.69-1.96 0-3.28 1.42-3.28 3.68v.02c0 2.26 1.31 3.69 3.29 3.69Zm0-1.06c-1.25 0-2.08-.96-2.08-2.63v-.02c0-1.66.84-2.62 2.07-2.62 1.26 0 2.08.95 2.08 2.62v.02c0 1.66-.81 2.63-2.06 2.63Zm7.2 1.06c1.08 0 1.8-.49 2.19-1.15h.02V96h1.2v-7.1h-1.2v4.17c0 1.21-.73 2.01-1.85 2.01-1.1 0-1.63-.63-1.63-1.79v-4.4h-1.2v4.61c0 1.63.9 2.64 2.47 2.64Zm5.23-.14h1.2v-4.18c0-1.21.72-2.01 1.85-2.01 1.09 0 1.63.63 1.63 1.79V96h1.19v-4.61c0-1.62-.9-2.64-2.46-2.64-1.08 0-1.8.49-2.19 1.15h-.03v-1h-1.19V96Zm9.98.14c.23 0 .48-.03.63-.05v-.97c-.1.01-.24.03-.38.03-.64 0-.97-.21-.97-.97v-4.3h1.35v-.99h-1.35v-1.92h-1.23v1.92h-1.04v.98h1.04v4.32c0 1.36.64 1.95 1.95 1.95Zm4.71 0c1.59 0 2.77-.88 2.77-2.12 0-1.02-.52-1.59-1.96-1.94l-1.13-.27c-.78-.2-1.1-.53-1.1-1.01 0-.64.53-1.05 1.39-1.05.88 0 1.4.45 1.5 1.14l.01.05h1.14l-.01-.09c-.1-1.19-1.08-2.1-2.64-2.1-1.54 0-2.61.87-2.61 2.1 0 1.03.65 1.65 1.99 1.97l1.13.27c.8.2 1.07.49 1.07 1v.01c0 .64-.58 1.05-1.54 1.05-.97 0-1.5-.42-1.64-1.13l-.01-.07h-1.2l.01.06c.15 1.27 1.16 2.13 2.83 2.13Zm39.49-.14h1.14v-7.62h.05L182.3 96h1.04l3.15-7.62h.04V96h1.15v-9.86h-1.42l-3.42 8.3h-.04l-3.42-8.3h-1.42V96Zm13.6.14c.95 0 1.8-.52 2.22-1.3h.03V96H195v-4.92c0-1.42-1.05-2.33-2.74-2.33-1.67 0-2.69.95-2.8 2.12v.07h1.15l.01-.06c.14-.64.72-1.07 1.63-1.07 1 0 1.56.52 1.56 1.4v.59l-2.04.11c-1.63.1-2.58.86-2.58 2.07v.01c0 1.3.96 2.15 2.37 2.15Zm-1.15-2.15v-.01c0-.67.55-1.09 1.5-1.15l1.9-.11v.58c0 1.03-.86 1.8-1.98 1.8-.86 0-1.42-.43-1.42-1.11Zm7.05-6.3c.42 0 .75-.34.75-.75a.74.74 0 0 0-.75-.74.75.75 0 0 0 0 1.49Zm-.6 8.31h1.2v-7.1h-1.2V96Zm3.16 0h1.19v-9.86H200V96Zm38.94 0h1.23v-4.27h4.37v-1.1h-4.37v-3.39h4.75v-1.1h-5.98V96Zm10.16.14c1.96 0 3.29-1.43 3.29-3.7 0-2.28-1.33-3.69-3.3-3.69-1.96 0-3.28 1.42-3.28 3.68v.02c0 2.26 1.32 3.69 3.3 3.69Zm0-1.06c-1.25 0-2.08-.96-2.08-2.63v-.02c0-1.66.84-2.62 2.08-2.62 1.25 0 2.07.95 2.07 2.62v.02c0 1.66-.81 2.63-2.06 2.63Zm4.77.92h1.2v-4.39c0-1.08.6-1.72 1.52-1.72.28 0 .54.03.63.07V88.8c-.1-.01-.27-.05-.48-.05-.8 0-1.41.52-1.65 1.34h-.03v-1.2h-1.19V96Zm4.6 0h1.2v-4.46c0-.99.68-1.73 1.62-1.73.88 0 1.46.56 1.46 1.43V96h1.19v-4.52c0-.97.66-1.67 1.6-1.67.94 0 1.48.58 1.48 1.56V96h1.19v-4.9c0-1.42-.91-2.35-2.32-2.35-1 0-1.83.52-2.23 1.37h-.03a2 2 0 0 0-2-1.37c-.9 0-1.62.48-1.94 1.18h-.03v-1.04h-1.19V96Zm14.06.14c1.58 0 2.76-.88 2.76-2.12 0-1.02-.52-1.59-1.96-1.94l-1.12-.27c-.79-.2-1.11-.53-1.11-1.01 0-.64.53-1.05 1.4-1.05.88 0 1.4.45 1.5 1.14v.05h1.14v-.09c-.1-1.19-1.09-2.1-2.65-2.1-1.53 0-2.6.87-2.6 2.1 0 1.03.64 1.65 1.98 1.97l1.13.27c.8.2 1.07.49 1.07 1v.01c0 .64-.57 1.05-1.53 1.05-.98 0-1.5-.42-1.65-1.13l-.01-.07h-1.19V94c.15 1.27 1.16 2.13 2.84 2.13Zm39.41-.14h1.23v-9.86h-1.23V96Zm3.24 0h1.19v-4.18c0-1.21.73-2.01 1.85-2.01 1.1 0 1.63.63 1.63 1.79V96h1.2v-4.61c0-1.62-.91-2.64-2.47-2.64-1.08 0-1.8.49-2.19 1.15h-.02v-1h-1.2V96Zm9.97.14c.23 0 .49-.03.64-.05v-.97c-.1.01-.24.03-.39.03-.63 0-.97-.21-.97-.97v-4.3h1.36v-.99h-1.36v-1.92h-1.23v1.92h-1.04v.98h1.04v4.32c0 1.36.64 1.95 1.95 1.95Zm4.91 0c1.56 0 2.72-.93 2.95-2.1l.02-.08h-1.17l-.02.06c-.2.61-.85 1.06-1.75 1.06-1.26 0-2.07-.85-2.1-2.31h5.12v-.44c0-2.13-1.18-3.58-3.12-3.58-1.94 0-3.2 1.51-3.2 3.72 0 2.24 1.23 3.67 3.27 3.67ZM330 89.8c1.04 0 1.8.65 1.92 2.03h-3.89c.13-1.33.94-2.03 1.97-2.03Zm4.62 6.19h1.19V91.6c0-1.08.6-1.72 1.52-1.72.29 0 .54.03.64.07V88.8c-.1-.01-.28-.05-.48-.05-.8 0-1.42.52-1.66 1.34h-.02v-1.2h-1.2V96Zm4.98 0h1.19v-6.13h1.45v-.98h-1.46v-.87c0-.7.32-1.04.98-1.04.19 0 .37.01.51.03v-.96a5.26 5.26 0 0 0-.72-.05c-1.31 0-1.95.65-1.95 2.02v.87h-1v.98h1V96Zm5.82.14c.95 0 1.8-.52 2.22-1.3h.03V96h1.19v-4.92c0-1.42-1.06-2.33-2.74-2.33-1.67 0-2.7.95-2.8 2.12v.07h1.15l.01-.06c.14-.64.71-1.07 1.63-1.07.99 0 1.56.52 1.56 1.4v.59l-2.04.11c-1.63.1-2.58.86-2.58 2.07v.01c0 1.3.95 2.15 2.37 2.15Zm-1.15-2.15v-.01c0-.67.55-1.09 1.5-1.15l1.9-.11v.58c0 1.03-.87 1.8-1.99 1.8-.85 0-1.41-.43-1.41-1.11Zm9.32 2.15c1.6 0 2.78-1.05 2.97-2.4v-.05h-1.16l-.02.05c-.2.8-.82 1.34-1.79 1.34-1.23 0-2.07-.97-2.07-2.63 0-1.62.82-2.64 2.06-2.64 1.05 0 1.62.63 1.8 1.34l.01.05h1.16v-.05c-.15-1.22-1.2-2.4-2.97-2.4-1.98 0-3.28 1.44-3.28 3.68 0 2.27 1.28 3.7 3.3 3.7Zm7.28 0c1.55 0 2.71-.93 2.94-2.1l.02-.08h-1.17l-.02.06c-.2.61-.84 1.06-1.75 1.06-1.26 0-2.07-.85-2.1-2.31h5.13v-.44c0-2.13-1.19-3.58-3.13-3.58s-3.2 1.51-3.2 3.72c0 2.24 1.23 3.67 3.28 3.67Zm-.09-6.33c1.04 0 1.8.65 1.93 2.03h-3.9c.13-1.33.94-2.03 1.97-2.03Z"/>
  <path fill="#B7BABD" d="M400.66 92.05h2.5v2.42h.94v-2.42h2.5v-.95h-2.5v-2.43h-.95v2.43h-2.5v.95ZM415.33 95h.99v-6.53h.04l2.7 6.53h.89l2.7-6.53h.03V95h.99v-8.46h-1.22l-2.93 7.13h-.04l-2.93-7.13h-1.22V95Zm15.95.14c2.4 0 3.9-1.68 3.9-4.36v-.02c0-2.67-1.5-4.36-3.9-4.36s-3.9 1.69-3.9 4.36v.02c0 2.68 1.5 4.36 3.9 4.36Zm0-.97c-1.73 0-2.82-1.31-2.82-3.4s1.1-3.4 2.82-3.4c1.73 0 2.82 1.32 2.82 3.4 0 2.07-1.08 3.4-2.82 3.4Zm7.6.83h1.06v-3.35h2.02l1.81 3.35h1.24l-1.96-3.51a2.41 2.41 0 0 0 1.7-2.41v-.02c0-1.52-1.07-2.52-2.7-2.52h-3.17V95Zm1.06-4.28v-3.24h1.97c1.09 0 1.75.6 1.75 1.6v.02c0 1.04-.62 1.62-1.7 1.62h-2.02Zm8.54 4.28h5.24v-.95h-4.19v-2.9h3.97v-.94h-3.96v-2.72h4.18v-.95h-5.24V95Z"/>
  <path fill="#3CA0EA" d="M1011.8 92.75h2.86v2.7h1.51v-2.7h2.88v-1.51h-2.88v-2.7h-1.51v2.7h-2.86v1.51Zm14.94 3.4c1.77 0 3.04-.92 3.04-2.29 0-1.06-.58-1.65-2.08-1.98l-1.21-.27c-.75-.17-1.03-.44-1.03-.86 0-.54.47-.89 1.22-.89.79 0 1.26.43 1.33 1l.01.06h1.59l-.01-.07c-.06-1.26-1.11-2.25-2.92-2.25-1.75 0-2.9.9-2.9 2.23 0 1.08.69 1.75 2.08 2.06l1.2.27c.76.17 1.01.41 1.01.85 0 .54-.5.88-1.33.88-.86 0-1.33-.37-1.46-1l-.01-.06h-1.68l.01.06c.15 1.35 1.24 2.25 3.14 2.25Zm7.1 0c.34 0 .64-.04.84-.07V94.8c-.12.01-.25.03-.41.03-.62 0-.94-.22-.94-.94v-3.82h1.35v-1.32h-1.35v-1.83h-1.73v1.83h-1.02v1.32h1.02v3.97c0 1.49.72 2.1 2.24 2.1Zm4.33-.03c.96 0 1.77-.48 2.18-1.23h.04V96h1.71v-4.98c0-1.46-1.17-2.42-2.98-2.42-1.84 0-2.96.97-3.06 2.25l-.01.08h1.58l.02-.06c.1-.53.6-.9 1.4-.9.86 0 1.34.44 1.34 1.17v.5l-1.89.11c-1.76.11-2.75.89-2.75 2.17v.02c0 1.29.97 2.18 2.42 2.18Zm-.73-2.25v-.01c0-.57.46-.94 1.3-1l1.65-.1v.55c0 .86-.73 1.51-1.71 1.51-.75 0-1.24-.36-1.24-.95Zm9 2.27c.34 0 .65-.03.84-.06V94.8c-.11.01-.24.03-.41.03-.62 0-.93-.22-.93-.94v-3.82h1.34v-1.32h-1.34v-1.83h-1.73v1.83h-1.03v1.32h1.03v3.97c0 1.49.72 2.1 2.23 2.1Zm4.76 0c1.09 0 1.84-.5 2.22-1.27h.03V96h1.7v-7.25h-1.7v4.2c0 1.05-.62 1.76-1.6 1.76-.97 0-1.45-.58-1.45-1.6v-4.36h-1.7v4.69c0 1.68.91 2.7 2.5 2.7Zm8.46 0c1.78 0 3.05-.91 3.05-2.28 0-1.06-.59-1.65-2.08-1.98l-1.21-.27c-.75-.17-1.04-.44-1.04-.86 0-.54.48-.89 1.23-.89.79 0 1.26.43 1.33 1l.01.06h1.58v-.07c-.06-1.26-1.12-2.25-2.92-2.25-1.75 0-2.91.9-2.91 2.23 0 1.08.7 1.75 2.09 2.06l1.2.27c.75.17 1.01.41 1.01.85 0 .54-.5.88-1.33.88-.86 0-1.33-.37-1.46-1l-.02-.06h-1.67l.01.06c.15 1.35 1.23 2.25 3.13 2.25Z"/>
  <path fill="#E9E9E9" fill-rule="evenodd" d="M1103 15h25a5 5 0 0 1 5 5v25a5 5 0 0 1-5 5h-25a5 5 0 0 1-5-5V20a5 5 0 0 1 5-5Z" clip-rule="evenodd"/>
  <path fill="#454C54" d="M1109.07 37h5.93v-1.58h-4.01v-7.58h-1.92V37Zm7.06 0h4.06c1.95 0 3.17-1 3.17-2.6v-.02c0-1.2-.92-2.1-2.2-2.2v-.04a2.03 2.03 0 0 0 1.77-1.99v-.01c0-1.41-1.08-2.3-2.81-2.3h-3.99V37Zm3.49-7.74c.9 0 1.43.42 1.43 1.15v.01c0 .8-.58 1.25-1.66 1.25h-1.34v-2.4h1.57Zm0 3.7c1.17 0 1.78.46 1.78 1.3v.01c0 .85-.6 1.3-1.7 1.3h-1.65v-2.6h1.57Z"/>
  <path fill="#C6C8CB" fill-rule="evenodd" d="M1067.88 41v-2a5.15 5.15 0 0 0 5-4.83c0-3.11-1.72-3.88-4-5.17-1.23-1.32-3.32-3.95-6.08-4-3.24-.06-5.33 2.9-5.93 4.43-1.56.21-4.85 1.62-4.94 4.98-.09 3.65 3.47 4.61 4.95 4.59v2c-1.95.02-6.83-.9-6.88-6.48-.04-4.27 4.27-6.63 5.8-6.83a8 8 0 0 1 7.08-4.69c3.29-.01 5.75 2.61 7.2 4.35 3.06 1.8 4.8 2.92 4.8 6.65 0 3.05-2.8 7-7 7Zm-5-12 7 8h-4v6h-6v-6h-4l7-8Zm-1 6v6h2v-6h2l-3-3-3 3h2ZM997 41v3h-2v-3h-3v-2h3v-3h2v3h3v2h-3Zm-.84-7.33A8.34 8.34 0 1 0 981.34 37a8.36 8.36 0 0 1 3.05-2.5 5.64 5.64 0 0 1-1.39-3.75 5.22 5.22 0 0 1 5-5.42 5.22 5.22 0 0 1 5 5.42c0 1.38-.49 2.7-1.4 3.74.32.15.62.32.9.5l-1.22 1.23c-.38-.22-.78-.4-1.2-.55a4.62 4.62 0 0 1-4.17 0 6.67 6.67 0 0 0-3.41 2.58 8.26 8.26 0 0 0 7.17 1.9v1.7a10.06 10.06 0 1 1 8.18-8.18h-1.7Zm-8.16.83a3.56 3.56 0 0 0 3.33-3.75A3.56 3.56 0 0 0 988 27a3.56 3.56 0 0 0-3.33 3.75A3.56 3.56 0 0 0 988 34.5Zm43 8.5h-12a2.99 2.99 0 0 1-3-3V26a3.01 3.01 0 0 1 3-3h12a2.99 2.99 0 0 1 3 3v14a3.01 3.01 0 0 1-3 3Zm1-17a1 1 0 0 0-.08-.38 1.02 1.02 0 0 0-.21-.33c-.1-.09-.21-.16-.33-.21a.99.99 0 0 0-.38-.08h-12a.99.99 0 0 0-.38.08c-.12.05-.23.12-.33.21-.09.1-.16.2-.21.33a1 1 0 0 0-.08.38v14a1.02 1.02 0 0 0 .29.7.99.99 0 0 0 .71.3h12c.13 0 .26-.03.38-.08s.23-.12.33-.21a1.02 1.02 0 0 0 .29-.71V26Zm-9 10h7v2h-7v-2Zm0-4h7v2h-7v-2Zm0-4h7v2h-7v-2Zm-3 8h2v2h-2v-2Zm0-4h2v2h-2v-2Zm0-4h2v2h-2v-2Z" clip-rule="evenodd"/>
  <defs>
    <linearGradient id="a" x1="26.42" x2="3.58" y1="3.58" y2="41.58" gradientUnits="userSpaceOnUse">
      <stop stop-color="#1A8FE6"/>
      <stop offset="1" stop-color="#00C0E8"/>
      <stop offset="1" stop-color="#00C0E8"/>
    </linearGradient>
  </defs>
</svg>
