<svg xmlns="http://www.w3.org/2000/svg" width="576" height="888" fill="none" viewBox="0 0 576 888">
  <g clip-path="url(#a)">
    <path fill="#09090A" d="M-.801-3h577.6v654H-.801zM-.4 653h576.8v4H-.4zm.4 6h576v230H0z" opacity=".93"/>
    <path fill="url(#b)" d="M-2 659h580v232H-2z" opacity=".96"/>
    <path fill="url(#c)" d="M288 285.317c-32.838 0-58.318-13.394-58.318-29.248 0-15.991 25.48-29.385 58.318-29.385 32.703 0 58.32 13.394 58.32 29.385 0 15.854-25.617 29.248-58.32 29.248Z"/>
    <path fill="url(#d)" fill-rule="evenodd" d="M247.934 273.17c9.891 5.091 23.965 8.421 40.066 8.421 16.031 0 30.106-3.33 40.016-8.422 10.188-5.236 14.73-11.585 14.73-17.099 0-5.597-4.559-11.978-14.735-17.224-9.907-5.107-23.98-8.437-40.011-8.437-16.102 0-30.174 3.331-40.061 8.436-10.148 5.24-14.683 11.619-14.683 17.225 0 5.522 4.516 11.87 14.678 17.1ZM229 256.07c0 16.224 25.778 29.93 59 29.93 33.083 0 59-13.706 59-29.93 0-16.364-25.917-30.07-59-30.07-33.222 0-59 13.706-59 30.07Z" clip-rule="evenodd"/>
    <path fill="url(#e)" fill-opacity=".8" fill-rule="evenodd" d="M267.015 281.352c.137-.684-.408-1.504-1.09-1.64-.681-.137-1.498.273-1.634 1.093-.137.683.271 1.504 1.089 1.64.682.137 1.499-.41 1.635-1.093Zm2.862-52.62c-.818.137-1.227.82-1.227 1.64a1.414 1.414 0 0 0 1.635 1.094 1.416 1.416 0 0 0 1.09-1.64c-.135-.684-.817-1.23-1.498-1.094Zm1.08 1.176c-.099-.477-.58-.827-.999-.743l-.007.002-.006.001a.938.938 0 0 0-.644.388c-.134.191-.218.453-.224.769a.989.989 0 0 0 1.134.707.978.978 0 0 0 .746-1.124Zm-5.032 2.378c-.681.137-1.498-.274-1.634-1.094-.137-.683.271-1.366 1.089-1.64.682-.136 1.499.41 1.635 1.094.137.683-.408 1.503-1.09 1.64Zm-.441-2.305c-.636.224-.86.711-.777 1.122l.001.007.002.008c.087.52.63.836 1.135.735.208-.042.427-.198.582-.432.155-.235.211-.49.172-.686-.04-.197-.191-.414-.428-.573-.227-.152-.48-.214-.687-.181Zm3.303 51.644c0-.683.682-1.23 1.498-1.093.682.136 1.227.82 1.09 1.64-.135.683-.817 1.23-1.498 1.093-.818-.136-1.227-.82-1.09-1.64Zm2.17.465a.977.977 0 0 0-.746-1.124c-.624-.101-.999.317-.999.659v.038l-.006.037c-.053.318.005.575.121.757.115.177.312.322.618.373l.006.001.007.001c.419.085.9-.266.999-.742Zm3.69-.875c.816 0 1.361.684 1.225 1.504-.136.683-.817 1.23-1.499 1.23-.816-.137-1.361-.82-1.226-1.64.136-.684.818-1.23 1.5-1.094Zm-1.083 1.176c-.082.526.244 1.001.842 1.116.48-.018.953-.418 1.048-.871.087-.548-.259-.98-.807-.98h-.042l-.041-.008c-.419-.084-.9.266-1 .743Zm22.066.738c-.136-.82.545-1.504 1.225-1.504.819 0 1.364.547 1.5 1.23 0 .82-.545 1.367-1.226 1.504-.819 0-1.499-.547-1.499-1.23Zm1.457.788c.478-.111.823-.477.841-1.016-.11-.469-.484-.835-1.073-.835-.447 0-.892.468-.805.988l.006.037v.038c0 .34.374.771 1.031.788Zm3.04-1.198c-.137-.82.408-1.504 1.09-1.504a1.415 1.415 0 0 1 1.635 1.094c0 .82-.545 1.503-1.227 1.64-.818 0-1.498-.547-1.498-1.23Zm1.456.788c.438-.109.823-.566.842-1.151a.991.991 0 0 0-1.142-.706l-.032.006h-.034c-.382 0-.769.4-.671.988l.006.037v.038c0 .34.373.77 1.031.788Zm4.13-2.975c.682-.137 1.362.41 1.498 1.093.137.82-.408 1.504-1.09 1.64a1.413 1.413 0 0 1-1.634-1.093c0-.82.408-1.503 1.226-1.64Zm-.801 1.592c.109.43.56.8 1.135.707a.978.978 0 0 0 .747-1.123c-.1-.477-.581-.827-1-.743l-.006.001-.008.001a.946.946 0 0 0-.643.388c-.133.191-.217.454-.225.769Zm5.161-2.412c.682-.137 1.363.273 1.635 1.093.136.684-.408 1.504-1.09 1.64a1.414 1.414 0 0 1-1.635-1.093c-.137-.684.273-1.504 1.09-1.64Zm.47 2.299c.207-.044.423-.199.576-.431.149-.224.207-.468.177-.66-.217-.618-.701-.864-1.142-.775l-.007.001-.006.001c-.546.091-.835.644-.74 1.116.088.447.549.844 1.142.748Zm-.47-49.725c-.817-.137-1.227-.957-1.09-1.64a1.414 1.414 0 0 1 1.635-1.093c.682.273 1.226.956 1.09 1.64-.272.82-.953 1.23-1.635 1.093Zm1.223-1.208c.028-.185-.024-.392-.17-.599a1.506 1.506 0 0 0-.62-.498c-.574-.073-1.018.316-1.105.754-.095.472.194 1.024.74 1.116l.006.001.007.001c.441.089.925-.157 1.142-.775Zm-5.583.388c-.818-.137-1.226-.82-1.226-1.64a1.413 1.413 0 0 1 1.634-1.093c.682.136 1.227.82 1.09 1.64-.136.683-.816 1.23-1.498 1.093Zm1.081-1.176a.978.978 0 0 0-.747-1.123.99.99 0 0 0-1.135.707c.008.315.092.578.225.769a.942.942 0 0 0 .643.388l.008.001.006.001c.419.084.9-.266 1-.743Zm-9.939.083c-.68 0-1.361-.684-1.225-1.504 0-.683.68-1.23 1.499-1.23.681.137 1.226.683 1.226 1.504-.136.683-.681 1.366-1.5 1.23Zm1.073-1.275c-.017-.54-.363-.906-.841-1.017-.657.017-1.031.448-1.031.788v.038l-.006.037c-.087.52.358.988.805.988h.035l.034.005a.733.733 0 0 0 .652-.199c.169-.158.295-.393.352-.64Zm-18.819.833h.034c.369 0 .781-.391.8-1.016a1.05 1.05 0 0 0-1.031-.835c-.491.115-.843.499-.843 1.062 0 .41.445.889 1.006.795l.034-.006Zm-.239-2.292c.818 0 1.363.547 1.5 1.23 0 .82-.547 1.503-1.227 1.503-.818.137-1.5-.546-1.5-1.23 0-.82.545-1.366 1.227-1.503Zm-4.456.988h-.041c-.549 0-.896.431-.809.98.1.476.581.827 1 .742l.041-.007h.042c.548 0 .894-.432.807-.981-.099-.476-.581-.827-1-.743l-.04.009Zm1.458.652c-.136-.683-.817-1.23-1.499-1.093-.816 0-1.363.683-1.226 1.503.136.683.818 1.23 1.5 1.093.816 0 1.361-.683 1.225-1.503Zm-13.764 2.44-.005-.027c-.076-.378-.471-.706-1.107-.618-.483.214-.724.677-.654 1.096.109.311.283.515.463.621a.661.661 0 0 0 .607.04l.04-.016.045-.008c.309-.051.496-.196.59-.357.093-.16.132-.396.03-.704l-.009-.027Zm-2.179.567c-.135-.683.273-1.367.955-1.64.817-.137 1.498.273 1.635.957.272.82-.137 1.503-.953 1.64-.682.273-1.364-.137-1.637-.957Zm-11.649 3.534-.051.02c-.427.172-.635.71-.441 1.198.161.408.689.637 1.192.452.477-.304.647-.862.486-1.313-.328-.516-.866-.597-1.141-.391l-.045.034Zm1.566.156c-.408-.683-1.226-.957-1.771-.547-.68.274-.954 1.094-.68 1.777.271.684 1.09.957 1.77.684.681-.411.955-1.231.681-1.914Zm-4.467 2.252-.014-.033c-.068-.172-.232-.303-.47-.351a.844.844 0 0 0-.658.129l-.017.013-.019.011c-.258.156-.424.38-.491.593-.065.209-.035.393.069.533l.014.018.011.02c.304.507.875.672 1.332.397.445-.268.562-.797.261-1.3l-.018-.03Zm-.029 1.712c-.682.41-1.498.136-1.908-.547-.409-.547-.135-1.367.545-1.777.546-.41 1.5-.273 1.771.41.41.684.274 1.503-.408 1.914Zm-3.74.825-.028-.046c-.258-.432-.781-.566-1.287-.288-.399.43-.427.972-.199 1.284.433.537.997.57 1.32.332.27-.218.4-.464.431-.671a.647.647 0 0 0-.2-.573l-.037-.038Zm.062 1.635c-.545.41-1.363.273-1.908-.41-.409-.547-.274-1.367.271-1.914.682-.41 1.5-.273 1.908.41.545.547.409 1.367-.271 1.914Zm24.927 38.863c.039-.196-.017-.451-.172-.686-.155-.234-.374-.39-.582-.432-.505-.102-1.048.215-1.135.735l-.002.007-.001.007c-.094.472.195 1.025.742 1.116l.006.001.006.001c.21.043.474-.018.711-.176.236-.159.387-.376.427-.573Zm-4.488-.998.015-.038c.163-.411-.071-.943-.629-1.037l-.045-.007-.04-.017a.664.664 0 0 0-.607.041c-.18.106-.354.31-.463.62-.07.42.171.883.654 1.096.636.089 1.031-.239 1.107-.617l.008-.041Zm-2.18-.553c.271-.82.953-1.23 1.635-.957.816.137 1.225.957.953 1.64-.137.684-.818 1.093-1.635.957-.682-.273-1.09-.957-.953-1.64Zm-3.817-1.237-.015.038c-.176.441.104.959.506 1.039l.037.008.034.014c.437.175 1.003-.082 1.21-.54.084-.501-.124-1.027-.651-1.217a1.111 1.111 0 0 0-.714.131c-.228.126-.362.305-.399.486l-.008.041Zm1.227-1.087c.818.274 1.09 1.094.953 1.777-.271.683-1.09 1.093-1.771.82-.68-.137-1.09-.957-.817-1.64.137-.683.953-1.093 1.635-.957Zm-4.9.678.012.005c.416.167.882-.062 1.089-.578.194-.487-.014-1.025-.443-1.197-.447-.179-1.032.096-1.223.577-.187.465-.01 1.001.554 1.189l.011.004Zm-5.046-3.275c-.274.684 0 1.504.68 1.777.545.41 1.363.137 1.771-.546.274-.684 0-1.504-.681-1.914-.68-.273-1.499 0-1.77.683Zm1.585-.284c-.503-.184-1.029.045-1.192.453-.194.487.014 1.025.441 1.197l.052.021.044.034c.275.205.813.125 1.141-.392.161-.45-.009-1.008-.486-1.313Zm-7.37-3.274.038-.038a.65.65 0 0 0 .199-.573c-.031-.207-.161-.453-.431-.671-.323-.239-.887-.206-1.32.332-.228.312-.2.854.199 1.283.506.279 1.029.144 1.287-.287l.028-.046Zm-1.575.688c-.545-.546-.68-1.366-.271-1.913.545-.683 1.363-.82 1.908-.41.68.547.816 1.367.271 1.913-.408.684-1.226.82-1.908.41Zm-7.202-10.676.037-.007c.402-.081.68-.598.504-1.039l-.004-.012-.005-.013c-.102-.309-.268-.485-.464-.584-.196-.098-.461-.136-.79-.088-.471.214-.701.775-.539 1.18.192.482.778.757 1.225.578l.036-.015Zm-.836-2.171c.817-.137 1.499.137 1.772.957.272.683-.137 1.503-.818 1.64-.682.273-1.499-.137-1.772-.82-.272-.684.137-1.504.818-1.777Zm-.375-3.933h-.035c-.428 0-.799.332-.799.926 0 .193.101.427.295.623.185.185.41.292.61.302.318-.06.556-.191.713-.359.158-.17.256-.4.256-.703 0-.409-.446-.888-1.006-.794l-.034.005Zm.102 2.293c.818-.137 1.363-.684 1.363-1.504 0-.683-.681-1.366-1.5-1.229-.68 0-1.225.546-1.225 1.366 0 .683.68 1.367 1.362 1.367Zm112.51-2.293-.04-.008c-.179-.036-.389.032-.572.202-.183.172-.285.401-.285.595 0 .303.097.533.256.703.157.168.394.299.712.359.201-.01.426-.117.611-.302.195-.196.296-.43.296-.623 0-.305-.099-.528-.245-.674-.148-.148-.376-.252-.693-.252h-.04Zm.04 2.293c-.818-.137-1.363-.684-1.363-1.504 0-.683.682-1.366 1.363-1.229.819 0 1.364.546 1.364 1.366 0 .683-.682 1.367-1.364 1.367Zm-1.633 2.72-.017.045c-.176.441.102.958.505 1.039l.037.007.035.015c.437.174 1.003-.082 1.21-.54.082-.502-.124-1.028-.652-1.218a1.203 1.203 0 0 0-.73.088.668.668 0 0 0-.379.515l-.009.049Zm1.225-1.08c.817.273 1.09 1.093.953 1.777-.273.683-1.09 1.093-1.771.82-.682-.137-1.09-.957-.817-1.64.135-.82.953-1.094 1.635-.957Zm-3.211 4.786-.005.005a.817.817 0 0 0-.183.689c.044.218.176.428.361.574.515.298 1.066.17 1.325-.157.288-.5.167-1.033-.156-1.291-.524-.303-1.084-.164-1.337.174l-.005.006Zm1.576-.549c.545.41.68 1.23.272 1.913-.409.547-1.227.684-1.908.274-.545-.41-.817-1.23-.272-1.914.408-.546 1.226-.683 1.908-.273Zm-6.467 6.976-.028-.047c-.279-.468-.813-.54-1.153-.289-.539.435-.556.98-.332 1.285.433.538.996.571 1.321.332.268-.217.399-.463.43-.671a.644.644 0 0 0-.199-.572l-.039-.038Zm.062 1.634c-.545.41-1.363.274-1.908-.41-.408-.546-.271-1.366.41-1.913.545-.41 1.362-.273 1.77.41.545.547.41 1.367-.272 1.913Zm-3.777.907-.022-.055c-.077-.191-.264-.354-.509-.428-.249-.075-.478-.036-.62.07l-.017.013-.018.011c-.516.31-.657.867-.398 1.3.266.444.812.574 1.332.261l.03-.017.031-.013c.18-.072.304-.239.349-.464a.807.807 0 0 0-.124-.631l-.034-.047Zm.371-.223c-.273-.684-1.227-.957-1.772-.547-.681.41-.953 1.23-.545 1.914.409.683 1.227.819 1.909.41.68-.274.816-1.23.408-1.777Zm-5.888 3.215.013.033c.164.413.683.624 1.164.334l.03-.017.031-.013c.417-.168.626-.686.453-1.164-.301-.472-.869-.658-1.341-.485-.491.312-.623.856-.368 1.281l.018.031Zm.165-1.712c.682-.273 1.498 0 1.908.683.272.684 0 1.504-.681 1.777-.682.41-1.5.137-1.772-.546-.408-.684-.137-1.504.545-1.914Zm-12.294 5.075-.025.005c-.194.039-.372.181-.495.402-.116.21-.163.459-.13.676.208.473.674.735 1.121.657.624-.218.851-.69.782-1.096-.108-.309-.279-.509-.47-.615-.193-.107-.446-.142-.758-.037l-.025.008Zm1.666.529c-.273-.82-.955-1.23-1.771-.957-.682.137-1.09.957-.955 1.64.273.684.955 1.094 1.636.957.817-.273 1.225-.957 1.09-1.64Zm-15.517-50.395-.006.037c-.098.588.289.988.671.988h.034l.032.005a.99.99 0 0 0 1.142-.705c-.019-.625-.429-1.015-.8-1.015h-.034l-.034-.006c-.628-.105-1.005.314-1.005.658v.038Zm2.3.372a1.415 1.415 0 0 1-1.635 1.094c-.682 0-1.227-.684-1.09-1.504 0-.683.68-1.23 1.498-1.093.682 0 1.227.683 1.227 1.503Zm11.551 3.126.025.008c.312.105.565.07.758-.037.191-.106.362-.307.47-.616.069-.405-.158-.877-.782-1.096-.446-.077-.91.183-1.118.653-.083.605.223 1.003.622 1.083l.025.005Zm-1.06-1.212c.273-.684.955-1.094 1.636-.957.817.273 1.225.957 1.09 1.64-.273.82-.955 1.23-1.771.957-.682-.137-1.09-.82-.955-1.64Zm6.552 1.894.005-.013c.175-.44-.103-.958-.505-1.038l-.026-.005-.025-.009c-.593-.198-1.055.085-1.247.569-.162.406.067.967.539 1.181.329.048.593.01.79-.089.196-.098.362-.275.464-.584l.005-.012Zm-1.374 1.112c-.68-.273-1.09-1.093-.817-1.776.272-.684.953-1.094 1.772-.82.68.136 1.09.956.816 1.64-.271.82-.953 1.093-1.771.956Zm8.011 1.569-.018.031c-.255.425-.123.969.368 1.281.472.172 1.04-.013 1.341-.485.173-.478-.036-.996-.453-1.164l-.031-.013-.03-.017c-.481-.29-1-.079-1.164.334l-.013.033Zm2.073 1.028c-.41.684-1.226.957-1.908.684-.682-.41-.953-1.23-.545-1.914.272-.683 1.09-.956 1.772-.546.681.273.953 1.093.681 1.776Zm2.276 2.364.017.013c.142.106.371.145.62.07.245-.074.432-.237.509-.428l.022-.055.034-.047c.241-.321.189-.84-.286-1.125-.52-.313-1.066-.184-1.332.261-.259.433-.118.99.398 1.3l.018.011Zm4.883 2.141.039-.038a.644.644 0 0 0 .199-.572c-.031-.208-.162-.454-.43-.671-.325-.239-.888-.206-1.321.332-.224.305-.207.85.332 1.285.34.251.874.179 1.153-.289l.028-.047Zm-1.436.689c-.681-.547-.818-1.367-.41-1.913.545-.684 1.363-.82 1.908-.41.682.546.817 1.366.272 1.913-.408.683-1.225.82-1.77.41Zm6.327 5.738.005.006c.253.338.813.477 1.337.173.323-.257.444-.79.156-1.291-.259-.326-.81-.455-1.325-.156a1.002 1.002 0 0 0-.361.573.818.818 0 0 0 .183.69l.005.005Zm-.06-1.638c-.545.41-.817 1.23-.272 1.914.408.547 1.226.683 1.908.273.545-.41.68-1.23.272-1.913-.409-.547-1.227-.684-1.908-.274Zm-94.05-11.483c10.624-5.355 25.055-9.005 41.454-9.005s30.94 4.063 41.564 9.418c10.598 5.342 17.203 12.041 17.203 20.637 0 8.529-6.471 15.481-17.069 20.806-10.623 5.338-25.299 9.112-41.698 9.112s-30.72-3.594-41.343-8.932c-10.599-5.325-17.547-12.532-17.424-20.986.123-8.454 6.714-15.707 17.313-21.05Zm-8.663 12.345c-2.411 2.814-3.666 6.116-3.666 8.705 0 2.554 1.441 5.36 3.852 8.155 2.41 2.791 5.981 5.538 10.609 7.96 9.255 4.844 22.684 8.363 39.322 8.363s30.225-3.262 39.479-8.106c4.628-2.422 8.512-5.094 10.92-7.885 2.412-2.795 3.384-5.933 3.384-8.487 0-2.589-1.144-5.778-3.555-8.591-2.41-2.81-6.173-5.462-10.802-7.893-9.255-4.86-22.788-8.131-39.426-8.131-16.636 0-30.225 3.209-39.479 8.07-4.628 2.43-8.229 5.031-10.638 7.84Zm46.559-18.63c0-.535-.451-.926-.938-.926-.544 0-.938.443-.938 1.063 0 .183.092.375.275.533.183.16.428.256.663.256a.935.935 0 0 0 .938-.926Zm-26.555 4.222c-.115-.414-.68-.732-1.222-.554-.286.093-.45.236-.536.397-.087.162-.129.411-.043.79.071.316.236.483.431.57.212.094.494.106.785.023.448-.129.726-.711.585-1.226Zm-4.816.993c-.174-.099-.398-.136-.694-.007-.328.142-.485.333-.552.513-.069.185-.066.418.036.677.196.488.736.773 1.239.572.486-.195.648-.741.45-1.18-.118-.26-.288-.466-.479-.575Zm-14.965 9.59a.899.899 0 0 0-1.316 0c-.371.373-.371.906 0 1.279a.899.899 0 0 0 1.316 0c.373-.373.373-.906 0-1.279Zm-4.26 3.489c-.287.501-.166 1.034.157 1.291.514.298 1.065.17 1.324-.156.287-.501.166-1.034-.157-1.291-.514-.299-1.065-.17-1.324.156Zm1.559-.526c-.682-.41-1.5-.273-1.908.273-.409.684-.274 1.504.273 1.914.68.41 1.498.273 1.906-.274.409-.683.274-1.503-.271-1.913Zm-2.607 4.238c-.447-.179-1.033.096-1.225.577-.179.449.064 1.031.551 1.187.536.172 1.137-.133 1.3-.624.15-.454-.094-.926-.626-1.14Zm55.843 31.905c-.194-.196-.434-.304-.641-.304a.934.934 0 0 0-.936.926c0 .306.098.528.244.675.147.147.375.251.692.251.488 0 .938-.39.938-.926 0-.193-.101-.427-.297-.622Zm-4.199.622a.935.935 0 0 0-.938-.926c-.235 0-.48.097-.663.256-.183.159-.275.351-.275.534 0 .619.394 1.062.938 1.062.487 0 .938-.39.938-.926Zm-4.498-.182c-.019-.625-.431-1.017-.8-1.017-.685 0-1.074.442-1.074.789 0 .564.352.948.843 1.062a1.048 1.048 0 0 0 1.031-.834Zm.427.046c0-.82-.545-1.504-1.227-1.504-.818 0-1.5.547-1.5 1.23 0 .82.545 1.367 1.227 1.504.818 0 1.363-.547 1.5-1.23Zm-34.783-10.162c-.035-.163-.149-.346-.45-.528-.298-.179-.542-.204-.733-.152-.194.052-.399.201-.58.503-.173.286-.187.511-.14.68.048.179.185.367.435.531.245.16.515.226.74.193.208-.031.409-.149.552-.433.181-.362.214-.617.176-.794Zm-7.482-4.506c.373-.373.373-.906 0-1.28a.9.9 0 0 0-1.316 0c-.371.374-.371.907 0 1.28a.9.9 0 0 0 1.316 0Zm-2.779-4.624c.287.501.166 1.034-.157 1.291-.514.298-1.065.17-1.324-.157-.287-.5-.166-1.033.157-1.291.514-.298 1.065-.169 1.324.157Zm-1.557-.526c.68-.41 1.498-.273 1.906.273.409.684.274 1.504-.271 1.914-.682.41-1.5.273-1.908-.274-.409-.683-.274-1.503.273-1.913Zm103.692 3.554a1.648 1.648 0 0 0 0 1.913c.545.547 1.499.547 2.044 0a1.645 1.645 0 0 0 0-1.913c-.545-.547-1.499-.547-2.044 0Zm1.727.295c-.377-.353-1.033-.353-1.408 0a1.195 1.195 0 0 0 0 1.322c.375.353 1.031.353 1.408 0a1.202 1.202 0 0 0 0-1.322Zm-15.064 9.713c-.22-.55-.712-.782-1.225-.577-.293.117-.483.302-.577.497-.09.189-.111.424 0 .7.116.295.301.484.503.579.2.093.447.109.72-.001.287-.116.478-.302.573-.503a.848.848 0 0 0 .006-.695Zm-4.209 1.652c-.247-.548-.714-.852-1.295-.719-.253.058-.428.233-.526.472a1.03 1.03 0 0 0-.017.742 1.06 1.06 0 0 0 1.296.587c.289-.097.468-.272.553-.454a.728.728 0 0 0-.011-.628Zm-26.756 4.07a1.04 1.04 0 0 0-.663-.256.934.934 0 0 0-.937.926c0 .536.449.926.937.926.543 0 .937-.443.937-1.062 0-.183-.091-.375-.274-.534Zm-6.096-53.862c0 .455.368.925.936.925.207 0 .447-.107.641-.303.196-.195.297-.429.297-.622a.935.935 0 0 0-.938-.926c-.317 0-.545.104-.692.251-.146.147-.244.369-.244.675Zm4.496 0c0 .455.368.925.937.925.236 0 .479-.096.663-.255.183-.159.274-.351.274-.534 0-.619-.394-1.062-.937-1.062a.934.934 0 0 0-.937.926Zm30.763 5.772c-.18.449.084.999.577 1.197.443.178 1.016-.053 1.225-.577.188-.472-.031-.978-.579-1.198-.494-.198-1.014.05-1.223.578Zm9.69 3.111c-.682-.41-1.5-.273-1.909.41-.408.684-.136 1.504.545 1.914.545.41 1.499.137 1.772-.547.408-.547.272-1.367-.408-1.777Zm5.768 7.222a1.196 1.196 0 0 1 0-1.323c.375-.352 1.031-.352 1.408 0 .264.38.264.944 0 1.323-.377.353-1.033.353-1.408 0Zm1.725.295c-.545.547-1.499.547-2.044 0a1.648 1.648 0 0 1 0-1.913c.545-.547 1.499-.547 2.044 0a1.645 1.645 0 0 1 0 1.913Zm3.102 6.091a.733.733 0 0 0-.036.639c.11.297.269.484.444.583.173.097.413.139.745.051a.933.933 0 0 0 .656-1.209.927.927 0 0 0-1.215-.55c-.288.116-.489.296-.594.486Zm-54.608-24.771c-32.701 0-58.341 12.94-58.341 29.614 0 16.538 25.64 29.477 58.341 29.477 32.702 0 58.342-12.939 58.342-29.477 0-16.674-25.64-29.614-58.342-29.614Zm-54.208 29.614c0-10.934 20.825-25.056 54.208-25.056 33.383 0 54.209 14.122 54.209 25.056 0 10.798-20.826 24.919-54.209 24.919s-54.208-14.121-54.208-24.919Zm49.712-28.701c.681 0 1.363.546 1.363 1.366 0 .684-.547 1.367-1.363 1.367-.682 0-1.363-.547-1.363-1.23 0-.82.545-1.503 1.363-1.503Zm-26.968 4.613c.722-.236 1.567.152 1.759.854.194.701-.16 1.565-.88 1.772-.722.206-1.539-.015-1.744-.917-.205-.903.143-1.473.865-1.709Zm-4.324 1.555c.826-.359 1.436.162 1.723.802.288.64.063 1.478-.681 1.777-.744.298-1.512-.132-1.786-.815-.271-.683-.082-1.406.744-1.764Zm-15.717 9.686c.545-.547 1.361-.547 1.906 0a1.324 1.324 0 0 1 0 1.913c-.545.547-1.361.547-1.906 0a1.324 1.324 0 0 1 0-1.913Zm-5.315 7.927c.273-.683 1.09-1.094 1.772-.82.681.273 1.119.954.874 1.694-.247.741-1.096 1.137-1.828.903-.731-.235-1.09-1.094-.818-1.777Zm56.82 30.752c.682 0 1.363.683 1.363 1.366 0 .82-.681 1.367-1.363 1.367-.818 0-1.363-.547-1.363-1.367 0-.683.545-1.366 1.363-1.366Zm-4.496 0c.816 0 1.363.683 1.363 1.366 0 .82-.682 1.367-1.363 1.367-.818 0-1.363-.683-1.363-1.503 0-.684.681-1.23 1.363-1.23Zm-30.25-6.014c.681.273.955 1.093.681 1.777-.273.683-.953 1.093-1.634.82-.819-.274-1.09-1.094-.819-1.777.274-.683 1.09-1.093 1.772-.82Zm-7.903-3.827c.744.448.849 1.088.438 1.907-.413.819-1.27.819-1.896.409-.627-.41-.879-1.074-.428-1.818.448-.744 1.142-.946 1.886-.498Zm-6.95-5.193a1.324 1.324 0 0 1 0 1.913c-.545.547-1.361.547-1.906 0a1.324 1.324 0 0 1 0-1.913c.545-.547 1.361-.547 1.906 0Zm84.346 9.02c.746-.3 1.471.068 1.771.82.3.752-.073 1.478-.818 1.777-.745.299-1.463-.048-1.772-.82-.307-.772.072-1.477.819-1.777Zm-4.219 1.491c.815-.187 1.459.268 1.775.962.313.694-.03 1.431-.798 1.688-.767.257-1.561-.183-1.822-.838-.26-.654.031-1.626.845-1.812Zm-26.031 4.523c.681 0 1.363.546 1.363 1.23 0 .82-.545 1.503-1.363 1.503-.682 0-1.364-.547-1.364-1.367 0-.683.547-1.366 1.364-1.366Zm-4.497-51.8c-.818 0-1.363-.683-1.363-1.366 0-.82.545-1.367 1.363-1.367.682 0 1.363.547 1.363 1.367 0 .683-.681 1.366-1.363 1.366Zm4.497 0c-.817 0-1.364-.683-1.364-1.366 0-.82.682-1.367 1.364-1.367.818 0 1.363.683 1.363 1.503 0 .684-.682 1.23-1.363 1.23Zm30.25 6.014c-.663-.266-1.109-1.048-.819-1.777.292-.729 1.044-1.112 1.772-.82.728.292 1.113 1.035.818 1.777-.296.741-1.108 1.086-1.771.82Zm19.428 15.908c-.275-.741.153-1.405.874-1.694a1.346 1.346 0 0 1 1.771.82c.233.717-.122 1.557-.953 1.777-.831.22-1.416-.161-1.692-.903Z" clip-rule="evenodd"/>
    <path fill="url(#f)" d="M229 256.068C229 239.394 255.298 226 288 226s59 13.394 59 30.068C347 272.606 320.702 286 288 286s-59-13.394-59-29.932Zm59-24.601c-33.383 0-53.55 13.667-53.55 24.601 0 10.798 20.167 24.465 53.55 24.465 33.383 0 53.55-13.667 53.55-24.465 0-10.934-20.167-24.601-53.55-24.601Zm-3.133-2.734c0-.82-.682-1.366-1.363-1.366-.819 0-1.364.683-1.364 1.503 0 .684.682 1.23 1.364 1.23.818 0 1.363-.683 1.363-1.367Zm-4.498.137c-.135-.683-.68-1.23-1.498-1.23-.682.137-1.227.683-1.227 1.504 0 .683.682 1.366 1.5 1.23.68 0 1.225-.684 1.225-1.504Zm-4.497.41c-.135-.683-.816-1.23-1.498-1.093-.818 0-1.363.683-1.226 1.503.136.684.818 1.23 1.499 1.094.817 0 1.362-.684 1.225-1.504Zm-4.496.547c-.135-.683-.817-1.23-1.498-1.094-.819.137-1.227.821-1.227 1.641.137.683.818 1.23 1.635 1.093a1.416 1.416 0 0 0 1.09-1.64Zm-4.36.82c-.136-.683-.953-1.23-1.635-1.093-.818.273-1.226.956-1.09 1.64.135.82.954 1.23 1.635 1.093.682-.137 1.227-.957 1.09-1.64Zm-4.496.957c-.137-.684-.818-1.094-1.635-.957-.682.273-1.09.957-.955 1.64.273.82.955 1.23 1.636.957.817-.137 1.225-.82.954-1.64Zm-4.225 1.23c-.272-.684-1.09-1.094-1.772-.82-.68.136-1.089.956-.816 1.64.136.82.953 1.093 1.635.956.818-.273 1.09-1.093.953-1.776Zm-4.36 1.503c-.273-.683-.953-1.093-1.635-.82-.818.273-1.09 1.093-.818 1.777.273.683 1.09 1.093 1.772.82.681-.274.953-1.093.681-1.777Zm-4.088 1.64c-.408-.683-1.226-.956-1.771-.546-.682.273-.954 1.093-.682 1.776.273.684 1.092.957 1.772.684.681-.41.954-1.23.681-1.914Zm-4.088 2.05c-.272-.683-1.225-.82-1.771-.41-.68.41-.954 1.23-.545 1.777.409.683 1.226.957 1.908.547.681-.41.818-1.23.408-1.914Zm-3.815 2.46c-.408-.683-1.226-.819-1.908-.41-.545.547-.68 1.367-.272 1.914.545.683 1.362.82 1.909.41.68-.547.816-1.367.271-1.914Zm-3.543 2.734c-.545-.547-1.361-.547-1.906 0a1.324 1.324 0 0 0 0 1.913c.545.547 1.361.547 1.906 0a1.324 1.324 0 0 0 0-1.913Zm-2.996 3.28c-.682-.41-1.5-.273-1.909.274-.408.683-.273 1.503.272 1.913.682.41 1.5.273 1.908-.273.409-.684.274-1.504-.271-1.914Zm-2.454 3.827c-.681-.273-1.498.137-1.771.82-.273.683.137 1.503.818 1.777.817.136 1.498-.137 1.77-.957.273-.683-.135-1.367-.817-1.64Zm56.412 32.938c0-.683-.681-1.366-1.363-1.366-.817 0-1.363.683-1.363 1.366 0 .821.546 1.367 1.363 1.367.682 0 1.363-.546 1.363-1.367Zm-4.496 0c0-.683-.545-1.366-1.363-1.366-.682 0-1.364.546-1.364 1.23 0 .82.545 1.503 1.364 1.503.681 0 1.363-.546 1.363-1.367Zm-4.498-.136c0-.82-.545-1.504-1.225-1.504-.818 0-1.5.547-1.5 1.23 0 .821.545 1.367 1.227 1.504.818 0 1.363-.547 1.498-1.23Zm-4.497-.41c.137-.82-.408-1.504-1.225-1.504-.681-.136-1.363.41-1.499 1.094-.137.82.408 1.503 1.226 1.64.682 0 1.363-.547 1.498-1.23Zm-4.496-.547a1.416 1.416 0 0 0-1.09-1.64c-.817-.137-1.498.41-1.498 1.093-.137.82.271 1.504 1.09 1.64.681.137 1.363-.41 1.498-1.093Zm-4.36-.82c.137-.683-.408-1.503-1.09-1.64-.681-.137-1.498.273-1.635 1.093-.136.684.272 1.504 1.09 1.64.682.137 1.499-.41 1.635-1.093Zm-4.496-.957a1.215 1.215 0 0 0-.954-1.64c-.681-.273-1.363.137-1.636.957-.135.683.273 1.367.955 1.64.817.137 1.498-.273 1.635-.957Zm-4.225-1.23c.137-.683-.135-1.503-.953-1.776-.682-.137-1.499.273-1.635.956-.273.684.136 1.504.816 1.64.682.274 1.5-.136 1.772-.82Zm-4.36-1.503c.272-.683 0-1.503-.681-1.777-.682-.273-1.499.137-1.772.82-.272.684 0 1.504.818 1.777.682.273 1.362-.137 1.635-.82Zm-4.088-1.64c.273-.684 0-1.504-.681-1.914-.68-.273-1.499 0-1.77.684-.274.683 0 1.503.68 1.776.545.411 1.363.137 1.771-.546Zm-4.088-2.05c.41-.684.273-1.504-.408-1.914-.682-.41-1.499-.136-1.908.547-.409.547-.135 1.503.545 1.777.546.41 1.499.273 1.771-.41Zm-3.815-2.46c.545-.547.409-1.367-.271-1.914-.545-.41-1.364-.273-1.909.41-.408.547-.273 1.367.272 1.914.682.41 1.5.273 1.908-.41Zm-3.543-2.734a1.324 1.324 0 0 0 0-1.913c-.545-.547-1.361-.547-1.906 0a1.324 1.324 0 0 0 0 1.913c.545.547 1.361.547 1.906 0Zm-2.996-3.28c.545-.41.68-1.23.271-1.914-.408-.546-1.226-.683-1.906-.273-.547.41-.682 1.23-.274 1.913.409.547 1.227.684 1.909.274Zm-2.454-3.827c.682-.137 1.09-.957.819-1.64-.274-.82-.955-1.093-1.772-.957-.681.273-1.09 1.094-.818 1.777.273.683 1.09 1.093 1.771.82Zm-1.226-4.237c.818-.137 1.363-.683 1.363-1.503 0-.684-.682-1.367-1.5-1.23-.68 0-1.226.546-1.226 1.366 0 .684.681 1.367 1.363 1.367Zm112.55-2.733c-.681-.137-1.363.546-1.363 1.23 0 .82.545 1.366 1.363 1.503.682 0 1.363-.683 1.363-1.367 0-.82-.545-1.366-1.363-1.366Zm-.408 4.373c-.682-.136-1.5.137-1.635.957-.273.683.135 1.503.817 1.64.681.273 1.499-.137 1.771-.82.137-.683-.137-1.504-.953-1.777Zm-1.635 4.237c-.682-.41-1.5-.273-1.908.273-.545.684-.274 1.504.273 1.914.68.41 1.498.273 1.907-.274.408-.683.273-1.503-.272-1.913Zm-2.727 3.554c-.545-.547-1.498-.547-2.043 0a1.648 1.648 0 0 0 0 1.913c.545.547 1.498.547 2.043 0 .41-.546.41-1.367 0-1.913Zm-3.406 3.143c-.408-.683-1.225-.82-1.77-.41-.682.547-.818 1.367-.41 1.914.545.683 1.363.82 1.908.41.682-.547.817-1.367.272-1.914Zm-3.678 2.597c-.273-.683-1.227-.957-1.772-.547-.681.41-.953 1.23-.545 1.914.409.683 1.227.82 1.908.41.68-.274.817-1.23.409-1.777Zm-3.815 2.187c-.41-.684-1.227-.957-1.908-.684-.682.41-.954 1.23-.545 1.914.272.683 1.09.957 1.771.546.682-.273.954-1.093.682-1.776Zm-4.088 1.913c-.273-.683-1.09-1.093-1.772-.82-.681.274-1.09 1.094-.818 1.777.273.683 1.09 1.093 1.772.82.681-.273 1.09-1.093.818-1.777Zm-4.225 1.64c-.272-.683-.953-1.093-1.771-.956-.682.273-1.09 1.093-.817 1.776.272.684.953 1.094 1.772.82.68-.136 1.089-.956.816-1.64Zm-4.223 1.367c-.273-.82-.955-1.23-1.772-.957-.681.137-1.089.957-.954 1.64.273.684.954 1.094 1.636.957.817-.273 1.225-.957 1.09-1.64Zm-4.361 1.093c-.272-.82-.954-1.23-1.635-1.093-.817.137-1.227.957-1.09 1.64.136.683.818 1.23 1.635 1.093.681-.136 1.226-.956 1.09-1.64Zm-4.497.82c-.136-.683-.816-1.23-1.498-1.093-.818.137-1.227.82-1.227 1.64.137.683.819 1.23 1.635 1.093.682-.136 1.227-.82 1.09-1.64Zm-4.36.684a1.414 1.414 0 0 0-1.634-1.094c-.682 0-1.227.684-1.09 1.504 0 .683.68 1.23 1.498 1.23.682-.137 1.226-.82 1.226-1.64Zm-4.496.546c-.137-.683-.682-1.23-1.5-1.23-.68 0-1.361.684-1.225 1.504 0 .683.68 1.23 1.498 1.23.682-.137 1.227-.683 1.227-1.504Zm-4.496.274c0-.684-.682-1.23-1.364-1.23-.818 0-1.363.683-1.363 1.366 0 .821.682 1.367 1.363 1.367.819 0 1.364-.683 1.364-1.503Zm-7.223-54.396c0 .683.546 1.366 1.363 1.366.682 0 1.363-.683 1.363-1.366 0-.82-.681-1.367-1.363-1.367-.817 0-1.363.547-1.363 1.367Zm4.496 0c0 .683.545 1.366 1.363 1.366.682 0 1.364-.546 1.364-1.23 0-.82-.545-1.503-1.364-1.503-.681 0-1.363.547-1.363 1.367Zm4.498.136c-.136.82.545 1.504 1.225 1.504.818.137 1.363-.547 1.5-1.23 0-.82-.545-1.367-1.227-1.504-.818 0-1.498.547-1.498 1.23Zm4.497.41c-.137.82.408 1.504 1.09 1.504a1.414 1.414 0 0 0 1.634-1.094c0-.82-.544-1.503-1.226-1.503-.818-.137-1.498.41-1.498 1.093Zm4.359.547c0 .82.409 1.504 1.227 1.64.682.137 1.362-.41 1.498-1.093.137-.82-.408-1.504-1.09-1.64a1.414 1.414 0 0 0-1.635 1.093Zm4.497.82c-.137.684.273 1.504 1.09 1.64.681.137 1.363-.273 1.635-1.093.136-.683-.409-1.367-1.09-1.64a1.413 1.413 0 0 0-1.635 1.093Zm4.36.957c-.135.82.273 1.503.954 1.64.817.273 1.499-.137 1.772-.957.135-.683-.273-1.367-1.09-1.64-.682-.136-1.363.273-1.636.957Zm4.361 1.23c-.273.683.135 1.503.817 1.777.818.136 1.499-.137 1.771-.957.273-.683-.136-1.503-.816-1.64-.819-.273-1.5.137-1.772.82Zm4.223 1.503c-.272.684.137 1.504.818 1.777.682.273 1.499-.136 1.772-.82.272-.683-.137-1.503-.818-1.777-.682-.273-1.499.137-1.772.82Zm4.225 1.641c-.409.683-.137 1.503.545 1.913.681.273 1.498 0 1.908-.683.272-.684 0-1.504-.682-1.777-.681-.41-1.499-.137-1.771.547Zm3.951 2.05c-.408.683-.136 1.503.545 1.913.545.41 1.499.137 1.772-.547.408-.546.271-1.366-.409-1.776-.681-.41-1.499-.274-1.908.41Zm3.815 2.46c-.408.546-.272 1.366.41 1.913.545.41 1.362.273 1.77-.41.545-.547.41-1.367-.272-1.913-.545-.41-1.363-.274-1.908.41Zm3.543 2.733a1.65 1.65 0 0 0 0 1.914c.545.546 1.498.546 2.043 0 .41-.547.41-1.367 0-1.914-.545-.547-1.498-.547-2.043 0Zm3.133 3.28c-.545.41-.816 1.23-.271 1.914.408.547 1.226.683 1.908.273.545-.41.68-1.23.272-1.913-.409-.547-1.227-.684-1.909-.274Zm2.454 3.827c-.682.274-1.09.957-.817 1.64.135.82.953 1.094 1.635.957.816-.273 1.09-1.093.953-1.777-.272-.683-1.09-1.093-1.771-.82Z"/>
    <path fill="url(#g)" d="M229 256.068C229 239.394 255.298 226 288 226s59 13.394 59 30.068C347 272.606 320.702 286 288 286s-59-13.394-59-29.932Zm59-24.601c-33.383 0-53.55 13.667-53.55 24.601 0 10.798 20.167 24.465 53.55 24.465 33.383 0 53.55-13.667 53.55-24.465 0-10.934-20.167-24.601-53.55-24.601Zm-3.133-2.734c0-.82-.682-1.366-1.363-1.366-.819 0-1.364.683-1.364 1.503 0 .684.682 1.23 1.364 1.23.818 0 1.363-.683 1.363-1.367Zm-4.498.137c-.135-.683-.68-1.23-1.498-1.23-.682.137-1.227.683-1.227 1.504 0 .683.682 1.366 1.5 1.23.68 0 1.225-.684 1.225-1.504Zm-4.497.41c-.135-.683-.816-1.23-1.498-1.093-.818 0-1.363.683-1.226 1.503.136.684.818 1.23 1.499 1.094.817 0 1.362-.684 1.225-1.504Zm-4.496.547c-.135-.683-.817-1.23-1.498-1.094-.819.137-1.227.821-1.227 1.641.137.683.818 1.23 1.635 1.093a1.416 1.416 0 0 0 1.09-1.64Zm-4.36.82c-.136-.683-.953-1.23-1.635-1.093-.818.273-1.226.956-1.09 1.64.135.82.954 1.23 1.635 1.093.682-.137 1.227-.957 1.09-1.64Zm-4.496.957c-.137-.684-.818-1.094-1.635-.957-.682.273-1.09.957-.955 1.64.273.82.955 1.23 1.636.957.817-.137 1.225-.82.954-1.64Zm-4.225 1.23c-.272-.684-1.09-1.094-1.772-.82-.68.136-1.089.956-.816 1.64.136.82.953 1.093 1.635.956.818-.273 1.09-1.093.953-1.776Zm-4.36 1.503c-.273-.683-.953-1.093-1.635-.82-.818.273-1.09 1.093-.818 1.777.273.683 1.09 1.093 1.772.82.681-.274.953-1.093.681-1.777Zm-4.088 1.64c-.408-.683-1.226-.956-1.771-.546-.682.273-.954 1.093-.682 1.776.273.684 1.092.957 1.772.684.681-.41.954-1.23.681-1.914Zm-4.088 2.05c-.272-.683-1.225-.82-1.771-.41-.68.41-.954 1.23-.545 1.777.409.683 1.226.957 1.908.547.681-.41.818-1.23.408-1.914Zm-3.815 2.46c-.408-.683-1.226-.819-1.908-.41-.545.547-.68 1.367-.272 1.914.545.683 1.362.82 1.909.41.68-.547.816-1.367.271-1.914Zm-3.543 2.734c-.545-.547-1.361-.547-1.906 0a1.324 1.324 0 0 0 0 1.913c.545.547 1.361.547 1.906 0a1.324 1.324 0 0 0 0-1.913Zm-2.996 3.28c-.682-.41-1.5-.273-1.909.274-.408.683-.273 1.503.272 1.913.682.41 1.5.273 1.908-.273.409-.684.274-1.504-.271-1.914Zm-2.454 3.827c-.681-.273-1.498.137-1.771.82-.273.683.137 1.503.818 1.777.817.136 1.498-.137 1.77-.957.273-.683-.135-1.367-.817-1.64Zm56.412 32.938c0-.683-.681-1.366-1.363-1.366-.817 0-1.363.683-1.363 1.366 0 .821.546 1.367 1.363 1.367.682 0 1.363-.546 1.363-1.367Zm-4.496 0c0-.683-.545-1.366-1.363-1.366-.682 0-1.364.546-1.364 1.23 0 .82.545 1.503 1.364 1.503.681 0 1.363-.546 1.363-1.367Zm-4.498-.136c0-.82-.545-1.504-1.225-1.504-.818 0-1.5.547-1.5 1.23 0 .821.545 1.367 1.227 1.504.818 0 1.363-.547 1.498-1.23Zm-4.497-.41c.137-.82-.408-1.504-1.225-1.504-.681-.136-1.363.41-1.499 1.094-.137.82.408 1.503 1.226 1.64.682 0 1.363-.547 1.498-1.23Zm-4.496-.547a1.416 1.416 0 0 0-1.09-1.64c-.817-.137-1.498.41-1.498 1.093-.137.82.271 1.504 1.09 1.64.681.137 1.363-.41 1.498-1.093Zm-4.36-.82c.137-.683-.408-1.503-1.09-1.64-.681-.137-1.498.273-1.635 1.093-.136.684.272 1.504 1.09 1.64.682.137 1.499-.41 1.635-1.093Zm-4.496-.957a1.215 1.215 0 0 0-.954-1.64c-.681-.273-1.363.137-1.636.957-.135.683.273 1.367.955 1.64.817.137 1.498-.273 1.635-.957Zm-4.225-1.23c.137-.683-.135-1.503-.953-1.776-.682-.137-1.499.273-1.635.956-.273.684.136 1.504.816 1.64.682.274 1.5-.136 1.772-.82Zm-4.36-1.503c.272-.683 0-1.503-.681-1.777-.682-.273-1.499.137-1.772.82-.272.684 0 1.504.818 1.777.682.273 1.362-.137 1.635-.82Zm-4.088-1.64c.273-.684 0-1.504-.681-1.914-.68-.273-1.499 0-1.77.684-.274.683 0 1.503.68 1.776.545.411 1.363.137 1.771-.546Zm-4.088-2.05c.41-.684.273-1.504-.408-1.914-.682-.41-1.499-.136-1.908.547-.409.547-.135 1.503.545 1.777.546.41 1.499.273 1.771-.41Zm-3.815-2.46c.545-.547.409-1.367-.271-1.914-.545-.41-1.364-.273-1.909.41-.408.547-.273 1.367.272 1.914.682.41 1.5.273 1.908-.41Zm-3.543-2.734a1.324 1.324 0 0 0 0-1.913c-.545-.547-1.361-.547-1.906 0a1.324 1.324 0 0 0 0 1.913c.545.547 1.361.547 1.906 0Zm-2.996-3.28c.545-.41.68-1.23.271-1.914-.408-.546-1.226-.683-1.906-.273-.547.41-.682 1.23-.274 1.913.409.547 1.227.684 1.909.274Zm-2.454-3.827c.682-.137 1.09-.957.819-1.64-.274-.82-.955-1.093-1.772-.957-.681.273-1.09 1.094-.818 1.777.273.683 1.09 1.093 1.771.82Zm-1.226-4.237c.818-.137 1.363-.683 1.363-1.503 0-.684-.682-1.367-1.5-1.23-.68 0-1.226.546-1.226 1.366 0 .684.681 1.367 1.363 1.367Zm112.55-2.733c-.681-.137-1.363.546-1.363 1.23 0 .82.545 1.366 1.363 1.503.682 0 1.363-.683 1.363-1.367 0-.82-.545-1.366-1.363-1.366Zm-.408 4.373c-.682-.136-1.5.137-1.635.957-.273.683.135 1.503.817 1.64.681.273 1.499-.137 1.771-.82.137-.683-.137-1.504-.953-1.777Zm-1.635 4.237c-.682-.41-1.5-.273-1.908.273-.545.684-.274 1.504.273 1.914.68.41 1.498.273 1.907-.274.408-.683.273-1.503-.272-1.913Zm-2.727 3.554c-.545-.547-1.498-.547-2.043 0a1.648 1.648 0 0 0 0 1.913c.545.547 1.498.547 2.043 0 .41-.546.41-1.367 0-1.913Zm-3.406 3.143c-.408-.683-1.225-.82-1.77-.41-.682.547-.818 1.367-.41 1.914.545.683 1.363.82 1.908.41.682-.547.817-1.367.272-1.914Zm-3.678 2.597c-.273-.683-1.227-.957-1.772-.547-.681.41-.953 1.23-.545 1.914.409.683 1.227.82 1.908.41.68-.274.817-1.23.409-1.777Zm-3.815 2.187c-.41-.684-1.227-.957-1.908-.684-.682.41-.954 1.23-.545 1.914.272.683 1.09.957 1.771.546.682-.273.954-1.093.682-1.776Zm-4.088 1.913c-.273-.683-1.09-1.093-1.772-.82-.681.274-1.09 1.094-.818 1.777.273.683 1.09 1.093 1.772.82.681-.273 1.09-1.093.818-1.777Zm-4.225 1.64c-.272-.683-.953-1.093-1.771-.956-.682.273-1.09 1.093-.817 1.776.272.684.953 1.094 1.772.82.68-.136 1.089-.956.816-1.64Zm-4.223 1.367c-.273-.82-.955-1.23-1.772-.957-.681.137-1.089.957-.954 1.64.273.684.954 1.094 1.636.957.817-.273 1.225-.957 1.09-1.64Zm-4.361 1.093c-.272-.82-.954-1.23-1.635-1.093-.817.137-1.227.957-1.09 1.64.136.683.818 1.23 1.635 1.093.681-.136 1.226-.956 1.09-1.64Zm-4.497.82c-.136-.683-.816-1.23-1.498-1.093-.818.137-1.227.82-1.227 1.64.137.683.819 1.23 1.635 1.093.682-.136 1.227-.82 1.09-1.64Zm-4.36.684a1.414 1.414 0 0 0-1.634-1.094c-.682 0-1.227.684-1.09 1.504 0 .683.68 1.23 1.498 1.23.682-.137 1.226-.82 1.226-1.64Zm-4.496.546c-.137-.683-.682-1.23-1.5-1.23-.68 0-1.361.684-1.225 1.504 0 .683.68 1.23 1.498 1.23.682-.137 1.227-.683 1.227-1.504Zm-4.496.274c0-.684-.682-1.23-1.364-1.23-.818 0-1.363.683-1.363 1.366 0 .821.682 1.367 1.363 1.367.819 0 1.364-.683 1.364-1.503Zm-7.223-54.396c0 .683.546 1.366 1.363 1.366.682 0 1.363-.683 1.363-1.366 0-.82-.681-1.367-1.363-1.367-.817 0-1.363.547-1.363 1.367Zm4.496 0c0 .683.545 1.366 1.363 1.366.682 0 1.364-.546 1.364-1.23 0-.82-.545-1.503-1.364-1.503-.681 0-1.363.547-1.363 1.367Zm4.498.136c-.136.82.545 1.504 1.225 1.504.818.137 1.363-.547 1.5-1.23 0-.82-.545-1.367-1.227-1.504-.818 0-1.498.547-1.498 1.23Zm4.497.41c-.137.82.408 1.504 1.09 1.504a1.414 1.414 0 0 0 1.634-1.094c0-.82-.544-1.503-1.226-1.503-.818-.137-1.498.41-1.498 1.093Zm4.359.547c0 .82.409 1.504 1.227 1.64.682.137 1.362-.41 1.498-1.093.137-.82-.408-1.504-1.09-1.64a1.414 1.414 0 0 0-1.635 1.093Zm4.497.82c-.137.684.273 1.504 1.09 1.64.681.137 1.363-.273 1.635-1.093.136-.683-.409-1.367-1.09-1.64a1.413 1.413 0 0 0-1.635 1.093Zm4.36.957c-.135.82.273 1.503.954 1.64.817.273 1.499-.137 1.772-.957.135-.683-.273-1.367-1.09-1.64-.682-.136-1.363.273-1.636.957Zm4.361 1.23c-.273.683.135 1.503.817 1.777.818.136 1.499-.137 1.771-.957.273-.683-.136-1.503-.816-1.64-.819-.273-1.5.137-1.772.82Zm4.223 1.503c-.272.684.137 1.504.818 1.777.682.273 1.499-.136 1.772-.82.272-.683-.137-1.503-.818-1.777-.682-.273-1.499.137-1.772.82Zm4.225 1.641c-.409.683-.137 1.503.545 1.913.681.273 1.498 0 1.908-.683.272-.684 0-1.504-.682-1.777-.681-.41-1.499-.137-1.771.547Zm3.951 2.05c-.408.683-.136 1.503.545 1.913.545.41 1.499.137 1.772-.547.408-.546.271-1.366-.409-1.776-.681-.41-1.499-.274-1.908.41Zm3.815 2.46c-.408.546-.272 1.366.41 1.913.545.41 1.362.273 1.77-.41.545-.547.41-1.367-.272-1.913-.545-.41-1.363-.274-1.908.41Zm3.543 2.733a1.65 1.65 0 0 0 0 1.914c.545.546 1.498.546 2.043 0 .41-.547.41-1.367 0-1.914-.545-.547-1.498-.547-2.043 0Zm3.133 3.28c-.545.41-.816 1.23-.271 1.914.408.547 1.226.683 1.908.273.545-.41.68-1.23.272-1.913-.409-.547-1.227-.684-1.909-.274Zm2.454 3.827c-.682.274-1.09.957-.817 1.64.135.82.953 1.094 1.635.957.816-.273 1.09-1.093.953-1.777-.272-.683-1.09-1.093-1.771-.82Z"/>
    <path fill="url(#h)" d="M229 256.068C229 239.394 255.298 226 288 226s59 13.394 59 30.068C347 272.606 320.702 286 288 286s-59-13.394-59-29.932Zm59-24.601c-33.383 0-53.55 13.667-53.55 24.601 0 10.798 20.167 24.465 53.55 24.465 33.383 0 53.55-13.667 53.55-24.465 0-10.934-20.167-24.601-53.55-24.601Zm-3.133-2.734c0-.82-.682-1.366-1.363-1.366-.819 0-1.364.683-1.364 1.503 0 .684.682 1.23 1.364 1.23.818 0 1.363-.683 1.363-1.367Zm-4.498.137c-.135-.683-.68-1.23-1.498-1.23-.682.137-1.227.683-1.227 1.504 0 .683.682 1.366 1.5 1.23.68 0 1.225-.684 1.225-1.504Zm-4.497.41c-.135-.683-.816-1.23-1.498-1.093-.818 0-1.363.683-1.226 1.503.136.684.818 1.23 1.499 1.094.817 0 1.362-.684 1.225-1.504Zm-4.496.547c-.135-.683-.817-1.23-1.498-1.094-.819.137-1.227.821-1.227 1.641.137.683.818 1.23 1.635 1.093a1.416 1.416 0 0 0 1.09-1.64Zm-4.36.82c-.136-.683-.953-1.23-1.635-1.093-.818.273-1.226.956-1.09 1.64.135.82.954 1.23 1.635 1.093.682-.137 1.227-.957 1.09-1.64Zm-4.496.957c-.137-.684-.818-1.094-1.635-.957-.682.273-1.09.957-.955 1.64.273.82.955 1.23 1.636.957.817-.137 1.225-.82.954-1.64Zm-4.225 1.23c-.272-.684-1.09-1.094-1.772-.82-.68.136-1.089.956-.816 1.64.136.82.953 1.093 1.635.956.818-.273 1.09-1.093.953-1.776Zm-4.36 1.503c-.273-.683-.953-1.093-1.635-.82-.818.273-1.09 1.093-.818 1.777.273.683 1.09 1.093 1.772.82.681-.274.953-1.093.681-1.777Zm-4.088 1.64c-.408-.683-1.226-.956-1.771-.546-.682.273-.954 1.093-.682 1.776.273.684 1.092.957 1.772.684.681-.41.954-1.23.681-1.914Zm-4.088 2.05c-.272-.683-1.225-.82-1.771-.41-.68.41-.954 1.23-.545 1.777.409.683 1.226.957 1.908.547.681-.41.818-1.23.408-1.914Zm-3.815 2.46c-.408-.683-1.226-.819-1.908-.41-.545.547-.68 1.367-.272 1.914.545.683 1.362.82 1.909.41.68-.547.816-1.367.271-1.914Zm-3.543 2.734c-.545-.547-1.361-.547-1.906 0a1.324 1.324 0 0 0 0 1.913c.545.547 1.361.547 1.906 0a1.324 1.324 0 0 0 0-1.913Zm-2.996 3.28c-.682-.41-1.5-.273-1.909.274-.408.683-.273 1.503.272 1.913.682.41 1.5.273 1.908-.273.409-.684.274-1.504-.271-1.914Zm-2.454 3.827c-.681-.273-1.498.137-1.771.82-.273.683.137 1.503.818 1.777.817.136 1.498-.137 1.77-.957.273-.683-.135-1.367-.817-1.64Zm56.412 32.938c0-.683-.681-1.366-1.363-1.366-.817 0-1.363.683-1.363 1.366 0 .821.546 1.367 1.363 1.367.682 0 1.363-.546 1.363-1.367Zm-4.496 0c0-.683-.545-1.366-1.363-1.366-.682 0-1.364.546-1.364 1.23 0 .82.545 1.503 1.364 1.503.681 0 1.363-.546 1.363-1.367Zm-4.498-.136c0-.82-.545-1.504-1.225-1.504-.818 0-1.5.547-1.5 1.23 0 .821.545 1.367 1.227 1.504.818 0 1.363-.547 1.498-1.23Zm-4.497-.41c.137-.82-.408-1.504-1.225-1.504-.681-.136-1.363.41-1.499 1.094-.137.82.408 1.503 1.226 1.64.682 0 1.363-.547 1.498-1.23Zm-4.496-.547a1.416 1.416 0 0 0-1.09-1.64c-.817-.137-1.498.41-1.498 1.093-.137.82.271 1.504 1.09 1.64.681.137 1.363-.41 1.498-1.093Zm-4.36-.82c.137-.683-.408-1.503-1.09-1.64-.681-.137-1.498.273-1.635 1.093-.136.684.272 1.504 1.09 1.64.682.137 1.499-.41 1.635-1.093Zm-4.496-.957a1.215 1.215 0 0 0-.954-1.64c-.681-.273-1.363.137-1.636.957-.135.683.273 1.367.955 1.64.817.137 1.498-.273 1.635-.957Zm-4.225-1.23c.137-.683-.135-1.503-.953-1.776-.682-.137-1.499.273-1.635.956-.273.684.136 1.504.816 1.64.682.274 1.5-.136 1.772-.82Zm-4.36-1.503c.272-.683 0-1.503-.681-1.777-.682-.273-1.499.137-1.772.82-.272.684 0 1.504.818 1.777.682.273 1.362-.137 1.635-.82Zm-4.088-1.64c.273-.684 0-1.504-.681-1.914-.68-.273-1.499 0-1.77.684-.274.683 0 1.503.68 1.776.545.411 1.363.137 1.771-.546Zm-4.088-2.05c.41-.684.273-1.504-.408-1.914-.682-.41-1.499-.136-1.908.547-.409.547-.135 1.503.545 1.777.546.41 1.499.273 1.771-.41Zm-3.815-2.46c.545-.547.409-1.367-.271-1.914-.545-.41-1.364-.273-1.909.41-.408.547-.273 1.367.272 1.914.682.41 1.5.273 1.908-.41Zm-3.543-2.734a1.324 1.324 0 0 0 0-1.913c-.545-.547-1.361-.547-1.906 0a1.324 1.324 0 0 0 0 1.913c.545.547 1.361.547 1.906 0Zm-2.996-3.28c.545-.41.68-1.23.271-1.914-.408-.546-1.226-.683-1.906-.273-.547.41-.682 1.23-.274 1.913.409.547 1.227.684 1.909.274Zm-2.454-3.827c.682-.137 1.09-.957.819-1.64-.274-.82-.955-1.093-1.772-.957-.681.273-1.09 1.094-.818 1.777.273.683 1.09 1.093 1.771.82Zm-1.226-4.237c.818-.137 1.363-.683 1.363-1.503 0-.684-.682-1.367-1.5-1.23-.68 0-1.226.546-1.226 1.366 0 .684.681 1.367 1.363 1.367Zm112.55-2.733c-.681-.137-1.363.546-1.363 1.23 0 .82.545 1.366 1.363 1.503.682 0 1.363-.683 1.363-1.367 0-.82-.545-1.366-1.363-1.366Zm-.408 4.373c-.682-.136-1.5.137-1.635.957-.273.683.135 1.503.817 1.64.681.273 1.499-.137 1.771-.82.137-.683-.137-1.504-.953-1.777Zm-1.635 4.237c-.682-.41-1.5-.273-1.908.273-.545.684-.274 1.504.273 1.914.68.41 1.498.273 1.907-.274.408-.683.273-1.503-.272-1.913Zm-2.727 3.554c-.545-.547-1.498-.547-2.043 0a1.648 1.648 0 0 0 0 1.913c.545.547 1.498.547 2.043 0 .41-.546.41-1.367 0-1.913Zm-3.406 3.143c-.408-.683-1.225-.82-1.77-.41-.682.547-.818 1.367-.41 1.914.545.683 1.363.82 1.908.41.682-.547.817-1.367.272-1.914Zm-3.678 2.597c-.273-.683-1.227-.957-1.772-.547-.681.41-.953 1.23-.545 1.914.409.683 1.227.82 1.908.41.68-.274.817-1.23.409-1.777Zm-3.815 2.187c-.41-.684-1.227-.957-1.908-.684-.682.41-.954 1.23-.545 1.914.272.683 1.09.957 1.771.546.682-.273.954-1.093.682-1.776Zm-4.088 1.913c-.273-.683-1.09-1.093-1.772-.82-.681.274-1.09 1.094-.818 1.777.273.683 1.09 1.093 1.772.82.681-.273 1.09-1.093.818-1.777Zm-4.225 1.64c-.272-.683-.953-1.093-1.771-.956-.682.273-1.09 1.093-.817 1.776.272.684.953 1.094 1.772.82.68-.136 1.089-.956.816-1.64Zm-4.223 1.367c-.273-.82-.955-1.23-1.772-.957-.681.137-1.089.957-.954 1.64.273.684.954 1.094 1.636.957.817-.273 1.225-.957 1.09-1.64Zm-4.361 1.093c-.272-.82-.954-1.23-1.635-1.093-.817.137-1.227.957-1.09 1.64.136.683.818 1.23 1.635 1.093.681-.136 1.226-.956 1.09-1.64Zm-4.497.82c-.136-.683-.816-1.23-1.498-1.093-.818.137-1.227.82-1.227 1.64.137.683.819 1.23 1.635 1.093.682-.136 1.227-.82 1.09-1.64Zm-4.36.684a1.414 1.414 0 0 0-1.634-1.094c-.682 0-1.227.684-1.09 1.504 0 .683.68 1.23 1.498 1.23.682-.137 1.226-.82 1.226-1.64Zm-4.496.546c-.137-.683-.682-1.23-1.5-1.23-.68 0-1.361.684-1.225 1.504 0 .683.68 1.23 1.498 1.23.682-.137 1.227-.683 1.227-1.504Zm-4.496.274c0-.684-.682-1.23-1.364-1.23-.818 0-1.363.683-1.363 1.366 0 .821.682 1.367 1.363 1.367.819 0 1.364-.683 1.364-1.503Zm-7.223-54.396c0 .683.546 1.366 1.363 1.366.682 0 1.363-.683 1.363-1.366 0-.82-.681-1.367-1.363-1.367-.817 0-1.363.547-1.363 1.367Zm4.496 0c0 .683.545 1.366 1.363 1.366.682 0 1.364-.546 1.364-1.23 0-.82-.545-1.503-1.364-1.503-.681 0-1.363.547-1.363 1.367Zm4.498.136c-.136.82.545 1.504 1.225 1.504.818.137 1.363-.547 1.5-1.23 0-.82-.545-1.367-1.227-1.504-.818 0-1.498.547-1.498 1.23Zm4.497.41c-.137.82.408 1.504 1.09 1.504a1.414 1.414 0 0 0 1.634-1.094c0-.82-.544-1.503-1.226-1.503-.818-.137-1.498.41-1.498 1.093Zm4.359.547c0 .82.409 1.504 1.227 1.64.682.137 1.362-.41 1.498-1.093.137-.82-.408-1.504-1.09-1.64a1.414 1.414 0 0 0-1.635 1.093Zm4.497.82c-.137.684.273 1.504 1.09 1.64.681.137 1.363-.273 1.635-1.093.136-.683-.409-1.367-1.09-1.64a1.413 1.413 0 0 0-1.635 1.093Zm4.36.957c-.135.82.273 1.503.954 1.64.817.273 1.499-.137 1.772-.957.135-.683-.273-1.367-1.09-1.64-.682-.136-1.363.273-1.636.957Zm4.361 1.23c-.273.683.135 1.503.817 1.777.818.136 1.499-.137 1.771-.957.273-.683-.136-1.503-.816-1.64-.819-.273-1.5.137-1.772.82Zm4.223 1.503c-.272.684.137 1.504.818 1.777.682.273 1.499-.136 1.772-.82.272-.683-.137-1.503-.818-1.777-.682-.273-1.499.137-1.772.82Zm4.225 1.641c-.409.683-.137 1.503.545 1.913.681.273 1.498 0 1.908-.683.272-.684 0-1.504-.682-1.777-.681-.41-1.499-.137-1.771.547Zm3.951 2.05c-.408.683-.136 1.503.545 1.913.545.41 1.499.137 1.772-.547.408-.546.271-1.366-.409-1.776-.681-.41-1.499-.274-1.908.41Zm3.815 2.46c-.408.546-.272 1.366.41 1.913.545.41 1.362.273 1.77-.41.545-.547.41-1.367-.272-1.913-.545-.41-1.363-.274-1.908.41Zm3.543 2.733a1.65 1.65 0 0 0 0 1.914c.545.546 1.498.546 2.043 0 .41-.547.41-1.367 0-1.914-.545-.547-1.498-.547-2.043 0Zm3.133 3.28c-.545.41-.816 1.23-.271 1.914.408.547 1.226.683 1.908.273.545-.41.68-1.23.272-1.913-.409-.547-1.227-.684-1.909-.274Zm2.454 3.827c-.682.274-1.09.957-.817 1.64.135.82.953 1.094 1.635.957.816-.273 1.09-1.093.953-1.777-.272-.683-1.09-1.093-1.771-.82Z"/>
    <path fill="url(#i)" fill-rule="evenodd" d="M246.136 276.922c10.563 5.436 25.279 8.857 41.864 8.857 16.517 0 31.233-3.421 41.812-8.858 10.594-5.443 16.975-12.869 16.975-20.851 0-8.053-6.383-15.513-16.975-20.974-10.579-5.454-25.295-8.876-41.812-8.876-16.585 0-31.301 3.422-41.864 8.876-10.575 5.46-16.923 12.921-16.923 20.974 0 7.982 6.348 15.408 16.923 20.852ZM229 256.07c0 16.224 25.778 29.93 59 29.93 33.083 0 59-13.706 59-29.93 0-16.364-25.917-30.07-59-30.07-33.222 0-59 13.706-59 30.07Z" clip-rule="evenodd"/>
    <path fill="url(#j)" fill-rule="evenodd" d="M250.771 273.236c9.923 4.49 23.327 7.315 37.229 7.315 13.902 0 27.308-2.825 37.229-7.315 4.961-2.246 9.041-4.903 11.878-7.822 2.837-2.92 4.417-6.087 4.417-9.358 0-3.3-1.593-6.488-4.448-9.423-2.854-2.936-6.954-5.604-11.929-7.857-9.949-4.505-23.353-7.33-37.147-7.33-13.792 0-27.197 2.854-37.145 7.373-4.976 2.26-9.077 4.932-11.93 7.862-2.856 2.931-4.449 6.105-4.449 9.375 0 3.271 1.581 6.438 4.418 9.358 2.836 2.919 6.917 5.576 11.877 7.822Zm-16.507-17.18c0 13.397 25.882 24.715 53.736 24.715 27.856 0 53.737-11.318 53.737-24.715 0-13.512-26.101-24.83-53.737-24.83-27.635 0-53.736 11.433-53.736 24.83Z" clip-rule="evenodd"/>
    <path fill="url(#k)" fill-rule="evenodd" d="M250.924 273.042c9.881 4.469 23.23 7.282 37.076 7.282 13.847 0 27.196-2.813 37.077-7.282 4.941-2.235 9.004-4.88 11.83-7.786 2.824-2.906 4.397-6.058 4.397-9.314 0-3.284-1.585-6.457-4.428-9.38-2.843-2.922-6.927-5.578-11.881-7.82-9.909-4.484-23.258-7.296-36.995-7.296-13.736 0-27.085 2.841-36.994 7.339-4.955 2.25-9.038 4.909-11.881 7.826s-4.428 6.076-4.428 9.331c0 3.256 1.573 6.408 4.397 9.314 2.826 2.906 6.889 5.551 11.83 7.786Zm-16.44-17.1c0 13.336 25.776 24.602 53.516 24.602 27.741 0 53.518-11.266 53.518-24.602 0-13.45-25.994-24.716-53.518-24.716-27.523 0-53.516 11.381-53.516 24.716Z" clip-rule="evenodd"/>
    <path fill="#181715" d="m294.16 254.746-1.362 5.604-2.762-.077 2.548-8.898c.136-.273.895.365 1.031.775l.545 2.596Zm1.908 9.568h-4.088l-.682 3.143h-3.815l-1.663-1.687.741-.803 2.403-.332 1.072-2.475 5.37-.255.662 2.409Zm1.226 3.143-1.664-1.687.621-.803 2.531.318-4.332-16.487.77-.52 1.666 1.685 4.223 17.494h-3.815Zm7.223-14.35h-2.724l-1.66-1.689.447-.348 3.911-.037.026 2.074Zm.819 14.488-1.665-1.686.542-.702 2.211.128.435-14.144 2.532-.382.863-1.919.635-.612 1.668 1.686v3.143h-3.678v14.488h-3.543Zm12.263-14.488h-2.725l-1.663-1.687.41-.438 3.978-.15v2.275Zm.818 14.488-1.663-1.687.576-.605 2.747.226-.163-14.528 2.742-.227.548-1.818.768-.678 1.666 1.686v3.143h-3.541v14.488h-3.68Zm9.947-.138-1.663-1.686.78-.566h2.302l.022-16.861.435-.066 1.666 1.685v17.494h-3.542Zm-67.139-18.525.477-.654 1.666 1.685v12.574c0 .273 0 .683.136.82-1.091-.137-2.342-1.35-2.342-2.443l.063-11.982Zm3.914 18.935c-1.363 0-2.453-.41-3.679-1.367-.817-.683-2.259-2.226-2.396-2.499-.165-.33.352.039.216-.234l.136-.137c.817 1.64 2.044 2.098 3.952 2.098 2.725 0 5.041-2.324 5.041-5.057l-.709-11.86 1.087-.533 1.665 1.685v12.574c0 3.007-2.451 5.33-5.313 5.33Zm17.095-10.562 1.132-.688 1.668 1.684v4.237c0 3.28-1.772 5.33-5.452 5.33-1.226 0-2.316-.41-3.543-1.366-.816-.684-2.277-2.252-2.414-2.526 0-.137.371.065.099-.345h.272c.818 1.504 2.13 1.566 4.038 1.566 3.407 0 4.814-1.067 4.814-4.074l-.614-3.818Zm-1.152 3.73h-.955l-1.664-1.687.548-.617 2.071.663v1.641Zm-.135-7.889c-.38-.104-.775-.312-1.228-.312-1.09 0-1.908.957-1.908 2.05v7.654c0 .41.137.82.41 1.093-1.227-.273-2.604-1.23-2.604-2.324l.169-8.06c0-1.23.818-2.324 2.18-2.46 1.227-.137 2.845 1.129 2.981 2.359Zm4.087 2.012h-3.135l-1.663-1.687.624-.224h2.317c0-2.05-.46-3.283-2.095-4.103l.272-.273c.273.136.279.105.551.242.468.392 1.084.988 1.629 1.534.41.547.682.82.955 1.367.408.957.545 1.777.545 2.87v.274Zm-32.885-6.265c1.048.522 2.376 2.114 3.043 3.119.545.82.819 1.777.819 2.46 0 1.23-.682 2.87-1.635 3.69l.68.684c.818.82 1.363 1.913 1.363 3.553 0 2.324-1.771 5.057-4.496 5.057h-6.268l-1.665-1.686.818-.668h5.691c2.453 0 3.397-1.825 3.397-4.011 0-2.05-.065-3.202-1.157-3.749l-.953-.52.481-.452c.954-.547 1.241-2.161 1.241-3.255 0-1.366-.412-2.967-1.449-3.7l.09-.522Zm-2.951 3.802v3.281h-1.957l.123-5.181h1.952c1.09 0 1.925.944 2.198 2.174-.273-.274-.545-.274-.955-.274h-1.361Zm0 6.971v4.237h-2.261l.095-6.385 2.917.297c.817 0 1.565 1.031 1.837 2.124-.137-.273-.408-.273-.682-.273h-1.906Z"/>
    <path fill="url(#l)" d="M247.532 257.982v5.057h1.908c1.09 0 1.772-1.23 1.772-2.597 0-1.366-.954-2.46-1.772-2.46h-1.908Zm0-6.97v4.1h1.363c1.227 0 1.772-.683 1.772-2.05 0-1.367-.819-2.05-1.772-2.05h-1.363Zm5.041 5.603c1.227.547 2.182 1.914 2.182 4.101 0 2.323-1.772 5.057-4.497 5.057h-6.268v-17.495h5.858c3.135 0 4.497 2.734 4.497 4.647 0 1.094-.68 3.007-1.772 3.69Z"/>
    <path fill="url(#m)" d="M265.245 260.852v-12.574h3.543v12.574c0 3.007-2.453 5.331-5.315 5.331-2.996 0-5.45-2.324-5.45-5.331v-12.574h3.679v12.574c0 .957.681 1.777 1.771 1.777 1.09 0 1.772-.82 1.772-1.777Z"/>
    <path fill="url(#n)" d="M280.235 260.85v-1.503h-1.772v-2.734h4.905v4.237c0 3.281-1.635 5.331-5.313 5.331-2.998 0-5.451-2.324-5.451-5.331v-7.653c0-3.007 2.453-5.331 5.451-5.331 3.678 0 5.313 2.051 5.313 5.331v.273h-3.133v-.273c0-1.23-.955-2.187-2.18-2.05-1.092 0-1.908.956-1.908 2.05v7.653c0 .957.816 1.914 1.908 2.051 1.225 0 2.18-.821 2.18-2.051Z"/>
    <path fill="url(#o)" d="m294.405 259.486-1.635-7.791-1.772 7.791h3.407Zm-8.585 6.287 4.497-17.495h4.904l4.089 17.495h-3.679l-.681-3.144h-4.633l-.682 3.144h-3.815Z"/>
    <path fill="url(#p)" d="M307.212 265.909h-3.542v-14.487h-3.543v-3.144h10.764v3.144h-3.679v14.487Z"/>
    <path fill="url(#q)" d="M320.43 265.909h-3.678v-14.487h-3.543v-3.144h10.764v3.144h-3.543v14.487Z"/>
    <path fill="url(#r)" d="M326.697 248.278h3.543v17.495h-3.543v-17.495Z"/>
    <path fill="#1C151D" d="M291.952 243.357c.818 0 1.363-.683 1.363-1.503 0-.684-.545-1.367-1.363-1.367h-2.861v2.87h2.861Zm0-4.92c.682 0 1.227-.547 1.227-1.23 0-.684-.545-1.23-1.227-1.23h-2.861v2.46h2.861Zm-6.948 2.05v.683h-1.772v-3.416h1.772v.683h1.77v-2.46h-4.223v.82h-1.772V234.2h11.173c1.635 0 3.135 1.367 3.135 3.143 0 .821-.273 1.504-.818 2.051.545.683.954 1.503.954 2.323 0 1.913-1.499 3.417-3.271 3.417h-11.173V242.4h1.772v.957h4.223v-2.87h-1.77Z"/>
    <path fill="url(#s)" fill-rule="evenodd" d="M288.772 240.156h3.18c1.005 0 1.683.843 1.683 1.698 0 .97-.66 1.834-1.683 1.834h-3.18v-3.532Zm0-4.51h3.18c.848 0 1.546.685 1.546 1.561 0 .876-.698 1.561-1.546 1.561h-3.18v-3.122Zm-3.768 2.791v-.683h-1.772v3.416h1.772v-.683h1.77v2.87h-4.223v-.957h-1.772v2.734h11.173c1.772 0 3.271-1.504 3.271-3.417 0-.82-.409-1.64-.954-2.323.545-.547.818-1.23.818-2.051 0-1.776-1.5-3.143-3.135-3.143h-11.173v2.597h1.772v-.82h4.223v2.46h-1.77Zm-2.773-1.971v-.82h4.863v3.122h-2.41v-.684h-1.133v2.756h1.133v-.684h2.41v3.532h-4.863v-.957h-1.132v2.072h10.853c1.598 0 2.952-1.357 2.952-3.086 0-.711-.359-1.458-.881-2.113l-.188-.235.212-.213c.479-.481.72-1.078.72-1.813 0-1.574-1.337-2.812-2.815-2.812h-10.853v1.935h1.132Zm6.86 6.891v-2.87h2.861c.818 0 1.363.683 1.363 1.367 0 .82-.545 1.503-1.363 1.503h-2.861Zm2.861-4.92c.682 0 1.227-.547 1.227-1.23 0-.684-.545-1.23-1.227-1.23h-2.861v2.46h2.861Z" clip-rule="evenodd"/>
    <path fill="#fff" fill-rule="evenodd" d="M203.127 396.281h18.432c7.016 0 11.336-2.929 11.336-8.352 0-3.76-2.418-6.214-4.439-7.085 1.546-.99 3.33-2.336 3.33-5.977 0-5.463-4.519-7.363-11.297-7.363h-17.362v28.777Zm5.629-4.671v-8.075h12.248c3.805 0 6.263.95 6.263 3.959 0 3.404-2.696 4.116-6.263 4.116h-12.248Zm0-12.745v-6.69h12.089c3.687 0 5.312.91 5.312 3.365 0 2.414-1.625 3.325-5.312 3.325h-12.089Zm26.505 17.416h5.985l3.052-6.61h16.608l3.013 6.61h5.946l-13.993-28.777h-6.421l-14.19 28.777Zm11.376-11.439 6.025-12.825 6.025 12.825h-12.05Z" clip-rule="evenodd"/>
    <path fill="#fff" d="M273.578 396.281h5.628v-8.946l6.144-5.106 11.852 14.052h7.372l-15.141-17.377 13.754-11.4h-8.007l-15.974 13.419v-13.419h-5.628v28.777Z"/>
    <path fill="#fff" fill-rule="evenodd" d="M305.711 396.281h5.985l3.052-6.61h16.609l3.012 6.61h5.946l-13.992-28.777h-6.422l-14.19 28.777Zm11.376-11.439 6.025-12.825 6.025 12.825h-12.05Zm26.941 11.439h14.111c9.513 0 16.172-4.75 16.172-14.566 0-10.371-7.293-14.211-16.41-14.211h-13.873v28.777Zm5.628-4.829v-19.119h5.708c9.434 0 13.319 2.415 13.319 9.461 0 6.729-3.726 9.658-13.319 9.658h-5.708Zm27.734-9.342c0 5.977 3.528 14.884 17.163 14.884 13.636 0 17.163-8.907 17.163-14.884 0-7.877-4.479-15.318-17.163-15.318-12.684 0-17.163 7.441-17.163 15.318Zm17.163 10.055c-5.391 0-11.535-2.217-11.535-10.371 0-6.927 4.955-10.173 11.535-10.173s11.535 3.246 11.535 10.173c0 8.154-6.144 10.371-11.535 10.371Zm22.131 4.116h5.629V384.96h8.919l8.363 11.321h6.937l-8.839-11.716c4.241-.238 8.046-3.167 8.046-8.471 0-7.046-4.915-8.59-11.733-8.59h-17.322v28.777Zm5.629-15.991v-8.115h10.861c4.598 0 6.936.673 6.936 4.037 0 3.405-2.338 4.078-6.936 4.078h-10.861Zm27.734 1.82c0 5.977 3.527 14.884 17.163 14.884 13.635 0 17.163-8.907 17.163-14.884 0-7.877-4.479-15.318-17.163-15.318-12.684 0-17.163 7.441-17.163 15.318Zm17.163 10.055c-5.391 0-11.535-2.217-11.535-10.371 0-6.927 4.955-10.173 11.535-10.173s11.534 3.246 11.534 10.173c0 8.154-6.143 10.371-11.534 10.371Zm60.435 2.435h1.007l-1.285-2.093c.66-.069 1.204-.427 1.204-1.295 0-1.005-.637-1.399-1.806-1.399h-1.83v4.787h.892v-2.058h.614l1.204 2.058Zm-1.818-2.74v-1.364h.845c.475 0 1.007.092 1.007.647 0 .647-.451.717-1.018.717h-.834Z" clip-rule="evenodd"/>
    <path fill="#fff" fill-rule="evenodd" d="M522.191 392.126a4.42 4.42 0 0 0 4.423 4.416 4.42 4.42 0 0 0 4.423-4.416c0-2.428-1.98-4.405-4.423-4.405s-4.423 1.977-4.423 4.405Zm1.031 0c0-1.908 1.551-3.446 3.392-3.446s3.392 1.538 3.392 3.446c0 1.908-1.551 3.457-3.392 3.457s-3.392-1.549-3.392-3.457Z" clip-rule="evenodd"/>
    <path fill="#fff" d="m522.018 367.531-17.838 28.75h-1.452l-17.88-28.75h6.236l12.361 19.815 12.351-19.815h6.222Zm-469.932 28.75h26.518v-4.987h-20.89v-23.79h-5.628v28.777Zm30.851 0h26.32v-4.829H88.565v-7.6h17.402v-4.829H88.566v-6.69h20.215v-4.829H82.937v28.777Z"/>
    <path fill="#fff" fill-rule="evenodd" d="M111.925 382.11c0 5.977 3.528 14.884 17.163 14.884 13.636 0 17.163-8.907 17.163-14.884 0-7.877-4.479-15.318-17.163-15.318-12.684 0-17.163 7.441-17.163 15.318Zm17.163 10.055c-5.391 0-11.534-2.217-11.534-10.371 0-6.927 4.954-10.173 11.534-10.173 6.58 0 11.535 3.246 11.535 10.173 0 8.154-6.144 10.371-11.535 10.371Z" clip-rule="evenodd"/>
    <path fill="#fff" d="M151.219 396.281h5.391v-21.533l20.057 21.533h5.153v-28.777h-5.391v20.781l-19.264-20.781h-5.946v28.777Z"/>
  </g>
  <defs>
    <linearGradient id="b" x1="288" x2="288" y1="659" y2="891" gradientUnits="userSpaceOnUse">
      <stop stop-color="#0D0D0F" stop-opacity="0"/>
      <stop offset="1" stop-color="#0D0D0F"/>
    </linearGradient>
    <linearGradient id="c" x1="346.32" x2="346.32" y1="226.684" y2="285.317" gradientUnits="userSpaceOnUse">
      <stop stop-color="#F70021"/>
      <stop offset=".331" stop-color="#E40321"/>
      <stop offset=".635" stop-color="#B6171C"/>
      <stop offset=".978" stop-color="#AF191B"/>
    </linearGradient>
    <linearGradient id="d" x1="347" x2="347" y1="226" y2="286" gradientUnits="userSpaceOnUse">
      <stop stop-color="#AC0913"/>
      <stop offset="1" stop-color="#6C0000"/>
    </linearGradient>
    <linearGradient id="e" x1="346.56" x2="346.56" y1="226.453" y2="285.544" gradientUnits="userSpaceOnUse">
      <stop offset=".066" stop-color="#CF0004"/>
      <stop offset=".923" stop-color="#9D0101"/>
    </linearGradient>
    <linearGradient id="f" x1="347" x2="347" y1="226" y2="286" gradientUnits="userSpaceOnUse">
      <stop offset=".138" stop-color="#EDEBEC"/>
      <stop offset=".74" stop-color="#69707E"/>
    </linearGradient>
    <linearGradient id="g" x1="189.128" x2="225.472" y1="263.505" y2="225.133" gradientUnits="userSpaceOnUse">
      <stop offset=".354" stop-color="#434F53"/>
      <stop offset="1" stop-color="#47524B" stop-opacity="0"/>
    </linearGradient>
    <linearGradient id="h" x1="312.918" x2="276.639" y1="327.712" y2="294.342" gradientUnits="userSpaceOnUse">
      <stop stop-color="#434F53"/>
      <stop offset="1" stop-color="#434F53" stop-opacity="0"/>
    </linearGradient>
    <linearGradient id="i" x1="347" x2="347" y1="226" y2="286" gradientUnits="userSpaceOnUse">
      <stop stop-color="#fff"/>
      <stop offset="1" stop-color="#AEB1BA"/>
    </linearGradient>
    <linearGradient id="j" x1="341.737" x2="341.737" y1="231.226" y2="280.771" gradientUnits="userSpaceOnUse">
      <stop stop-color="#E3EFE5"/>
      <stop offset=".403" stop-color="#A0ADAD"/>
    </linearGradient>
    <linearGradient id="k" x1="341.518" x2="341.518" y1="231.226" y2="280.544" gradientUnits="userSpaceOnUse">
      <stop stop-color="#880201"/>
      <stop offset=".724" stop-color="#970506"/>
    </linearGradient>
    <linearGradient id="l" x1="254.755" x2="254.755" y1="248.278" y2="265.773" gradientUnits="userSpaceOnUse">
      <stop stop-color="#FAF8F9"/>
      <stop offset="1" stop-color="#F2F2F2"/>
    </linearGradient>
    <linearGradient id="m" x1="268.788" x2="268.788" y1="248.278" y2="266.183" gradientUnits="userSpaceOnUse">
      <stop stop-color="#FAF8F9"/>
      <stop offset="1" stop-color="#F2F2F2"/>
    </linearGradient>
    <linearGradient id="n" x1="283.368" x2="283.368" y1="247.866" y2="266.181" gradientUnits="userSpaceOnUse">
      <stop stop-color="#FAF8F9"/>
      <stop offset="1" stop-color="#F2F2F2"/>
    </linearGradient>
    <linearGradient id="o" x1="299.31" x2="299.31" y1="248.278" y2="265.773" gradientUnits="userSpaceOnUse">
      <stop stop-color="#FAF8F9"/>
      <stop offset="1" stop-color="#F2F2F2"/>
    </linearGradient>
    <linearGradient id="p" x1="310.891" x2="310.891" y1="248.278" y2="265.909" gradientUnits="userSpaceOnUse">
      <stop stop-color="#FAF8F9"/>
      <stop offset="1" stop-color="#F2F2F2"/>
    </linearGradient>
    <linearGradient id="q" x1="323.973" x2="323.973" y1="248.278" y2="265.909" gradientUnits="userSpaceOnUse">
      <stop stop-color="#FAF8F9"/>
      <stop offset="1" stop-color="#F2F2F2"/>
    </linearGradient>
    <linearGradient id="r" x1="330.24" x2="330.24" y1="248.278" y2="265.773" gradientUnits="userSpaceOnUse">
      <stop stop-color="#FAF8F9"/>
      <stop offset="1" stop-color="#F2F2F2"/>
    </linearGradient>
    <linearGradient id="s" x1="295.223" x2="295.223" y1="234.2" y2="245.134" gradientUnits="userSpaceOnUse">
      <stop stop-color="#D8DED8"/>
      <stop offset="1" stop-color="#A1A6A0"/>
    </linearGradient>
    <clipPath id="a">
      <path fill="#fff" d="M0 0h576v888H0z"/>
    </clipPath>
  </defs>
</svg>
