<svg width="84" height="56" viewBox="0 0 84 56" fill="none" xmlns="http://www.w3.org/2000/svg">
<g clip-path="url(#clip0_2363_4784)">
<rect width="18.89" height="18.89" transform="translate(45.4492 18.5005)" fill="white"/>
<path d="M64.3392 37.3905V34.3972H62.0603L60.8869 33.0998L59.7078 34.3972H52.1941V28.3505H49.769L52.777 21.5429H55.6782L56.7137 23.8751V21.5429H60.3047L60.9281 23.3004L61.5556 21.5429H64.3392V18.5005H45.4492V37.3905H64.3392ZM62.4442 33.6401H64.3392L61.8325 30.9819L64.3392 28.3539H62.4744L60.9262 30.0457L59.3931 28.3539H57.4976L59.9896 30.997L57.4976 33.6401H59.3405L60.8963 31.9332L62.4446 33.6401H62.4442ZM62.8873 30.9841L64.3388 32.5286V29.4525L62.8873 30.9841ZM54.4386 32.4168V31.5935H57.4217V30.4004H54.4386V29.5772H57.4973V28.3539H52.9962V33.6404H57.4973V32.4171H54.4386V32.4168ZM62.9115 27.5866H64.3388V22.3H62.1185L60.9326 25.5925L59.7546 22.3H57.4965V27.5866H58.9238V23.886L60.2832 27.5866H61.5518L62.9111 23.8785V27.5866H62.9115ZM55.8731 27.5866H57.4969L55.1632 22.3H53.3052L50.9715 27.5866H52.5575L52.9958 26.5291H55.4277L55.8731 27.5866ZM54.929 25.3436H53.4941L54.2115 23.614L54.929 25.3436Z" fill="#006FCF"/>
</g>
<defs>
<clipPath id="clip0_2363_4784">
<rect width="18.89" height="18.89" fill="white" transform="translate(45.4492 18.5005)"/>
</clipPath>
</defs>
</svg>
