<svg width="24" height="24" viewBox="0 0 24 24" fill="none" xmlns="http://www.w3.org/2000/svg">
<path d="M12 16.5557C11.7233 16.5557 11.4715 16.445 11.2446 16.2236L4.92773 9.75732C4.83366 9.66878 4.76172 9.56917 4.71191 9.4585C4.66764 9.34229 4.64551 9.21777 4.64551 9.08496C4.64551 8.90234 4.68701 8.73633 4.77002 8.58691C4.85856 8.4375 4.97477 8.32129 5.11865 8.23828C5.26253 8.14974 5.42578 8.10547 5.6084 8.10547C5.87402 8.10547 6.10645 8.20508 6.30566 8.4043L12.4067 14.6548H11.6016L17.6943 8.4043C17.8936 8.20508 18.126 8.10547 18.3916 8.10547C18.5742 8.10547 18.7375 8.14974 18.8813 8.23828C19.0252 8.32129 19.1387 8.4375 19.2217 8.58691C19.3102 8.73633 19.3545 8.90234 19.3545 9.08496C19.3545 9.34505 19.2604 9.56917 19.0723 9.75732L12.7554 16.2236C12.6502 16.3343 12.534 16.4173 12.4067 16.4727C12.2795 16.528 12.1439 16.5557 12 16.5557Z" fill="#1D1D1F"/>
</svg>
