<svg width="84" height="56" viewBox="0 0 84 56" fill="none" xmlns="http://www.w3.org/2000/svg">
<path d="M45.8105 36.0669C44.0015 36.0669 43.0737 35.1484 43.0737 33.3579V23.2827C43.0737 21.4829 44.0015 20.5645 45.8105 20.5645H61.8975C63.7158 20.5645 64.6343 21.4922 64.6343 23.2827V29.313C64.4487 29.2759 64.2446 29.2666 64.0498 29.2666C63.8643 29.2666 63.6694 29.2852 63.4839 29.313V26.0381H44.2241V33.293C44.2241 34.3691 44.79 34.9165 45.8384 34.9165H53.9561V36.0669H45.8105ZM44.2241 23.3384V23.9692H63.4839V23.3384C63.4839 22.2715 62.8994 21.7148 61.8696 21.7148H45.8384C44.79 21.7148 44.2241 22.2715 44.2241 23.3384ZM57.4536 36.7998C57.166 36.7998 56.9712 36.6143 56.9712 36.3359C56.9712 36.1782 57.0269 36.0391 57.1938 35.8721L59.1885 33.8403C60.0327 32.9868 60.2368 32.6714 60.2368 32.2354C60.2368 31.6787 59.7266 31.2334 59.0957 31.2334C58.5669 31.2334 58.1401 31.4839 57.9453 31.9292C57.9082 32.0034 57.8896 32.0869 57.8711 32.1797C57.8154 32.4302 57.667 32.5693 57.4351 32.5693C57.166 32.5693 56.9897 32.3838 56.9897 32.1055C56.9897 31.9478 57.0269 31.7808 57.0825 31.6323C57.3608 30.8623 58.1587 30.3428 59.0957 30.3428C60.2925 30.3428 61.2017 31.1406 61.2017 32.2075C61.2017 32.8755 60.8955 33.395 59.8564 34.4434L58.4741 35.8535V35.8999H60.9883C61.248 35.8999 61.4429 36.0854 61.4429 36.3545C61.4429 36.6143 61.248 36.7998 60.9883 36.7998H57.4536ZM64.0776 36.8647C63.0479 36.8647 62.2593 36.4194 61.916 35.668C61.8511 35.5288 61.814 35.3804 61.814 35.2227C61.814 34.9536 61.9995 34.7588 62.2686 34.7588C62.5005 34.7588 62.6489 34.8794 62.7139 35.1113C62.853 35.6309 63.3726 35.9741 64.0869 35.9741C64.8755 35.9741 65.4136 35.5474 65.4136 34.9443C65.4136 34.2949 64.9033 33.9424 63.9941 33.9424H63.4746C63.2148 33.9424 63.0386 33.7568 63.0386 33.5063C63.0386 33.2559 63.2148 33.0796 63.4746 33.0796H63.9849C64.7085 33.0796 65.1816 32.6992 65.1816 32.1333C65.1816 31.5952 64.7271 31.2334 64.0312 31.2334C63.4189 31.2334 62.9736 31.5488 62.8345 32.0684C62.7695 32.3096 62.6396 32.4302 62.3892 32.4302C62.1294 32.4302 61.9531 32.2446 61.9531 31.9849C61.9531 31.8364 61.981 31.6694 62.0459 31.5117C62.3335 30.7881 63.1128 30.3428 64.0498 30.3428C65.2559 30.3428 66.1465 31.0664 66.1465 32.0684C66.1465 32.6528 65.8682 33.1353 65.3765 33.4229C65.9888 33.6455 66.4062 34.2207 66.4062 34.9443C66.4062 36.0576 65.4229 36.8647 64.0776 36.8647ZM55.5146 36.8555C55.2363 36.8555 55.0415 36.6514 55.0415 36.373V31.6045H54.9951L54.021 32.1982C53.9282 32.2725 53.8354 32.3003 53.7334 32.3003C53.4922 32.3003 53.2974 32.124 53.2974 31.8735C53.2974 31.7065 53.3809 31.5581 53.5571 31.4468L55.0229 30.519C55.1899 30.4077 55.3198 30.3613 55.4868 30.3613C55.793 30.3613 55.9971 30.5654 55.9971 30.8623V36.373C55.9971 36.6606 55.8022 36.8555 55.5146 36.8555Z" fill="#86868B"/>
</svg>
