<svg width="84" height="56" viewBox="0 0 84 56" fill="none" xmlns="http://www.w3.org/2000/svg">
<path d="M35.2467 19.25H63.92C64.4704 19.25 64.9167 19.6962 64.9167 20.2467V36.4533C64.9167 37.0038 64.4704 37.45 63.92 37.45H35.2467C34.6962 37.45 34.25 37.0038 34.25 36.4533V20.2467C34.25 19.6962 34.6962 19.25 35.2467 19.25Z" fill="white" stroke="#0069AA" stroke-width="0.5"/>
<path fill-rule="evenodd" clip-rule="evenodd" d="M40.0924 30.2146C40.0924 29.8385 39.896 29.8634 39.7078 29.8593V29.7506C39.8708 29.7584 40.0382 29.7584 40.2015 29.7584C40.3769 29.7584 40.6154 29.7506 40.9252 29.7506C42.0082 29.7506 42.5982 30.4736 42.5982 31.2145C42.5982 31.629 42.3554 32.67 40.8747 32.67C40.6615 32.67 40.4648 32.6618 40.2682 32.6618C40.0802 32.6618 39.8957 32.6656 39.7078 32.67V32.5612C39.9587 32.5359 40.0802 32.5278 40.0924 32.2433V30.2146ZM40.5022 32.1763C40.5022 32.4985 40.7326 32.5359 40.9373 32.5359C41.8412 32.5359 42.1376 31.8543 42.1376 31.2313C42.1376 30.449 41.6358 29.8846 40.8286 29.8846C40.6568 29.8846 40.5777 29.8971 40.5022 29.9011V32.1763ZM42.7447 32.5612H42.8238C42.941 32.5612 43.0246 32.5612 43.0246 32.4228V31.2896C43.0246 31.1057 42.9622 31.0805 42.807 30.9969V30.9302C43.0034 30.871 43.238 30.7922 43.2546 30.7797C43.2773 30.7658 43.3034 30.7584 43.33 30.7582C43.3506 30.7582 43.3593 30.7834 43.3593 30.8174V32.4228C43.3593 32.5612 43.4512 32.5612 43.5687 32.5612H43.6395V32.6703C43.497 32.6703 43.3506 32.6618 43.2003 32.6618C43.0498 32.6618 42.8993 32.6656 42.7447 32.67V32.5612ZM43.1919 30.1146C43.0828 30.1146 42.9872 30.0142 42.9872 29.9055C42.9872 29.8007 43.0875 29.7041 43.1919 29.7041C43.3007 29.7041 43.397 29.7923 43.397 29.9055C43.397 29.9602 43.3755 30.0128 43.3372 30.0518C43.2988 30.0909 43.2467 30.1136 43.1919 30.1146ZM44.0369 31.3148C44.0369 31.1602 43.9907 31.1185 43.7944 31.0387V30.9595C43.9739 30.9009 44.1453 30.8464 44.3463 30.7582C44.3588 30.7582 44.3713 30.7666 44.3713 30.8003V31.072C44.61 30.9006 44.8148 30.7582 45.0956 30.7582C45.4506 30.7582 45.5759 31.0178 45.5759 31.3441V32.4228C45.5759 32.5612 45.6684 32.5612 45.7853 32.5612H45.8607V32.6703C45.7139 32.6703 45.5678 32.6618 45.4172 32.6618C45.2667 32.6618 45.1158 32.6656 44.9653 32.67V32.5612H45.0407C45.1579 32.5612 45.2411 32.5612 45.2411 32.4228V31.3401C45.2411 31.1013 45.0956 30.9845 44.8568 30.9845C44.7228 30.9845 44.5096 31.0929 44.3713 31.1855V32.4228C44.3713 32.5612 44.4635 32.5612 44.5807 32.5612H44.6558V32.6703C44.5093 32.6703 44.3629 32.6618 44.2123 32.6618C44.0621 32.6618 43.9112 32.6656 43.761 32.67V32.5612H43.8364C43.9533 32.5612 44.0369 32.5612 44.0369 32.4228V31.3148ZM46.1786 31.5159C46.1702 31.5533 46.1702 31.6159 46.1786 31.7583C46.2032 32.1557 46.4591 32.4814 46.7932 32.4814C47.0236 32.4814 47.2034 32.3561 47.358 32.2015L47.4163 32.2601C47.224 32.5154 46.9855 32.7329 46.643 32.7329C45.9776 32.7329 45.8439 32.0884 45.8439 31.821C45.8439 31.0013 46.3959 30.7582 46.6885 30.7582C47.0276 30.7582 47.3916 30.9717 47.3957 31.4152C47.3957 31.4404 47.3957 31.4654 47.3916 31.4906L47.3539 31.5155L46.1786 31.5159ZM46.9191 31.3818C47.0236 31.3818 47.0357 31.3273 47.0357 31.2768C47.0357 31.0639 46.9064 30.8925 46.672 30.8925C46.417 30.8925 46.2413 31.0805 46.1911 31.3818H46.9191ZM47.492 32.5612H47.6051C47.7217 32.5612 47.8052 32.5612 47.8052 32.4228V31.2478C47.8052 31.1185 47.6506 31.0929 47.588 31.0596V30.9972C47.8934 30.8673 48.0605 30.7582 48.0991 30.7582C48.1234 30.7582 48.1359 30.7707 48.1359 30.813V31.1895H48.1446C48.249 31.0262 48.4251 30.7582 48.6801 30.7582C48.7845 30.7582 48.9182 30.8296 48.9182 30.9801C48.9182 31.0929 48.839 31.1939 48.7218 31.1939C48.5919 31.1939 48.5919 31.0929 48.4454 31.0929C48.3743 31.0929 48.1399 31.1895 48.1399 31.4404V32.4228C48.1399 32.5612 48.2238 32.5612 48.341 32.5612H48.5747V32.6703C48.3447 32.6656 48.1696 32.6618 47.9897 32.6618C47.8183 32.6618 47.6425 32.6656 47.492 32.67V32.5612ZM49.1021 32.0884C49.1566 32.3645 49.3233 32.5992 49.6294 32.5992C49.8756 32.5992 49.9679 32.4484 49.9679 32.3019C49.9679 31.8082 49.0562 31.9675 49.0562 31.2939C49.0562 31.0596 49.2445 30.7585 49.7045 30.7585C49.8385 30.7585 50.018 30.7962 50.181 30.88L50.2103 31.3064H50.1144C50.0726 31.0431 49.9264 30.8925 49.6584 30.8925C49.491 30.8925 49.3324 30.9885 49.3324 31.1683C49.3324 31.658 50.3023 31.5071 50.3023 32.1638C50.3023 32.4396 50.081 32.7329 49.583 32.7329C49.4159 32.7329 49.2189 32.6743 49.0731 32.5905L49.0266 32.1096L49.1021 32.0884ZM54.0791 30.5073H53.975C53.8952 30.0186 53.548 29.8216 53.0799 29.8216C52.5983 29.8216 51.9002 30.1436 51.9002 31.1471C51.9002 31.9924 52.5027 32.5992 53.1469 32.5992C53.5601 32.5992 53.9042 32.3147 53.9874 31.8752L54.0837 31.9001L53.9874 32.511C53.812 32.6201 53.3392 32.7329 53.0627 32.7329C52.0844 32.7329 51.4654 32.1012 51.4654 31.1602C51.4654 30.3025 52.2309 29.6876 53.0506 29.6876C53.3893 29.6876 53.7153 29.7967 54.0376 29.9095L54.0791 30.5073ZM54.2302 32.5612H54.3094C54.4269 32.5612 54.5104 32.5612 54.5104 32.4228V30.0937C54.5104 29.8216 54.4478 29.8132 54.2885 29.7674V29.7004C54.4559 29.6458 54.6313 29.5707 54.7195 29.5202C54.765 29.4953 54.7987 29.4741 54.8112 29.4741C54.8367 29.4741 54.8451 29.4997 54.8451 29.5333V32.4228C54.8451 32.5612 54.9371 32.5612 55.054 32.5612H55.125V32.6703C54.9832 32.6703 54.8367 32.6618 54.6862 32.6618C54.5357 32.6618 54.3851 32.6656 54.2302 32.67V32.5612ZM56.9155 32.4396C56.9155 32.5154 56.9614 32.5194 57.0324 32.5194C57.0829 32.5194 57.1452 32.5154 57.2001 32.5154V32.6033C57.02 32.6198 56.6768 32.7077 56.5973 32.7329L56.5764 32.7204V32.3813C56.3259 32.5861 56.1333 32.7329 55.8359 32.7329C55.61 32.7329 55.3759 32.5864 55.3759 32.2355V31.1643C55.3759 31.0552 55.3594 30.9508 55.1253 30.9302V30.8504C55.2762 30.8464 55.61 30.8215 55.6645 30.8215C55.7113 30.8215 55.7113 30.8504 55.7113 30.9427V32.0217C55.7113 32.1473 55.7113 32.5066 56.0747 32.5066C56.2168 32.5066 56.405 32.3982 56.5805 32.252V31.1266C56.5805 31.0431 56.3798 30.9969 56.2296 30.9552V30.8804C56.6057 30.8545 56.8401 30.8211 56.8819 30.8211C56.9155 30.8211 56.9155 30.8504 56.9155 30.8966V32.4396ZM57.7477 31.0596C57.9151 30.9178 58.141 30.7582 58.371 30.7582C58.8563 30.7582 59.1489 31.1811 59.1489 31.6371C59.1489 32.1847 58.7472 32.7329 58.1488 32.7329C57.8396 32.7329 57.6766 32.6322 57.5675 32.5864L57.4426 32.6824L57.355 32.6366C57.3924 32.3898 57.4133 32.1473 57.4133 31.892V30.0937C57.4133 29.8216 57.3503 29.8132 57.1914 29.7674V29.7004C57.359 29.6458 57.5342 29.5707 57.6221 29.5202C57.6682 29.4953 57.7016 29.4741 57.7143 29.4741C57.7393 29.4741 57.7477 29.4997 57.7477 29.5333V31.0596ZM57.7477 32.1972C57.7477 32.3561 57.8985 32.6241 58.1787 32.6241C58.626 32.6241 58.8142 32.1847 58.8142 31.8122C58.8142 31.3606 58.4714 30.9845 58.1454 30.9845C57.9902 30.9845 57.8605 31.0848 57.7477 31.1811V32.1972ZM39.7034 35.1019H39.7352C39.8169 35.1019 39.9035 35.0907 39.9035 34.9722V33.7801C39.9035 33.6617 39.8169 33.6501 39.7352 33.6501H39.7031V33.5816C39.792 33.5816 39.9285 33.5909 40.0403 33.5909C40.1541 33.5909 40.2903 33.5816 40.3975 33.5816V33.6501H40.3654C40.2838 33.6501 40.1971 33.6614 40.1971 33.7801V34.9722C40.1971 35.0907 40.2838 35.1019 40.3654 35.1019H40.3975V35.1705C40.2884 35.1705 40.1513 35.1617 40.0379 35.1617C39.9263 35.1617 39.792 35.1705 39.7031 35.1705L39.7034 35.1019Z" fill="#1A1919"/>
<path fill-rule="evenodd" clip-rule="evenodd" d="M40.3974 35.18C40.2871 35.18 40.1512 35.1706 40.0378 35.1706C39.9262 35.1706 39.7925 35.18 39.703 35.18H39.6934V35.0921H39.7348C39.8174 35.0899 39.8925 35.0834 39.8934 34.9721V33.78C39.8925 33.6684 39.8174 33.6615 39.7348 33.66H39.6934V33.5718H39.703C39.7925 33.5718 39.929 33.5805 40.0402 33.5805C40.1534 33.5805 40.2896 33.5718 40.3974 33.5718H40.4074V33.66H40.3656C40.283 33.6612 40.2073 33.6684 40.2067 33.78V34.9721C40.2073 35.0834 40.283 35.0899 40.3656 35.0921H40.4074V35.18H40.3974ZM40.3874 35.1607V35.112H40.3656C40.2843 35.112 40.1874 35.0977 40.187 34.9721V33.78C40.1874 33.6541 40.2843 33.6397 40.3656 33.6397H40.3874V33.5914C40.2824 33.5914 40.1506 33.6008 40.0402 33.6008C39.9321 33.6008 39.8012 33.592 39.713 33.5914V33.64H39.7348C39.8158 33.64 39.9131 33.6541 39.9131 33.78V34.9721C39.9131 35.0977 39.8162 35.1123 39.7348 35.1123H39.713V35.1607C39.8012 35.1597 39.9299 35.1513 40.0378 35.1513C40.1487 35.1513 40.2802 35.16 40.3874 35.1607ZM41.9607 34.7218L41.9654 34.7172V33.8641C41.9654 33.6771 41.8354 33.65 41.7672 33.65H41.7173V33.5814C41.8242 33.5814 41.9289 33.5908 42.0358 33.5908C42.129 33.5908 42.2228 33.5814 42.3157 33.5814V33.65H42.2818C42.1861 33.65 42.0792 33.6681 42.0792 33.9389V34.9746C42.0792 35.0544 42.0813 35.1335 42.0926 35.2046H42.0059L40.8341 33.8978V34.8359C40.8341 35.0338 40.8727 35.1017 41.0479 35.1017H41.0865V35.1703C40.9886 35.1703 40.8908 35.1613 40.7929 35.1613C40.691 35.1613 40.586 35.1703 40.4834 35.1703V35.1017H40.5155C40.6723 35.1017 40.7203 34.9948 40.7203 34.8135V33.8545C40.7203 33.8274 40.715 33.8006 40.7046 33.7756C40.6942 33.7506 40.6789 33.7279 40.6596 33.7089C40.6404 33.6899 40.6175 33.6749 40.5924 33.6648C40.5673 33.6546 40.5404 33.6496 40.5134 33.65H40.4834V33.5814C40.5698 33.5814 40.6589 33.5908 40.7452 33.5908C40.8138 33.5908 40.8796 33.5814 40.9478 33.5814L41.9607 34.7218Z" fill="#1A1919"/>
<path fill-rule="evenodd" clip-rule="evenodd" d="M42.0927 35.2137L41.9989 35.2106L40.8439 33.9234V34.8356C40.8467 35.0332 40.8766 35.0896 41.048 35.0918H41.097V35.1797H41.0867C40.9882 35.1797 40.8903 35.1704 40.7931 35.1704C40.6912 35.1704 40.5868 35.1797 40.4836 35.1797H40.4736V35.0918H40.5157C40.6659 35.0909 40.7089 34.9943 40.7108 34.8129V33.8545C40.7108 33.8287 40.7057 33.8032 40.6957 33.7794C40.6858 33.7556 40.6712 33.734 40.6529 33.7159C40.6345 33.6978 40.6128 33.6835 40.5888 33.6738C40.5649 33.6642 40.5393 33.6594 40.5135 33.6597H40.4736V33.5715H40.4836C40.5709 33.5715 40.6597 33.5802 40.7451 33.5802C40.813 33.5802 40.8788 33.5715 40.9555 33.5749L41.9559 34.7007V33.8639C41.9544 33.6831 41.8337 33.6613 41.7674 33.6597H41.7072V33.5715H41.7175C41.8247 33.5715 41.9294 33.5802 42.036 33.5802C42.1286 33.5802 42.2218 33.5715 42.3159 33.5715H42.3259V33.6597H42.2822C42.1881 33.6619 42.0918 33.6703 42.089 33.9387V34.9743C42.089 35.0538 42.0915 35.1333 42.1024 35.2025L42.1043 35.2137H42.0927ZM42.0061 35.1941H42.0815C42.0722 35.1212 42.0681 35.0478 42.0694 34.9743V33.9387C42.0694 33.6656 42.1841 33.6395 42.2819 33.6395H42.3059V33.5912C42.2162 33.5918 42.1264 33.6002 42.036 33.6002C41.9316 33.6002 41.8303 33.5918 41.7275 33.5912V33.6395H41.7674C41.8375 33.6395 41.9752 33.6706 41.9752 33.8639L41.9721 34.7241L41.9678 34.7284L41.96 34.7359L40.948 33.5912C40.8804 33.5912 40.8146 33.6002 40.7451 33.6002C40.6616 33.6002 40.5762 33.5918 40.4936 33.5912L40.4933 33.6395H40.5135C40.6201 33.6395 40.7301 33.7211 40.7301 33.8545V34.8129C40.7301 34.9952 40.6793 35.1115 40.5157 35.1121L40.4939 35.1115V35.1604C40.5924 35.1595 40.6937 35.151 40.7931 35.151C40.8881 35.151 40.9832 35.1595 41.0767 35.1604V35.1121H41.048C40.8688 35.1115 40.8246 35.0332 40.8246 34.8356V33.872L42.0061 35.1941ZM41.9556 34.7169V34.716L41.9537 34.7147L41.9556 34.7169ZM42.6569 33.6952C42.4861 33.6952 42.4792 33.7364 42.4452 33.9022H42.377C42.386 33.8386 42.3972 33.7747 42.4044 33.709C42.4134 33.6448 42.4181 33.5812 42.4181 33.5157H42.4727C42.4907 33.584 42.5475 33.5812 42.6095 33.5812H43.7832C43.8452 33.5812 43.9017 33.579 43.9066 33.5107L43.9609 33.5201C43.9521 33.5815 43.9428 33.6429 43.9359 33.7046C43.9316 33.766 43.9316 33.8271 43.9316 33.8885L43.863 33.9137C43.8586 33.8296 43.8474 33.6952 43.6947 33.6952H43.322V34.9061C43.322 35.0815 43.4017 35.1015 43.5108 35.1015H43.5541V35.1701C43.4653 35.1701 43.3061 35.1613 43.1833 35.1613C43.0464 35.1613 42.8872 35.1701 42.7984 35.1701V35.1015H42.842C42.9673 35.1015 43.0305 35.0903 43.0305 34.9107V33.6952H42.6572" fill="#1A1919"/>
<path fill-rule="evenodd" clip-rule="evenodd" d="M43.5546 35.1805C43.4648 35.1805 43.3056 35.1715 43.1837 35.1715C43.0469 35.1715 42.8876 35.1808 42.7985 35.1808H42.7888V35.0926H42.8418C42.9674 35.0895 43.0176 35.0879 43.0204 34.9115V33.7054H42.6573V33.6858H43.0403V34.9115C43.0403 35.0942 42.9665 35.1126 42.8418 35.1129H42.8082V35.1609C42.8979 35.1602 43.0513 35.1518 43.1834 35.1518C43.3018 35.1518 43.4539 35.1602 43.544 35.1609V35.1129H43.511C43.4006 35.1129 43.3121 35.0854 43.3121 34.9069V33.6858H43.6955C43.8482 33.6864 43.8681 33.816 43.8731 33.9008L43.9224 33.8827C43.9224 33.8232 43.9224 33.7637 43.9264 33.7038C43.9333 33.6449 43.9417 33.5873 43.9501 33.529L43.9155 33.5231C43.9049 33.5894 43.8407 33.5929 43.7837 33.5919H42.5981C42.5445 33.5919 42.4859 33.5894 42.4656 33.5262H42.4282C42.428 33.5879 42.4235 33.6496 42.4148 33.7107C42.408 33.773 42.3977 33.8332 42.3893 33.8936H42.4379C42.4678 33.7347 42.4871 33.6836 42.6573 33.6858V33.7054C42.489 33.7085 42.4924 33.7372 42.4553 33.9052L42.4538 33.9133H42.3662L42.3671 33.9014C42.3765 33.8378 42.388 33.7736 42.3949 33.7079C42.4042 33.6444 42.4088 33.5803 42.4086 33.5162V33.5062H42.4809L42.4825 33.5134C42.498 33.5707 42.5401 33.5711 42.5978 33.5723H43.7837C43.8473 33.5711 43.8934 33.5704 43.8971 33.5109L43.8981 33.5L43.9083 33.5022L43.9725 33.5122L43.971 33.5224C43.9619 33.5835 43.9532 33.6446 43.946 33.7057C43.942 33.7668 43.942 33.8279 43.942 33.8896V33.8961L43.9355 33.8989L43.8547 33.9282L43.8541 33.9151C43.8479 33.8294 43.8391 33.7057 43.6952 33.7057H43.3321V34.9069C43.3342 35.0783 43.4022 35.0904 43.511 35.0926H43.5639V35.1805H43.5546ZM44.0339 35.1023H44.066C44.1477 35.1023 44.2343 35.0911 44.2343 34.9726V33.7805C44.2343 33.6621 44.1477 33.6505 44.066 33.6505H44.0339V33.582C44.1723 33.582 44.4098 33.5913 44.6006 33.5913C44.7919 33.5913 45.0285 33.582 45.1834 33.582C45.179 33.6801 45.1812 33.8307 45.188 33.9304L45.1195 33.9485C45.1086 33.8008 45.0811 33.6826 44.8421 33.6826H44.5261V34.2785H44.7966C44.9331 34.2785 44.9627 34.2013 44.9761 34.0785H45.0447C45.0358 34.2535 45.0358 34.4289 45.0447 34.6039L44.9761 34.6176C44.9627 34.4811 44.9558 34.3926 44.7985 34.3926H44.5261V34.9224C44.5261 35.0708 44.6576 35.0708 44.8034 35.0708C45.0765 35.0708 45.1971 35.0521 45.2653 34.7934L45.3289 34.809C45.2993 34.9296 45.2722 35.0499 45.2516 35.1705C45.1058 35.1705 44.8443 35.1621 44.6398 35.1621C44.4344 35.1621 44.1639 35.1708 44.0339 35.1708V35.1023Z" fill="#1A1919"/>
<path fill-rule="evenodd" clip-rule="evenodd" d="M45.2508 35.18C45.1046 35.18 44.8428 35.1706 44.6387 35.1706C44.4336 35.1706 44.1631 35.18 44.0331 35.18H44.0237V35.0921H44.0652C44.1475 35.0905 44.2226 35.0834 44.2235 34.9721V33.78C44.2226 33.6687 44.1475 33.6615 44.0652 33.66H44.0234V33.5718H44.0331C44.1721 33.5718 44.409 33.5805 44.5997 33.5805C44.7911 33.5805 45.0273 33.5718 45.1825 33.5718H45.1922V33.5821C45.1881 33.6977 45.1895 33.8135 45.1966 33.9289L45.1969 33.9374L45.1894 33.9395L45.1093 33.9604L45.109 33.9489C45.0956 33.8012 45.0756 33.6936 44.8413 33.6915H44.5346V34.268H44.7954C44.9266 34.2665 44.95 34.1995 44.9656 34.0767L44.9662 34.0676H45.0535V34.0779C45.0445 34.2528 45.0445 34.4279 45.0535 34.6028V34.6112L45.0454 34.6134L44.9662 34.629L44.9656 34.6184C44.95 34.4794 44.9488 34.4033 44.7979 34.4014H44.5346V34.9219C44.5346 35.0603 44.6539 35.0597 44.8026 35.0603C45.0766 35.0587 45.186 35.0453 45.2545 34.7901L45.257 34.7807L45.2667 34.7823L45.3396 34.8013L45.3374 34.8107C45.3081 34.9313 45.281 35.0516 45.2604 35.1722L45.2586 35.18H45.2508ZM45.2424 35.1603C45.2623 35.045 45.2882 34.9303 45.3159 34.8156L45.2714 34.8044C45.2031 35.0591 45.0709 35.0818 44.8023 35.0799C44.6589 35.0799 44.5156 35.0799 44.5149 34.9219V34.3821H44.7979C44.9569 34.3806 44.9728 34.4762 44.9843 34.6059L45.0332 34.5956C45.0243 34.4264 45.0243 34.2568 45.0332 34.0876H44.9843C44.9712 34.2063 44.9344 34.2892 44.7954 34.288H44.5149V33.6718H44.8413C45.0781 33.67 45.1171 33.7924 45.1274 33.9355L45.1766 33.9221C45.1726 33.8582 45.1697 33.7756 45.1697 33.6996C45.1697 33.6606 45.171 33.6235 45.1722 33.5914C45.0177 33.592 44.7867 33.6005 44.5997 33.6005C44.4127 33.6005 44.1824 33.592 44.0431 33.5914V33.6397H44.0649C44.1459 33.6397 44.2429 33.6541 44.2435 33.78V34.9721C44.2429 35.0977 44.1462 35.1117 44.0652 35.1123H44.0434V35.1603C44.1755 35.16 44.4386 35.1513 44.6387 35.1513C44.8397 35.1513 45.0956 35.16 45.2424 35.1603ZM45.6354 33.8227C45.6354 33.6569 45.5444 33.65 45.4733 33.65H45.4328V33.5814C45.5054 33.5814 45.6466 33.5908 45.7856 33.5908C45.9218 33.5908 46.0312 33.5814 46.1518 33.5814C46.4382 33.5814 46.6935 33.6587 46.6935 33.9822C46.6935 34.187 46.557 34.312 46.3771 34.383L46.7661 34.9652C46.83 35.0615 46.8752 35.0887 46.9871 35.1017V35.1703C46.9117 35.1703 46.839 35.1616 46.7642 35.1616C46.6935 35.1616 46.6206 35.1703 46.5501 35.1703C46.3747 34.9406 46.2244 34.6947 46.0764 34.4326H45.9268V34.92C45.9268 35.0952 46.0084 35.1017 46.1129 35.1017H46.154V35.1703C46.024 35.1703 45.8925 35.1616 45.7625 35.1616C45.6535 35.1616 45.5462 35.1703 45.4325 35.1703V35.1017H45.4736C45.5581 35.1017 45.6354 35.0634 45.6354 34.9793V33.8227ZM45.9268 34.3506H46.0377C46.2659 34.3506 46.3884 34.2643 46.3884 33.9956C46.3884 33.7931 46.2587 33.6634 46.0558 33.6634C45.9876 33.6634 45.9586 33.6706 45.9268 33.6728V34.3506Z" fill="#1A1919"/>
<path fill-rule="evenodd" clip-rule="evenodd" d="M46.9871 35.18C46.9111 35.18 46.8388 35.1706 46.764 35.1706C46.6945 35.1706 46.6218 35.18 46.5427 35.1762C46.3678 34.9472 46.2182 34.7025 46.0711 34.4429H45.9368V34.9197C45.9393 35.0912 46.0078 35.0896 46.1132 35.0921H46.1643V35.18H46.154C46.0241 35.18 45.8919 35.1706 45.7629 35.1706C45.6538 35.1706 45.5472 35.18 45.4328 35.18H45.4229V35.0921H45.474C45.5559 35.0915 45.6248 35.0556 45.6254 34.9793V33.8227C45.6236 33.6612 45.5444 33.6622 45.474 33.66H45.4229V33.5718H45.4328C45.5064 33.5718 45.6469 33.5805 45.7859 33.5805C45.9215 33.5805 46.0309 33.5718 46.1522 33.5718C46.4389 33.5724 46.7032 33.6513 46.7038 33.9819C46.7038 34.1873 46.5679 34.3154 46.3924 34.3871L46.7745 34.9599C46.8384 35.0544 46.878 35.0778 46.9887 35.0921L46.9971 35.0933V35.18H46.9874H46.9871ZM45.9268 34.4226H46.0827L46.0851 34.4279C46.2335 34.6894 46.3831 34.9353 46.5505 35.1603C46.6197 35.1603 46.6929 35.1513 46.764 35.1513C46.8366 35.1513 46.9067 35.1594 46.9774 35.1603V35.1105C46.8709 35.0974 46.8207 35.0653 46.7587 34.9708L46.3622 34.3787L46.3734 34.3737C46.5517 34.3036 46.6839 34.182 46.6839 33.9819C46.6839 33.6662 46.4383 33.593 46.1522 33.5914C46.0322 33.5914 45.9228 33.6008 45.7859 33.6008C45.6519 33.6008 45.517 33.592 45.4425 33.5914V33.6397H45.4737C45.5447 33.6397 45.6451 33.6519 45.6451 33.8227V34.9793C45.6451 35.0706 45.5597 35.112 45.4737 35.1123H45.4425V35.1603C45.5519 35.16 45.656 35.1513 45.7629 35.1513C45.8897 35.1513 46.0184 35.16 46.1444 35.1603V35.1123H46.1132C46.0094 35.1123 45.9168 35.0993 45.9168 34.9194V34.4229L45.9268 34.4226ZM45.9268 34.3603H45.9168V33.6637L45.9256 33.6631C45.9567 33.6606 45.9873 33.6544 46.0565 33.6544C46.2634 33.6544 46.3984 33.789 46.3987 33.9966C46.3981 34.2684 46.2678 34.3606 46.0381 34.3606L45.9268 34.3603ZM46.0381 34.341C46.2634 34.3388 46.3772 34.2606 46.3794 33.9963C46.3778 33.7974 46.2547 33.674 46.0562 33.6731C45.9948 33.6731 45.9658 33.679 45.9368 33.6818V34.341H46.0381ZM48.5327 34.7218L48.5364 34.7172V33.8641C48.5364 33.6771 48.4071 33.65 48.3388 33.65H48.2889V33.5814C48.3962 33.5814 48.5002 33.5908 48.6075 33.5908C48.701 33.5908 48.7938 33.5814 48.888 33.5814V33.65H48.8537C48.7577 33.65 48.6511 33.6681 48.6511 33.9389V34.9746C48.6511 35.0544 48.6533 35.1335 48.6645 35.2046H48.5782L47.4063 33.8978V34.8359C47.4063 35.0338 47.4446 35.1017 47.6198 35.1017H47.6587V35.1703C47.5609 35.1703 47.4627 35.1613 47.3652 35.1613C47.2623 35.1613 47.1579 35.1703 47.0554 35.1703V35.1017H47.0872C47.2442 35.1017 47.2922 34.9948 47.2922 34.8135V33.8545C47.2923 33.8274 47.2869 33.8005 47.2765 33.7755C47.2661 33.7505 47.2507 33.7278 47.2315 33.7088C47.2122 33.6898 47.1893 33.6748 47.1641 33.6647C47.139 33.6546 47.1121 33.6496 47.085 33.65H47.0554V33.5814C47.1417 33.5814 47.2311 33.5908 47.3172 33.5908C47.3851 33.5908 47.4512 33.5814 47.5197 33.5814L48.5327 34.7218Z" fill="#1A1919"/>
<path fill-rule="evenodd" clip-rule="evenodd" d="M48.664 35.2146L48.5705 35.2115L47.4155 33.9243V34.8363C47.4183 35.0345 47.4482 35.0906 47.6196 35.0928H47.6679V35.1807H47.658C47.5598 35.1807 47.4619 35.1713 47.3644 35.1713C47.2628 35.1713 47.1577 35.1807 47.0552 35.1807H47.0449V35.0928H47.087C47.2372 35.0921 47.2802 34.9952 47.2818 34.8135V33.8551C47.2818 33.7336 47.1821 33.6607 47.0848 33.6607H47.0449V33.5725H47.0552C47.1422 33.5725 47.2313 33.5812 47.317 33.5812C47.384 33.5812 47.4498 33.5725 47.5261 33.5753L48.5266 34.7016V33.8648C48.526 33.684 48.405 33.6616 48.3387 33.6607H48.2788V33.5725H48.2885C48.396 33.5725 48.501 33.5812 48.6073 33.5812C48.7002 33.5812 48.7934 33.5725 48.8872 33.5725H48.8972V33.6607H48.8535C48.7594 33.6628 48.6628 33.6713 48.6603 33.9396V34.9753C48.6603 35.0547 48.6625 35.1336 48.674 35.2034L48.6753 35.2146H48.664ZM48.578 35.195H48.6528C48.6435 35.1221 48.6393 35.0487 48.6403 34.9753V33.9396C48.6407 33.6666 48.7557 33.641 48.8532 33.6404H48.8772V33.5921C48.7878 33.5927 48.6977 33.6011 48.6073 33.6011C48.5029 33.6011 48.4016 33.5927 48.2988 33.5921V33.6404H48.3387C48.4088 33.641 48.5468 33.6716 48.5468 33.8648L48.5434 34.725L48.5394 34.7294L48.5322 34.7368L47.5193 33.5921C47.452 33.5921 47.3859 33.6011 47.317 33.6011C47.2329 33.6011 47.1478 33.5927 47.0649 33.5921V33.6404H47.0848C47.192 33.641 47.3014 33.7217 47.3014 33.8551V34.8135C47.3014 34.9961 47.25 35.1124 47.087 35.1127H47.0652V35.161C47.1634 35.1604 47.2646 35.152 47.3644 35.152C47.4601 35.152 47.5545 35.1604 47.6486 35.1613V35.113H47.6196C47.4407 35.113 47.3959 35.0345 47.3952 34.8363V33.8732L48.578 35.195ZM48.5266 34.7178V34.7172L48.525 34.7156L48.5266 34.7178ZM49.2534 34.8456C49.2306 34.9226 49.2029 34.9824 49.2029 35.0229C49.2029 35.0915 49.2989 35.1027 49.3737 35.1027H49.3993V35.171C49.3074 35.1656 49.2154 35.1627 49.1234 35.1623C49.0415 35.1623 48.9598 35.166 48.8778 35.171V35.1024H48.8915C48.9801 35.1024 49.0555 35.0501 49.0895 34.9544L49.4535 33.9103C49.4831 33.8258 49.5242 33.7121 49.5379 33.6276C49.6106 33.6027 49.7019 33.5575 49.7449 33.5298C49.7521 33.5276 49.7561 33.5254 49.763 33.5254C49.7701 33.5254 49.7742 33.5254 49.7792 33.5326C49.786 33.5503 49.7926 33.5709 49.7997 33.589L50.2186 34.7795C50.2457 34.859 50.2729 34.9432 50.3022 35.0117C50.3299 35.0756 50.3776 35.1027 50.453 35.1027H50.4667V35.171C50.3621 35.1655 50.2573 35.1626 50.1526 35.1623C50.041 35.1623 49.9269 35.166 49.811 35.171V35.1024H49.8359C49.8879 35.1024 49.9774 35.0937 49.9774 35.0367C49.9774 35.0074 49.9568 34.9457 49.9313 34.8727L49.8428 34.6087H49.326L49.2534 34.8456ZM49.5856 33.8374H49.581L49.3696 34.4813H49.7948L49.5856 33.8374Z" fill="#1A1919"/>
<path fill-rule="evenodd" clip-rule="evenodd" d="M50.4661 35.1797C50.3639 35.1754 50.2613 35.1704 50.1529 35.1704C50.0413 35.1704 49.9278 35.1754 49.8116 35.1797L49.8013 35.1803V35.0912H49.8362C49.8892 35.0912 49.9671 35.0797 49.9674 35.0357C49.968 35.0099 49.9475 34.9475 49.9225 34.8749L49.8359 34.6175H49.3338L49.263 34.8475C49.24 34.9248 49.2126 34.9849 49.2129 35.022C49.2135 35.0778 49.2986 35.0912 49.374 35.0912H49.4092V35.1803L49.3986 35.1797C49.3076 35.1754 49.2147 35.1704 49.1237 35.1704C49.0427 35.1704 48.9604 35.1754 48.8788 35.1797L48.8682 35.1803V35.0912H48.8918C48.9763 35.0912 49.0471 35.0429 49.0801 34.9503L49.4447 33.9059C49.4737 33.8218 49.5152 33.7083 49.5351 33.6173C49.6069 33.5916 49.676 33.5589 49.7415 33.5198C49.7477 33.5176 49.7539 33.5145 49.7633 33.5145C49.7683 33.5142 49.7732 33.5153 49.7777 33.5176C49.7821 33.5199 49.7859 33.5233 49.7885 33.5276C49.7947 33.5463 49.8022 33.5668 49.8091 33.5849L50.2283 34.7755C50.2551 34.855 50.2822 34.9391 50.3121 35.0064C50.3383 35.0672 50.3801 35.0912 50.4533 35.0912H50.4764V35.1803L50.4661 35.1797ZM49.8209 35.1595C49.9338 35.1554 50.0444 35.151 50.1529 35.151C50.2585 35.151 50.3576 35.1554 50.4567 35.1595V35.1118H50.4533C50.3754 35.1124 50.3215 35.0819 50.2937 35.0145C50.2641 34.946 50.2364 34.8612 50.2096 34.7817L49.7904 33.5912C49.7835 33.5731 49.777 33.5528 49.7711 33.5366C49.7689 33.5344 49.7695 33.5344 49.7676 33.5344H49.7633C49.7586 33.5344 49.7561 33.5357 49.7502 33.5372C49.7065 33.5656 49.6152 33.6105 49.5476 33.6282C49.5336 33.7146 49.4924 33.828 49.4631 33.9125L49.0988 34.9569C49.0645 35.0557 48.9841 35.1121 48.8918 35.1118H48.8881V35.1595C48.966 35.1554 49.0449 35.151 49.1237 35.151C49.2119 35.151 49.3014 35.1554 49.3886 35.1595V35.1118H49.374C49.2998 35.1108 49.1963 35.1027 49.1935 35.022C49.1935 34.9768 49.2216 34.9189 49.244 34.8419L49.3188 34.5985H49.8496L49.9409 34.8687C49.9665 34.9419 49.987 35.0027 49.987 35.0357C49.9839 35.1055 49.8879 35.1105 49.8362 35.1118H49.8212L49.8209 35.1595ZM49.3559 34.4903L49.5738 33.8265H49.5862V33.8364L49.5859 33.8261H49.5928L49.8091 34.49L49.3559 34.4903ZM49.383 34.4704H49.7817L49.5834 33.8604L49.383 34.4704ZM50.5671 33.6952C50.3963 33.6952 50.3894 33.7364 50.3551 33.9022H50.2866C50.2959 33.8386 50.3071 33.7747 50.3146 33.709C50.3233 33.6448 50.3277 33.5812 50.3277 33.5157H50.3826C50.4003 33.584 50.4574 33.5812 50.5191 33.5812H51.6934C51.7545 33.5812 51.8115 33.579 51.8159 33.5107L51.8704 33.5201C51.862 33.5815 51.853 33.6429 51.8455 33.7046C51.8408 33.766 51.8408 33.8271 51.8408 33.8885L51.7729 33.9137C51.7688 33.8296 51.7573 33.6952 51.6046 33.6952H51.2312V34.9061C51.2312 35.0815 51.311 35.1015 51.4201 35.1015H51.4637V35.1701C51.3746 35.1701 51.2156 35.1613 51.0925 35.1613C50.9563 35.1613 50.7964 35.1701 50.7076 35.1701V35.1015H50.7513C50.8765 35.1015 50.9401 35.0903 50.9401 34.9107V33.6952H50.5671Z" fill="#1A1919"/>
<path fill-rule="evenodd" clip-rule="evenodd" d="M51.4638 35.1805C51.3743 35.1805 51.2144 35.1715 51.0923 35.1715C50.9564 35.1715 50.7971 35.1808 50.708 35.1808H50.6977V35.0926H50.751C50.8766 35.0895 50.9271 35.0879 50.9299 34.9115V33.7054H50.5671V33.6858H50.9498V34.9115C50.9498 35.0942 50.8763 35.1123 50.751 35.1126H50.7176V35.1612C50.8077 35.1602 50.9607 35.1518 51.0923 35.1518C51.2113 35.1518 51.3634 35.1602 51.4535 35.1612V35.1126H51.4201C51.3104 35.1123 51.2216 35.0858 51.2216 34.9069V33.6858H51.6046C51.7574 33.6864 51.7773 33.816 51.7817 33.9008L51.8312 33.8827C51.8312 33.8232 51.8312 33.7637 51.8362 33.7041C51.8425 33.6455 51.8509 33.5873 51.8593 33.5293L51.825 33.5231C51.8144 33.5894 51.7502 33.5932 51.6935 33.5919H50.5073C50.4537 33.5926 50.3957 33.5894 50.3748 33.5259H50.3377C50.3373 33.5877 50.3327 33.6495 50.3237 33.7107C50.3175 33.7733 50.3066 33.8338 50.2978 33.8936H50.3468C50.3767 33.7347 50.3966 33.6833 50.5671 33.6858V33.7054C50.3982 33.7085 50.4019 33.7372 50.3645 33.9052L50.3633 33.9133H50.2754L50.2766 33.9017C50.286 33.8378 50.2975 33.774 50.3041 33.7085C50.3134 33.6446 50.3175 33.5817 50.3175 33.5162V33.5062H50.3898L50.3916 33.5134C50.4075 33.5707 50.449 33.5711 50.5073 33.5723H51.6935C51.7564 33.5711 51.8026 33.5704 51.8063 33.5109L51.8069 33.5L51.8175 33.5022L51.882 33.5122L51.8805 33.5224C51.8711 33.5835 51.8624 33.6446 51.8555 33.7057C51.8509 33.7668 51.8509 33.8279 51.8509 33.8896V33.8961L51.8443 33.8989L51.7636 33.9282V33.9151C51.7574 33.8294 51.7483 33.7057 51.6046 33.7057H51.2412V34.9069C51.2434 35.0783 51.3117 35.0904 51.4201 35.0926H51.4731V35.1805H51.4638ZM51.9547 35.1023H51.9864C52.0687 35.1023 52.1547 35.0911 52.1547 34.9726V33.7805C52.1547 33.6621 52.0687 33.6505 51.9864 33.6505H51.9547V33.582C52.0435 33.582 52.1797 33.5913 52.2913 33.5913C52.4053 33.5913 52.5418 33.582 52.649 33.582V33.6505H52.6173C52.535 33.6505 52.4483 33.6618 52.4483 33.7805V34.9726C52.4483 35.0911 52.535 35.1023 52.6173 35.1023H52.649V35.1708C52.54 35.1708 52.4028 35.1621 52.2894 35.1621C52.1778 35.1621 52.0435 35.1708 51.9547 35.1708V35.1023Z" fill="#1A1919"/>
<path fill-rule="evenodd" clip-rule="evenodd" d="M52.6494 35.1799C52.5393 35.1799 52.4032 35.1705 52.2897 35.1705C52.1784 35.1705 52.0438 35.1799 51.955 35.1799H51.9453V35.092H51.9871C52.069 35.0904 52.1448 35.0833 52.1451 34.972V33.7799C52.1448 33.6686 52.069 33.6614 51.9871 33.6599H51.9453V33.5717H51.955C52.0438 33.5717 52.1809 33.5804 52.2916 33.5804C52.405 33.5804 52.5415 33.5717 52.6494 33.5717H52.6587V33.6599H52.6176C52.5344 33.6611 52.4593 33.6686 52.4586 33.7799V34.972C52.4593 35.0833 52.5344 35.0904 52.6176 35.092H52.6587V35.1799H52.6494ZM52.6391 35.1602V35.1119H52.6173C52.5359 35.1119 52.4393 35.0976 52.4393 34.972V33.7799C52.4393 33.654 52.5359 33.6396 52.6176 33.6396H52.6391V33.5913C52.5341 33.5919 52.4022 33.6003 52.2916 33.6003C52.1834 33.6003 52.0531 33.5919 51.9649 33.5913V33.6396H51.9868C52.0678 33.6396 52.1647 33.654 52.165 33.7799V34.972C52.165 35.0976 52.0678 35.1122 51.9871 35.1122H51.9649V35.1602C52.0525 35.1593 52.1812 35.1512 52.2897 35.1512C52.4 35.1512 52.5316 35.1596 52.6388 35.1602H52.6391ZM53.5569 33.5474C54.0422 33.5474 54.4287 33.8481 54.4287 34.3328C54.4287 34.8564 54.0531 35.2045 53.5685 35.2045C53.086 35.2045 52.7176 34.8766 52.7176 34.3873C52.7176 33.9139 53.0835 33.5474 53.5569 33.5474ZM53.5912 35.1041C54.0329 35.1041 54.1098 34.7146 54.1098 34.3829C54.1098 34.0501 53.9306 33.6474 53.5526 33.6474C53.1543 33.6474 53.0358 34.0027 53.0358 34.3075C53.0358 34.7146 53.2228 35.1041 53.5912 35.1041Z" fill="#1A1919"/>
<path fill-rule="evenodd" clip-rule="evenodd" d="M52.707 34.388C52.708 33.9093 53.0782 33.539 53.5563 33.5381V33.558C53.0888 33.558 52.7267 33.9196 52.726 34.388C52.727 34.8717 53.0904 35.1946 53.5685 35.1949C54.0481 35.1949 54.4181 34.8518 54.4187 34.3331C54.4184 33.8544 54.0378 33.5587 53.5563 33.558V33.5381C54.045 33.5387 54.4374 33.8423 54.4383 34.3331C54.4377 34.862 54.0575 35.2136 53.5685 35.2145C53.0817 35.2136 52.708 34.8826 52.707 34.388ZM53.0256 34.3082C53.0262 34.0018 53.1459 33.6381 53.5523 33.6381C53.9387 33.6391 54.1189 34.0492 54.1195 34.3836C54.1189 34.7153 54.0407 35.1142 53.5909 35.1142V35.0949C54.0238 35.0945 54.0989 34.7153 54.0996 34.3836C54.0996 34.0539 53.9219 33.6587 53.5523 33.6581C53.1618 33.6587 53.0464 34.005 53.0455 34.3082C53.0455 34.7134 53.2306 35.0942 53.5909 35.0949V35.1142C53.2132 35.1139 53.0262 34.7177 53.0256 34.3082ZM55.9621 34.7224L55.9668 34.7177V33.8647C55.9668 33.6777 55.8368 33.6506 55.7685 33.6506H55.7187V33.582C55.8256 33.582 55.9306 33.5914 56.0372 33.5914C56.1307 33.5914 56.2242 33.582 56.3174 33.582V33.6506H56.2831C56.1877 33.6506 56.0805 33.6687 56.0805 33.9395V34.9752C56.0805 35.055 56.0827 35.1341 56.0942 35.2052H56.0076L54.8357 33.8984V34.8365C54.8357 35.0344 54.8744 35.1023 55.0492 35.1023H55.0882V35.1709C54.9903 35.1709 54.8924 35.1619 54.7946 35.1619C54.692 35.1619 54.5873 35.1709 54.4851 35.1709V35.1023H54.5169C54.6743 35.1023 54.7216 34.9954 54.7216 34.814V33.8551C54.7217 33.8279 54.7164 33.8011 54.706 33.7761C54.6956 33.751 54.6803 33.7283 54.661 33.7093C54.6417 33.6903 54.6188 33.6753 54.5936 33.6652C54.5684 33.6551 54.5415 33.6501 54.5144 33.6506H54.4851V33.582C54.5714 33.582 54.6602 33.5914 54.7469 33.5914C54.8148 33.5914 54.8806 33.582 54.9492 33.582L55.9621 34.7224Z" fill="#1A1919"/>
<path fill-rule="evenodd" clip-rule="evenodd" d="M56.0944 35.2146L56.0003 35.2115L54.8455 33.9243V34.8366C54.848 35.0345 54.8783 35.0903 55.0491 35.0921H55.098V35.1807H55.0886C54.9898 35.1807 54.8923 35.1713 54.7947 35.1713C54.6928 35.1713 54.5881 35.1807 54.4849 35.1807H54.4756V35.0921H54.517C54.667 35.0921 54.7103 34.9952 54.7121 34.8138V33.8551C54.7121 33.7336 54.6124 33.6607 54.5145 33.6607H54.4756V33.5725H54.4849C54.5722 33.5725 54.661 33.5812 54.7467 33.5812C54.8144 33.5812 54.8798 33.5725 54.9571 33.5759L55.9569 34.7016V33.8648C55.9563 33.684 55.8351 33.6622 55.7687 33.6607H55.7085V33.5725H55.7191C55.826 33.5725 55.9311 33.5812 56.037 33.5812C56.1302 33.5812 56.2231 33.5725 56.3175 33.5725H56.3269V33.6607H56.2833C56.1894 33.6628 56.0925 33.6716 56.0906 33.9396V34.9753C56.0906 35.0547 56.0925 35.1342 56.1034 35.2034L56.1056 35.2146H56.0944ZM56.0077 35.195H56.0825C56.0736 35.1221 56.0696 35.0487 56.0707 34.9753V33.9396C56.0707 33.666 56.1854 33.641 56.2833 33.6404H56.3079V33.5921C56.2175 33.5927 56.128 33.6011 56.0367 33.6011C55.9333 33.6011 55.8316 33.5927 55.7285 33.5921V33.6404H55.7687C55.8388 33.641 55.9763 33.6722 55.9763 33.8648L55.9738 34.725L55.9694 34.7294L55.9622 34.7368L54.9493 33.5921C54.882 33.5921 54.8159 33.6011 54.7467 33.6011C54.6629 33.6011 54.5775 33.5927 54.4946 33.5921V33.6404H54.5145C54.6218 33.641 54.7315 33.7217 54.7315 33.8551V34.8138C54.7315 34.9961 54.6807 35.1124 54.517 35.113H54.4946V35.161C54.5934 35.1604 54.6947 35.152 54.7947 35.152C54.8898 35.152 54.9842 35.1604 55.0783 35.1613V35.113H55.0491C54.8705 35.113 54.8256 35.0345 54.8256 34.8366V33.8729L56.0077 35.195ZM55.9569 34.7178V34.7172L55.9551 34.7156L55.9569 34.7178ZM56.6831 34.8456C56.6607 34.9226 56.6333 34.9824 56.6333 35.0229C56.6333 35.0915 56.7292 35.1027 56.8037 35.1027H56.8293V35.171C56.7374 35.1656 56.6455 35.1627 56.5535 35.1623C56.4715 35.1623 56.3898 35.166 56.3082 35.171V35.1024H56.3213C56.4104 35.1024 56.4858 35.0501 56.5189 34.9544L56.8838 33.9103C56.9134 33.8258 56.9546 33.7121 56.9677 33.6276C57.0399 33.6019 57.1095 33.5691 57.1752 33.5298C57.1815 33.5276 57.1862 33.5254 57.1933 33.5254C57.1999 33.5254 57.2042 33.5254 57.2089 33.5326C57.2158 33.5503 57.2226 33.5709 57.2295 33.589L57.6484 34.7795C57.6755 34.859 57.7029 34.9432 57.7325 35.0117C57.7599 35.0756 57.8076 35.1027 57.8827 35.1027H57.8968V35.171C57.7939 35.166 57.6917 35.1623 57.5823 35.1623C57.471 35.1623 57.3569 35.166 57.2407 35.171V35.1024H57.2659C57.318 35.1024 57.4074 35.0937 57.4074 35.0367C57.4074 35.0074 57.3869 34.9457 57.3616 34.8727L57.2728 34.6087H56.7564L56.6831 34.8456ZM57.016 33.8374H57.0113L56.7994 34.4813H57.2254L57.016 33.8374Z" fill="#1A1919"/>
<path fill-rule="evenodd" clip-rule="evenodd" d="M57.8955 35.1802C57.7926 35.1761 57.6907 35.1708 57.5819 35.1708C57.471 35.1708 57.3569 35.1761 57.241 35.1802L57.231 35.1808V35.0923H57.2653C57.3182 35.0923 57.3968 35.0798 57.3968 35.0362C57.3974 35.0103 57.3768 34.948 57.3513 34.8754L57.265 34.6179H56.7625L56.6924 34.8479C56.6694 34.9259 56.6426 34.9854 56.6426 35.0225C56.6426 35.0783 56.7283 35.0923 56.8034 35.0923H56.8383V35.1808L56.828 35.1802C56.737 35.1761 56.6438 35.1708 56.5531 35.1708C56.4718 35.1708 56.3898 35.1761 56.3078 35.1802L56.2979 35.1808V35.0923H56.3209C56.4057 35.0917 56.4767 35.0434 56.5101 34.9508L56.8738 33.9064C56.9031 33.8222 56.9442 33.7088 56.9642 33.6181C57.0359 33.5932 57.1272 33.5477 57.1715 33.5202C57.1774 33.5181 57.1836 33.5152 57.193 33.5152C57.198 33.5148 57.203 33.5158 57.2074 33.5182C57.2119 33.5206 57.2155 33.5242 57.2179 33.5287C57.2247 33.5464 57.2313 33.5673 57.2388 33.5854L57.6573 34.7759C57.6848 34.8554 57.7119 34.9396 57.7415 35.0075C57.768 35.0677 57.8094 35.0917 57.8821 35.0923H57.9057V35.1808L57.8955 35.1802ZM57.2503 35.1602C57.3628 35.1559 57.4735 35.1515 57.5819 35.1515C57.6879 35.1515 57.7867 35.1559 57.8861 35.1599V35.1122H57.8821C57.8051 35.1122 57.7512 35.0823 57.7231 35.015C57.6929 34.9464 57.6658 34.8616 57.6386 34.7825L57.2198 33.5919C57.2131 33.5738 57.2066 33.5556 57.2004 33.5374C57.1986 33.5349 57.1989 33.5349 57.1973 33.5349H57.193C57.188 33.5349 57.1855 33.5364 57.1802 33.538C57.1167 33.5767 57.0485 33.6071 56.9773 33.6284C56.9633 33.715 56.9218 33.8285 56.8925 33.9129L56.5279 34.9573C56.4936 35.0561 56.4138 35.1125 56.3209 35.1122H56.3175V35.1599C56.3957 35.1559 56.4739 35.1515 56.5531 35.1515C56.6413 35.1515 56.7314 35.1559 56.8186 35.1599V35.1122H56.8034C56.7295 35.1113 56.6257 35.1035 56.6226 35.0225C56.6232 34.9773 56.6513 34.9196 56.6737 34.8423L56.6828 34.8451L56.6734 34.842L56.7482 34.5989H57.279L57.3703 34.8691C57.3952 34.9424 57.4161 35.0031 57.4161 35.0362C57.413 35.106 57.3173 35.111 57.2656 35.1122H57.25L57.2503 35.1602ZM56.7853 34.4908L57.0035 33.8269H57.0156V33.8369V33.8266H57.0225L57.2375 34.4905L56.7853 34.4908ZM56.8127 34.4708H57.2107L57.0128 33.8612L56.8127 34.4708ZM58.4695 34.9474C58.4695 35.0387 58.5328 35.0658 58.6061 35.0751C58.6989 35.082 58.8015 35.082 58.9065 35.0705C59.0022 35.0589 59.0842 35.0047 59.1247 34.9474C59.1608 34.8975 59.1814 34.8336 59.1954 34.7834H59.2612C59.2362 34.9134 59.2045 35.0409 59.177 35.1705C58.9772 35.1705 58.7762 35.1618 58.5764 35.1618C58.376 35.1618 58.1756 35.1705 57.9756 35.1705V35.1019H58.007C58.0893 35.1019 58.1784 35.0907 58.1784 34.9498V33.7802C58.1784 33.6617 58.0893 33.6502 58.007 33.6502H57.9759V33.5816C58.0959 33.5816 58.2146 33.591 58.3349 33.591C58.4512 33.591 58.5649 33.5816 58.6812 33.5816V33.6502H58.6241C58.5375 33.6502 58.4695 33.6524 58.4695 33.773V34.9474Z" fill="#1A1919"/>
<path fill-rule="evenodd" clip-rule="evenodd" d="M59.1773 35.1803C58.9766 35.1803 58.7762 35.171 58.5767 35.171C58.3763 35.171 58.1762 35.1803 57.9752 35.1803H57.9658V35.0924H58.0073C58.0896 35.0902 58.1678 35.0846 58.1687 34.95V33.7794C58.1678 33.6687 58.0899 33.6613 58.0073 33.66H57.9658V33.5718H57.9752C58.0967 33.5718 58.2152 33.5805 58.3351 33.5805C58.4508 33.5805 58.5642 33.5718 58.6814 33.5718H58.6908V33.66H58.6244C58.5359 33.6622 58.481 33.6581 58.4791 33.7728V34.9472C58.4798 35.0323 58.5352 35.055 58.6069 35.065C58.7063 35.0716 58.806 35.0701 58.9052 35.0606C58.9977 35.0494 59.0775 34.9958 59.1171 34.9416C59.152 34.893 59.172 34.8306 59.1857 34.7811L59.1876 34.7736H59.2736L59.2714 34.7854C59.2458 34.9157 59.2144 35.0426 59.1869 35.1722L59.1851 35.18L59.1773 35.1803ZM59.1692 35.1607C59.1953 35.037 59.2253 34.9163 59.2499 34.7935H59.2028C59.1888 34.8431 59.1685 34.9042 59.133 34.9537C59.0775 35.0242 58.9964 35.0697 58.9074 35.0803C58.8069 35.0905 58.7058 35.0919 58.605 35.0846C58.5309 35.0765 58.4592 35.0447 58.4592 34.9475V33.7731C58.4592 33.6466 58.5393 33.6401 58.6244 33.6401H58.6711V33.5918C58.5589 33.5924 58.4483 33.6011 58.3351 33.6011C58.2173 33.6011 58.102 33.5924 57.9858 33.5918V33.6401H58.0076C58.0886 33.6401 58.1877 33.6544 58.1877 33.7797V34.95C58.1877 35.0971 58.0889 35.1124 58.0073 35.1124H57.9855V35.1607C58.1821 35.1604 58.3791 35.1516 58.5767 35.1516C58.7746 35.1516 58.9722 35.1604 59.1692 35.1607ZM59.2337 33.5176C59.3708 33.5176 59.4737 33.6229 59.4737 33.7576C59.4743 33.7892 59.4685 33.8206 59.4566 33.85C59.4447 33.8793 59.4271 33.9059 59.4046 33.9283C59.3822 33.9506 59.3555 33.9682 59.3261 33.9799C59.2968 33.9916 59.2653 33.9973 59.2337 33.9966C59.2021 33.9972 59.1707 33.9915 59.1414 33.9797C59.1121 33.9679 59.0855 33.9503 59.0631 33.928C59.0408 33.9057 59.0232 33.8791 59.0113 33.8498C58.9995 33.8205 58.9937 33.7891 58.9943 33.7576C58.9943 33.6229 59.0969 33.5176 59.2337 33.5176ZM59.2337 33.952C59.2845 33.9511 59.333 33.9302 59.3685 33.8938C59.4041 33.8574 59.4238 33.8084 59.4235 33.7576C59.424 33.7066 59.4043 33.6575 59.3688 33.6209C59.3332 33.5844 59.2847 33.5634 59.2337 33.5625C59.1827 33.5634 59.1342 33.5845 59.0987 33.621C59.0632 33.6575 59.0435 33.7066 59.0439 33.7576C59.0439 33.8604 59.1255 33.952 59.2337 33.952ZM59.1146 33.8841V33.8723C59.1439 33.8682 59.1495 33.8691 59.1495 33.8511V33.6734C59.1495 33.6485 59.147 33.6398 59.1156 33.641V33.6288H59.2384C59.2804 33.6288 59.3194 33.6491 59.3194 33.6927C59.3194 33.7283 59.2957 33.7548 59.2627 33.765L59.3019 33.8199C59.3203 33.8448 59.3412 33.8682 59.3549 33.8763V33.8841H59.3082C59.2857 33.8841 59.2658 33.837 59.2218 33.7738H59.1953V33.8532C59.1953 33.8688 59.201 33.8682 59.2303 33.8723V33.8841H59.1146ZM59.1957 33.7576H59.2237C59.2549 33.7576 59.2689 33.7342 59.2689 33.6965C59.2689 33.6585 59.2471 33.6447 59.2222 33.6447H59.1953V33.7576H59.1957Z" fill="#1A1919"/>
<path fill-rule="evenodd" clip-rule="evenodd" d="M45.0186 25.5471C45.0186 23.4184 46.7443 21.6924 48.8729 21.6924C51.0016 21.6924 52.7273 23.4181 52.7273 25.5471C52.7273 27.6758 51.0016 29.4015 48.8729 29.4015C46.7443 29.4015 45.0186 27.6758 45.0186 25.5471Z" fill="#FFFFFE"/>
<path fill-rule="evenodd" clip-rule="evenodd" d="M51.204 25.4711C51.2035 25.0026 51.061 24.5452 50.7954 24.1592C50.5298 23.7732 50.1535 23.4767 49.7161 23.3088V27.6332C50.1534 27.4653 50.5297 27.1688 50.7953 26.7829C51.0609 26.397 51.2034 25.9396 51.204 25.4711ZM48.0577 27.6325V23.3094C47.6207 23.4777 47.2448 23.7742 46.9794 24.16C46.714 24.5458 46.5716 25.0029 46.5707 25.4711C46.5715 25.9393 46.7139 26.3964 46.9792 26.7821C47.2446 27.1679 47.6207 27.4643 48.0577 27.6325ZM48.8873 21.8159C46.8687 21.8168 45.2334 23.4525 45.233 25.4711C45.233 27.4895 46.8687 29.1251 48.8873 29.1254C50.906 29.1251 52.5416 27.4895 52.5422 25.4711C52.5416 23.4525 50.906 21.8168 48.8873 21.8159ZM48.8783 29.4704C46.6695 29.4807 44.8516 27.6911 44.8516 25.5129C44.8516 23.1321 46.6695 21.4852 48.8783 21.4858H49.9133C52.0963 21.4852 54.0884 23.1314 54.0884 25.5126C54.0884 27.6905 52.0963 29.4704 49.9133 29.4704H48.8783Z" fill="#0069AA"/>
</svg>
