<svg width="84" height="56" viewBox="0 0 84 56" fill="none" xmlns="http://www.w3.org/2000/svg">
<path d="M36.25 19.25H64.9238V37.4512H36.25V19.25Z" fill="white" stroke="black" stroke-width="0.5"/>
<path d="M51.3131 26.3779C52.4703 26.3779 53.4084 27.2599 53.4084 28.3494V28.3506C53.4084 29.4401 52.4703 30.3233 51.3131 30.3233C50.1559 30.3233 49.2178 29.4401 49.2178 28.3506V28.3494C49.2178 27.2599 50.1559 26.3779 51.3131 26.3779Z" fill="#F47216"/>
<path d="M48.0225 26.4033C48.353 26.4033 48.6302 26.4701 48.9677 26.6311V27.4821C48.6481 27.188 48.3709 27.0649 48.0043 27.0649C47.2837 27.0649 46.7172 27.6265 46.7172 28.3385C46.7172 29.0893 47.2663 29.6175 48.04 29.6175C48.3883 29.6175 48.6604 29.5008 48.9677 29.2115V30.0629C48.6182 30.2178 48.3351 30.2789 48.0043 30.2789C46.8345 30.2789 45.9254 29.4337 45.9254 28.3438C45.9254 27.2655 46.8586 26.4033 48.0225 26.4033ZM44.3902 26.4267C44.8221 26.4267 45.2172 26.5659 45.5476 26.8379L45.1456 27.3334C44.9454 27.1223 44.7562 27.0332 44.5261 27.0332C44.1949 27.0332 43.9538 27.2106 43.9538 27.4442C43.9538 27.6444 44.0891 27.7504 44.5501 27.911C45.424 28.2118 45.683 28.4786 45.683 29.0677C45.683 29.7856 45.1228 30.2853 44.3246 30.2853C43.7399 30.2853 43.315 30.0686 42.961 29.5795L43.4572 29.1295C43.6342 29.4515 43.9293 29.6241 44.2958 29.6241C44.6385 29.6241 44.8923 29.4016 44.8923 29.1011C44.8923 28.9454 44.8154 28.8119 44.6619 28.7174C44.5847 28.6727 44.4316 28.6061 44.1309 28.5063C43.4093 28.2617 43.1618 28.0003 43.1618 27.4894C43.1617 26.8825 43.6934 26.4267 44.3902 26.4267ZM53.1693 26.4914H54.0085L55.0589 28.9821L56.1229 26.4914H56.9557L55.2542 30.2948H54.8407L53.1693 26.4914ZM41.9034 26.4971H42.6716V30.2053H41.9034V26.4971ZM57.303 26.4971H59.4818V27.1254H58.0708V27.9485H59.4298V28.5765H58.0708V29.5775H59.4818V30.2053H57.303V26.4971ZM61.6264 28.6431C62.205 28.5322 62.5234 28.1597 62.5234 27.5919C62.5234 26.8977 62.0157 26.4971 61.1296 26.4971H59.9905V30.2053H60.7579V28.7156H60.8581L61.9215 30.2053H62.8663L61.6264 28.6431ZM60.9824 28.2042H60.7579V27.0812H60.9945C61.4729 27.0812 61.733 27.27 61.733 27.6309C61.733 28.0037 61.473 28.2042 60.9824 28.2042ZM39.4353 26.4971H38.3076V30.2053H39.4294C40.0258 30.2053 40.4566 30.0728 40.8347 29.7772C41.2841 29.4271 41.5497 28.8995 41.5497 28.3538C41.5498 27.2594 40.6812 26.4971 39.4353 26.4971ZM40.3328 29.2828C40.0914 29.4879 39.7779 29.5775 39.2815 29.5775H39.0753V27.1254H39.2815C39.7778 27.1254 40.079 27.2091 40.3328 27.4253C40.5985 27.6481 40.7583 27.9932 40.7583 28.3485C40.7583 28.7043 40.5985 29.06 40.3328 29.2828Z" fill="black"/>
</svg>
