<svg width="18" height="18" viewBox="0 0 18 18" fill="none" xmlns="http://www.w3.org/2000/svg">
<path opacity="0.4" d="M9 17.4736C4.37646 17.4736 0.533203 13.6304 0.533203 9.00684C0.533203 4.375 4.36816 0.540039 8.9917 0.540039C13.6235 0.540039 17.4668 4.375 17.4668 9.00684C17.4668 13.6304 13.6318 17.4736 9 17.4736ZM8.92529 6.06006C9.54785 6.06006 10.0376 5.56201 10.0376 4.93115C10.0376 4.30029 9.54785 3.80225 8.92529 3.80225C8.30273 3.80225 7.80469 4.30029 7.80469 4.93115C7.80469 5.56201 8.30273 6.06006 8.92529 6.06006ZM7.50586 13.813H10.9839C11.3408 13.813 11.6147 13.5557 11.6147 13.1987C11.6147 12.8667 11.3408 12.5928 10.9839 12.5928H9.92969V8.25146C9.92969 7.78662 9.69727 7.47119 9.25732 7.47119H7.64697C7.29834 7.47119 7.02441 7.74512 7.02441 8.07715C7.02441 8.43408 7.29834 8.69141 7.64697 8.69141H8.56006V12.5928H7.50586C7.14893 12.5928 6.875 12.8667 6.875 13.1987C6.875 13.5557 7.14893 13.813 7.50586 13.813Z" fill="#86868B"/>
</svg>
