<svg width="84" height="56" viewBox="0 0 84 56" fill="none" xmlns="http://www.w3.org/2000/svg">
<path d="M59.0636 28.2696C59.6424 28.2822 60.2245 28.244 60.801 28.2894C61.3848 28.3983 61.5255 29.2821 61.0069 29.5716C60.653 29.7623 60.2325 29.6426 59.8489 29.6763H59.0636V28.2696ZM61.1357 26.6775C61.2643 27.1313 60.8267 27.5389 60.3896 27.4764H59.0636C59.0729 27.0483 59.0455 26.5837 59.0771 26.1782C59.6083 26.1932 60.1443 26.1477 60.6724 26.202C60.8993 26.259 61.0892 26.4456 61.1357 26.6775ZM64.3267 19.9463C64.3513 20.8131 64.3302 21.7258 64.3373 22.6102C64.3357 26.2059 64.3408 29.8015 64.3345 33.3973C64.3112 34.7449 63.1169 35.9159 61.7787 35.9427C60.4391 35.9482 59.0994 35.9436 57.7597 35.9451V30.5092C59.2194 30.5016 60.6798 30.5245 62.1389 30.4978C62.8158 30.4553 63.5572 30.0086 63.5887 29.2638C63.6684 28.5157 62.9631 27.9982 62.2934 27.9165C62.036 27.9098 62.0436 27.8415 62.2934 27.8116C62.9321 27.6736 63.4337 27.0126 63.2458 26.3506C63.0856 25.6543 62.316 25.3848 61.6759 25.3861C60.3707 25.3772 59.0652 25.3849 57.76 25.3823C57.7684 24.3675 57.7424 23.3516 57.774 22.3375C57.8774 21.0142 59.1017 19.923 60.4212 19.9467C61.7232 19.9465 63.025 19.9465 64.3267 19.9464V19.9463Z" fill="url(#paint0_linear_2363_4828)"/>
<path d="M43.0103 22.4743C43.0436 21.1289 44.243 19.9675 45.5795 19.9479C46.9141 19.9438 48.2489 19.9473 49.5835 19.9461C49.5798 24.4476 49.5907 28.9497 49.578 33.4509C49.5266 34.78 48.3403 35.9192 47.0183 35.9428C45.6812 35.9476 44.344 35.9434 43.0068 35.9448V30.3256C44.3056 30.6324 45.6676 30.763 46.9927 30.5595C47.7847 30.4321 48.6513 30.0431 48.9194 29.2214C49.1168 28.5185 49.0057 27.7788 49.035 27.0574V25.3821H46.7419C46.7316 26.4901 46.763 27.6001 46.7254 28.7068C46.6635 29.387 45.9899 29.8192 45.3483 29.7961C44.5527 29.8045 42.976 29.2195 42.976 29.2195C42.972 27.1435 42.9991 24.5436 43.0103 22.4745V22.4743Z" fill="url(#paint1_linear_2363_4828)"/>
<path d="M50.4387 26.0576C50.318 26.0832 50.4144 25.6464 50.3836 25.4807C50.3918 24.4332 50.3664 23.3845 50.3976 22.3377C50.5007 21.0088 51.7344 19.9149 53.0592 19.946H56.9606C56.9569 24.4475 56.9678 28.9495 56.9551 33.4508C56.9036 34.7799 55.7172 35.9191 54.3952 35.9426C53.0581 35.9477 51.7208 35.9434 50.3835 35.9447V29.7881C51.2968 30.5375 52.5381 30.6541 53.6759 30.6561C54.5336 30.6558 55.3864 30.5236 56.2194 30.3258V29.1979C55.2806 29.6657 54.1771 29.9629 53.1365 29.6941C52.4106 29.5134 51.8836 28.8119 51.8954 28.0627C51.8113 27.2837 52.2679 26.4612 53.0335 26.2296C53.984 25.932 55.02 26.1596 55.911 26.5465C56.1019 26.6464 56.2957 26.7704 56.2193 26.4513V25.5648C54.7292 25.2103 53.1433 25.0798 51.6462 25.4655C51.2129 25.5877 50.7907 25.7731 50.4387 26.0577V26.0576Z" fill="url(#paint2_linear_2363_4828)"/>
<defs>
<linearGradient id="paint0_linear_2363_4828" x1="57.7148" y1="27.6036" x2="64.2958" y2="27.6036" gradientUnits="userSpaceOnUse">
<stop stop-color="#007B40"/>
<stop offset="1" stop-color="#55B330"/>
</linearGradient>
<linearGradient id="paint1_linear_2363_4828" x1="42.8669" y1="28.0986" x2="49.4757" y2="28.0986" gradientUnits="userSpaceOnUse">
<stop stop-color="#1D2970"/>
<stop offset="1" stop-color="#006DBA"/>
</linearGradient>
<linearGradient id="paint2_linear_2363_4828" x1="50.3739" y1="27.7583" x2="56.9594" y2="27.7583" gradientUnits="userSpaceOnUse">
<stop stop-color="#6E2B2F"/>
<stop offset="1" stop-color="#E30138"/>
</linearGradient>
</defs>
</svg>
