<svg width="84" height="56" viewBox="0 0 84 56" fill="none" xmlns="http://www.w3.org/2000/svg">
<path d="M65.0449 33.7984V33.4316H64.9495L64.839 33.6833L64.7291 33.4316H64.6333V33.7984H64.7012V33.5221L64.8044 33.7605H64.8747L64.978 33.5215V33.7984H65.0453H65.0449ZM64.4391 33.7984V33.4944H64.5613V33.4326H64.249V33.4944H64.3713V33.7984H64.4385H64.4391Z" fill="#F79410"/>
<path d="M54.19 35.371H45.9258V20.519H54.1902L54.19 35.371Z" fill="#FF5F00"/>
<path d="M46.4502 27.9455C46.4502 24.9328 47.8608 22.2491 50.0574 20.5195C48.3947 19.2085 46.3381 18.4969 44.2207 18.5C39.0046 18.5 34.7764 22.7289 34.7764 27.9455C34.7764 33.1622 39.0046 37.3911 44.2207 37.3911C46.3382 37.3942 48.3948 36.6827 50.0576 35.3715C47.8611 33.6423 46.4502 30.9584 46.4502 27.9455Z" fill="#EB001B"/>
<path d="M65.3396 27.9455C65.3396 33.1622 61.1113 37.3911 55.8953 37.3911C53.7775 37.3942 51.7207 36.6826 50.0576 35.3715C52.2549 33.642 53.6655 30.9584 53.6655 27.9455C53.6655 24.9327 52.2549 22.2491 50.0576 20.5195C51.7207 19.2085 53.7774 18.4969 55.8951 18.5C61.1112 18.5 65.3394 22.7289 65.3394 27.9455" fill="#F79E1B"/>
</svg>
