<svg width="84" height="56" viewBox="0 0 84 56" fill="none" xmlns="http://www.w3.org/2000/svg">
<path fill-rule="evenodd" clip-rule="evenodd" d="M42.3428 21.8535C42.3428 21.8535 40.6572 21.8535 40.2033 23.4824C39.8143 24.981 38.6473 29.0207 38.5825 29.151H38.2583C38.2583 29.151 37.0913 24.981 36.6375 23.4824C36.1837 21.8535 34.498 21.8535 34.498 21.8535H30.6729V34.0378H34.498V26.8054H34.7573L36.9617 34.0378H39.6198L41.8242 26.8054H42.1483V34.0378H45.9735V21.8535H42.3428Z" fill="#4DB45E"/>
<path d="M53.1855 34.0378V27.3918V27.3267H65.05C64.6022 28.5768 63.6198 29.5582 62.3666 29.9471L65.1951 34.0378H60.9161L58.5227 30.1284H57.0107V34.0378H53.1855Z" fill="#4DB45E"/>
<path d="M47.8535 21.8535H51.56V34.0378H47.8535V21.8535Z" fill="#4DB45E"/>
<path fill-rule="evenodd" clip-rule="evenodd" d="M61.1983 21.8535H52.7207C53.1737 24.1593 54.8563 25.9526 57.1213 26.5931C57.639 26.7212 58.1567 26.7852 58.7392 26.7852H65.2754C65.3401 26.529 65.3401 26.2088 65.3401 25.9526C65.3401 23.7109 63.4634 21.8535 61.1983 21.8535V21.8535Z" fill="url(#paint0_linear_2363_4740)"/>
<defs>
<linearGradient id="paint0_linear_2363_4740" x1="52.7207" y1="24.3194" x2="65.32" y2="24.3194" gradientUnits="userSpaceOnUse">
<stop offset="0.3" stop-color="#00B4E6"/>
<stop offset="1" stop-color="#088CCB"/>
</linearGradient>
</defs>
</svg>
