<svg width="84" height="56" viewBox="0 0 84 56" fill="none" xmlns="http://www.w3.org/2000/svg">
<path d="M61.5913 20.2861C63.5952 20.2861 64.6343 21.3159 64.6343 23.3013V24.1362H42.6841V23.3013C42.6841 21.3159 43.7231 20.2861 45.7271 20.2861H61.5913ZM46.5527 33.3857H48.8257C49.373 33.3857 49.7349 33.0146 49.7349 32.4951V30.7788C49.7349 30.2593 49.373 29.8882 48.8257 29.8882H46.5527C46.0054 29.8882 45.6436 30.2593 45.6436 30.7788V32.4951C45.6436 33.0146 46.0054 33.3857 46.5527 33.3857ZM45.7271 36.3452C43.7231 36.3452 42.6841 35.3154 42.6841 33.3301V26.3071H64.6343V33.3301C64.6343 35.3062 63.5952 36.3452 61.5913 36.3452H45.7271Z" fill="black"/>
</svg>
