<svg width="256" height="56" viewBox="0 0 256 56" fill="none" xmlns="http://www.w3.org/2000/svg">
<path d="M50.7475 21.8555C48.0784 21.8555 45.6931 23.2389 45.6931 25.795C45.6931 28.7264 49.9235 28.9288 49.9235 30.4014C49.9235 31.0215 49.2129 31.5765 47.9992 31.5765C46.2768 31.5765 44.9895 30.801 44.9895 30.801L44.4387 33.3803C44.4387 33.3803 45.9216 34.0355 47.8905 34.0355C50.8088 34.0355 53.1051 32.584 53.1051 29.9843C53.1051 26.8868 48.8571 26.6903 48.8571 25.3235C48.8571 24.8377 49.4404 24.3055 50.6506 24.3055C52.016 24.3055 53.13 24.8696 53.13 24.8696L53.6691 22.3784C53.6691 22.3784 52.457 21.8555 50.7475 21.8555ZM26.3273 22.0435L26.2627 22.4195C26.2627 22.4195 27.3856 22.625 28.397 23.035C29.6992 23.5051 29.792 23.7787 30.0113 24.6287L32.4011 33.8416H35.6048L40.5403 22.0435H37.344L34.1726 30.0651L32.8786 23.2656C32.7599 22.4874 32.1587 22.0435 31.4229 22.0435H26.3273ZM41.8255 22.0435L39.3181 33.8415H42.3661L44.8647 22.0435H41.8255V22.0435ZM58.8249 22.0435C58.0899 22.0435 57.7005 22.437 57.4148 23.1246L52.9494 33.8415H56.1457L56.7641 32.0553H60.6581L61.0341 33.8415H63.8544L61.394 22.0435H58.8249ZM59.2406 25.231L60.188 29.6582H57.6498L59.2406 25.231Z" fill="#1434CB"/>
<path d="M110.123 33.7984V33.4316H110.028L109.917 33.6833L109.807 33.4316H109.711V33.7984H109.779V33.5221L109.883 33.7605H109.953L110.056 33.5215V33.7984H110.123H110.123ZM109.517 33.7984V33.4944H109.639V33.4326H109.327V33.4944H109.449V33.7984H109.517H109.517Z" fill="#F79410"/>
<path d="M99.2682 35.371H91.0039V20.519H99.2683L99.2682 35.371Z" fill="#FF5F00"/>
<path d="M91.5283 27.9455C91.5283 24.9328 92.9389 22.2491 95.1355 20.5195C93.4728 19.2085 91.4163 18.4969 89.2988 18.5C84.0827 18.5 79.8545 22.7289 79.8545 27.9455C79.8545 33.1622 84.0827 37.3911 89.2988 37.3911C91.4163 37.3942 93.4729 36.6827 95.1357 35.3715C92.9392 33.6423 91.5283 30.9584 91.5283 27.9455Z" fill="#EB001B"/>
<path d="M110.418 27.9455C110.418 33.1622 106.189 37.3911 100.973 37.3911C98.8557 37.3942 96.7988 36.6826 95.1357 35.3715C97.333 33.642 98.7436 30.9584 98.7436 27.9455C98.7436 24.9327 97.333 22.2491 95.1357 20.5195C96.7988 19.2085 98.8556 18.4969 100.973 18.5C106.189 18.5 110.418 22.7289 110.418 27.9455" fill="#F79E1B"/>
<path fill-rule="evenodd" clip-rule="evenodd" d="M138.088 21.8535C138.088 21.8535 136.402 21.8535 135.948 23.4824C135.559 24.981 134.392 29.0207 134.328 29.151H134.003C134.003 29.151 132.836 24.981 132.383 23.4824C131.929 21.8535 130.243 21.8535 130.243 21.8535H126.418V34.0378H130.243V26.8054H130.502L132.707 34.0378H135.365L137.569 26.8054H137.893V34.0378H141.719V21.8535H138.088Z" fill="#4DB45E"/>
<path d="M148.931 34.0378V27.3918V27.3267H160.795C160.347 28.5768 159.365 29.5582 158.112 29.9471L160.94 34.0378H156.661L154.268 30.1284H152.756V34.0378H148.931Z" fill="#4DB45E"/>
<path d="M143.599 21.8535H147.305V34.0378H143.599V21.8535Z" fill="#4DB45E"/>
<path fill-rule="evenodd" clip-rule="evenodd" d="M156.943 21.8535H148.466C148.919 24.1593 150.601 25.9526 152.866 26.5931C153.384 26.7212 153.902 26.7852 154.484 26.7852H161.02C161.085 26.529 161.085 26.2088 161.085 25.9526C161.085 23.7109 159.208 21.8535 156.943 21.8535V21.8535Z" fill="url(#paint0_linear_2363_4589)"/>
<g clip-path="url(#clip0_2363_4589)">
<rect width="18.89" height="18.89" transform="translate(177.085 18.5005)" fill="white"/>
<path d="M195.975 37.3905V34.3972H193.696L192.523 33.0998L191.344 34.3972H183.83V28.3505H181.405L184.413 21.5429H187.314L188.349 23.8751V21.5429H191.94L192.564 23.3004L193.191 21.5429H195.975V18.5005H177.085V37.3905H195.975ZM194.08 33.6401H195.975L193.468 30.9819L195.975 28.3539H194.11L192.562 30.0457L191.029 28.3539H189.133L191.625 30.997L189.133 33.6401H190.976L192.532 31.9332L194.08 33.6401H194.08ZM194.523 30.9841L195.975 32.5286V29.4525L194.523 30.9841ZM186.074 32.4168V31.5935H189.057V30.4004H186.074V29.5772H189.133V28.3539H184.632V33.6404H189.133V32.4171H186.074V32.4168ZM194.547 27.5866H195.975V22.3H193.754L192.568 25.5925L191.39 22.3H189.132V27.5866H190.56V23.886L191.919 27.5866H193.188L194.547 23.8785V27.5866H194.547ZM187.509 27.5866H189.133L186.799 22.3H184.941L182.607 27.5866H184.193L184.632 26.5291H187.063L187.509 27.5866ZM186.565 25.3436H185.13L185.847 23.614L186.565 25.3436Z" fill="#006FCF"/>
</g>
<path d="M231.063 28.2696C231.641 28.2822 232.224 28.244 232.8 28.2894C233.384 28.3983 233.525 29.2821 233.006 29.5716C232.652 29.7623 232.232 29.6426 231.848 29.6763H231.063V28.2696ZM233.135 26.6775C233.263 27.1313 232.826 27.5389 232.389 27.4764H231.063C231.072 27.0483 231.044 26.5837 231.076 26.1782C231.607 26.1932 232.143 26.1477 232.671 26.202C232.898 26.259 233.088 26.4456 233.135 26.6775ZM236.326 19.9463C236.35 20.8131 236.329 21.7258 236.336 22.6102C236.335 26.2059 236.34 29.8015 236.334 33.3973C236.31 34.7449 235.116 35.9159 233.778 35.9427C232.438 35.9482 231.098 35.9436 229.759 35.9451V30.5092C231.218 30.5016 232.679 30.5245 234.138 30.4978C234.815 30.4553 235.556 30.0086 235.588 29.2638C235.667 28.5157 234.962 27.9982 234.292 27.9165C234.035 27.9098 234.043 27.8415 234.292 27.8116C234.931 27.6736 235.433 27.0126 235.245 26.3506C235.085 25.6543 234.315 25.3848 233.675 25.3861C232.37 25.3772 231.064 25.3849 229.759 25.3823C229.767 24.3675 229.741 23.3516 229.773 22.3375C229.876 21.0142 231.101 19.923 232.42 19.9467C233.722 19.9465 235.024 19.9465 236.326 19.9464V19.9463Z" fill="url(#paint1_linear_2363_4589)"/>
<path d="M215.009 22.4743C215.043 21.1289 216.242 19.9675 217.579 19.9479C218.913 19.9438 220.248 19.9473 221.583 19.9461C221.579 24.4476 221.59 28.9497 221.577 33.4509C221.526 34.78 220.339 35.9192 219.017 35.9428C217.68 35.9476 216.343 35.9434 215.006 35.9448V30.3256C216.305 30.6324 217.667 30.763 218.992 30.5595C219.784 30.4321 220.65 30.0431 220.918 29.2214C221.116 28.5185 221.005 27.7788 221.034 27.0574V25.3821H218.741C218.731 26.4901 218.762 27.6001 218.724 28.7068C218.663 29.387 217.989 29.8192 217.347 29.7961C216.552 29.8045 214.975 29.2195 214.975 29.2195C214.971 27.1435 214.998 24.5436 215.009 22.4745V22.4743Z" fill="url(#paint2_linear_2363_4589)"/>
<path d="M222.438 26.0576C222.317 26.0832 222.413 25.6464 222.383 25.4807C222.391 24.4332 222.365 23.3845 222.397 22.3377C222.5 21.0088 223.733 19.9149 225.058 19.946H228.96C228.956 24.4475 228.967 28.9495 228.954 33.4508C228.903 34.7799 227.716 35.9191 226.394 35.9426C225.057 35.9477 223.72 35.9434 222.383 35.9447V29.7881C223.296 30.5375 224.537 30.6541 225.675 30.6561C226.533 30.6558 227.385 30.5236 228.218 30.3258V29.1979C227.28 29.6657 226.176 29.9629 225.136 29.6941C224.41 29.5134 223.883 28.8119 223.894 28.0627C223.81 27.2837 224.267 26.4612 225.033 26.2296C225.983 25.932 227.019 26.1596 227.91 26.5465C228.101 26.6464 228.295 26.7704 228.218 26.4513V25.5648C226.728 25.2103 225.142 25.0798 223.645 25.4655C223.212 25.5877 222.79 25.7731 222.438 26.0577V26.0576Z" fill="url(#paint3_linear_2363_4589)"/>
<defs>
<linearGradient id="paint0_linear_2363_4589" x1="148.466" y1="24.3194" x2="161.065" y2="24.3194" gradientUnits="userSpaceOnUse">
<stop offset="0.3" stop-color="#00B4E6"/>
<stop offset="1" stop-color="#088CCB"/>
</linearGradient>
<linearGradient id="paint1_linear_2363_4589" x1="229.714" y1="27.6036" x2="236.295" y2="27.6036" gradientUnits="userSpaceOnUse">
<stop stop-color="#007B40"/>
<stop offset="1" stop-color="#55B330"/>
</linearGradient>
<linearGradient id="paint2_linear_2363_4589" x1="214.866" y1="28.0986" x2="221.475" y2="28.0986" gradientUnits="userSpaceOnUse">
<stop stop-color="#1D2970"/>
<stop offset="1" stop-color="#006DBA"/>
</linearGradient>
<linearGradient id="paint3_linear_2363_4589" x1="222.373" y1="27.7583" x2="228.958" y2="27.7583" gradientUnits="userSpaceOnUse">
<stop stop-color="#6E2B2F"/>
<stop offset="1" stop-color="#E30138"/>
</linearGradient>
<clipPath id="clip0_2363_4589">
<rect width="18.89" height="18.89" fill="white" transform="translate(177.085 18.5005)"/>
</clipPath>
</defs>
</svg>
