<svg width="180" height="56" viewBox="0 0 180 56" fill="none" xmlns="http://www.w3.org/2000/svg">
<path d="M50.0024 21.8555C47.3332 21.8555 44.948 23.2389 44.948 25.795C44.948 28.7264 49.1784 28.9288 49.1784 30.4014C49.1784 31.0215 48.4678 31.5765 47.2541 31.5765C45.5317 31.5765 44.2444 30.801 44.2444 30.801L43.6935 33.3803C43.6935 33.3803 45.1765 34.0355 47.1454 34.0355C50.0637 34.0355 52.3599 32.584 52.3599 29.9843C52.3599 26.8868 48.112 26.6903 48.112 25.3235C48.112 24.8377 48.6953 24.3055 49.9055 24.3055C51.2709 24.3055 52.3849 24.8696 52.3849 24.8696L52.924 22.3784C52.924 22.3784 51.7119 21.8555 50.0024 21.8555ZM25.5822 22.0435L25.5176 22.4195C25.5176 22.4195 26.6405 22.625 27.6519 23.035C28.9541 23.5051 29.0469 23.7787 29.2662 24.6287L31.656 33.8416H34.8597L39.7951 22.0435H36.5988L33.4275 30.0651L32.1334 23.2656C32.0148 22.4874 31.4136 22.0435 30.6778 22.0435H25.5822ZM41.0804 22.0435L38.573 33.8415H41.621L44.1195 22.0435H41.0804V22.0435ZM58.0798 22.0435C57.3448 22.0435 56.9554 22.437 56.6697 23.1246L52.2042 33.8415H55.4005L56.0189 32.0553H59.9129L60.289 33.8415H63.1092L60.6489 22.0435H58.0798ZM58.4955 25.231L59.4429 29.6582H56.9047L58.4955 25.231Z" fill="#1434CB"/>
<path d="M109.378 33.7984V33.4316H109.282L109.172 33.6833L109.062 33.4316H108.966V33.7984H109.034V33.5221L109.137 33.7605H109.208L109.311 33.5215V33.7984H109.378H109.378ZM108.772 33.7984V33.4944H108.894V33.4326H108.582V33.4944H108.704V33.7984H108.772H108.772Z" fill="#F79410"/>
<path d="M98.523 35.371H90.2588V20.519H98.5232L98.523 35.371Z" fill="#FF5F00"/>
<path d="M90.7832 27.9455C90.7832 24.9328 92.1938 22.2491 94.3904 20.5195C92.7277 19.2085 90.6711 18.4969 88.5537 18.5C83.3376 18.5 79.1094 22.7289 79.1094 27.9455C79.1094 33.1622 83.3376 37.3911 88.5537 37.3911C90.6712 37.3942 92.7278 36.6827 94.3906 35.3715C92.1941 33.6423 90.7832 30.9584 90.7832 27.9455Z" fill="#EB001B"/>
<path d="M109.673 27.9455C109.673 33.1622 105.444 37.3911 100.228 37.3911C98.1105 37.3942 96.0537 36.6826 94.3906 35.3715C96.5879 33.642 97.9985 30.9584 97.9985 27.9455C97.9985 24.9327 96.5879 22.2491 94.3906 20.5195C96.0537 19.2085 98.1104 18.4969 100.228 18.5C105.444 18.5 109.672 22.7289 109.672 27.9455" fill="#F79E1B"/>
<path fill-rule="evenodd" clip-rule="evenodd" d="M137.343 21.8535C137.343 21.8535 135.657 21.8535 135.203 23.4824C134.814 24.981 133.647 29.0207 133.582 29.151H133.258C133.258 29.151 132.091 24.981 131.638 23.4824C131.184 21.8535 129.498 21.8535 129.498 21.8535H125.673V34.0378H129.498V26.8054H129.757L131.962 34.0378H134.62L136.824 26.8054H137.148V34.0378H140.973V21.8535H137.343Z" fill="#4DB45E"/>
<path d="M148.186 34.0378V27.3918V27.3267H160.05C159.602 28.5768 158.62 29.5582 157.367 29.9471L160.195 34.0378H155.916L153.523 30.1284H152.011V34.0378H148.186Z" fill="#4DB45E"/>
<path d="M142.854 21.8535H146.56V34.0378H142.854V21.8535Z" fill="#4DB45E"/>
<path fill-rule="evenodd" clip-rule="evenodd" d="M156.198 21.8535H147.721C148.174 24.1593 149.856 25.9526 152.121 26.5931C152.639 26.7212 153.157 26.7852 153.739 26.7852H160.275C160.34 26.529 160.34 26.2088 160.34 25.9526C160.34 23.7109 158.463 21.8535 156.198 21.8535V21.8535Z" fill="url(#paint0_linear_2363_4634)"/>
<defs>
<linearGradient id="paint0_linear_2363_4634" x1="147.721" y1="24.3194" x2="160.32" y2="24.3194" gradientUnits="userSpaceOnUse">
<stop offset="0.3" stop-color="#00B4E6"/>
<stop offset="1" stop-color="#088CCB"/>
</linearGradient>
</defs>
</svg>
