<svg width="24" height="24" viewBox="0 0 24 24" fill="none" xmlns="http://www.w3.org/2000/svg">
<path d="M10.2817 19.4111C9.8833 19.4111 9.54297 19.234 9.26074 18.8799L4.96094 13.501C4.85579 13.3737 4.77832 13.2492 4.72852 13.1274C4.68424 13.0057 4.66211 12.8812 4.66211 12.7539C4.66211 12.4661 4.75618 12.2282 4.94434 12.04C5.13802 11.8519 5.38151 11.7578 5.6748 11.7578C6.01237 11.7578 6.29736 11.91 6.52979 12.2144L10.2485 16.9873L17.4536 5.54053C17.5809 5.34684 17.7109 5.21126 17.8438 5.13379C17.9766 5.05078 18.1481 5.00928 18.3584 5.00928C18.6462 5.00928 18.8813 5.10059 19.064 5.2832C19.2466 5.46029 19.3379 5.69271 19.3379 5.98047C19.3379 6.09668 19.3185 6.21566 19.2798 6.3374C19.241 6.45361 19.1802 6.57812 19.0972 6.71094L11.2944 18.8716C11.0509 19.2313 10.7134 19.4111 10.2817 19.4111Z" fill="#1D1D1F"/>
</svg>
