<svg width="84" height="56" viewBox="0 0 84 56" fill="none" xmlns="http://www.w3.org/2000/svg">
<path d="M50.4848 22C47.8157 22 45.4304 23.3835 45.4304 25.9396C45.4304 28.8709 49.6608 29.0733 49.6608 30.546C49.6608 31.166 48.9502 31.7211 47.7365 31.7211C46.0141 31.7211 44.7268 30.9455 44.7268 30.9455L44.176 33.5249C44.176 33.5249 45.6589 34.18 47.6279 34.18C50.5461 34.18 52.8424 32.7286 52.8424 30.1288C52.8424 27.0313 48.5944 26.8349 48.5944 25.4681C48.5944 24.9823 49.1777 24.4501 50.3879 24.4501C51.7533 24.4501 52.8674 25.0141 52.8674 25.0141L53.4064 22.5229C53.4064 22.5229 52.1943 22 50.4848 22ZM26.0646 22.188L26 22.5641C26 22.5641 27.1229 22.7696 28.1343 23.1795C29.4365 23.6496 29.5293 23.9233 29.7486 24.7732L32.1384 33.9861H35.3421L40.2776 22.188H37.0813L33.9099 30.2096L32.6159 23.4101C32.4972 22.6319 31.896 22.188 31.1602 22.188H26.0646ZM41.5628 22.188L39.0554 33.9861H42.1034L44.602 22.188H41.5628V22.188ZM58.5622 22.188C57.8272 22.188 57.4378 22.5815 57.1521 23.2691L52.6867 33.9861H55.883L56.5014 32.1999H60.3954L60.7714 33.9861H63.5917L61.1313 22.188H58.5622ZM58.9779 25.3755L59.9253 29.8027H57.3871L58.9779 25.3755Z" fill="#1434CB"/>
</svg>
