<svg width="16" height="16" viewBox="0 0 16 16" fill="none" xmlns="http://www.w3.org/2000/svg">
<g clip-path="url(#clip0_2363_4588)">
<path d="M8.02539 13.7461C4.76172 13.7461 2.04883 11.0332 2.04883 7.76953C2.04883 4.5 4.75586 1.79297 8.01953 1.79297C11.2891 1.79297 14.002 4.5 14.002 7.76953C14.002 11.0332 11.2949 13.7461 8.02539 13.7461ZM8.02539 12.75C10.791 12.75 13.0059 10.5352 13.0059 7.76953C13.0059 5.00391 10.7852 2.78906 8.01953 2.78906C5.25391 2.78906 3.05078 5.00391 3.05078 7.76953C3.05078 10.5352 5.25977 12.75 8.02539 12.75ZM8.01953 8.82422C7.72656 8.82422 7.5625 8.66016 7.55664 8.36133L7.48047 5.26172C7.47461 4.96289 7.69727 4.74609 8.01367 4.74609C8.32422 4.74609 8.55859 4.96875 8.55273 5.26758L8.46484 8.36133C8.45898 8.66602 8.29492 8.82422 8.01953 8.82422ZM8.01953 10.7285C7.67969 10.7285 7.38672 10.4531 7.38672 10.1191C7.38672 9.78516 7.67383 9.50977 8.01953 9.50977C8.35938 9.50977 8.64648 9.7793 8.64648 10.1191C8.64648 10.459 8.35352 10.7285 8.01953 10.7285Z" fill="#FF0000"/>
</g>
<defs>
<clipPath id="clip0_2363_4588">
<rect width="16" height="16" fill="white"/>
</clipPath>
</defs>
</svg>
