<svg width="26" height="48" viewBox="0 0 26 48" fill="none" xmlns="http://www.w3.org/2000/svg">
<path d="M22.8691 13.8209C21.6117 12.5636 19.8784 12.3195 17.6567 12.3195H8.5014C6.31634 12.3195 4.57073 12.5758 3.32562 13.8209C2.06829 15.0782 1.83636 16.7994 1.83636 18.9967V28.1398C1.83636 30.3737 2.06829 32.0948 3.31341 33.34C4.58294 34.5973 6.31634 34.8414 8.53802 34.8414H17.6567C19.8784 34.8414 21.6117 34.5973 22.8691 33.34C24.1264 32.0826 24.3583 30.3737 24.3583 28.1398V19.0211C24.3583 16.7994 24.1264 15.066 22.8691 13.8209ZM7.13421 23.5988C7.13421 22.8907 7.6347 22.3903 8.34271 22.3903H11.9072V18.8136C11.9072 18.1178 12.3954 17.6051 13.0912 17.6051C13.7992 17.6051 14.2997 18.1178 14.2997 18.8136V22.3903H17.8764C18.5722 22.3903 19.0727 22.8907 19.0727 23.5988C19.0727 24.2946 18.5722 24.7828 17.8764 24.7828H14.2997V28.3595C14.2997 29.0553 13.7992 29.5558 13.0912 29.5558C12.3954 29.5558 11.9072 29.0553 11.9072 28.3595V24.7828H8.34271C7.6347 24.7828 7.13421 24.2946 7.13421 23.5988Z" fill="black"/>
</svg>
