<svg width="48" height="48" viewBox="0 0 48 48" fill="none" xmlns="http://www.w3.org/2000/svg">
<path d="M13.8105 30.7378V18.8616C13.8105 16.4863 15.0154 15.3044 17.4136 15.3044H19.238C19.3069 12.8948 21.3953 10.8408 23.9885 10.8408C26.5818 10.8408 28.6816 12.8948 28.739 15.3044H30.575C32.9617 15.3044 34.178 16.4978 34.178 18.8616V30.7378C34.178 33.1016 32.9731 34.2949 30.9192 34.2949H17.4136C15.0154 34.2949 13.8105 33.113 13.8105 30.7378ZM21.0854 15.3044H26.8916C26.8457 13.8127 25.6064 12.585 23.9885 12.585C22.3706 12.585 21.1428 13.8127 21.0854 15.3044Z" fill="#1D1D1F"/>
</svg>
