<svg width="45" height="44" viewBox="0 0 45 44" fill="none" xmlns="http://www.w3.org/2000/svg">
<path d="M13.0693 27.8318V16.84C13.0693 14.6416 14.1844 13.5477 16.4041 13.5477H18.0927C18.1564 11.3175 20.0892 9.4165 22.4894 9.4165C24.8895 9.4165 26.833 11.3175 26.8861 13.5477H28.5853C30.7943 13.5477 31.92 14.6522 31.92 16.84V27.8318C31.92 30.0195 30.8049 31.124 28.9039 31.124H16.4041C14.1844 31.124 13.0693 30.0302 13.0693 27.8318ZM19.8025 13.5477H25.1763C25.1338 12.1671 23.9868 11.0308 22.4894 11.0308C20.9919 11.0308 19.8556 12.1671 19.8025 13.5477Z" fill="#1D1D1F"/>
</svg>
