<svg width="26" height="48" viewBox="0 0 26 48" fill="none" xmlns="http://www.w3.org/2000/svg">
<path d="M13.1034 35.8445C19.7245 35.8445 25.2089 30.3718 25.2089 23.739C25.2089 17.1179 19.7245 11.6335 13.0917 11.6335C6.47064 11.6335 0.997979 17.1179 0.997979 23.739C0.997979 30.3718 6.48235 35.8445 13.1034 35.8445ZM13.1034 25.6609C10.8066 25.6492 9.02532 23.7273 9.02532 21.196C9.0136 18.8054 10.8183 16.8132 13.1034 16.8132C15.3769 16.8132 17.1699 18.8054 17.1699 21.196C17.1699 23.7273 15.3886 25.6843 13.1034 25.6609ZM13.1034 33.864C10.4784 33.864 7.68939 32.7742 5.91985 30.864C7.25579 28.8484 9.93939 27.6882 13.1034 27.6882C16.2324 27.6882 18.9277 28.825 20.2753 30.864C18.5058 32.7742 15.7284 33.864 13.1034 33.864Z" fill="black"/>
</svg>
