<svg width="26" height="48" viewBox="0 0 26 48" fill="none" xmlns="http://www.w3.org/2000/svg">
<path d="M1.27539 32.0112L1.25293 29.4058C1.25293 29.0913 1.30908 28.8667 1.69092 28.6533L3.91455 27.3618C4.29639 27.1484 4.54346 27.2046 4.83545 27.3618L7.09277 28.6758C7.17139 28.7207 7.22754 28.7656 7.29492 28.8105L12.1353 26.3848V19.9497L10.1699 18.8267C9.87793 18.6582 9.70947 18.4785 9.70947 18.0181V15.48C9.70947 15.0308 9.8667 14.8623 10.1475 14.7051L12.416 13.4136C12.8091 13.189 13.1909 13.189 13.5952 13.4136L15.8638 14.7051C16.1558 14.8735 16.2905 15.0308 16.2905 15.48V18.0181C16.2905 18.4785 16.1558 18.647 15.8413 18.8267L13.9434 19.916V26.3848L18.75 28.7993C18.7949 28.7544 18.8511 28.7207 18.9072 28.687L21.1646 27.373C21.4565 27.2158 21.7036 27.1597 22.0854 27.373L24.3091 28.6646C24.6909 28.8779 24.7471 29.1025 24.7471 29.417L24.7246 32.0225C24.7246 32.4829 24.5337 32.8198 24.1294 33.0444L21.8833 34.3584C21.5913 34.5381 21.3892 34.5718 20.9961 34.3472L18.8062 33.0781C18.4019 32.8535 18.3232 32.6626 18.3345 32.292L18.3232 30.5962L13.0337 27.9346L7.67676 30.6299L7.66553 32.2808C7.67676 32.6514 7.59814 32.8423 7.19385 33.0669L5.00391 34.3359C4.61084 34.5605 4.40869 34.5269 4.1167 34.3472L1.87061 33.0332C1.46631 32.8086 1.27539 32.4717 1.27539 32.0112Z" fill="black"/>
</svg>
