<svg width="26" height="48" viewBox="0 0 26 48" fill="none" xmlns="http://www.w3.org/2000/svg">
<path d="M10.9736 14.0738L4.34728 19.4954C3.48484 20.201 3.05361 20.5538 2.74343 20.9887C2.46862 21.374 2.26437 21.8051 2.14018 22.2618C2 22.7772 2 23.3344 2 24.4487V32.2159C2 33.336 2 33.896 2.21799 34.3239C2.40973 34.7002 2.71569 35.0061 3.09202 35.1979C3.51984 35.4159 4.0799 35.4159 5.2 35.4159H7.6C8.44008 35.4159 8.86012 35.4159 9.18099 35.2524C9.46323 35.1086 9.6927 34.8791 9.83651 34.5969C10 34.276 10 33.856 10 33.0159V29.4159C10 27.759 11.3431 26.4159 13 26.4159C14.6569 26.4159 16 27.759 16 29.4159V33.0159C16 33.856 16 34.276 16.1635 34.5969C16.3073 34.8791 16.5368 35.1086 16.819 35.2524C17.1399 35.4159 17.5599 35.4159 18.4 35.4159H20.8C21.9201 35.4159 22.4802 35.4159 22.908 35.1979C23.2843 35.0061 23.5903 34.7002 23.782 34.3239C24 33.896 24 33.336 24 32.2159V24.4487C24 23.3344 24 22.7772 23.8598 22.2618C23.7356 21.8051 23.5314 21.374 23.2566 20.9887C22.9464 20.5538 22.5152 20.201 21.6527 19.4954L15.0264 14.0738C14.3044 13.4831 13.9435 13.1878 13.5417 13.0748C13.1875 12.9751 12.8125 12.9751 12.4583 13.0748C12.0565 13.1878 11.6956 13.4831 10.9736 14.0738Z" fill="black"/>
</svg>
