<svg width="44" height="44" viewBox="0 0 44 44" fill="none" xmlns="http://www.w3.org/2000/svg">
<path d="M14.021 16.355V27.645H23.0677M23.0677 27.645H27.5189C28.9987 27.645 30.2596 27.5221 30.9084 27.1196C31.5572 26.7171 32.218 25.9219 32.218 24.8601C32.218 23.1428 30.9411 22.3376 29.8617 22.0874C29.2201 21.9387 28.1472 21.9344 27.5189 21.9344C26.2274 21.9344 24.0184 21.9344 23.0677 21.9344V21.926C24.3616 21.926 27.0511 21.926 27.5189 21.926C27.7958 21.926 29.1179 21.8938 29.8617 21.5929C30.6054 21.292 31.6894 20.6078 31.6894 19.073C31.6894 17.6845 30.8317 16.9162 29.8617 16.5864C29.1812 16.355 27.9053 16.355 27.5189 16.355C26.5551 16.355 24.205 16.355 23.0677 16.355V27.645Z" stroke="black" stroke-width="2" stroke-linecap="square"/>
</svg>
