<svg width="48" height="48" viewBox="0 0 48 48" fill="none" xmlns="http://www.w3.org/2000/svg">
<path d="M15.0459 17.75V30.25H25.0622M25.0622 30.25H29.9904C31.6289 30.25 33.0249 30.114 33.7432 29.6683C34.4616 29.2227 35.1932 28.3422 35.1932 27.1666C35.1932 25.2653 33.7794 24.3738 32.5843 24.0968C31.874 23.9322 30.6861 23.9274 29.9904 23.9274C28.5605 23.9274 26.1148 23.9274 25.0622 23.9274V23.9181C26.4948 23.9181 29.4725 23.9181 29.9904 23.9181C30.297 23.9181 31.7608 23.8825 32.5843 23.5493C33.4077 23.2161 34.6079 22.4586 34.6079 20.7593C34.6079 19.222 33.6583 18.3713 32.5843 18.0062C31.8309 17.75 30.4182 17.75 29.9904 17.75C28.9233 17.75 26.3213 17.75 25.0622 17.75V30.25Z" stroke="white" stroke-width="2.1" stroke-linecap="square"/>
</svg>
