<svg width="26" height="48" viewBox="0 0 26 48" fill="none" xmlns="http://www.w3.org/2000/svg">
<path d="M4.68335 35.8013C6.02368 35.8013 9.24268 34.384 11.2202 32.9888C11.429 32.835 11.6047 32.78 11.7805 32.791C11.9124 32.791 12.0442 32.802 12.165 32.802C20.0972 32.802 25.7222 28.4514 25.7222 22.5737C25.7222 16.9048 20.0642 12.3455 13 12.3455C5.93579 12.3455 0.277832 16.9048 0.277832 22.5737C0.277832 26.1113 2.40918 29.2644 6.00171 31.209C6.21045 31.3188 6.26538 31.4836 6.15552 31.6814C5.51831 32.7361 4.45264 33.9336 4.01318 34.4939C3.52979 35.1091 3.80444 35.8013 4.68335 35.8013Z" fill="black"/>
</svg>
