<svg width="26" height="48" viewBox="0 0 26 48" fill="none" xmlns="http://www.w3.org/2000/svg">
<path d="M13 35.3467C6.74463 35.3467 1.54492 30.147 1.54492 23.8916C1.54492 17.625 6.7334 12.4365 12.9888 12.4365C19.2554 12.4365 24.4551 17.625 24.4551 23.8916C24.4551 30.147 19.2666 35.3467 13 35.3467ZM13.0112 29.6865C13.5278 29.6865 13.8872 29.3271 13.8872 28.8105V23.0493L13.7861 20.5786L14.9653 21.9824L16.3242 23.3638C16.4814 23.5322 16.6948 23.6221 16.9419 23.6221C17.4248 23.6221 17.7954 23.2515 17.7954 22.7798C17.7954 22.5327 17.7056 22.3306 17.5483 22.1733L13.6963 18.3213C13.4717 18.0967 13.2695 17.9956 13.0112 17.9956C12.7642 17.9956 12.5732 18.0854 12.3374 18.3213L8.47412 22.1733C8.31689 22.3306 8.24951 22.5327 8.24951 22.7798C8.24951 23.2515 8.60889 23.6221 9.0918 23.6221C9.32764 23.6221 9.55225 23.521 9.70947 23.3638L11.0796 21.9824L12.2363 20.5898L12.1353 23.0493V28.8105C12.1353 29.3271 12.5059 29.6865 13.0112 29.6865Z" fill="black"/>
</svg>
