<svg width="26" height="48" viewBox="0 0 26 48" fill="none" xmlns="http://www.w3.org/2000/svg">
<path d="M13 35.8445C19.6211 35.8445 25.1055 30.3718 25.1055 23.739C25.1055 17.1179 19.6211 11.6335 12.9883 11.6335C6.36719 11.6335 0.894531 17.1179 0.894531 23.739C0.894531 30.3718 6.37891 35.8445 13 35.8445Z" fill="black"/>
<path fill-rule="evenodd" clip-rule="evenodd" d="M12.7345 19.285H16.6025C16.7422 19.285 17.0557 19.285 17.3998 19.307C17.7274 19.328 18.1556 19.3724 18.492 19.4868C18.9303 19.6359 19.376 19.8947 19.7154 20.306C20.0623 20.7265 20.2667 21.2694 20.2667 21.9182C20.2667 22.8136 19.8821 23.4127 19.4379 23.8058C20.0852 24.2208 20.6427 24.9271 20.6427 26.0343C20.6427 27.0971 19.985 27.8611 19.3802 28.2362C19.0237 28.4574 18.5671 28.5671 18.1241 28.6289C17.6652 28.6929 17.1418 28.7151 16.6004 28.7151H6.29993V19.285H7.69993V27.3151H12.7345V19.285ZM14.1345 24.6534V27.3151H16.6004C17.1114 27.3151 17.5627 27.2936 17.9308 27.2423C18.3146 27.1888 18.5372 27.1117 18.6422 27.0466C18.9604 26.8492 19.2427 26.4819 19.2427 26.0343C19.2427 25.2721 18.7107 24.8837 18.1086 24.7442C17.7478 24.6605 17.0767 24.6534 16.6004 24.6534H14.1345ZM14.1345 23.2474V20.685H16.6004C16.7366 20.685 17.0129 20.6852 17.3104 20.7042C17.6263 20.7244 17.8938 20.7622 18.0414 20.8123C18.293 20.8979 18.4973 21.0295 18.6355 21.197C18.766 21.3553 18.8667 21.5794 18.8667 21.9182C18.8667 22.58 18.4351 22.8873 18.0041 23.0616C17.8373 23.1291 17.5537 23.1814 17.2396 23.2127C16.9416 23.2424 16.681 23.2474 16.6004 23.2474H14.1345Z" fill="white"/>
</svg>
